ISO-10303-21;
HEADER;
/* Generated by software containing ST-Developer
 * from STEP Tools, Inc. (www.steptools.com) 
 */
/* OPTION: using custom renumber hook */

FILE_DESCRIPTION(
/* description */ ('STEP AP214'),
/* implementation_level */ '2;1');

FILE_NAME(
/* name */ 
'Clamping lever with eccentrical cam with internal thread GN 927-44-M4
-A-B (clamped)',
/* time_stamp */ '2025-12-17T12:34:39+01:00',
/* author */ ('License CC BY-ND 4.0'),
/* organization */ ('CADENAS'),
/* preprocessor_version */ 'ST-DEVELOPER v20',
/* originating_system */ 'PARTsolutions',
/* authorisation */ '  ');

FILE_SCHEMA (('AUTOMOTIVE_DESIGN {1 0 10303 214 3 1 1}'));
ENDSEC;

DATA;
#10=PROPERTY_DEFINITION_REPRESENTATION(#14,#12);
#11=PROPERTY_DEFINITION_REPRESENTATION(#15,#13);
#12=REPRESENTATION('',(#16),#1933);
#13=REPRESENTATION('',(#17),#1933);
#14=PROPERTY_DEFINITION('pmi validation property','',#1944);
#15=PROPERTY_DEFINITION('pmi validation property','',#1944);
#16=VALUE_REPRESENTATION_ITEM('number of annotations',COUNT_MEASURE(0.));
#17=VALUE_REPRESENTATION_ITEM('number of views',COUNT_MEASURE(0.));
#18=SPHERICAL_SURFACE('',#1199,4.);
#19=CONTEXT_DEPENDENT_SHAPE_REPRESENTATION(#25,#1946);
#20=CONTEXT_DEPENDENT_SHAPE_REPRESENTATION(#26,#1948);
#21=CONTEXT_DEPENDENT_SHAPE_REPRESENTATION(#27,#1950);
#22=NEXT_ASSEMBLY_USAGE_OCCURRENCE('NAUO1',
'Clamping lever with eccentrical cam with internal thread GN 927-44-M4
-A-B (clamped)_a',
'Clamping lever with eccentrical cam with internal thread GN 927-44-M4
-A-B (clamped)_a',#1951,#1952,'');
#23=NEXT_ASSEMBLY_USAGE_OCCURRENCE('NAUO2',
'Clamping lever with eccentrical cam with internal thread GN 927-44-M4
-A-B (clamped)_s',
'Clamping lever with eccentrical cam with internal thread GN 927-44-M4
-A-B (clamped)_s',#1951,#1953,'');
#24=NEXT_ASSEMBLY_USAGE_OCCURRENCE('NAUO3',
'Clamping lever with eccentrical cam with internal thread GN 927-44-M4
-A-B (clamped)_h',
'Clamping lever with eccentrical cam with internal thread GN 927-44-M4
-A-B (clamped)_h',#1951,#1954,'');
#25=(
REPRESENTATION_RELATIONSHIP(' ',' ',#1141,#1140)
REPRESENTATION_RELATIONSHIP_WITH_TRANSFORMATION(#28)
SHAPE_REPRESENTATION_RELATIONSHIP()
);
#26=(
REPRESENTATION_RELATIONSHIP(' ',' ',#1142,#1140)
REPRESENTATION_RELATIONSHIP_WITH_TRANSFORMATION(#29)
SHAPE_REPRESENTATION_RELATIONSHIP()
);
#27=(
REPRESENTATION_RELATIONSHIP(' ',' ',#1143,#1140)
REPRESENTATION_RELATIONSHIP_WITH_TRANSFORMATION(#30)
SHAPE_REPRESENTATION_RELATIONSHIP()
);
#28=ITEM_DEFINED_TRANSFORMATION(' ',' ',#1144,#1188);
#29=ITEM_DEFINED_TRANSFORMATION(' ',' ',#1144,#1222);
#30=ITEM_DEFINED_TRANSFORMATION(' ',' ',#1144,#1275);
#31=SHAPE_REPRESENTATION_RELATIONSHIP('','',#1141,#34);
#32=SHAPE_REPRESENTATION_RELATIONSHIP('','',#1142,#35);
#33=SHAPE_REPRESENTATION_RELATIONSHIP('','',#1143,#36);
#34=ADVANCED_BREP_SHAPE_REPRESENTATION('',(#1133),#1934);
#35=ADVANCED_BREP_SHAPE_REPRESENTATION('',(#1134),#1935);
#36=ADVANCED_BREP_SHAPE_REPRESENTATION('',(#1135),#1936);
#37=CONICAL_SURFACE('',#1159,5.9,0.785398163397448);
#38=CONICAL_SURFACE('',#1160,5.9,0.785398163397448);
#39=CONICAL_SURFACE('',#1167,7.,0.785398163397448);
#40=CONICAL_SURFACE('',#1171,7.5,0.785398163397448);
#41=CONICAL_SURFACE('',#1175,6.425,0.785398163397448);
#42=CONICAL_SURFACE('',#1179,6.5,0.785398163397448);
#43=CONICAL_SURFACE('',#1195,4.,0.515549007458979);
#44=CONICAL_SURFACE('',#1210,1.621,0.785398163397448);
#45=CONICAL_SURFACE('',#1214,2.5,0.785398163397448);
#46=CONICAL_SURFACE('',#1221,2.2,0.785398163397448);
#47=CONICAL_SURFACE('',#1268,2.5,0.785398163397448);
#48=CONICAL_SURFACE('',#1271,2.8,0.785398163397448);
#49=B_SPLINE_CURVE_WITH_KNOTS('',3,(#1601,#1602,#1603,#1604),
 .UNSPECIFIED.,.F.,.F.,(4,4),(0.,0.00117089243166376),.UNSPECIFIED.);
#50=B_SPLINE_CURVE_WITH_KNOTS('',3,(#1612,#1613,#1614,#1615),
 .UNSPECIFIED.,.F.,.F.,(4,4),(0.00902020233320389,0.0101868166353279),
 .UNSPECIFIED.);
#51=B_SPLINE_CURVE_WITH_KNOTS('',3,(#1616,#1617,#1618,#1619),
 .UNSPECIFIED.,.F.,.F.,(4,4),(0.,0.00117089243166375),.UNSPECIFIED.);
#52=B_SPLINE_CURVE_WITH_KNOTS('',3,(#1627,#1628,#1629,#1630),
 .UNSPECIFIED.,.F.,.F.,(4,4),(0.00902020233320389,0.0101868166353279),
 .UNSPECIFIED.);
#53=B_SPLINE_CURVE_WITH_KNOTS('',3,(#1632,#1633,#1634,#1635,#1636,#1637,
#1638),.UNSPECIFIED.,.F.,.F.,(4,1,1,1,4),(3.90312782094782E-18,0.00184205814659801,
0.00368411629319602,0.00552617443979402,0.00736823258639203),
 .UNSPECIFIED.);
#54=B_SPLINE_CURVE_WITH_KNOTS('',3,(#1643,#1644,#1645,#1646,#1647,#1648,
#1649),.UNSPECIFIED.,.F.,.F.,(4,1,1,1,4),(3.90312782094782E-18,0.00184205814659801,
0.00368411629319602,0.00552617443979402,0.00736823258639203),
 .UNSPECIFIED.);
#55=B_SPLINE_CURVE_WITH_KNOTS('',3,(#1655,#1656,#1657,#1658),
 .UNSPECIFIED.,.F.,.F.,(4,4),(0.000156109188877759,0.00162499035679647),
 .UNSPECIFIED.);
#56=B_SPLINE_CURVE_WITH_KNOTS('',3,(#1659,#1660,#1661,#1662),
 .UNSPECIFIED.,.F.,.F.,(4,4),(-0.00899846478205547,-0.0075286762840166),
 .UNSPECIFIED.);
#57=B_SPLINE_CURVE_WITH_KNOTS('',3,(#1664,#1665,#1666,#1667),
 .UNSPECIFIED.,.F.,.F.,(4,4),(-0.00902116178389302,-0.00754507178915858),
 .UNSPECIFIED.);
#58=B_SPLINE_CURVE_WITH_KNOTS('',3,(#1668,#1669,#1670,#1671),
 .UNSPECIFIED.,.F.,.F.,(4,4),(0.000156109188877759,0.00162499035679647),
 .UNSPECIFIED.);
#59=B_SPLINE_CURVE_WITH_KNOTS('',3,(#1752,#1753,#1754,#1755,#1756,#1757,
#1758,#1759,#1760,#1761,#1762,#1763,#1764,#1765,#1766,#1767,#1768,#1769,
#1770),.UNSPECIFIED.,.T.,.F.,(1,1,1,1,1,1,1,1,1,1,1,1,1,1,1,1,1,1,1,1,1,
1,1),(-0.0019562591283486,-0.0013041727522324,-0.000652086376116199,0.,
0.000652086376116199,0.0013041727522324,0.0019562591283486,0.00260834550446479,
0.00326043188058099,0.00391251825669719,0.00456460463281339,0.00521669100892959,
0.00586877738504579,0.00652086376116199,0.00717295013727818,0.00782503651339438,
0.00847712288951058,0.00912920926562678,0.00978129564174298,0.0104333820178592,
0.0110854683939754,0.0117375547700916,0.0123896411462078),.UNSPECIFIED.);
#60=B_SPLINE_CURVE_WITH_KNOTS('',3,(#1790,#1791,#1792,#1793,#1794),
 .UNSPECIFIED.,.F.,.F.,(4,1,4),(9.69739903612216E-19,0.00189281758345566,
0.00378563516691132),.UNSPECIFIED.);
#61=B_SPLINE_CURVE_WITH_KNOTS('',3,(#1797,#1798,#1799,#1800,#1801),
 .UNSPECIFIED.,.F.,.F.,(4,1,4),(8.67361737988404E-19,0.0039393946575022,
0.00787878931500439),.UNSPECIFIED.);
#62=B_SPLINE_CURVE_WITH_KNOTS('',3,(#1803,#1804,#1805,#1806,#1807),
 .UNSPECIFIED.,.F.,.F.,(4,1,4),(1.73472347597681E-18,0.00189284847516693,
0.00378569695033385),.UNSPECIFIED.);
#63=B_SPLINE_CURVE_WITH_KNOTS('',3,(#1880,#1881,#1882,#1883,#1884,#1885,
#1886),.UNSPECIFIED.,.F.,.F.,(4,1,1,1,4),(6.1331736667335E-19,0.0017223580520604,
0.00344471610412081,0.00516707415618121,0.00688943220824162),
 .UNSPECIFIED.);
#64=B_SPLINE_CURVE_WITH_KNOTS('',3,(#1896,#1897,#1898,#1899,#1900),
 .UNSPECIFIED.,.F.,.F.,(4,1,4),(0.,0.00326692489289196,0.00653384978578392),
 .UNSPECIFIED.);
#65=CYLINDRICAL_SURFACE('',#1151,4.5);
#66=CYLINDRICAL_SURFACE('',#1155,5.9);
#67=CYLINDRICAL_SURFACE('',#1163,3.25);
#68=CYLINDRICAL_SURFACE('',#1169,7.5);
#69=CYLINDRICAL_SURFACE('',#1177,6.125);
#70=CYLINDRICAL_SURFACE('',#1186,6.);
#71=CYLINDRICAL_SURFACE('',#1187,6.);
#72=CYLINDRICAL_SURFACE('',#1189,4.);
#73=CYLINDRICAL_SURFACE('',#1208,1.621);
#74=CYLINDRICAL_SURFACE('',#1211,2.5);
#75=CYLINDRICAL_SURFACE('',#1216,2.5);
#76=CYLINDRICAL_SURFACE('',#1217,2.5);
#77=CYLINDRICAL_SURFACE('',#1223,14.1779999999998);
#78=CYLINDRICAL_SURFACE('',#1250,6.);
#79=CYLINDRICAL_SURFACE('',#1253,78.5444000000036);
#80=CYLINDRICAL_SURFACE('',#1256,4.05);
#81=CYLINDRICAL_SURFACE('',#1257,390.883999999972);
#82=CYLINDRICAL_SURFACE('',#1258,1.97999999999998);
#83=CYLINDRICAL_SURFACE('',#1259,5.);
#84=CYLINDRICAL_SURFACE('',#1260,399.901199999921);
#85=CYLINDRICAL_SURFACE('',#1263,4.5);
#86=CYLINDRICAL_SURFACE('',#1266,2.5);
#87=CYLINDRICAL_SURFACE('',#1269,2.5);
#88=CYLINDRICAL_SURFACE('',#1272,13.);
#89=CYLINDRICAL_SURFACE('',#1273,3.);
#90=CYLINDRICAL_SURFACE('',#1274,3.);
#91=LINE('',#1584,#130);
#92=LINE('',#1588,#131);
#93=LINE('',#1593,#132);
#94=LINE('',#1597,#133);
#95=LINE('',#1606,#134);
#96=LINE('',#1610,#135);
#97=LINE('',#1621,#136);
#98=LINE('',#1625,#137);
#99=LINE('',#1701,#138);
#100=LINE('',#1705,#139);
#101=LINE('',#1717,#140);
#102=LINE('',#1721,#141);
#103=LINE('',#1725,#142);
#104=LINE('',#1729,#143);
#105=LINE('',#1742,#144);
#106=LINE('',#1745,#145);
#107=LINE('',#1811,#146);
#108=LINE('',#1818,#147);
#109=LINE('',#1820,#148);
#110=LINE('',#1822,#149);
#111=LINE('',#1832,#150);
#112=LINE('',#1839,#151);
#113=LINE('',#1851,#152);
#114=LINE('',#1860,#153);
#115=LINE('',#1866,#154);
#116=LINE('',#1869,#155);
#117=LINE('',#1870,#156);
#118=LINE('',#1872,#157);
#119=LINE('',#1875,#158);
#120=LINE('',#1876,#159);
#121=LINE('',#1889,#160);
#122=LINE('',#1893,#161);
#123=LINE('',#1902,#162);
#124=LINE('',#1904,#163);
#125=LINE('',#1907,#164);
#126=LINE('',#1912,#165);
#127=LINE('',#1914,#166);
#128=LINE('',#1927,#167);
#129=LINE('',#1928,#168);
#130=VECTOR('',#1282,1000.);
#131=VECTOR('',#1285,1000.);
#132=VECTOR('',#1290,1000.);
#133=VECTOR('',#1293,1000.);
#134=VECTOR('',#1298,1000.);
#135=VECTOR('',#1301,1000.);
#136=VECTOR('',#1302,1000.);
#137=VECTOR('',#1305,1000.);
#138=VECTOR('',#1358,1000.);
#139=VECTOR('',#1365,1000.);
#140=VECTOR('',#1382,1000.);
#141=VECTOR('',#1385,1000.);
#142=VECTOR('',#1388,1000.);
#143=VECTOR('',#1391,1000.);
#144=VECTOR('',#1410,1000.);
#145=VECTOR('',#1415,1000.);
#146=VECTOR('',#1454,1000.);
#147=VECTOR('',#1461,1000.);
#148=VECTOR('',#1462,1000.);
#149=VECTOR('',#1463,1000.);
#150=VECTOR('',#1474,1000.);
#151=VECTOR('',#1481,1000.);
#152=VECTOR('',#1494,1000.);
#153=VECTOR('',#1503,1000.);
#154=VECTOR('',#1510,1000.);
#155=VECTOR('',#1511,1000.);
#156=VECTOR('',#1512,1000.);
#157=VECTOR('',#1515,1000.);
#158=VECTOR('',#1516,1000.);
#159=VECTOR('',#1517,1000.);
#160=VECTOR('',#1524,1000.);
#161=VECTOR('',#1529,1000.);
#162=VECTOR('',#1534,1000.);
#163=VECTOR('',#1537,1000.);
#164=VECTOR('',#1542,1000.);
#165=VECTOR('',#1549,1000.);
#166=VECTOR('',#1552,1000.);
#167=VECTOR('',#1571,1000.);
#168=VECTOR('',#1572,1000.);
#169=ORIENTED_EDGE('',*,*,#411,.F.);
#170=ORIENTED_EDGE('',*,*,#412,.T.);
#171=ORIENTED_EDGE('',*,*,#413,.T.);
#172=ORIENTED_EDGE('',*,*,#414,.T.);
#173=ORIENTED_EDGE('',*,*,#415,.F.);
#174=ORIENTED_EDGE('',*,*,#416,.T.);
#175=ORIENTED_EDGE('',*,*,#417,.T.);
#176=ORIENTED_EDGE('',*,*,#418,.T.);
#177=ORIENTED_EDGE('',*,*,#419,.T.);
#178=ORIENTED_EDGE('',*,*,#417,.F.);
#179=ORIENTED_EDGE('',*,*,#420,.T.);
#180=ORIENTED_EDGE('',*,*,#421,.T.);
#181=ORIENTED_EDGE('',*,*,#422,.T.);
#182=ORIENTED_EDGE('',*,*,#423,.F.);
#183=ORIENTED_EDGE('',*,*,#424,.T.);
#184=ORIENTED_EDGE('',*,*,#413,.F.);
#185=ORIENTED_EDGE('',*,*,#425,.T.);
#186=ORIENTED_EDGE('',*,*,#426,.T.);
#187=ORIENTED_EDGE('',*,*,#427,.T.);
#188=ORIENTED_EDGE('',*,*,#428,.F.);
#189=ORIENTED_EDGE('',*,*,#429,.T.);
#190=ORIENTED_EDGE('',*,*,#430,.T.);
#191=ORIENTED_EDGE('',*,*,#431,.T.);
#192=ORIENTED_EDGE('',*,*,#432,.T.);
#193=ORIENTED_EDGE('',*,*,#433,.T.);
#194=ORIENTED_EDGE('',*,*,#434,.F.);
#195=ORIENTED_EDGE('',*,*,#411,.T.);
#196=ORIENTED_EDGE('',*,*,#435,.T.);
#197=ORIENTED_EDGE('',*,*,#431,.F.);
#198=ORIENTED_EDGE('',*,*,#436,.T.);
#199=ORIENTED_EDGE('',*,*,#433,.F.);
#200=ORIENTED_EDGE('',*,*,#437,.T.);
#201=ORIENTED_EDGE('',*,*,#415,.T.);
#202=ORIENTED_EDGE('',*,*,#438,.T.);
#203=ORIENTED_EDGE('',*,*,#439,.T.);
#204=ORIENTED_EDGE('',*,*,#419,.F.);
#205=ORIENTED_EDGE('',*,*,#440,.T.);
#206=ORIENTED_EDGE('',*,*,#439,.F.);
#207=ORIENTED_EDGE('',*,*,#441,.T.);
#208=ORIENTED_EDGE('',*,*,#440,.F.);
#209=ORIENTED_EDGE('',*,*,#442,.T.);
#210=ORIENTED_EDGE('',*,*,#441,.F.);
#211=ORIENTED_EDGE('',*,*,#443,.T.);
#212=ORIENTED_EDGE('',*,*,#442,.F.);
#213=ORIENTED_EDGE('',*,*,#444,.T.);
#214=ORIENTED_EDGE('',*,*,#443,.F.);
#215=ORIENTED_EDGE('',*,*,#445,.T.);
#216=ORIENTED_EDGE('',*,*,#444,.F.);
#217=ORIENTED_EDGE('',*,*,#446,.T.);
#218=ORIENTED_EDGE('',*,*,#445,.F.);
#219=ORIENTED_EDGE('',*,*,#447,.T.);
#220=ORIENTED_EDGE('',*,*,#446,.F.);
#221=ORIENTED_EDGE('',*,*,#434,.T.);
#222=ORIENTED_EDGE('',*,*,#447,.F.);
#223=ORIENTED_EDGE('',*,*,#422,.F.);
#224=ORIENTED_EDGE('',*,*,#448,.T.);
#225=ORIENTED_EDGE('',*,*,#421,.F.);
#226=ORIENTED_EDGE('',*,*,#449,.T.);
#227=ORIENTED_EDGE('',*,*,#423,.T.);
#228=ORIENTED_EDGE('',*,*,#448,.F.);
#229=ORIENTED_EDGE('',*,*,#427,.F.);
#230=ORIENTED_EDGE('',*,*,#450,.T.);
#231=ORIENTED_EDGE('',*,*,#426,.F.);
#232=ORIENTED_EDGE('',*,*,#451,.T.);
#233=ORIENTED_EDGE('',*,*,#428,.T.);
#234=ORIENTED_EDGE('',*,*,#450,.F.);
#235=ORIENTED_EDGE('',*,*,#438,.F.);
#236=ORIENTED_EDGE('',*,*,#418,.F.);
#237=ORIENTED_EDGE('',*,*,#429,.F.);
#238=ORIENTED_EDGE('',*,*,#451,.F.);
#239=ORIENTED_EDGE('',*,*,#425,.F.);
#240=ORIENTED_EDGE('',*,*,#412,.F.);
#241=ORIENTED_EDGE('',*,*,#436,.F.);
#242=ORIENTED_EDGE('',*,*,#430,.F.);
#243=ORIENTED_EDGE('',*,*,#435,.F.);
#244=ORIENTED_EDGE('',*,*,#414,.F.);
#245=ORIENTED_EDGE('',*,*,#424,.F.);
#246=ORIENTED_EDGE('',*,*,#449,.F.);
#247=ORIENTED_EDGE('',*,*,#420,.F.);
#248=ORIENTED_EDGE('',*,*,#416,.F.);
#249=ORIENTED_EDGE('',*,*,#437,.F.);
#250=ORIENTED_EDGE('',*,*,#432,.F.);
#251=ORIENTED_EDGE('',*,*,#452,.F.);
#252=ORIENTED_EDGE('',*,*,#453,.T.);
#253=ORIENTED_EDGE('',*,*,#454,.T.);
#254=ORIENTED_EDGE('',*,*,#455,.F.);
#255=ORIENTED_EDGE('',*,*,#456,.T.);
#256=ORIENTED_EDGE('',*,*,#457,.T.);
#257=ORIENTED_EDGE('',*,*,#458,.T.);
#258=ORIENTED_EDGE('',*,*,#459,.F.);
#259=ORIENTED_EDGE('',*,*,#460,.T.);
#260=ORIENTED_EDGE('',*,*,#461,.F.);
#261=ORIENTED_EDGE('',*,*,#452,.T.);
#262=ORIENTED_EDGE('',*,*,#462,.F.);
#263=ORIENTED_EDGE('',*,*,#461,.T.);
#264=ORIENTED_EDGE('',*,*,#463,.F.);
#265=ORIENTED_EDGE('',*,*,#453,.F.);
#266=ORIENTED_EDGE('',*,*,#464,.F.);
#267=ORIENTED_EDGE('',*,*,#457,.F.);
#268=ORIENTED_EDGE('',*,*,#465,.F.);
#269=ORIENTED_EDGE('',*,*,#464,.T.);
#270=ORIENTED_EDGE('',*,*,#460,.F.);
#271=ORIENTED_EDGE('',*,*,#466,.T.);
#272=ORIENTED_EDGE('',*,*,#458,.F.);
#273=ORIENTED_EDGE('',*,*,#459,.T.);
#274=ORIENTED_EDGE('',*,*,#466,.F.);
#275=ORIENTED_EDGE('',*,*,#467,.F.);
#276=ORIENTED_EDGE('',*,*,#455,.T.);
#277=ORIENTED_EDGE('',*,*,#468,.F.);
#278=ORIENTED_EDGE('',*,*,#463,.T.);
#279=ORIENTED_EDGE('',*,*,#456,.F.);
#280=ORIENTED_EDGE('',*,*,#467,.T.);
#281=ORIENTED_EDGE('',*,*,#454,.F.);
#282=ORIENTED_EDGE('',*,*,#469,.T.);
#283=ORIENTED_EDGE('',*,*,#470,.F.);
#284=ORIENTED_EDGE('',*,*,#462,.T.);
#285=ORIENTED_EDGE('',*,*,#469,.F.);
#286=ORIENTED_EDGE('',*,*,#470,.T.);
#287=ORIENTED_EDGE('',*,*,#471,.T.);
#288=ORIENTED_EDGE('',*,*,#471,.F.);
#289=ORIENTED_EDGE('',*,*,#472,.T.);
#290=ORIENTED_EDGE('',*,*,#472,.F.);
#291=ORIENTED_EDGE('',*,*,#468,.T.);
#292=ORIENTED_EDGE('',*,*,#465,.T.);
#293=ORIENTED_EDGE('',*,*,#473,.T.);
#294=ORIENTED_EDGE('',*,*,#474,.F.);
#295=ORIENTED_EDGE('',*,*,#473,.F.);
#296=ORIENTED_EDGE('',*,*,#474,.T.);
#297=ORIENTED_EDGE('',*,*,#475,.F.);
#298=ORIENTED_EDGE('',*,*,#476,.F.);
#299=ORIENTED_EDGE('',*,*,#477,.F.);
#300=ORIENTED_EDGE('',*,*,#478,.F.);
#301=ORIENTED_EDGE('',*,*,#479,.T.);
#302=ORIENTED_EDGE('',*,*,#480,.T.);
#303=ORIENTED_EDGE('',*,*,#481,.T.);
#304=ORIENTED_EDGE('',*,*,#482,.T.);
#305=ORIENTED_EDGE('',*,*,#483,.F.);
#306=ORIENTED_EDGE('',*,*,#484,.F.);
#307=ORIENTED_EDGE('',*,*,#485,.T.);
#308=ORIENTED_EDGE('',*,*,#486,.T.);
#309=ORIENTED_EDGE('',*,*,#487,.F.);
#310=ORIENTED_EDGE('',*,*,#488,.F.);
#311=ORIENTED_EDGE('',*,*,#478,.T.);
#312=ORIENTED_EDGE('',*,*,#489,.T.);
#313=ORIENTED_EDGE('',*,*,#484,.T.);
#314=ORIENTED_EDGE('',*,*,#490,.T.);
#315=ORIENTED_EDGE('',*,*,#491,.T.);
#316=ORIENTED_EDGE('',*,*,#492,.T.);
#317=ORIENTED_EDGE('',*,*,#493,.T.);
#318=ORIENTED_EDGE('',*,*,#494,.T.);
#319=ORIENTED_EDGE('',*,*,#495,.F.);
#320=ORIENTED_EDGE('',*,*,#496,.T.);
#321=ORIENTED_EDGE('',*,*,#497,.F.);
#322=ORIENTED_EDGE('',*,*,#498,.F.);
#323=ORIENTED_EDGE('',*,*,#482,.F.);
#324=ORIENTED_EDGE('',*,*,#499,.F.);
#325=ORIENTED_EDGE('',*,*,#480,.F.);
#326=ORIENTED_EDGE('',*,*,#500,.T.);
#327=ORIENTED_EDGE('',*,*,#501,.T.);
#328=ORIENTED_EDGE('',*,*,#502,.T.);
#329=ORIENTED_EDGE('',*,*,#503,.F.);
#330=ORIENTED_EDGE('',*,*,#504,.F.);
#331=ORIENTED_EDGE('',*,*,#505,.F.);
#332=ORIENTED_EDGE('',*,*,#506,.F.);
#333=ORIENTED_EDGE('',*,*,#507,.F.);
#334=ORIENTED_EDGE('',*,*,#508,.F.);
#335=ORIENTED_EDGE('',*,*,#493,.F.);
#336=ORIENTED_EDGE('',*,*,#509,.T.);
#337=ORIENTED_EDGE('',*,*,#510,.F.);
#338=ORIENTED_EDGE('',*,*,#511,.T.);
#339=ORIENTED_EDGE('',*,*,#504,.T.);
#340=ORIENTED_EDGE('',*,*,#512,.F.);
#341=ORIENTED_EDGE('',*,*,#513,.F.);
#342=ORIENTED_EDGE('',*,*,#514,.F.);
#343=ORIENTED_EDGE('',*,*,#515,.F.);
#344=ORIENTED_EDGE('',*,*,#512,.T.);
#345=ORIENTED_EDGE('',*,*,#503,.T.);
#346=ORIENTED_EDGE('',*,*,#516,.F.);
#347=ORIENTED_EDGE('',*,*,#494,.F.);
#348=ORIENTED_EDGE('',*,*,#508,.T.);
#349=ORIENTED_EDGE('',*,*,#517,.F.);
#350=ORIENTED_EDGE('',*,*,#509,.F.);
#351=ORIENTED_EDGE('',*,*,#492,.F.);
#352=ORIENTED_EDGE('',*,*,#518,.T.);
#353=ORIENTED_EDGE('',*,*,#505,.T.);
#354=ORIENTED_EDGE('',*,*,#511,.F.);
#355=ORIENTED_EDGE('',*,*,#519,.F.);
#356=ORIENTED_EDGE('',*,*,#520,.F.);
#357=ORIENTED_EDGE('',*,*,#502,.F.);
#358=ORIENTED_EDGE('',*,*,#521,.F.);
#359=ORIENTED_EDGE('',*,*,#495,.T.);
#360=ORIENTED_EDGE('',*,*,#516,.T.);
#361=ORIENTED_EDGE('',*,*,#501,.F.);
#362=ORIENTED_EDGE('',*,*,#522,.F.);
#363=ORIENTED_EDGE('',*,*,#487,.T.);
#364=ORIENTED_EDGE('',*,*,#521,.T.);
#365=ORIENTED_EDGE('',*,*,#500,.F.);
#366=ORIENTED_EDGE('',*,*,#479,.F.);
#367=ORIENTED_EDGE('',*,*,#488,.T.);
#368=ORIENTED_EDGE('',*,*,#522,.T.);
#369=ORIENTED_EDGE('',*,*,#498,.T.);
#370=ORIENTED_EDGE('',*,*,#523,.F.);
#371=ORIENTED_EDGE('',*,*,#490,.F.);
#372=ORIENTED_EDGE('',*,*,#483,.T.);
#373=ORIENTED_EDGE('',*,*,#506,.T.);
#374=ORIENTED_EDGE('',*,*,#518,.F.);
#375=ORIENTED_EDGE('',*,*,#491,.F.);
#376=ORIENTED_EDGE('',*,*,#523,.T.);
#377=ORIENTED_EDGE('',*,*,#524,.T.);
#378=ORIENTED_EDGE('',*,*,#513,.T.);
#379=ORIENTED_EDGE('',*,*,#507,.T.);
#380=ORIENTED_EDGE('',*,*,#517,.T.);
#381=ORIENTED_EDGE('',*,*,#525,.T.);
#382=ORIENTED_EDGE('',*,*,#514,.T.);
#383=ORIENTED_EDGE('',*,*,#525,.F.);
#384=ORIENTED_EDGE('',*,*,#520,.T.);
#385=ORIENTED_EDGE('',*,*,#526,.T.);
#386=ORIENTED_EDGE('',*,*,#527,.T.);
#387=ORIENTED_EDGE('',*,*,#515,.T.);
#388=ORIENTED_EDGE('',*,*,#526,.F.);
#389=ORIENTED_EDGE('',*,*,#519,.T.);
#390=ORIENTED_EDGE('',*,*,#510,.T.);
#391=ORIENTED_EDGE('',*,*,#528,.T.);
#392=ORIENTED_EDGE('',*,*,#527,.F.);
#393=ORIENTED_EDGE('',*,*,#497,.T.);
#394=ORIENTED_EDGE('',*,*,#528,.F.);
#395=ORIENTED_EDGE('',*,*,#524,.F.);
#396=ORIENTED_EDGE('',*,*,#529,.F.);
#397=ORIENTED_EDGE('',*,*,#529,.T.);
#398=ORIENTED_EDGE('',*,*,#496,.F.);
#399=ORIENTED_EDGE('',*,*,#476,.T.);
#400=ORIENTED_EDGE('',*,*,#530,.T.);
#401=ORIENTED_EDGE('',*,*,#486,.F.);
#402=ORIENTED_EDGE('',*,*,#531,.F.);
#403=ORIENTED_EDGE('',*,*,#477,.T.);
#404=ORIENTED_EDGE('',*,*,#531,.T.);
#405=ORIENTED_EDGE('',*,*,#485,.F.);
#406=ORIENTED_EDGE('',*,*,#489,.F.);
#407=ORIENTED_EDGE('',*,*,#475,.T.);
#408=ORIENTED_EDGE('',*,*,#499,.T.);
#409=ORIENTED_EDGE('',*,*,#481,.F.);
#410=ORIENTED_EDGE('',*,*,#530,.F.);
#411=EDGE_CURVE('',#532,#533,#622,.T.);
#412=EDGE_CURVE('',#532,#534,#91,.F.);
#413=EDGE_CURVE('',#534,#535,#623,.T.);
#414=EDGE_CURVE('',#535,#533,#92,.F.);
#415=EDGE_CURVE('',#536,#537,#624,.T.);
#416=EDGE_CURVE('',#536,#538,#93,.T.);
#417=EDGE_CURVE('',#538,#539,#625,.T.);
#418=EDGE_CURVE('',#539,#537,#94,.T.);
#419=EDGE_CURVE('',#540,#540,#626,.T.);
#420=EDGE_CURVE('',#538,#541,#49,.T.);
#421=EDGE_CURVE('',#541,#542,#95,.T.);
#422=EDGE_CURVE('',#542,#543,#627,.T.);
#423=EDGE_CURVE('',#544,#543,#96,.T.);
#424=EDGE_CURVE('',#544,#535,#50,.T.);
#425=EDGE_CURVE('',#534,#545,#51,.T.);
#426=EDGE_CURVE('',#545,#546,#97,.T.);
#427=EDGE_CURVE('',#546,#547,#628,.T.);
#428=EDGE_CURVE('',#548,#547,#98,.T.);
#429=EDGE_CURVE('',#548,#539,#52,.T.);
#430=EDGE_CURVE('',#549,#550,#53,.T.);
#431=EDGE_CURVE('',#550,#551,#629,.T.);
#432=EDGE_CURVE('',#551,#552,#54,.T.);
#433=EDGE_CURVE('',#552,#549,#630,.T.);
#434=EDGE_CURVE('',#553,#553,#631,.T.);
#435=EDGE_CURVE('',#533,#551,#55,.T.);
#436=EDGE_CURVE('',#550,#532,#56,.T.);
#437=EDGE_CURVE('',#552,#536,#57,.T.);
#438=EDGE_CURVE('',#537,#549,#58,.T.);
#439=EDGE_CURVE('',#554,#554,#632,.T.);
#440=EDGE_CURVE('',#555,#555,#633,.T.);
#441=EDGE_CURVE('',#556,#556,#634,.T.);
#442=EDGE_CURVE('',#557,#557,#635,.T.);
#443=EDGE_CURVE('',#558,#558,#636,.T.);
#444=EDGE_CURVE('',#559,#559,#637,.T.);
#445=EDGE_CURVE('',#560,#560,#638,.T.);
#446=EDGE_CURVE('',#561,#561,#639,.T.);
#447=EDGE_CURVE('',#562,#562,#640,.T.);
#448=EDGE_CURVE('',#542,#543,#99,.T.);
#449=EDGE_CURVE('',#541,#544,#641,.F.);
#450=EDGE_CURVE('',#546,#547,#100,.T.);
#451=EDGE_CURVE('',#545,#548,#642,.F.);
#452=EDGE_CURVE('',#563,#563,#643,.T.);
#453=EDGE_CURVE('',#564,#565,#644,.T.);
#454=EDGE_CURVE('',#565,#566,#101,.T.);
#455=EDGE_CURVE('',#567,#566,#645,.T.);
#456=EDGE_CURVE('',#567,#568,#102,.F.);
#457=EDGE_CURVE('',#568,#569,#646,.T.);
#458=EDGE_CURVE('',#569,#570,#103,.T.);
#459=EDGE_CURVE('',#571,#570,#647,.T.);
#460=EDGE_CURVE('',#571,#564,#104,.F.);
#461=EDGE_CURVE('',#572,#572,#648,.T.);
#462=EDGE_CURVE('',#573,#573,#649,.T.);
#463=EDGE_CURVE('',#565,#568,#650,.F.);
#464=EDGE_CURVE('',#569,#564,#651,.F.);
#465=EDGE_CURVE('',#574,#574,#652,.F.);
#466=EDGE_CURVE('',#571,#570,#105,.T.);
#467=EDGE_CURVE('',#567,#566,#106,.T.);
#468=EDGE_CURVE('',#575,#575,#653,.F.);
#469=EDGE_CURVE('',#576,#576,#654,.T.);
#470=EDGE_CURVE('',#577,#577,#59,.T.);
#471=EDGE_CURVE('',#578,#578,#655,.T.);
#472=EDGE_CURVE('',#579,#579,#656,.T.);
#473=EDGE_CURVE('',#580,#580,#657,.T.);
#474=EDGE_CURVE('',#581,#581,#658,.T.);
#475=EDGE_CURVE('',#582,#583,#60,.T.);
#476=EDGE_CURVE('',#584,#582,#61,.T.);
#477=EDGE_CURVE('',#585,#584,#62,.T.);
#478=EDGE_CURVE('',#586,#585,#659,.T.);
#479=EDGE_CURVE('',#586,#587,#107,.T.);
#480=EDGE_CURVE('',#587,#583,#660,.T.);
#481=EDGE_CURVE('',#588,#589,#661,.T.);
#482=EDGE_CURVE('',#589,#590,#108,.T.);
#483=EDGE_CURVE('',#591,#590,#109,.T.);
#484=EDGE_CURVE('',#592,#591,#110,.T.);
#485=EDGE_CURVE('',#592,#593,#662,.T.);
#486=EDGE_CURVE('',#593,#588,#663,.T.);
#487=EDGE_CURVE('',#594,#595,#664,.T.);
#488=EDGE_CURVE('',#586,#594,#665,.T.);
#489=EDGE_CURVE('',#585,#592,#111,.T.);
#490=EDGE_CURVE('',#591,#596,#666,.T.);
#491=EDGE_CURVE('',#596,#597,#667,.T.);
#492=EDGE_CURVE('',#597,#598,#668,.T.);
#493=EDGE_CURVE('',#598,#599,#112,.T.);
#494=EDGE_CURVE('',#599,#600,#669,.T.);
#495=EDGE_CURVE('',#595,#600,#670,.T.);
#496=EDGE_CURVE('',#601,#601,#671,.T.);
#497=EDGE_CURVE('',#602,#602,#672,.T.);
#498=EDGE_CURVE('',#590,#603,#673,.T.);
#499=EDGE_CURVE('',#583,#589,#113,.T.);
#500=EDGE_CURVE('',#587,#604,#674,.T.);
#501=EDGE_CURVE('',#604,#605,#675,.T.);
#502=EDGE_CURVE('',#605,#606,#676,.T.);
#503=EDGE_CURVE('',#607,#606,#677,.T.);
#504=EDGE_CURVE('',#608,#607,#114,.T.);
#505=EDGE_CURVE('',#609,#608,#678,.T.);
#506=EDGE_CURVE('',#603,#609,#679,.T.);
#507=EDGE_CURVE('',#610,#611,#115,.T.);
#508=EDGE_CURVE('',#599,#610,#116,.T.);
#509=EDGE_CURVE('',#598,#611,#117,.T.);
#510=EDGE_CURVE('',#612,#613,#118,.T.);
#511=EDGE_CURVE('',#612,#608,#119,.T.);
#512=EDGE_CURVE('',#613,#607,#120,.T.);
#513=EDGE_CURVE('',#614,#610,#680,.T.);
#514=EDGE_CURVE('',#615,#614,#63,.T.);
#515=EDGE_CURVE('',#613,#615,#681,.T.);
#516=EDGE_CURVE('',#600,#606,#121,.T.);
#517=EDGE_CURVE('',#611,#616,#682,.T.);
#518=EDGE_CURVE('',#597,#609,#122,.T.);
#519=EDGE_CURVE('',#617,#612,#683,.T.);
#520=EDGE_CURVE('',#616,#617,#64,.T.);
#521=EDGE_CURVE('',#595,#605,#123,.T.);
#522=EDGE_CURVE('',#594,#604,#124,.T.);
#523=EDGE_CURVE('',#596,#603,#125,.T.);
#524=EDGE_CURVE('',#618,#618,#684,.F.);
#525=EDGE_CURVE('',#616,#614,#126,.T.);
#526=EDGE_CURVE('',#617,#615,#127,.T.);
#527=EDGE_CURVE('',#619,#619,#685,.F.);
#528=EDGE_CURVE('',#620,#620,#686,.T.);
#529=EDGE_CURVE('',#621,#621,#687,.T.);
#530=EDGE_CURVE('',#582,#588,#128,.T.);
#531=EDGE_CURVE('',#584,#593,#129,.T.);
#532=VERTEX_POINT('',#1582);
#533=VERTEX_POINT('',#1583);
#534=VERTEX_POINT('',#1585);
#535=VERTEX_POINT('',#1587);
#536=VERTEX_POINT('',#1591);
#537=VERTEX_POINT('',#1592);
#538=VERTEX_POINT('',#1594);
#539=VERTEX_POINT('',#1596);
#540=VERTEX_POINT('',#1600);
#541=VERTEX_POINT('',#1605);
#542=VERTEX_POINT('',#1607);
#543=VERTEX_POINT('',#1609);
#544=VERTEX_POINT('',#1611);
#545=VERTEX_POINT('',#1620);
#546=VERTEX_POINT('',#1622);
#547=VERTEX_POINT('',#1624);
#548=VERTEX_POINT('',#1626);
#549=VERTEX_POINT('',#1639);
#550=VERTEX_POINT('',#1640);
#551=VERTEX_POINT('',#1642);
#552=VERTEX_POINT('',#1650);
#553=VERTEX_POINT('',#1653);
#554=VERTEX_POINT('',#1674);
#555=VERTEX_POINT('',#1677);
#556=VERTEX_POINT('',#1680);
#557=VERTEX_POINT('',#1683);
#558=VERTEX_POINT('',#1686);
#559=VERTEX_POINT('',#1689);
#560=VERTEX_POINT('',#1692);
#561=VERTEX_POINT('',#1695);
#562=VERTEX_POINT('',#1698);
#563=VERTEX_POINT('',#1713);
#564=VERTEX_POINT('',#1715);
#565=VERTEX_POINT('',#1716);
#566=VERTEX_POINT('',#1718);
#567=VERTEX_POINT('',#1720);
#568=VERTEX_POINT('',#1722);
#569=VERTEX_POINT('',#1724);
#570=VERTEX_POINT('',#1726);
#571=VERTEX_POINT('',#1728);
#572=VERTEX_POINT('',#1732);
#573=VERTEX_POINT('',#1735);
#574=VERTEX_POINT('',#1741);
#575=VERTEX_POINT('',#1748);
#576=VERTEX_POINT('',#1751);
#577=VERTEX_POINT('',#1771);
#578=VERTEX_POINT('',#1776);
#579=VERTEX_POINT('',#1779);
#580=VERTEX_POINT('',#1783);
#581=VERTEX_POINT('',#1786);
#582=VERTEX_POINT('',#1795);
#583=VERTEX_POINT('',#1796);
#584=VERTEX_POINT('',#1802);
#585=VERTEX_POINT('',#1808);
#586=VERTEX_POINT('',#1810);
#587=VERTEX_POINT('',#1812);
#588=VERTEX_POINT('',#1816);
#589=VERTEX_POINT('',#1817);
#590=VERTEX_POINT('',#1819);
#591=VERTEX_POINT('',#1821);
#592=VERTEX_POINT('',#1823);
#593=VERTEX_POINT('',#1825);
#594=VERTEX_POINT('',#1829);
#595=VERTEX_POINT('',#1830);
#596=VERTEX_POINT('',#1834);
#597=VERTEX_POINT('',#1836);
#598=VERTEX_POINT('',#1838);
#599=VERTEX_POINT('',#1840);
#600=VERTEX_POINT('',#1842);
#601=VERTEX_POINT('',#1845);
#602=VERTEX_POINT('',#1848);
#603=VERTEX_POINT('',#1850);
#604=VERTEX_POINT('',#1853);
#605=VERTEX_POINT('',#1855);
#606=VERTEX_POINT('',#1857);
#607=VERTEX_POINT('',#1859);
#608=VERTEX_POINT('',#1861);
#609=VERTEX_POINT('',#1863);
#610=VERTEX_POINT('',#1867);
#611=VERTEX_POINT('',#1868);
#612=VERTEX_POINT('',#1873);
#613=VERTEX_POINT('',#1874);
#614=VERTEX_POINT('',#1879);
#615=VERTEX_POINT('',#1887);
#616=VERTEX_POINT('',#1892);
#617=VERTEX_POINT('',#1895);
#618=VERTEX_POINT('',#1911);
#619=VERTEX_POINT('',#1917);
#620=VERTEX_POINT('',#1920);
#621=VERTEX_POINT('',#1924);
#622=CIRCLE('',#1146,5.4);
#623=CIRCLE('',#1147,4.5);
#624=CIRCLE('',#1149,5.4);
#625=CIRCLE('',#1150,4.5);
#626=CIRCLE('',#1152,4.5);
#627=CIRCLE('',#1153,4.5);
#628=CIRCLE('',#1154,4.5);
#629=CIRCLE('',#1156,5.9);
#630=CIRCLE('',#1157,5.9);
#631=CIRCLE('',#1158,5.9);
#632=CIRCLE('',#1162,3.25);
#633=CIRCLE('',#1164,3.25);
#634=CIRCLE('',#1166,7.);
#635=CIRCLE('',#1168,7.5);
#636=CIRCLE('',#1170,7.5);
#637=CIRCLE('',#1172,7.);
#638=CIRCLE('',#1174,6.425);
#639=CIRCLE('',#1176,6.125);
#640=CIRCLE('',#1178,6.125);
#641=CIRCLE('',#1182,6.);
#642=CIRCLE('',#1185,6.);
#643=CIRCLE('',#1190,4.);
#644=CIRCLE('',#1191,4.);
#645=CIRCLE('',#1192,4.);
#646=CIRCLE('',#1193,4.);
#647=CIRCLE('',#1194,4.);
#648=CIRCLE('',#1196,3.83);
#649=CIRCLE('',#1198,2.121);
#650=CIRCLE('',#1200,2.80668844013724);
#651=CIRCLE('',#1201,2.80668844013724);
#652=CIRCLE('',#1203,2.5);
#653=CIRCLE('',#1207,2.5);
#654=CIRCLE('',#1209,1.621);
#655=CIRCLE('',#1213,2.2);
#656=CIRCLE('',#1215,2.5);
#657=CIRCLE('',#1218,2.5);
#658=CIRCLE('',#1220,2.2);
#659=CIRCLE('',#1224,14.1779999999998);
#660=CIRCLE('',#1225,14.1779999999998);
#661=CIRCLE('',#1227,3.);
#662=CIRCLE('',#1228,3.);
#663=CIRCLE('',#1229,13.);
#664=CIRCLE('',#1231,390.883999999972);
#665=CIRCLE('',#1232,1.97999999999998);
#666=CIRCLE('',#1233,5.);
#667=CIRCLE('',#1234,399.901199999921);
#668=CIRCLE('',#1235,78.5444000000036);
#669=CIRCLE('',#1236,6.);
#670=CIRCLE('',#1237,4.05);
#671=CIRCLE('',#1238,2.8);
#672=CIRCLE('',#1240,2.8);
#673=CIRCLE('',#1241,5.);
#674=CIRCLE('',#1242,1.97999999999998);
#675=CIRCLE('',#1243,390.883999999972);
#676=CIRCLE('',#1244,4.05);
#677=CIRCLE('',#1245,6.);
#678=CIRCLE('',#1246,78.5444000000036);
#679=CIRCLE('',#1247,399.901199999921);
#680=CIRCLE('',#1251,6.);
#681=CIRCLE('',#1252,6.);
#682=CIRCLE('',#1254,78.5444000000036);
#683=CIRCLE('',#1255,78.5444000000036);
#684=CIRCLE('',#1262,2.5);
#685=CIRCLE('',#1265,2.5);
#686=CIRCLE('',#1267,2.5);
#687=CIRCLE('',#1270,2.5);
#688=EDGE_LOOP('',(#169,#170,#171,#172));
#689=EDGE_LOOP('',(#173,#174,#175,#176));
#690=EDGE_LOOP('',(#177));
#691=EDGE_LOOP('',(#178,#179,#180,#181,#182,#183,#184,#185,#186,#187,#188,
#189));
#692=EDGE_LOOP('',(#190,#191,#192,#193));
#693=EDGE_LOOP('',(#194));
#694=EDGE_LOOP('',(#195,#196,#197,#198));
#695=EDGE_LOOP('',(#199,#200,#201,#202));
#696=EDGE_LOOP('',(#203));
#697=EDGE_LOOP('',(#204));
#698=EDGE_LOOP('',(#205));
#699=EDGE_LOOP('',(#206));
#700=EDGE_LOOP('',(#207));
#701=EDGE_LOOP('',(#208));
#702=EDGE_LOOP('',(#209));
#703=EDGE_LOOP('',(#210));
#704=EDGE_LOOP('',(#211));
#705=EDGE_LOOP('',(#212));
#706=EDGE_LOOP('',(#213));
#707=EDGE_LOOP('',(#214));
#708=EDGE_LOOP('',(#215));
#709=EDGE_LOOP('',(#216));
#710=EDGE_LOOP('',(#217));
#711=EDGE_LOOP('',(#218));
#712=EDGE_LOOP('',(#219));
#713=EDGE_LOOP('',(#220));
#714=EDGE_LOOP('',(#221));
#715=EDGE_LOOP('',(#222));
#716=EDGE_LOOP('',(#223,#224));
#717=EDGE_LOOP('',(#225,#226,#227,#228));
#718=EDGE_LOOP('',(#229,#230));
#719=EDGE_LOOP('',(#231,#232,#233,#234));
#720=EDGE_LOOP('',(#235,#236,#237,#238,#239,#240,#241,#242));
#721=EDGE_LOOP('',(#243,#244,#245,#246,#247,#248,#249,#250));
#722=EDGE_LOOP('',(#251));
#723=EDGE_LOOP('',(#252,#253,#254,#255,#256,#257,#258,#259));
#724=EDGE_LOOP('',(#260));
#725=EDGE_LOOP('',(#261));
#726=EDGE_LOOP('',(#262));
#727=EDGE_LOOP('',(#263));
#728=EDGE_LOOP('',(#264,#265,#266,#267));
#729=EDGE_LOOP('',(#268));
#730=EDGE_LOOP('',(#269,#270,#271,#272));
#731=EDGE_LOOP('',(#273,#274));
#732=EDGE_LOOP('',(#275,#276));
#733=EDGE_LOOP('',(#277));
#734=EDGE_LOOP('',(#278,#279,#280,#281));
#735=EDGE_LOOP('',(#282));
#736=EDGE_LOOP('',(#283));
#737=EDGE_LOOP('',(#284));
#738=EDGE_LOOP('',(#285));
#739=EDGE_LOOP('',(#286));
#740=EDGE_LOOP('',(#287));
#741=EDGE_LOOP('',(#288));
#742=EDGE_LOOP('',(#289));
#743=EDGE_LOOP('',(#290));
#744=EDGE_LOOP('',(#291));
#745=EDGE_LOOP('',(#292));
#746=EDGE_LOOP('',(#293));
#747=EDGE_LOOP('',(#294));
#748=EDGE_LOOP('',(#295));
#749=EDGE_LOOP('',(#296));
#750=EDGE_LOOP('',(#297,#298,#299,#300,#301,#302));
#751=EDGE_LOOP('',(#303,#304,#305,#306,#307,#308));
#752=EDGE_LOOP('',(#309,#310,#311,#312,#313,#314,#315,#316,#317,#318,#319));
#753=EDGE_LOOP('',(#320));
#754=EDGE_LOOP('',(#321));
#755=EDGE_LOOP('',(#322,#323,#324,#325,#326,#327,#328,#329,#330,#331,#332));
#756=EDGE_LOOP('',(#333,#334,#335,#336));
#757=EDGE_LOOP('',(#337,#338,#339,#340));
#758=EDGE_LOOP('',(#341,#342,#343,#344,#345,#346,#347,#348));
#759=EDGE_LOOP('',(#349,#350,#351,#352,#353,#354,#355,#356));
#760=EDGE_LOOP('',(#357,#358,#359,#360));
#761=EDGE_LOOP('',(#361,#362,#363,#364));
#762=EDGE_LOOP('',(#365,#366,#367,#368));
#763=EDGE_LOOP('',(#369,#370,#371,#372));
#764=EDGE_LOOP('',(#373,#374,#375,#376));
#765=EDGE_LOOP('',(#377));
#766=EDGE_LOOP('',(#378,#379,#380,#381));
#767=EDGE_LOOP('',(#382,#383,#384,#385));
#768=EDGE_LOOP('',(#386));
#769=EDGE_LOOP('',(#387,#388,#389,#390));
#770=EDGE_LOOP('',(#391));
#771=EDGE_LOOP('',(#392));
#772=EDGE_LOOP('',(#393));
#773=EDGE_LOOP('',(#394));
#774=EDGE_LOOP('',(#395));
#775=EDGE_LOOP('',(#396));
#776=EDGE_LOOP('',(#397));
#777=EDGE_LOOP('',(#398));
#778=EDGE_LOOP('',(#399,#400,#401,#402));
#779=EDGE_LOOP('',(#403,#404,#405,#406));
#780=EDGE_LOOP('',(#407,#408,#409,#410));
#781=FACE_BOUND('',#688,.T.);
#782=FACE_BOUND('',#689,.T.);
#783=FACE_BOUND('',#690,.T.);
#784=FACE_BOUND('',#691,.T.);
#785=FACE_BOUND('',#692,.T.);
#786=FACE_BOUND('',#693,.T.);
#787=FACE_BOUND('',#694,.T.);
#788=FACE_BOUND('',#695,.T.);
#789=FACE_BOUND('',#696,.T.);
#790=FACE_BOUND('',#697,.T.);
#791=FACE_BOUND('',#698,.T.);
#792=FACE_BOUND('',#699,.T.);
#793=FACE_BOUND('',#700,.T.);
#794=FACE_BOUND('',#701,.T.);
#795=FACE_BOUND('',#702,.T.);
#796=FACE_BOUND('',#703,.T.);
#797=FACE_BOUND('',#704,.T.);
#798=FACE_BOUND('',#705,.T.);
#799=FACE_BOUND('',#706,.T.);
#800=FACE_BOUND('',#707,.T.);
#801=FACE_BOUND('',#708,.T.);
#802=FACE_BOUND('',#709,.T.);
#803=FACE_BOUND('',#710,.T.);
#804=FACE_BOUND('',#711,.T.);
#805=FACE_BOUND('',#712,.T.);
#806=FACE_BOUND('',#713,.T.);
#807=FACE_BOUND('',#714,.T.);
#808=FACE_BOUND('',#715,.T.);
#809=FACE_BOUND('',#716,.T.);
#810=FACE_BOUND('',#717,.T.);
#811=FACE_BOUND('',#718,.T.);
#812=FACE_BOUND('',#719,.T.);
#813=FACE_BOUND('',#720,.T.);
#814=FACE_BOUND('',#721,.T.);
#815=FACE_BOUND('',#722,.T.);
#816=FACE_BOUND('',#723,.T.);
#817=FACE_BOUND('',#724,.T.);
#818=FACE_BOUND('',#725,.T.);
#819=FACE_BOUND('',#726,.T.);
#820=FACE_BOUND('',#727,.T.);
#821=FACE_BOUND('',#728,.T.);
#822=FACE_BOUND('',#729,.T.);
#823=FACE_BOUND('',#730,.T.);
#824=FACE_BOUND('',#731,.T.);
#825=FACE_BOUND('',#732,.T.);
#826=FACE_BOUND('',#733,.T.);
#827=FACE_BOUND('',#734,.T.);
#828=FACE_BOUND('',#735,.T.);
#829=FACE_BOUND('',#736,.T.);
#830=FACE_BOUND('',#737,.T.);
#831=FACE_BOUND('',#738,.T.);
#832=FACE_BOUND('',#739,.T.);
#833=FACE_BOUND('',#740,.T.);
#834=FACE_BOUND('',#741,.T.);
#835=FACE_BOUND('',#742,.T.);
#836=FACE_BOUND('',#743,.T.);
#837=FACE_BOUND('',#744,.T.);
#838=FACE_BOUND('',#745,.T.);
#839=FACE_BOUND('',#746,.T.);
#840=FACE_BOUND('',#747,.T.);
#841=FACE_BOUND('',#748,.T.);
#842=FACE_BOUND('',#749,.T.);
#843=FACE_BOUND('',#750,.T.);
#844=FACE_BOUND('',#751,.T.);
#845=FACE_BOUND('',#752,.T.);
#846=FACE_BOUND('',#753,.T.);
#847=FACE_BOUND('',#754,.T.);
#848=FACE_BOUND('',#755,.T.);
#849=FACE_BOUND('',#756,.T.);
#850=FACE_BOUND('',#757,.T.);
#851=FACE_BOUND('',#758,.T.);
#852=FACE_BOUND('',#759,.T.);
#853=FACE_BOUND('',#760,.T.);
#854=FACE_BOUND('',#761,.T.);
#855=FACE_BOUND('',#762,.T.);
#856=FACE_BOUND('',#763,.T.);
#857=FACE_BOUND('',#764,.T.);
#858=FACE_BOUND('',#765,.T.);
#859=FACE_BOUND('',#766,.T.);
#860=FACE_BOUND('',#767,.T.);
#861=FACE_BOUND('',#768,.T.);
#862=FACE_BOUND('',#769,.T.);
#863=FACE_BOUND('',#770,.T.);
#864=FACE_BOUND('',#771,.T.);
#865=FACE_BOUND('',#772,.T.);
#866=FACE_BOUND('',#773,.T.);
#867=FACE_BOUND('',#774,.T.);
#868=FACE_BOUND('',#775,.T.);
#869=FACE_BOUND('',#776,.T.);
#870=FACE_BOUND('',#777,.T.);
#871=FACE_BOUND('',#778,.T.);
#872=FACE_BOUND('',#779,.T.);
#873=FACE_BOUND('',#780,.T.);
#874=PLANE('',#1145);
#875=PLANE('',#1148);
#876=PLANE('',#1161);
#877=PLANE('',#1165);
#878=PLANE('',#1173);
#879=PLANE('',#1180);
#880=PLANE('',#1181);
#881=PLANE('',#1183);
#882=PLANE('',#1184);
#883=PLANE('',#1197);
#884=PLANE('',#1202);
#885=PLANE('',#1204);
#886=PLANE('',#1205);
#887=PLANE('',#1206);
#888=PLANE('',#1212);
#889=PLANE('',#1219);
#890=PLANE('',#1226);
#891=PLANE('',#1230);
#892=PLANE('',#1239);
#893=PLANE('',#1248);
#894=PLANE('',#1249);
#895=PLANE('',#1261);
#896=PLANE('',#1264);
#897=STYLED_ITEM('',(#921),#1068);
#898=STYLED_ITEM('',(#922),#1069);
#899=STYLED_ITEM('',(#923),#1070);
#900=STYLED_ITEM('',(#924),#1071);
#901=STYLED_ITEM('',(#925),#1072);
#902=STYLED_ITEM('',(#926),#1073);
#903=STYLED_ITEM('',(#927),#1074);
#904=STYLED_ITEM('',(#928),#1075);
#905=STYLED_ITEM('',(#929),#1076);
#906=STYLED_ITEM('',(#930),#1077);
#907=STYLED_ITEM('',(#931),#1078);
#908=STYLED_ITEM('',(#932),#1079);
#909=STYLED_ITEM('',(#933),#1080);
#910=STYLED_ITEM('',(#934),#1081);
#911=STYLED_ITEM('',(#935),#1082);
#912=STYLED_ITEM('',(#936),#1083);
#913=STYLED_ITEM('',(#937),#1084);
#914=STYLED_ITEM('',(#938),#1085);
#915=STYLED_ITEM('',(#939),#1086);
#916=STYLED_ITEM('',(#940),#1087);
#917=STYLED_ITEM('',(#941),#1088);
#918=STYLED_ITEM('',(#942),#1089);
#919=STYLED_ITEM('',(#943),#1134);
#920=STYLED_ITEM('',(#944),#1135);
#921=PRESENTATION_STYLE_ASSIGNMENT((#945));
#922=PRESENTATION_STYLE_ASSIGNMENT((#946));
#923=PRESENTATION_STYLE_ASSIGNMENT((#947));
#924=PRESENTATION_STYLE_ASSIGNMENT((#948));
#925=PRESENTATION_STYLE_ASSIGNMENT((#949));
#926=PRESENTATION_STYLE_ASSIGNMENT((#950));
#927=PRESENTATION_STYLE_ASSIGNMENT((#951));
#928=PRESENTATION_STYLE_ASSIGNMENT((#952));
#929=PRESENTATION_STYLE_ASSIGNMENT((#953));
#930=PRESENTATION_STYLE_ASSIGNMENT((#954));
#931=PRESENTATION_STYLE_ASSIGNMENT((#955));
#932=PRESENTATION_STYLE_ASSIGNMENT((#956));
#933=PRESENTATION_STYLE_ASSIGNMENT((#957));
#934=PRESENTATION_STYLE_ASSIGNMENT((#958));
#935=PRESENTATION_STYLE_ASSIGNMENT((#959));
#936=PRESENTATION_STYLE_ASSIGNMENT((#960));
#937=PRESENTATION_STYLE_ASSIGNMENT((#961));
#938=PRESENTATION_STYLE_ASSIGNMENT((#962));
#939=PRESENTATION_STYLE_ASSIGNMENT((#963));
#940=PRESENTATION_STYLE_ASSIGNMENT((#964));
#941=PRESENTATION_STYLE_ASSIGNMENT((#965));
#942=PRESENTATION_STYLE_ASSIGNMENT((#966));
#943=PRESENTATION_STYLE_ASSIGNMENT((#967));
#944=PRESENTATION_STYLE_ASSIGNMENT((#968));
#945=SURFACE_STYLE_USAGE(.BOTH.,#969);
#946=SURFACE_STYLE_USAGE(.BOTH.,#970);
#947=SURFACE_STYLE_USAGE(.BOTH.,#971);
#948=SURFACE_STYLE_USAGE(.BOTH.,#972);
#949=SURFACE_STYLE_USAGE(.BOTH.,#973);
#950=SURFACE_STYLE_USAGE(.BOTH.,#974);
#951=SURFACE_STYLE_USAGE(.BOTH.,#975);
#952=SURFACE_STYLE_USAGE(.BOTH.,#976);
#953=SURFACE_STYLE_USAGE(.BOTH.,#977);
#954=SURFACE_STYLE_USAGE(.BOTH.,#978);
#955=SURFACE_STYLE_USAGE(.BOTH.,#979);
#956=SURFACE_STYLE_USAGE(.BOTH.,#980);
#957=SURFACE_STYLE_USAGE(.BOTH.,#981);
#958=SURFACE_STYLE_USAGE(.BOTH.,#982);
#959=SURFACE_STYLE_USAGE(.BOTH.,#983);
#960=SURFACE_STYLE_USAGE(.BOTH.,#984);
#961=SURFACE_STYLE_USAGE(.BOTH.,#985);
#962=SURFACE_STYLE_USAGE(.BOTH.,#986);
#963=SURFACE_STYLE_USAGE(.BOTH.,#987);
#964=SURFACE_STYLE_USAGE(.BOTH.,#988);
#965=SURFACE_STYLE_USAGE(.BOTH.,#989);
#966=SURFACE_STYLE_USAGE(.BOTH.,#990);
#967=SURFACE_STYLE_USAGE(.BOTH.,#991);
#968=SURFACE_STYLE_USAGE(.BOTH.,#992);
#969=SURFACE_SIDE_STYLE('',(#993));
#970=SURFACE_SIDE_STYLE('',(#994));
#971=SURFACE_SIDE_STYLE('',(#995));
#972=SURFACE_SIDE_STYLE('',(#996));
#973=SURFACE_SIDE_STYLE('',(#997));
#974=SURFACE_SIDE_STYLE('',(#998));
#975=SURFACE_SIDE_STYLE('',(#999));
#976=SURFACE_SIDE_STYLE('',(#1000));
#977=SURFACE_SIDE_STYLE('',(#1001));
#978=SURFACE_SIDE_STYLE('',(#1002));
#979=SURFACE_SIDE_STYLE('',(#1003));
#980=SURFACE_SIDE_STYLE('',(#1004));
#981=SURFACE_SIDE_STYLE('',(#1005));
#982=SURFACE_SIDE_STYLE('',(#1006));
#983=SURFACE_SIDE_STYLE('',(#1007));
#984=SURFACE_SIDE_STYLE('',(#1008));
#985=SURFACE_SIDE_STYLE('',(#1009));
#986=SURFACE_SIDE_STYLE('',(#1010));
#987=SURFACE_SIDE_STYLE('',(#1011));
#988=SURFACE_SIDE_STYLE('',(#1012));
#989=SURFACE_SIDE_STYLE('',(#1013));
#990=SURFACE_SIDE_STYLE('',(#1014));
#991=SURFACE_SIDE_STYLE('',(#1015));
#992=SURFACE_SIDE_STYLE('',(#1016));
#993=SURFACE_STYLE_FILL_AREA(#1017);
#994=SURFACE_STYLE_FILL_AREA(#1018);
#995=SURFACE_STYLE_FILL_AREA(#1019);
#996=SURFACE_STYLE_FILL_AREA(#1020);
#997=SURFACE_STYLE_FILL_AREA(#1021);
#998=SURFACE_STYLE_FILL_AREA(#1022);
#999=SURFACE_STYLE_FILL_AREA(#1023);
#1000=SURFACE_STYLE_FILL_AREA(#1024);
#1001=SURFACE_STYLE_FILL_AREA(#1025);
#1002=SURFACE_STYLE_FILL_AREA(#1026);
#1003=SURFACE_STYLE_FILL_AREA(#1027);
#1004=SURFACE_STYLE_FILL_AREA(#1028);
#1005=SURFACE_STYLE_FILL_AREA(#1029);
#1006=SURFACE_STYLE_FILL_AREA(#1030);
#1007=SURFACE_STYLE_FILL_AREA(#1031);
#1008=SURFACE_STYLE_FILL_AREA(#1032);
#1009=SURFACE_STYLE_FILL_AREA(#1033);
#1010=SURFACE_STYLE_FILL_AREA(#1034);
#1011=SURFACE_STYLE_FILL_AREA(#1035);
#1012=SURFACE_STYLE_FILL_AREA(#1036);
#1013=SURFACE_STYLE_FILL_AREA(#1037);
#1014=SURFACE_STYLE_FILL_AREA(#1038);
#1015=SURFACE_STYLE_FILL_AREA(#1039);
#1016=SURFACE_STYLE_FILL_AREA(#1040);
#1017=FILL_AREA_STYLE('',(#1041));
#1018=FILL_AREA_STYLE('',(#1042));
#1019=FILL_AREA_STYLE('',(#1043));
#1020=FILL_AREA_STYLE('',(#1044));
#1021=FILL_AREA_STYLE('',(#1045));
#1022=FILL_AREA_STYLE('',(#1046));
#1023=FILL_AREA_STYLE('',(#1047));
#1024=FILL_AREA_STYLE('',(#1048));
#1025=FILL_AREA_STYLE('',(#1049));
#1026=FILL_AREA_STYLE('',(#1050));
#1027=FILL_AREA_STYLE('',(#1051));
#1028=FILL_AREA_STYLE('',(#1052));
#1029=FILL_AREA_STYLE('',(#1053));
#1030=FILL_AREA_STYLE('',(#1054));
#1031=FILL_AREA_STYLE('',(#1055));
#1032=FILL_AREA_STYLE('',(#1056));
#1033=FILL_AREA_STYLE('',(#1057));
#1034=FILL_AREA_STYLE('',(#1058));
#1035=FILL_AREA_STYLE('',(#1059));
#1036=FILL_AREA_STYLE('',(#1060));
#1037=FILL_AREA_STYLE('',(#1061));
#1038=FILL_AREA_STYLE('',(#1062));
#1039=FILL_AREA_STYLE('',(#1063));
#1040=FILL_AREA_STYLE('',(#1064));
#1041=FILL_AREA_STYLE_COLOUR('',#1065);
#1042=FILL_AREA_STYLE_COLOUR('',#1065);
#1043=FILL_AREA_STYLE_COLOUR('',#1065);
#1044=FILL_AREA_STYLE_COLOUR('',#1065);
#1045=FILL_AREA_STYLE_COLOUR('',#1065);
#1046=FILL_AREA_STYLE_COLOUR('',#1065);
#1047=FILL_AREA_STYLE_COLOUR('',#1066);
#1048=FILL_AREA_STYLE_COLOUR('',#1066);
#1049=FILL_AREA_STYLE_COLOUR('',#1066);
#1050=FILL_AREA_STYLE_COLOUR('',#1066);
#1051=FILL_AREA_STYLE_COLOUR('',#1066);
#1052=FILL_AREA_STYLE_COLOUR('',#1066);
#1053=FILL_AREA_STYLE_COLOUR('',#1066);
#1054=FILL_AREA_STYLE_COLOUR('',#1066);
#1055=FILL_AREA_STYLE_COLOUR('',#1066);
#1056=FILL_AREA_STYLE_COLOUR('',#1066);
#1057=FILL_AREA_STYLE_COLOUR('',#1065);
#1058=FILL_AREA_STYLE_COLOUR('',#1065);
#1059=FILL_AREA_STYLE_COLOUR('',#1065);
#1060=FILL_AREA_STYLE_COLOUR('',#1065);
#1061=FILL_AREA_STYLE_COLOUR('',#1065);
#1062=FILL_AREA_STYLE_COLOUR('',#1065);
#1063=FILL_AREA_STYLE_COLOUR('',#1067);
#1064=FILL_AREA_STYLE_COLOUR('',#1065);
#1065=COLOUR_RGB('',0.25,0.25,0.25);
#1066=COLOUR_RGB('',0.689999997615814,0.689999997615814,0.689999997615814);
#1067=COLOUR_RGB('',0.75,0.75,0.75);
#1068=ADVANCED_FACE('',(#781),#874,.T.);
#1069=ADVANCED_FACE('',(#782),#875,.T.);
#1070=ADVANCED_FACE('',(#783,#784),#65,.F.);
#1071=ADVANCED_FACE('',(#785,#786),#66,.T.);
#1072=ADVANCED_FACE('',(#787),#37,.T.);
#1073=ADVANCED_FACE('',(#788),#38,.T.);
#1074=ADVANCED_FACE('',(#789,#790),#876,.T.);
#1075=ADVANCED_FACE('',(#791,#792),#67,.F.);
#1076=ADVANCED_FACE('',(#793,#794),#877,.T.);
#1077=ADVANCED_FACE('',(#795,#796),#39,.T.);
#1078=ADVANCED_FACE('',(#797,#798),#68,.T.);
#1079=ADVANCED_FACE('',(#799,#800),#40,.T.);
#1080=ADVANCED_FACE('',(#801,#802),#878,.T.);
#1081=ADVANCED_FACE('',(#803,#804),#41,.F.);
#1082=ADVANCED_FACE('',(#805,#806),#69,.F.);
#1083=ADVANCED_FACE('',(#807,#808),#42,.T.);
#1084=ADVANCED_FACE('',(#809),#879,.F.);
#1085=ADVANCED_FACE('',(#810),#880,.T.);
#1086=ADVANCED_FACE('',(#811),#881,.F.);
#1087=ADVANCED_FACE('',(#812),#882,.T.);
#1088=ADVANCED_FACE('',(#813),#70,.F.);
#1089=ADVANCED_FACE('',(#814),#71,.F.);
#1090=ADVANCED_FACE('',(#815,#816),#72,.T.);
#1091=ADVANCED_FACE('',(#817,#818),#43,.T.);
#1092=ADVANCED_FACE('',(#819,#820),#883,.F.);
#1093=ADVANCED_FACE('',(#821),#18,.T.);
#1094=ADVANCED_FACE('',(#822,#823),#884,.F.);
#1095=ADVANCED_FACE('',(#824),#885,.T.);
#1096=ADVANCED_FACE('',(#825),#886,.T.);
#1097=ADVANCED_FACE('',(#826,#827),#887,.F.);
#1098=ADVANCED_FACE('',(#828,#829),#73,.F.);
#1099=ADVANCED_FACE('',(#830,#831),#44,.F.);
#1100=ADVANCED_FACE('',(#832),#74,.T.);
#1101=ADVANCED_FACE('',(#833),#888,.F.);
#1102=ADVANCED_FACE('',(#834,#835),#45,.T.);
#1103=ADVANCED_FACE('',(#836,#837),#75,.T.);
#1104=ADVANCED_FACE('',(#838,#839),#76,.T.);
#1105=ADVANCED_FACE('',(#840),#889,.F.);
#1106=ADVANCED_FACE('',(#841,#842),#46,.T.);
#1107=ADVANCED_FACE('',(#843),#77,.T.);
#1108=ADVANCED_FACE('',(#844),#890,.F.);
#1109=ADVANCED_FACE('',(#845,#846),#891,.T.);
#1110=ADVANCED_FACE('',(#847,#848),#892,.F.);
#1111=ADVANCED_FACE('',(#849),#893,.F.);
#1112=ADVANCED_FACE('',(#850),#894,.F.);
#1113=ADVANCED_FACE('',(#851),#78,.T.);
#1114=ADVANCED_FACE('',(#852),#79,.T.);
#1115=ADVANCED_FACE('',(#853),#80,.F.);
#1116=ADVANCED_FACE('',(#854),#81,.F.);
#1117=ADVANCED_FACE('',(#855),#82,.F.);
#1118=ADVANCED_FACE('',(#856),#83,.T.);
#1119=ADVANCED_FACE('',(#857),#84,.T.);
#1120=ADVANCED_FACE('',(#858,#859),#895,.T.);
#1121=ADVANCED_FACE('',(#860),#85,.F.);
#1122=ADVANCED_FACE('',(#861,#862),#896,.T.);
#1123=ADVANCED_FACE('',(#863,#864),#86,.F.);
#1124=ADVANCED_FACE('',(#865,#866),#47,.F.);
#1125=ADVANCED_FACE('',(#867,#868),#87,.F.);
#1126=ADVANCED_FACE('',(#869,#870),#48,.F.);
#1127=ADVANCED_FACE('',(#871),#88,.T.);
#1128=ADVANCED_FACE('',(#872),#89,.T.);
#1129=ADVANCED_FACE('',(#873),#90,.T.);
#1130=CLOSED_SHELL('',(#1068,#1069,#1070,#1071,#1072,#1073,#1074,#1075,
#1076,#1077,#1078,#1079,#1080,#1081,#1082,#1083,#1084,#1085,#1086,#1087,
#1088,#1089));
#1131=CLOSED_SHELL('',(#1090,#1091,#1092,#1093,#1094,#1095,#1096,#1097,
#1098,#1099,#1100,#1101,#1102,#1103,#1104,#1105,#1106));
#1132=CLOSED_SHELL('',(#1107,#1108,#1109,#1110,#1111,#1112,#1113,#1114,
#1115,#1116,#1117,#1118,#1119,#1120,#1121,#1122,#1123,#1124,#1125,#1126,
#1127,#1128,#1129));
#1133=MANIFOLD_SOLID_BREP(
'Clamping lever with eccentrical cam with internal thread GN 927-44-M4
-A-B (clamped)_a',#1130);
#1134=MANIFOLD_SOLID_BREP(
'Clamping lever with eccentrical cam with internal thread GN 927-44-M4
-A-B (clamped)_s',#1131);
#1135=MANIFOLD_SOLID_BREP(
'Clamping lever with eccentrical cam with internal thread GN 927-44-M4
-A-B (clamped)_h',#1132);
#1136=SHAPE_DEFINITION_REPRESENTATION(#1944,#1140);
#1137=SHAPE_DEFINITION_REPRESENTATION(#1945,#1141);
#1138=SHAPE_DEFINITION_REPRESENTATION(#1947,#1142);
#1139=SHAPE_DEFINITION_REPRESENTATION(#1949,#1143);
#1140=SHAPE_REPRESENTATION(
'Clamping lever with eccentrical cam with internal thread GN 927-44-M4
-A-B (clamped)',(#1144,#1188,#1222,#1275),#1933);
#1141=SHAPE_REPRESENTATION(
'Clamping lever with eccentrical cam with internal thread GN 927-44-M4
-A-B (clamped)_a',(#1144),#1934);
#1142=SHAPE_REPRESENTATION(
'Clamping lever with eccentrical cam with internal thread GN 927-44-M4
-A-B (clamped)_s',(#1144),#1935);
#1143=SHAPE_REPRESENTATION(
'Clamping lever with eccentrical cam with internal thread GN 927-44-M4
-A-B (clamped)_h',(#1144),#1936);
#1144=AXIS2_PLACEMENT_3D('',#1579,#1276,#1277);
#1145=AXIS2_PLACEMENT_3D('',#1580,#1278,#1279);
#1146=AXIS2_PLACEMENT_3D('',#1581,#1280,#1281);
#1147=AXIS2_PLACEMENT_3D('',#1586,#1283,#1284);
#1148=AXIS2_PLACEMENT_3D('',#1589,#1286,#1287);
#1149=AXIS2_PLACEMENT_3D('',#1590,#1288,#1289);
#1150=AXIS2_PLACEMENT_3D('',#1595,#1291,#1292);
#1151=AXIS2_PLACEMENT_3D('',#1598,#1294,#1295);
#1152=AXIS2_PLACEMENT_3D('',#1599,#1296,#1297);
#1153=AXIS2_PLACEMENT_3D('',#1608,#1299,#1300);
#1154=AXIS2_PLACEMENT_3D('',#1623,#1303,#1304);
#1155=AXIS2_PLACEMENT_3D('',#1631,#1306,#1307);
#1156=AXIS2_PLACEMENT_3D('',#1641,#1308,#1309);
#1157=AXIS2_PLACEMENT_3D('',#1651,#1310,#1311);
#1158=AXIS2_PLACEMENT_3D('',#1652,#1312,#1313);
#1159=AXIS2_PLACEMENT_3D('',#1654,#1314,#1315);
#1160=AXIS2_PLACEMENT_3D('',#1663,#1316,#1317);
#1161=AXIS2_PLACEMENT_3D('',#1672,#1318,#1319);
#1162=AXIS2_PLACEMENT_3D('',#1673,#1320,#1321);
#1163=AXIS2_PLACEMENT_3D('',#1675,#1322,#1323);
#1164=AXIS2_PLACEMENT_3D('',#1676,#1324,#1325);
#1165=AXIS2_PLACEMENT_3D('',#1678,#1326,#1327);
#1166=AXIS2_PLACEMENT_3D('',#1679,#1328,#1329);
#1167=AXIS2_PLACEMENT_3D('',#1681,#1330,#1331);
#1168=AXIS2_PLACEMENT_3D('',#1682,#1332,#1333);
#1169=AXIS2_PLACEMENT_3D('',#1684,#1334,#1335);
#1170=AXIS2_PLACEMENT_3D('',#1685,#1336,#1337);
#1171=AXIS2_PLACEMENT_3D('',#1687,#1338,#1339);
#1172=AXIS2_PLACEMENT_3D('',#1688,#1340,#1341);
#1173=AXIS2_PLACEMENT_3D('',#1690,#1342,#1343);
#1174=AXIS2_PLACEMENT_3D('',#1691,#1344,#1345);
#1175=AXIS2_PLACEMENT_3D('',#1693,#1346,#1347);
#1176=AXIS2_PLACEMENT_3D('',#1694,#1348,#1349);
#1177=AXIS2_PLACEMENT_3D('',#1696,#1350,#1351);
#1178=AXIS2_PLACEMENT_3D('',#1697,#1352,#1353);
#1179=AXIS2_PLACEMENT_3D('',#1699,#1354,#1355);
#1180=AXIS2_PLACEMENT_3D('',#1700,#1356,#1357);
#1181=AXIS2_PLACEMENT_3D('',#1702,#1359,#1360);
#1182=AXIS2_PLACEMENT_3D('',#1703,#1361,#1362);
#1183=AXIS2_PLACEMENT_3D('',#1704,#1363,#1364);
#1184=AXIS2_PLACEMENT_3D('',#1706,#1366,#1367);
#1185=AXIS2_PLACEMENT_3D('',#1707,#1368,#1369);
#1186=AXIS2_PLACEMENT_3D('',#1708,#1370,#1371);
#1187=AXIS2_PLACEMENT_3D('',#1709,#1372,#1373);
#1188=AXIS2_PLACEMENT_3D('',#1710,#1374,#1375);
#1189=AXIS2_PLACEMENT_3D('',#1711,#1376,#1377);
#1190=AXIS2_PLACEMENT_3D('',#1712,#1378,#1379);
#1191=AXIS2_PLACEMENT_3D('',#1714,#1380,#1381);
#1192=AXIS2_PLACEMENT_3D('',#1719,#1383,#1384);
#1193=AXIS2_PLACEMENT_3D('',#1723,#1386,#1387);
#1194=AXIS2_PLACEMENT_3D('',#1727,#1389,#1390);
#1195=AXIS2_PLACEMENT_3D('',#1730,#1392,#1393);
#1196=AXIS2_PLACEMENT_3D('',#1731,#1394,#1395);
#1197=AXIS2_PLACEMENT_3D('',#1733,#1396,#1397);
#1198=AXIS2_PLACEMENT_3D('',#1734,#1398,#1399);
#1199=AXIS2_PLACEMENT_3D('',#1736,#1400,#1401);
#1200=AXIS2_PLACEMENT_3D('',#1737,#1402,#1403);
#1201=AXIS2_PLACEMENT_3D('',#1738,#1404,#1405);
#1202=AXIS2_PLACEMENT_3D('',#1739,#1406,#1407);
#1203=AXIS2_PLACEMENT_3D('',#1740,#1408,#1409);
#1204=AXIS2_PLACEMENT_3D('',#1743,#1411,#1412);
#1205=AXIS2_PLACEMENT_3D('',#1744,#1413,#1414);
#1206=AXIS2_PLACEMENT_3D('',#1746,#1416,#1417);
#1207=AXIS2_PLACEMENT_3D('',#1747,#1418,#1419);
#1208=AXIS2_PLACEMENT_3D('',#1749,#1420,#1421);
#1209=AXIS2_PLACEMENT_3D('',#1750,#1422,#1423);
#1210=AXIS2_PLACEMENT_3D('',#1772,#1424,#1425);
#1211=AXIS2_PLACEMENT_3D('',#1773,#1426,#1427);
#1212=AXIS2_PLACEMENT_3D('',#1774,#1428,#1429);
#1213=AXIS2_PLACEMENT_3D('',#1775,#1430,#1431);
#1214=AXIS2_PLACEMENT_3D('',#1777,#1432,#1433);
#1215=AXIS2_PLACEMENT_3D('',#1778,#1434,#1435);
#1216=AXIS2_PLACEMENT_3D('',#1780,#1436,#1437);
#1217=AXIS2_PLACEMENT_3D('',#1781,#1438,#1439);
#1218=AXIS2_PLACEMENT_3D('',#1782,#1440,#1441);
#1219=AXIS2_PLACEMENT_3D('',#1784,#1442,#1443);
#1220=AXIS2_PLACEMENT_3D('',#1785,#1444,#1445);
#1221=AXIS2_PLACEMENT_3D('',#1787,#1446,#1447);
#1222=AXIS2_PLACEMENT_3D('',#1788,#1448,#1449);
#1223=AXIS2_PLACEMENT_3D('',#1789,#1450,#1451);
#1224=AXIS2_PLACEMENT_3D('',#1809,#1452,#1453);
#1225=AXIS2_PLACEMENT_3D('',#1813,#1455,#1456);
#1226=AXIS2_PLACEMENT_3D('',#1814,#1457,#1458);
#1227=AXIS2_PLACEMENT_3D('',#1815,#1459,#1460);
#1228=AXIS2_PLACEMENT_3D('',#1824,#1464,#1465);
#1229=AXIS2_PLACEMENT_3D('',#1826,#1466,#1467);
#1230=AXIS2_PLACEMENT_3D('',#1827,#1468,#1469);
#1231=AXIS2_PLACEMENT_3D('',#1828,#1470,#1471);
#1232=AXIS2_PLACEMENT_3D('',#1831,#1472,#1473);
#1233=AXIS2_PLACEMENT_3D('',#1833,#1475,#1476);
#1234=AXIS2_PLACEMENT_3D('',#1835,#1477,#1478);
#1235=AXIS2_PLACEMENT_3D('',#1837,#1479,#1480);
#1236=AXIS2_PLACEMENT_3D('',#1841,#1482,#1483);
#1237=AXIS2_PLACEMENT_3D('',#1843,#1484,#1485);
#1238=AXIS2_PLACEMENT_3D('',#1844,#1486,#1487);
#1239=AXIS2_PLACEMENT_3D('',#1846,#1488,#1489);
#1240=AXIS2_PLACEMENT_3D('',#1847,#1490,#1491);
#1241=AXIS2_PLACEMENT_3D('',#1849,#1492,#1493);
#1242=AXIS2_PLACEMENT_3D('',#1852,#1495,#1496);
#1243=AXIS2_PLACEMENT_3D('',#1854,#1497,#1498);
#1244=AXIS2_PLACEMENT_3D('',#1856,#1499,#1500);
#1245=AXIS2_PLACEMENT_3D('',#1858,#1501,#1502);
#1246=AXIS2_PLACEMENT_3D('',#1862,#1504,#1505);
#1247=AXIS2_PLACEMENT_3D('',#1864,#1506,#1507);
#1248=AXIS2_PLACEMENT_3D('',#1865,#1508,#1509);
#1249=AXIS2_PLACEMENT_3D('',#1871,#1513,#1514);
#1250=AXIS2_PLACEMENT_3D('',#1877,#1518,#1519);
#1251=AXIS2_PLACEMENT_3D('',#1878,#1520,#1521);
#1252=AXIS2_PLACEMENT_3D('',#1888,#1522,#1523);
#1253=AXIS2_PLACEMENT_3D('',#1890,#1525,#1526);
#1254=AXIS2_PLACEMENT_3D('',#1891,#1527,#1528);
#1255=AXIS2_PLACEMENT_3D('',#1894,#1530,#1531);
#1256=AXIS2_PLACEMENT_3D('',#1901,#1532,#1533);
#1257=AXIS2_PLACEMENT_3D('',#1903,#1535,#1536);
#1258=AXIS2_PLACEMENT_3D('',#1905,#1538,#1539);
#1259=AXIS2_PLACEMENT_3D('',#1906,#1540,#1541);
#1260=AXIS2_PLACEMENT_3D('',#1908,#1543,#1544);
#1261=AXIS2_PLACEMENT_3D('',#1909,#1545,#1546);
#1262=AXIS2_PLACEMENT_3D('',#1910,#1547,#1548);
#1263=AXIS2_PLACEMENT_3D('',#1913,#1550,#1551);
#1264=AXIS2_PLACEMENT_3D('',#1915,#1553,#1554);
#1265=AXIS2_PLACEMENT_3D('',#1916,#1555,#1556);
#1266=AXIS2_PLACEMENT_3D('',#1918,#1557,#1558);
#1267=AXIS2_PLACEMENT_3D('',#1919,#1559,#1560);
#1268=AXIS2_PLACEMENT_3D('',#1921,#1561,#1562);
#1269=AXIS2_PLACEMENT_3D('',#1922,#1563,#1564);
#1270=AXIS2_PLACEMENT_3D('',#1923,#1565,#1566);
#1271=AXIS2_PLACEMENT_3D('',#1925,#1567,#1568);
#1272=AXIS2_PLACEMENT_3D('',#1926,#1569,#1570);
#1273=AXIS2_PLACEMENT_3D('',#1929,#1573,#1574);
#1274=AXIS2_PLACEMENT_3D('',#1930,#1575,#1576);
#1275=AXIS2_PLACEMENT_3D('',#1931,#1577,#1578);
#1276=DIRECTION('',(0.,0.,1.));
#1277=DIRECTION('',(1.,0.,0.));
#1278=DIRECTION('',(0.,1.,0.));
#1279=DIRECTION('',(0.,0.,1.));
#1280=DIRECTION('',(0.,-1.,0.));
#1281=DIRECTION('',(0.,0.,-1.));
#1282=DIRECTION('',(0.,0.,-1.));
#1283=DIRECTION('',(0.,-1.,0.));
#1284=DIRECTION('',(0.,0.,-1.));
#1285=DIRECTION('',(0.,0.,-1.));
#1286=DIRECTION('',(0.,1.,0.));
#1287=DIRECTION('',(0.,0.,1.));
#1288=DIRECTION('',(0.,-1.,0.));
#1289=DIRECTION('',(0.,0.,-1.));
#1290=DIRECTION('',(0.,0.,-1.));
#1291=DIRECTION('',(0.,-1.,0.));
#1292=DIRECTION('',(0.,0.,-1.));
#1293=DIRECTION('',(0.,0.,-1.));
#1294=DIRECTION('',(0.,-1.,0.));
#1295=DIRECTION('',(0.,0.,-1.));
#1296=DIRECTION('',(0.,-1.,0.));
#1297=DIRECTION('',(0.,0.,-1.));
#1298=DIRECTION('',(0.,-1.,0.));
#1299=DIRECTION('',(0.,1.,0.));
#1300=DIRECTION('',(0.,0.,1.));
#1301=DIRECTION('',(0.,-1.,0.));
#1302=DIRECTION('',(0.,-1.,0.));
#1303=DIRECTION('',(0.,1.,0.));
#1304=DIRECTION('',(0.,0.,1.));
#1305=DIRECTION('',(0.,-1.,0.));
#1306=DIRECTION('',(0.,-1.,0.));
#1307=DIRECTION('',(0.,0.,-1.));
#1308=DIRECTION('',(0.,-1.,0.));
#1309=DIRECTION('',(0.,0.,-1.));
#1310=DIRECTION('',(0.,-1.,0.));
#1311=DIRECTION('',(0.,0.,-1.));
#1312=DIRECTION('',(0.,-1.,0.));
#1313=DIRECTION('',(0.,0.,-1.));
#1314=DIRECTION('',(0.,-1.,0.));
#1315=DIRECTION('',(0.,0.,-1.));
#1316=DIRECTION('',(0.,-1.,0.));
#1317=DIRECTION('',(0.,0.,-1.));
#1318=DIRECTION('',(0.,1.,0.));
#1319=DIRECTION('',(0.,0.,1.));
#1320=DIRECTION('',(0.,-1.,0.));
#1321=DIRECTION('',(0.,0.,-1.));
#1322=DIRECTION('',(0.,-1.,0.));
#1323=DIRECTION('',(0.,0.,-1.));
#1324=DIRECTION('',(0.,-1.,0.));
#1325=DIRECTION('',(0.,0.,-1.));
#1326=DIRECTION('',(0.,-1.,0.));
#1327=DIRECTION('',(0.,0.,-1.));
#1328=DIRECTION('',(0.,-1.,0.));
#1329=DIRECTION('',(0.,0.,-1.));
#1330=DIRECTION('',(0.,1.,0.));
#1331=DIRECTION('',(0.,0.,1.));
#1332=DIRECTION('',(0.,-1.,0.));
#1333=DIRECTION('',(0.,0.,-1.));
#1334=DIRECTION('',(0.,-1.,0.));
#1335=DIRECTION('',(0.,0.,-1.));
#1336=DIRECTION('',(0.,-1.,0.));
#1337=DIRECTION('',(0.,0.,-1.));
#1338=DIRECTION('',(0.,-1.,0.));
#1339=DIRECTION('',(0.,0.,-1.));
#1340=DIRECTION('',(0.,-1.,0.));
#1341=DIRECTION('',(0.,0.,-1.));
#1342=DIRECTION('',(0.,1.,0.));
#1343=DIRECTION('',(0.,0.,1.));
#1344=DIRECTION('',(0.,-1.,0.));
#1345=DIRECTION('',(0.,0.,-1.));
#1346=DIRECTION('',(0.,1.,0.));
#1347=DIRECTION('',(0.,0.,1.));
#1348=DIRECTION('',(0.,-1.,0.));
#1349=DIRECTION('',(0.,0.,-1.));
#1350=DIRECTION('',(0.,-1.,0.));
#1351=DIRECTION('',(0.,0.,-1.));
#1352=DIRECTION('',(0.,-1.,0.));
#1353=DIRECTION('',(0.,0.,-1.));
#1354=DIRECTION('',(0.,-1.,0.));
#1355=DIRECTION('',(0.,0.,-1.));
#1356=DIRECTION('',(0.,1.,0.));
#1357=DIRECTION('',(0.,0.,1.));
#1358=DIRECTION('',(1.,0.,0.));
#1359=DIRECTION('',(0.,0.,-1.));
#1360=DIRECTION('',(-1.,0.,0.));
#1361=DIRECTION('',(0.,0.,-1.));
#1362=DIRECTION('',(-1.,0.,0.));
#1363=DIRECTION('',(0.,1.,0.));
#1364=DIRECTION('',(0.,0.,1.));
#1365=DIRECTION('',(-1.,0.,0.));
#1366=DIRECTION('',(0.,0.,1.));
#1367=DIRECTION('',(1.,0.,0.));
#1368=DIRECTION('',(0.,0.,1.));
#1369=DIRECTION('',(1.,0.,0.));
#1370=DIRECTION('',(0.,0.,-1.));
#1371=DIRECTION('',(-1.,0.,0.));
#1372=DIRECTION('',(0.,0.,-1.));
#1373=DIRECTION('',(-1.,0.,0.));
#1374=DIRECTION('',(0.,0.,1.));
#1375=DIRECTION('',(1.,0.,0.));
#1376=DIRECTION('',(0.,-1.,0.));
#1377=DIRECTION('',(0.,0.,-1.));
#1378=DIRECTION('',(0.,-1.,0.));
#1379=DIRECTION('',(0.,0.,-1.));
#1380=DIRECTION('',(0.,-1.,0.));
#1381=DIRECTION('',(0.,0.,-1.));
#1382=DIRECTION('',(0.,-1.,0.));
#1383=DIRECTION('',(0.,1.,0.));
#1384=DIRECTION('',(0.,0.,1.));
#1385=DIRECTION('',(0.,-1.,0.));
#1386=DIRECTION('',(0.,-1.,0.));
#1387=DIRECTION('',(0.,0.,-1.));
#1388=DIRECTION('',(0.,-1.,0.));
#1389=DIRECTION('',(0.,1.,0.));
#1390=DIRECTION('',(0.,0.,1.));
#1391=DIRECTION('',(0.,-1.,0.));
#1392=DIRECTION('',(0.,1.,0.));
#1393=DIRECTION('',(0.,0.,1.));
#1394=DIRECTION('',(0.,-1.,0.));
#1395=DIRECTION('',(0.,0.,-1.));
#1396=DIRECTION('',(0.,1.,0.));
#1397=DIRECTION('',(0.,0.,1.));
#1398=DIRECTION('',(0.,-1.,0.));
#1399=DIRECTION('',(0.,0.,-1.));
#1400=DIRECTION('',(1.,0.,0.));
#1401=DIRECTION('',(0.,-6.12323399573677E-17,1.));
#1402=DIRECTION('',(-1.,0.,0.));
#1403=DIRECTION('',(0.,0.,1.));
#1404=DIRECTION('',(1.,0.,0.));
#1405=DIRECTION('',(0.,0.,-1.));
#1406=DIRECTION('',(1.,0.,0.));
#1407=DIRECTION('',(0.,0.,-1.));
#1408=DIRECTION('',(1.,0.,0.));
#1409=DIRECTION('',(0.,0.,-1.));
#1410=DIRECTION('',(0.,0.,1.));
#1411=DIRECTION('',(0.,1.,0.));
#1412=DIRECTION('',(0.,0.,1.));
#1413=DIRECTION('',(0.,1.,0.));
#1414=DIRECTION('',(0.,0.,1.));
#1415=DIRECTION('',(0.,0.,-1.));
#1416=DIRECTION('',(-1.,0.,0.));
#1417=DIRECTION('',(0.,0.,1.));
#1418=DIRECTION('',(-1.,0.,0.));
#1419=DIRECTION('',(0.,0.,1.));
#1420=DIRECTION('',(0.,-1.,0.));
#1421=DIRECTION('',(0.,0.,-1.));
#1422=DIRECTION('',(0.,-1.,0.));
#1423=DIRECTION('',(0.,0.,-1.));
#1424=DIRECTION('',(0.,-1.,0.));
#1425=DIRECTION('',(0.,0.,-1.));
#1426=DIRECTION('',(1.,0.,0.));
#1427=DIRECTION('',(0.,0.,-1.));
#1428=DIRECTION('',(-1.,0.,0.));
#1429=DIRECTION('',(0.,0.,1.));
#1430=DIRECTION('',(1.,0.,0.));
#1431=DIRECTION('',(0.,0.,-1.));
#1432=DIRECTION('',(-1.,0.,0.));
#1433=DIRECTION('',(0.,0.,1.));
#1434=DIRECTION('',(1.,0.,0.));
#1435=DIRECTION('',(0.,0.,-1.));
#1436=DIRECTION('',(1.,0.,0.));
#1437=DIRECTION('',(0.,0.,-1.));
#1438=DIRECTION('',(1.,0.,0.));
#1439=DIRECTION('',(0.,0.,-1.));
#1440=DIRECTION('',(1.,0.,0.));
#1441=DIRECTION('',(0.,0.,-1.));
#1442=DIRECTION('',(1.,0.,0.));
#1443=DIRECTION('',(0.,0.,-1.));
#1444=DIRECTION('',(1.,0.,0.));
#1445=DIRECTION('',(0.,0.,-1.));
#1446=DIRECTION('',(1.,0.,0.));
#1447=DIRECTION('',(0.,0.,-1.));
#1448=DIRECTION('',(1.,0.,0.));
#1449=DIRECTION('',(0.,0.,-1.));
#1450=DIRECTION('',(0.,0.,-1.));
#1451=DIRECTION('',(-1.,0.,0.));
#1452=DIRECTION('',(0.,0.,1.));
#1453=DIRECTION('',(1.,0.,0.));
#1454=DIRECTION('',(0.,0.,-1.));
#1455=DIRECTION('',(0.,0.,1.));
#1456=DIRECTION('',(1.,0.,0.));
#1457=DIRECTION('',(-0.743144825477396,-0.669130606358857,0.));
#1458=DIRECTION('',(0.669130606358857,-0.743144825477396,0.));
#1459=DIRECTION('',(0.743144825477396,0.669130606358857,0.));
#1460=DIRECTION('',(0.,0.,-1.));
#1461=DIRECTION('',(-0.669130606358857,0.743144825477395,0.));
#1462=DIRECTION('',(0.,0.,-1.));
#1463=DIRECTION('',(-0.669130606358857,0.743144825477395,0.));
#1464=DIRECTION('',(0.743144825477396,0.669130606358857,0.));
#1465=DIRECTION('',(0.,0.,-1.));
#1466=DIRECTION('',(0.743144825477396,0.669130606358857,0.));
#1467=DIRECTION('',(0.,0.,-1.));
#1468=DIRECTION('',(0.,0.,1.));
#1469=DIRECTION('',(1.,0.,0.));
#1470=DIRECTION('',(0.,0.,1.));
#1471=DIRECTION('',(1.,0.,0.));
#1472=DIRECTION('',(0.,0.,1.));
#1473=DIRECTION('',(1.,0.,0.));
#1474=DIRECTION('',(0.743144825477396,0.669130606358856,0.));
#1475=DIRECTION('',(0.,0.,1.));
#1476=DIRECTION('',(1.,0.,0.));
#1477=DIRECTION('',(0.,0.,1.));
#1478=DIRECTION('',(1.,0.,0.));
#1479=DIRECTION('',(0.,0.,1.));
#1480=DIRECTION('',(1.,0.,0.));
#1481=DIRECTION('',(-0.993408228628129,-0.114630237258429,0.));
#1482=DIRECTION('',(0.,0.,1.));
#1483=DIRECTION('',(1.,0.,0.));
#1484=DIRECTION('',(0.,0.,1.));
#1485=DIRECTION('',(1.,0.,0.));
#1486=DIRECTION('',(0.,0.,-1.));
#1487=DIRECTION('',(-1.,0.,0.));
#1488=DIRECTION('',(0.,0.,1.));
#1489=DIRECTION('',(1.,0.,0.));
#1490=DIRECTION('',(0.,0.,-1.));
#1491=DIRECTION('',(-1.,0.,0.));
#1492=DIRECTION('',(0.,0.,1.));
#1493=DIRECTION('',(1.,0.,0.));
#1494=DIRECTION('',(0.743144825477396,0.669130606358856,0.));
#1495=DIRECTION('',(0.,0.,1.));
#1496=DIRECTION('',(1.,0.,0.));
#1497=DIRECTION('',(0.,0.,1.));
#1498=DIRECTION('',(1.,0.,0.));
#1499=DIRECTION('',(0.,0.,1.));
#1500=DIRECTION('',(1.,0.,0.));
#1501=DIRECTION('',(0.,0.,1.));
#1502=DIRECTION('',(1.,0.,0.));
#1503=DIRECTION('',(-0.993408228628129,-0.114630237258429,0.));
#1504=DIRECTION('',(0.,0.,1.));
#1505=DIRECTION('',(1.,0.,0.));
#1506=DIRECTION('',(0.,0.,1.));
#1507=DIRECTION('',(1.,0.,0.));
#1508=DIRECTION('',(0.114630237258429,-0.993408228628128,0.));
#1509=DIRECTION('',(0.993408228628129,0.114630237258429,0.));
#1510=DIRECTION('',(0.993408228628129,0.114630237258429,0.));
#1511=DIRECTION('',(0.,0.,-1.));
#1512=DIRECTION('',(0.,0.,-1.));
#1513=DIRECTION('',(0.114630237258429,-0.993408228628128,0.));
#1514=DIRECTION('',(0.993408228628129,0.114630237258429,0.));
#1515=DIRECTION('',(-0.993408228628129,-0.114630237258429,0.));
#1516=DIRECTION('',(0.,0.,-1.));
#1517=DIRECTION('',(0.,0.,-1.));
#1518=DIRECTION('',(0.,0.,-1.));
#1519=DIRECTION('',(-1.,0.,0.));
#1520=DIRECTION('',(0.,0.,-1.));
#1521=DIRECTION('',(-1.,0.,0.));
#1522=DIRECTION('',(0.,0.,1.));
#1523=DIRECTION('',(1.,0.,0.));
#1524=DIRECTION('',(0.,0.,-1.));
#1525=DIRECTION('',(0.,0.,-1.));
#1526=DIRECTION('',(-1.,0.,0.));
#1527=DIRECTION('',(0.,0.,-1.));
#1528=DIRECTION('',(-1.,0.,0.));
#1529=DIRECTION('',(0.,0.,-1.));
#1530=DIRECTION('',(0.,0.,1.));
#1531=DIRECTION('',(1.,0.,0.));
#1532=DIRECTION('',(0.,0.,-1.));
#1533=DIRECTION('',(-1.,0.,0.));
#1534=DIRECTION('',(0.,0.,-1.));
#1535=DIRECTION('',(0.,0.,-1.));
#1536=DIRECTION('',(-1.,0.,0.));
#1537=DIRECTION('',(0.,0.,-1.));
#1538=DIRECTION('',(0.,0.,-1.));
#1539=DIRECTION('',(-1.,0.,0.));
#1540=DIRECTION('',(0.,0.,-1.));
#1541=DIRECTION('',(-1.,0.,0.));
#1542=DIRECTION('',(0.,0.,-1.));
#1543=DIRECTION('',(0.,0.,-1.));
#1544=DIRECTION('',(-1.,0.,0.));
#1545=DIRECTION('',(0.,0.,-1.));
#1546=DIRECTION('',(-1.,0.,0.));
#1547=DIRECTION('',(0.,0.,-1.));
#1548=DIRECTION('',(-1.,0.,0.));
#1549=DIRECTION('',(0.,-1.,0.));
#1550=DIRECTION('',(0.,-1.,0.));
#1551=DIRECTION('',(0.,0.,-1.));
#1552=DIRECTION('',(0.,-1.,0.));
#1553=DIRECTION('',(0.,0.,1.));
#1554=DIRECTION('',(1.,0.,0.));
#1555=DIRECTION('',(0.,0.,1.));
#1556=DIRECTION('',(1.,0.,0.));
#1557=DIRECTION('',(0.,0.,-1.));
#1558=DIRECTION('',(-1.,0.,0.));
#1559=DIRECTION('',(0.,0.,-1.));
#1560=DIRECTION('',(-1.,0.,0.));
#1561=DIRECTION('',(0.,0.,-1.));
#1562=DIRECTION('',(-1.,0.,0.));
#1563=DIRECTION('',(0.,0.,-1.));
#1564=DIRECTION('',(-1.,0.,0.));
#1565=DIRECTION('',(0.,0.,-1.));
#1566=DIRECTION('',(-1.,0.,0.));
#1567=DIRECTION('',(0.,0.,1.));
#1568=DIRECTION('',(1.,0.,0.));
#1569=DIRECTION('',(0.743144825477396,0.669130606358856,0.));
#1570=DIRECTION('',(-0.669130606358857,0.743144825477396,0.));
#1571=DIRECTION('',(0.743144825477396,0.669130606358856,0.));
#1572=DIRECTION('',(0.743144825477396,0.669130606358856,0.));
#1573=DIRECTION('',(0.743144825477396,0.669130606358856,0.));
#1574=DIRECTION('',(-0.669130606358857,0.743144825477396,0.));
#1575=DIRECTION('',(0.743144825477396,0.669130606358856,0.));
#1576=DIRECTION('',(-0.669130606358857,0.743144825477396,0.));
#1577=DIRECTION('',(0.,0.,1.));
#1578=DIRECTION('',(1.,0.,0.));
#1579=CARTESIAN_POINT('',(0.,0.,0.));
#1580=CARTESIAN_POINT('',(5.4,6.5,0.));
#1581=CARTESIAN_POINT('',(0.,6.5,0.));
#1582=CARTESIAN_POINT('',(3.96862696659689,6.5,-3.66196668472011));
#1583=CARTESIAN_POINT('',(3.96862696659689,6.5,3.66196668472011));
#1584=CARTESIAN_POINT('',(3.96862696659689,6.5,6.));
#1585=CARTESIAN_POINT('',(3.96862696659689,6.5,-2.12132034355964));
#1586=CARTESIAN_POINT('',(0.,6.5,0.));
#1587=CARTESIAN_POINT('',(3.96862696659689,6.5,2.12132034355964));
#1588=CARTESIAN_POINT('',(3.96862696659689,6.5,6.));
#1589=CARTESIAN_POINT('',(5.4,6.5,0.));
#1590=CARTESIAN_POINT('',(0.,6.5,0.));
#1591=CARTESIAN_POINT('',(-3.96862696659689,6.5,3.66196668472011));
#1592=CARTESIAN_POINT('',(-3.96862696659689,6.5,-3.66196668472011));
#1593=CARTESIAN_POINT('',(-3.96862696659689,6.5,6.));
#1594=CARTESIAN_POINT('',(-3.96862696659689,6.5,2.12132034355964));
#1595=CARTESIAN_POINT('',(0.,6.5,0.));
#1596=CARTESIAN_POINT('',(-3.96862696659689,6.5,-2.12132034355964));
#1597=CARTESIAN_POINT('',(-3.96862696659689,6.5,6.));
#1598=CARTESIAN_POINT('',(0.,-0.5,0.));
#1599=CARTESIAN_POINT('',(0.,-0.5,0.));
#1600=CARTESIAN_POINT('',(0.,-0.5,-4.5));
#1601=CARTESIAN_POINT('',(-3.96862696659689,6.5,2.12132034355964));
#1602=CARTESIAN_POINT('',(-3.7963230562513,6.34804223443387,2.44367144301694));
#1603=CARTESIAN_POINT('',(-3.59176863457554,6.18529764956429,2.73428058681875));
#1604=CARTESIAN_POINT('',(-3.35410196624968,6.0250628144669,3.));
#1605=CARTESIAN_POINT('',(-3.35410196624969,6.0250628144669,3.));
#1606=CARTESIAN_POINT('',(-3.35410196624969,6.5,3.));
#1607=CARTESIAN_POINT('',(-3.35410196624969,1.5,3.));
#1608=CARTESIAN_POINT('',(0.,1.5,0.));
#1609=CARTESIAN_POINT('',(3.35410196624969,1.5,3.));
#1610=CARTESIAN_POINT('',(3.35410196624968,6.5,3.));
#1611=CARTESIAN_POINT('',(3.35410196624968,6.0250628144669,3.));
#1612=CARTESIAN_POINT('',(3.35410196624968,6.0250628144669,3.));
#1613=CARTESIAN_POINT('',(3.59225225648438,6.18562370738871,2.73373988108696));
#1614=CARTESIAN_POINT('',(3.79668080129668,6.34835773590815,2.44300216332113));
#1615=CARTESIAN_POINT('',(3.96862696659689,6.5,2.12132034355964));
#1616=CARTESIAN_POINT('',(3.96862696659689,6.5,-2.12132034355964));
#1617=CARTESIAN_POINT('',(3.7963230562513,6.34804223443387,-2.44367144301694));
#1618=CARTESIAN_POINT('',(3.59176863457554,6.18529764956429,-2.73428058681875));
#1619=CARTESIAN_POINT('',(3.35410196624969,6.0250628144669,-3.));
#1620=CARTESIAN_POINT('',(3.35410196624969,6.0250628144669,-3.));
#1621=CARTESIAN_POINT('',(3.35410196624969,6.5,-3.));
#1622=CARTESIAN_POINT('',(3.35410196624969,1.5,-3.));
#1623=CARTESIAN_POINT('',(0.,1.5,0.));
#1624=CARTESIAN_POINT('',(-3.35410196624969,1.5,-3.));
#1625=CARTESIAN_POINT('',(-3.35410196624968,6.5,-3.));
#1626=CARTESIAN_POINT('',(-3.35410196624968,6.0250628144669,-3.));
#1627=CARTESIAN_POINT('',(-3.35410196624968,6.0250628144669,-3.));
#1628=CARTESIAN_POINT('',(-3.59225225648438,6.18562370738871,-2.73373988108696));
#1629=CARTESIAN_POINT('',(-3.79668080129668,6.34835773590815,-2.44300216332113));
#1630=CARTESIAN_POINT('',(-3.96862696659689,6.5,-2.12132034355964));
#1631=CARTESIAN_POINT('',(0.,-0.5,0.));
#1632=CARTESIAN_POINT('',(-3.3166247903554,6.,-4.87954915950234));
#1633=CARTESIAN_POINT('',(-2.86656204124922,5.70146214581978,-5.18545636980152));
#1634=CARTESIAN_POINT('',(-1.84656778065872,5.19849012665988,-5.69828302141226));
#1635=CARTESIAN_POINT('',(-0.00605186865016776,4.9015094680804,-6.00009017034754));
#1636=CARTESIAN_POINT('',(1.84010566600016,5.19548506523898,-5.70134301154958));
#1637=CARTESIAN_POINT('',(2.86590146519934,5.7010239692392,-5.18590536269642));
#1638=CARTESIAN_POINT('',(3.3166247903554,6.,-4.87954915950234));
#1639=CARTESIAN_POINT('',(-3.3166247903554,6.,-4.87954915950234));
#1640=CARTESIAN_POINT('',(3.3166247903554,6.,-4.87954915950234));
#1641=CARTESIAN_POINT('',(0.,6.,0.));
#1642=CARTESIAN_POINT('',(3.3166247903554,6.,4.87954915950234));
#1643=CARTESIAN_POINT('',(3.3166247903554,6.,4.87954915950234));
#1644=CARTESIAN_POINT('',(2.86656204124922,5.70146214581978,5.18545636980152));
#1645=CARTESIAN_POINT('',(1.84656778065872,5.19849012665988,5.69828302141226));
#1646=CARTESIAN_POINT('',(0.00605186865016776,4.9015094680804,6.00009017034754));
#1647=CARTESIAN_POINT('',(-1.84010566600016,5.19548506523898,5.70134301154958));
#1648=CARTESIAN_POINT('',(-2.86590146519934,5.7010239692392,5.18590536269642));
#1649=CARTESIAN_POINT('',(-3.3166247903554,6.,4.87954915950234));
#1650=CARTESIAN_POINT('',(-3.3166247903554,6.,4.87954915950234));
#1651=CARTESIAN_POINT('',(0.,6.,0.));
#1652=CARTESIAN_POINT('',(0.,3.5,0.));
#1653=CARTESIAN_POINT('',(0.,3.5,-5.9));
#1654=CARTESIAN_POINT('',(0.,6.,0.));
#1655=CARTESIAN_POINT('',(3.96862696659689,6.5,3.66196668472011));
#1656=CARTESIAN_POINT('',(3.78864844805616,6.34127386620247,4.09107728563091));
#1657=CARTESIAN_POINT('',(3.57461131581439,6.17112890118299,4.49727920752079));
#1658=CARTESIAN_POINT('',(3.3166247903554,6.,4.87954915950234));
#1659=CARTESIAN_POINT('',(3.3166247903554,6.,-4.87954915950234));
#1660=CARTESIAN_POINT('',(3.57327742824963,6.17024410027002,-4.49925568723973));
#1661=CARTESIAN_POINT('',(3.7902189524751,6.34265892091095,-4.0873328382357));
#1662=CARTESIAN_POINT('',(3.96862696659689,6.5,-3.66196668472011));
#1663=CARTESIAN_POINT('',(0.,6.,0.));
#1664=CARTESIAN_POINT('',(-3.3166247903554,6.,4.87954915950234));
#1665=CARTESIAN_POINT('',(-3.57344532696464,6.17035547167812,4.49900690434841));
#1666=CARTESIAN_POINT('',(-3.78787725863071,6.34059374105799,4.09291598038433));
#1667=CARTESIAN_POINT('',(-3.96862696659689,6.5,3.66196668472011));
#1668=CARTESIAN_POINT('',(-3.96862696659689,6.5,-3.66196668472011));
#1669=CARTESIAN_POINT('',(-3.78864844805616,6.34127386620247,-4.09107728563091));
#1670=CARTESIAN_POINT('',(-3.57461131581439,6.17112890118299,-4.49727920752079));
#1671=CARTESIAN_POINT('',(-3.3166247903554,6.,-4.87954915950234));
#1672=CARTESIAN_POINT('',(6.125,-0.5,0.));
#1673=CARTESIAN_POINT('',(0.,-0.5,0.));
#1674=CARTESIAN_POINT('',(0.,-0.5,-3.25));
#1675=CARTESIAN_POINT('',(0.,-1.7,0.));
#1676=CARTESIAN_POINT('',(0.,-1.7,0.));
#1677=CARTESIAN_POINT('',(0.,-1.7,-3.25));
#1678=CARTESIAN_POINT('',(3.25,-1.7,0.));
#1679=CARTESIAN_POINT('',(0.,-1.7,0.));
#1680=CARTESIAN_POINT('',(0.,-1.7,-7.));
#1681=CARTESIAN_POINT('',(0.,-1.7,0.));
#1682=CARTESIAN_POINT('',(0.,-1.2,0.));
#1683=CARTESIAN_POINT('',(0.,-1.2,-7.5));
#1684=CARTESIAN_POINT('',(0.,-1.7,0.));
#1685=CARTESIAN_POINT('',(0.,3.3,0.));
#1686=CARTESIAN_POINT('',(0.,3.3,-7.5));
#1687=CARTESIAN_POINT('',(0.,3.3,0.));
#1688=CARTESIAN_POINT('',(0.,3.8,0.));
#1689=CARTESIAN_POINT('',(0.,3.8,-7.));
#1690=CARTESIAN_POINT('',(7.,3.8,0.));
#1691=CARTESIAN_POINT('',(0.,3.8,0.));
#1692=CARTESIAN_POINT('',(0.,3.8,-6.425));
#1693=CARTESIAN_POINT('',(0.,3.8,0.));
#1694=CARTESIAN_POINT('',(0.,3.5,0.));
#1695=CARTESIAN_POINT('',(0.,3.5,-6.125));
#1696=CARTESIAN_POINT('',(0.,-1.7,0.));
#1697=CARTESIAN_POINT('',(0.,3.275,0.));
#1698=CARTESIAN_POINT('',(0.,3.275,-6.125));
#1699=CARTESIAN_POINT('',(0.,2.9,0.));
#1700=CARTESIAN_POINT('',(0.,1.5,0.));
#1701=CARTESIAN_POINT('',(-3.35410196624968,1.5,3.));
#1702=CARTESIAN_POINT('',(-3.35410196624968,6.5,3.));
#1703=CARTESIAN_POINT('',(0.,11.,3.));
#1704=CARTESIAN_POINT('',(0.,1.5,0.));
#1705=CARTESIAN_POINT('',(3.35410196624969,1.5,-3.));
#1706=CARTESIAN_POINT('',(3.35410196624969,6.5,-3.));
#1707=CARTESIAN_POINT('',(0.,11.,-3.));
#1708=CARTESIAN_POINT('',(0.,11.,6.));
#1709=CARTESIAN_POINT('',(0.,11.,6.));
#1710=CARTESIAN_POINT('',(0.,1.7,0.));
#1711=CARTESIAN_POINT('',(0.,0.,0.));
#1712=CARTESIAN_POINT('',(0.,0.3,0.));
#1713=CARTESIAN_POINT('',(0.,0.3,-4.));
#1714=CARTESIAN_POINT('',(0.,11.,0.));
#1715=CARTESIAN_POINT('',(-2.85,11.,-2.80668844013724));
#1716=CARTESIAN_POINT('',(2.85,11.,-2.80668844013724));
#1717=CARTESIAN_POINT('',(2.85,0.,-2.80668844013724));
#1718=CARTESIAN_POINT('',(2.85,0.75,-2.80668844013724));
#1719=CARTESIAN_POINT('',(0.,0.75,0.));
#1720=CARTESIAN_POINT('',(2.85,0.75,2.80668844013724));
#1721=CARTESIAN_POINT('',(2.85,0.,2.80668844013724));
#1722=CARTESIAN_POINT('',(2.85,11.,2.80668844013724));
#1723=CARTESIAN_POINT('',(0.,11.,0.));
#1724=CARTESIAN_POINT('',(-2.85,11.,2.80668844013724));
#1725=CARTESIAN_POINT('',(-2.85,0.,2.80668844013724));
#1726=CARTESIAN_POINT('',(-2.85,0.75,2.80668844013724));
#1727=CARTESIAN_POINT('',(0.,0.75,0.));
#1728=CARTESIAN_POINT('',(-2.85,0.75,-2.80668844013724));
#1729=CARTESIAN_POINT('',(-2.85,0.,-2.80668844013724));
#1730=CARTESIAN_POINT('',(0.,0.3,0.));
#1731=CARTESIAN_POINT('',(0.,0.,0.));
#1732=CARTESIAN_POINT('',(0.,0.,-3.83));
#1733=CARTESIAN_POINT('',(3.83,0.,0.));
#1734=CARTESIAN_POINT('',(0.,0.,0.));
#1735=CARTESIAN_POINT('',(0.,0.,-2.121));
#1736=CARTESIAN_POINT('',(-4.33680868994202E-16,11.,0.));
#1737=CARTESIAN_POINT('',(2.85,11.,0.));
#1738=CARTESIAN_POINT('',(-2.85,11.,0.));
#1739=CARTESIAN_POINT('',(-2.85,20.75,-4.10822346032929));
#1740=CARTESIAN_POINT('',(-2.85,11.,0.));
#1741=CARTESIAN_POINT('',(-2.85,11.,-2.5));
#1742=CARTESIAN_POINT('',(-2.85,0.75,-4.10822346032929));
#1743=CARTESIAN_POINT('',(0.,0.75,0.));
#1744=CARTESIAN_POINT('',(0.,0.75,0.));
#1745=CARTESIAN_POINT('',(2.85,0.75,4.10822346032929));
#1746=CARTESIAN_POINT('',(2.85,20.75,4.10822346032929));
#1747=CARTESIAN_POINT('',(2.85,11.,0.));
#1748=CARTESIAN_POINT('',(2.85,11.,2.5));
#1749=CARTESIAN_POINT('',(0.,0.,0.));
#1750=CARTESIAN_POINT('',(0.,0.5,0.));
#1751=CARTESIAN_POINT('',(0.,0.5,-1.621));
#1752=CARTESIAN_POINT('',(-0.656283373017592,9.01331584092991,-1.52789523009536));
#1753=CARTESIAN_POINT('',(0.00113289136777544,9.13820180243643,-1.66721075645338));
#1754=CARTESIAN_POINT('',(0.65175180754649,9.01437941221707,-1.52926174409111));
#1755=CARTESIAN_POINT('',(1.1677771385662,8.77670909161091,-1.17886252994382));
#1756=CARTESIAN_POINT('',(1.52633186277361,8.56276536699269,-0.660622441631486));
#1757=CARTESIAN_POINT('',(1.66685619370032,8.46954614359248,-0.00907551148694873));
#1758=CARTESIAN_POINT('',(1.53212828290179,8.55912467594448,0.649611554411867));
#1759=CARTESIAN_POINT('',(1.1734789481346,8.77344678163841,1.1729207030707));
#1760=CARTESIAN_POINT('',(0.6623639410387,9.01085600840547,1.52492082061991));
#1761=CARTESIAN_POINT('',(0.00783397906022157,9.13822516824274,1.6672107347543));
#1762=CARTESIAN_POINT('',(-0.646275926797644,9.01664730872976,1.53212062024414));
#1763=CARTESIAN_POINT('',(-1.16564152666183,8.7779351350541,1.18126012817989));
#1764=CARTESIAN_POINT('',(-1.52627422501892,8.56282789903754,0.662106294537787));
#1765=CARTESIAN_POINT('',(-1.66700587028153,8.46943618658228,0.005911502655018));
#1766=CARTESIAN_POINT('',(-1.53163928698564,8.55946820821071,-0.650743654055453));
#1767=CARTESIAN_POINT('',(-1.17057083891515,8.7750940785835,-1.17644721387251));
#1768=CARTESIAN_POINT('',(-0.656283373017592,9.01331584092991,-1.52789523009536));
#1769=CARTESIAN_POINT('',(0.00113289136777544,9.13820180243643,-1.66721075645338));
#1770=CARTESIAN_POINT('',(0.65175180754649,9.01437941221707,-1.52926174409111));
#1771=CARTESIAN_POINT('',(0.,9.09675041048211,-1.621));
#1772=CARTESIAN_POINT('',(0.,0.5,0.));
#1773=CARTESIAN_POINT('',(6.,11.,0.));
#1774=CARTESIAN_POINT('',(6.,13.2,0.));
#1775=CARTESIAN_POINT('',(6.,11.,0.));
#1776=CARTESIAN_POINT('',(6.,11.,-2.2));
#1777=CARTESIAN_POINT('',(5.7,11.,0.));
#1778=CARTESIAN_POINT('',(5.7,11.,0.));
#1779=CARTESIAN_POINT('',(5.7,11.,-2.5));
#1780=CARTESIAN_POINT('',(6.,11.,0.));
#1781=CARTESIAN_POINT('',(6.,11.,0.));
#1782=CARTESIAN_POINT('',(-5.7,11.,0.));
#1783=CARTESIAN_POINT('',(-5.7,11.,-2.5));
#1784=CARTESIAN_POINT('',(-6.,11.,0.));
#1785=CARTESIAN_POINT('',(-6.,11.,0.));
#1786=CARTESIAN_POINT('',(-6.,11.,-2.2));
#1787=CARTESIAN_POINT('',(-6.,11.,0.));
#1788=CARTESIAN_POINT('',(0.,2.2,0.));
#1789=CARTESIAN_POINT('',(50.1965999999999,7.98869999999985,6.));
#1790=CARTESIAN_POINT('',(41.5237731576493,-3.22725999291193,-3.9));
#1791=CARTESIAN_POINT('',(41.3696007870463,-3.10804502825803,-4.50974342471975));
#1792=CARTESIAN_POINT('',(40.7544886694932,-2.62779324638225,-5.57735797697025));
#1793=CARTESIAN_POINT('',(39.8595318618333,-1.73603995529661,-6.));
#1794=CARTESIAN_POINT('',(39.442341230286,-1.25043428379683,-6.));
#1795=CARTESIAN_POINT('',(41.5237731576493,-3.22725999291193,-3.9));
#1796=CARTESIAN_POINT('',(39.442341230286,-1.25043428379683,-6.));
#1797=CARTESIAN_POINT('',(41.5237731576493,-3.22725999291193,3.90000000000001));
#1798=CARTESIAN_POINT('',(41.8445357444209,-3.47529211627299,2.63140123995549));
#1799=CARTESIAN_POINT('',(42.1857475915196,-3.70584086606607,0.0157414199253173));
#1800=CARTESIAN_POINT('',(41.8445644578355,-3.47531431914039,-2.6312876799469));
#1801=CARTESIAN_POINT('',(41.5237731576493,-3.22725999291193,-3.89999999999999));
#1802=CARTESIAN_POINT('',(41.5237731576493,-3.22725999291193,3.90000000000001));
#1803=CARTESIAN_POINT('',(39.442341230286,-1.25043428379683,6.));
#1804=CARTESIAN_POINT('',(39.8594909060941,-1.73599228323086,6.));
#1805=CARTESIAN_POINT('',(40.7494051646793,-2.62319980896429,5.58242709793347));
#1806=CARTESIAN_POINT('',(41.3696253742249,-3.10806404048194,4.50964618375215));
#1807=CARTESIAN_POINT('',(41.5237731576493,-3.22725999291193,3.90000000000001));
#1808=CARTESIAN_POINT('',(39.442341230286,-1.25043428379682,6.));
#1809=CARTESIAN_POINT('',(50.1965999999999,7.98869999999985,6.));
#1810=CARTESIAN_POINT('',(39.2983276829498,-1.08011163678119,6.));
#1811=CARTESIAN_POINT('',(39.2983276829498,-1.08011163678119,6.));
#1812=CARTESIAN_POINT('',(39.2983276829498,-1.08011163678119,-6.));
#1813=CARTESIAN_POINT('',(50.1965999999999,7.98869999999985,-6.));
#1814=CARTESIAN_POINT('',(44.0003412524517,-1.8031,6.));
#1815=CARTESIAN_POINT('',(41.6847425325226,0.768632917675719,-3.));
#1816=CARTESIAN_POINT('',(43.5996722813434,-1.35811202638341,-3.9));
#1817=CARTESIAN_POINT('',(41.6847425325226,0.768632917675721,-6.));
#1818=CARTESIAN_POINT('',(44.0003412524517,-1.8031,-6.));
#1819=CARTESIAN_POINT('',(40.4443764322158,2.14619903164637,-6.));
#1820=CARTESIAN_POINT('',(40.4443764322158,2.14619903164637,6.));
#1821=CARTESIAN_POINT('',(40.4443764322158,2.14619903164637,6.));
#1822=CARTESIAN_POINT('',(44.0003412524517,-1.8031,6.));
#1823=CARTESIAN_POINT('',(41.6847425325226,0.768632917675721,6.));
#1824=CARTESIAN_POINT('',(41.6847425325226,0.768632917675719,3.));
#1825=CARTESIAN_POINT('',(43.5996722813434,-1.3581120263834,3.90000000000001));
#1826=CARTESIAN_POINT('',(35.3016433697866,7.85778273120612,2.60208521396521E-15));
#1827=CARTESIAN_POINT('',(1.73472347597681E-15,-0.5,6.));
#1828=CARTESIAN_POINT('',(-0.982399999997892,-389.314399999972,6.));
#1829=CARTESIAN_POINT('',(37.9736802392122,-0.376454733153897,6.));
#1830=CARTESIAN_POINT('',(9.93452030375204,1.41712202897783,6.));
#1831=CARTESIAN_POINT('',(37.7763504972077,-2.346597106923,6.));
#1832=CARTESIAN_POINT('',(37.9690184051356,-2.57702011411856,6.));
#1833=CARTESIAN_POINT('',(36.7286523048288,-1.19945400014791,6.));
#1834=CARTESIAN_POINT('',(37.3025986607034,3.76749532318711,6.));
#1835=CARTESIAN_POINT('',(-8.60179999999381,-393.490299999921,6.));
#1836=CARTESIAN_POINT('',(12.2653777271634,5.86609553554546,6.));
#1837=CARTESIAN_POINT('',(8.21499999999939,-72.5738000000037,6.));
#1838=CARTESIAN_POINT('',(-4.61436444609831E-13,5.53981306686557,6.));
#1839=CARTESIAN_POINT('',(-4.64073224293315E-13,5.53981306686557,6.));
#1840=CARTESIAN_POINT('',(-0.687781423550573,5.46044937176877,6.));
#1841=CARTESIAN_POINT('',(1.73472347597681E-15,-0.5,6.));
#1842=CARTESIAN_POINT('',(5.86352803161697,-1.7724146424975,6.));
#1843=CARTESIAN_POINT('',(9.82140867157934,-2.63129812691845,6.));
#1844=CARTESIAN_POINT('',(0.,0.,6.));
#1845=CARTESIAN_POINT('',(-2.8,0.,6.));
#1846=CARTESIAN_POINT('',(1.73472347597681E-15,-0.5,-6.));
#1847=CARTESIAN_POINT('',(0.,0.,-6.));
#1848=CARTESIAN_POINT('',(-2.8,0.,-6.));
#1849=CARTESIAN_POINT('',(36.7286523048288,-1.19945400014791,-6.));
#1850=CARTESIAN_POINT('',(37.3025986607034,3.76749532318711,-6.));
#1851=CARTESIAN_POINT('',(37.9690184051356,-2.57702011411856,-6.));
#1852=CARTESIAN_POINT('',(37.7763504972077,-2.346597106923,-6.));
#1853=CARTESIAN_POINT('',(37.9736802392122,-0.376454733153897,-6.));
#1854=CARTESIAN_POINT('',(-0.982399999997892,-389.314399999972,-6.));
#1855=CARTESIAN_POINT('',(9.93452030375204,1.41712202897783,-6.));
#1856=CARTESIAN_POINT('',(9.82140867157934,-2.63129812691845,-6.));
#1857=CARTESIAN_POINT('',(5.86352803161697,-1.7724146424975,-6.));
#1858=CARTESIAN_POINT('',(1.73472347597681E-15,-0.5,-6.));
#1859=CARTESIAN_POINT('',(-0.687781423550573,5.46044937176877,-6.));
#1860=CARTESIAN_POINT('',(-4.64073224293315E-13,5.53981306686557,-6.));
#1861=CARTESIAN_POINT('',(-4.61436444609831E-13,5.53981306686557,-6.));
#1862=CARTESIAN_POINT('',(8.21499999999939,-72.5738000000037,-6.));
#1863=CARTESIAN_POINT('',(12.2653777271634,5.86609553554546,-6.));
#1864=CARTESIAN_POINT('',(-8.60179999999381,-393.490299999921,-6.));
#1865=CARTESIAN_POINT('',(-4.64073224293315E-13,5.53981306686557,6.));
#1866=CARTESIAN_POINT('',(-4.64073224293315E-13,5.53981306686557,3.));
#1867=CARTESIAN_POINT('',(-0.687781423550573,5.46044937176877,3.));
#1868=CARTESIAN_POINT('',(-4.61436444609831E-13,5.53981306686557,3.));
#1869=CARTESIAN_POINT('',(-0.687781423550573,5.46044937176877,6.));
#1870=CARTESIAN_POINT('',(-4.61436444609831E-13,5.53981306686557,6.));
#1871=CARTESIAN_POINT('',(-4.64073224293315E-13,5.53981306686557,6.));
#1872=CARTESIAN_POINT('',(-4.64073224293315E-13,5.53981306686557,-3.));
#1873=CARTESIAN_POINT('',(-4.61436444609831E-13,5.53981306686557,-3.));
#1874=CARTESIAN_POINT('',(-0.687781423550573,5.46044937176877,-3.));
#1875=CARTESIAN_POINT('',(-4.61436444609831E-13,5.53981306686557,6.));
#1876=CARTESIAN_POINT('',(-0.687781423550573,5.46044937176877,6.));
#1877=CARTESIAN_POINT('',(1.73472347597681E-15,-0.5,6.));
#1878=CARTESIAN_POINT('',(1.73472347597681E-15,-0.5,3.));
#1879=CARTESIAN_POINT('',(3.35410196624968,-5.4749371855331,3.));
#1880=CARTESIAN_POINT('',(3.35410196624968,-5.4749371855331,-3.));
#1881=CARTESIAN_POINT('',(3.7072905212529,-5.23681751032634,-2.60512319106894));
#1882=CARTESIAN_POINT('',(4.26782307675763,-4.7448642358562,-1.71462876158188));
#1883=CARTESIAN_POINT('',(4.61608499142982,-4.33051601898386,-0.00407753523937041));
#1884=CARTESIAN_POINT('',(4.26783328387126,-4.74483765331868,1.71685425893004));
#1885=CARTESIAN_POINT('',(3.70742018549562,-5.23673009071174,2.60497822203849));
#1886=CARTESIAN_POINT('',(3.3541019662497,-5.4749371855331,3.00000000000002));
#1887=CARTESIAN_POINT('',(3.35410196624968,-5.4749371855331,-3.));
#1888=CARTESIAN_POINT('',(1.73472347597681E-15,-0.5,-3.));
#1889=CARTESIAN_POINT('',(5.86352803161697,-1.7724146424975,6.));
#1890=CARTESIAN_POINT('',(8.21499999999939,-72.5738000000037,6.));
#1891=CARTESIAN_POINT('',(8.21499999999939,-72.5738000000037,3.));
#1892=CARTESIAN_POINT('',(3.35410196624968,5.82004186060456,3.));
#1893=CARTESIAN_POINT('',(12.2653777271634,5.86609553554546,6.));
#1894=CARTESIAN_POINT('',(8.21499999999939,-72.5738000000037,-3.));
#1895=CARTESIAN_POINT('',(3.35410196624968,5.82004186060456,-3.));
#1896=CARTESIAN_POINT('',(3.35410196624968,5.82004186060456,3.));
#1897=CARTESIAN_POINT('',(4.08990828579588,5.8656663561901,2.17734352561038));
#1898=CARTESIAN_POINT('',(4.91009090929504,5.89972281433977,0.00159875112034497));
#1899=CARTESIAN_POINT('',(4.08990961135014,5.86566643838257,-2.17734204359567));
#1900=CARTESIAN_POINT('',(3.35410196624969,5.82004186060456,-3.));
#1901=CARTESIAN_POINT('',(9.82140867157934,-2.63129812691845,6.));
#1902=CARTESIAN_POINT('',(9.93452030375204,1.41712202897783,6.));
#1903=CARTESIAN_POINT('',(-0.982399999997892,-389.314399999972,6.));
#1904=CARTESIAN_POINT('',(37.9736802392122,-0.376454733153897,6.));
#1905=CARTESIAN_POINT('',(37.7763504972077,-2.346597106923,6.));
#1906=CARTESIAN_POINT('',(36.7286523048288,-1.19945400014791,6.));
#1907=CARTESIAN_POINT('',(37.3025986607034,3.76749532318711,6.));
#1908=CARTESIAN_POINT('',(-8.60179999999381,-393.490299999921,6.));
#1909=CARTESIAN_POINT('',(-10.,10.,3.));
#1910=CARTESIAN_POINT('',(0.,0.,3.));
#1911=CARTESIAN_POINT('',(-2.5,0.,3.));
#1912=CARTESIAN_POINT('',(3.35410196624968,10.,3.));
#1913=CARTESIAN_POINT('',(-3.46944695195361E-15,10.,-8.67361737988404E-16));
#1914=CARTESIAN_POINT('',(3.35410196624968,10.,-3.));
#1915=CARTESIAN_POINT('',(3.35410196624968,10.,-3.));
#1916=CARTESIAN_POINT('',(0.,0.,-3.));
#1917=CARTESIAN_POINT('',(2.5,0.,-3.));
#1918=CARTESIAN_POINT('',(0.,0.,-6.));
#1919=CARTESIAN_POINT('',(0.,0.,-5.7));
#1920=CARTESIAN_POINT('',(-2.5,0.,-5.7));
#1921=CARTESIAN_POINT('',(0.,0.,-5.7));
#1922=CARTESIAN_POINT('',(0.,0.,-6.));
#1923=CARTESIAN_POINT('',(0.,0.,5.7));
#1924=CARTESIAN_POINT('',(-2.5,0.,5.7));
#1925=CARTESIAN_POINT('',(0.,0.,6.));
#1926=CARTESIAN_POINT('',(31.5859192423996,4.51212969941184,2.60208521396521E-15));
#1927=CARTESIAN_POINT('',(39.8839481539564,-4.70376505817769,-3.9));
#1928=CARTESIAN_POINT('',(39.8839481539564,-4.70376505817769,3.90000000000001));
#1929=CARTESIAN_POINT('',(37.9690184051356,-2.57702011411856,3.));
#1930=CARTESIAN_POINT('',(37.9690184051356,-2.57702011411856,-3.));
#1931=CARTESIAN_POINT('',(0.,13.2,0.));
#1932=MECHANICAL_DESIGN_GEOMETRIC_PRESENTATION_REPRESENTATION('',(#897,
#898,#899,#900,#901,#902,#903,#904,#905,#906,#907,#908,#909,#910,#911,#912,
#913,#914,#915,#916,#917,#918,#919,#920),#1933);
#1933=(
GEOMETRIC_REPRESENTATION_CONTEXT(3)
GLOBAL_UNCERTAINTY_ASSIGNED_CONTEXT((#1937))
GLOBAL_UNIT_ASSIGNED_CONTEXT((#1943,#1942,#1941))
REPRESENTATION_CONTEXT(
'Clamping lever with eccentrical cam with internal thread GN 927-44-M4
-A-B (clamped)','TOP_LEVEL_ASSEMBLY_PART')
);
#1934=(
GEOMETRIC_REPRESENTATION_CONTEXT(3)
GLOBAL_UNCERTAINTY_ASSIGNED_CONTEXT((#1938))
GLOBAL_UNIT_ASSIGNED_CONTEXT((#1943,#1942,#1941))
REPRESENTATION_CONTEXT(
'Clamping lever with eccentrical cam with internal thread GN 927-44-M4
-A-B (clamped)_a','COMPONENT_PART')
);
#1935=(
GEOMETRIC_REPRESENTATION_CONTEXT(3)
GLOBAL_UNCERTAINTY_ASSIGNED_CONTEXT((#1939))
GLOBAL_UNIT_ASSIGNED_CONTEXT((#1943,#1942,#1941))
REPRESENTATION_CONTEXT(
'Clamping lever with eccentrical cam with internal thread GN 927-44-M4
-A-B (clamped)_s','COMPONENT_PART')
);
#1936=(
GEOMETRIC_REPRESENTATION_CONTEXT(3)
GLOBAL_UNCERTAINTY_ASSIGNED_CONTEXT((#1940))
GLOBAL_UNIT_ASSIGNED_CONTEXT((#1943,#1942,#1941))
REPRESENTATION_CONTEXT(
'Clamping lever with eccentrical cam with internal thread GN 927-44-M4
-A-B (clamped)_h','COMPONENT_PART')
);
#1937=UNCERTAINTY_MEASURE_WITH_UNIT(LENGTH_MEASURE(1.E-5),#1943,
'DISTANCE_ACCURACY_VALUE','Maximum Tolerance applied to model');
#1938=UNCERTAINTY_MEASURE_WITH_UNIT(LENGTH_MEASURE(1.E-5),#1943,
'DISTANCE_ACCURACY_VALUE','Maximum Tolerance applied to model');
#1939=UNCERTAINTY_MEASURE_WITH_UNIT(LENGTH_MEASURE(1.E-5),#1943,
'DISTANCE_ACCURACY_VALUE','Maximum Tolerance applied to model');
#1940=UNCERTAINTY_MEASURE_WITH_UNIT(LENGTH_MEASURE(1.E-5),#1943,
'DISTANCE_ACCURACY_VALUE','Maximum Tolerance applied to model');
#1941=(
NAMED_UNIT(*)
SI_UNIT($,.STERADIAN.)
SOLID_ANGLE_UNIT()
);
#1942=(
NAMED_UNIT(*)
PLANE_ANGLE_UNIT()
SI_UNIT($,.RADIAN.)
);
#1943=(
LENGTH_UNIT()
NAMED_UNIT(*)
SI_UNIT(.MILLI.,.METRE.)
);
#1944=PRODUCT_DEFINITION_SHAPE('','',#1951);
#1945=PRODUCT_DEFINITION_SHAPE('','',#1952);
#1946=PRODUCT_DEFINITION_SHAPE(' ','NAUO PRDDFN',#22);
#1947=PRODUCT_DEFINITION_SHAPE('','',#1953);
#1948=PRODUCT_DEFINITION_SHAPE(' ','NAUO PRDDFN',#23);
#1949=PRODUCT_DEFINITION_SHAPE('','',#1954);
#1950=PRODUCT_DEFINITION_SHAPE(' ','NAUO PRDDFN',#24);
#1951=PRODUCT_DEFINITION('','',#1959,#1955);
#1952=PRODUCT_DEFINITION('','',#1960,#1956);
#1953=PRODUCT_DEFINITION('','',#1961,#1957);
#1954=PRODUCT_DEFINITION('','',#1962,#1958);
#1955=PRODUCT_DEFINITION_CONTEXT('',#1980,'design');
#1956=PRODUCT_DEFINITION_CONTEXT('',#1980,'design');
#1957=PRODUCT_DEFINITION_CONTEXT('',#1980,'design');
#1958=PRODUCT_DEFINITION_CONTEXT('',#1980,'design');
#1959=PRODUCT_DEFINITION_FORMATION_WITH_SPECIFIED_SOURCE('','',#1967,
 .NOT_KNOWN.);
#1960=PRODUCT_DEFINITION_FORMATION_WITH_SPECIFIED_SOURCE('','',#1968,
 .NOT_KNOWN.);
#1961=PRODUCT_DEFINITION_FORMATION_WITH_SPECIFIED_SOURCE('','',#1969,
 .NOT_KNOWN.);
#1962=PRODUCT_DEFINITION_FORMATION_WITH_SPECIFIED_SOURCE('','',#1970,
 .NOT_KNOWN.);
#1963=PRODUCT_RELATED_PRODUCT_CATEGORY('','',(#1967));
#1964=PRODUCT_RELATED_PRODUCT_CATEGORY('','',(#1968));
#1965=PRODUCT_RELATED_PRODUCT_CATEGORY('','',(#1969));
#1966=PRODUCT_RELATED_PRODUCT_CATEGORY('','',(#1970));
#1967=PRODUCT(
'Clamping lever with eccentrical cam with internal thread GN 927-44-M4
-A-B (clamped)',
'Clamping lever with eccentrical cam with internal thread GN 927-44-M4
-A-B (clamped)',
'Clamping lever with eccentrical cam with internal thread GN 927-44-M4
-A-B (clamped)',(#1975));
#1968=PRODUCT(
'Clamping lever with eccentrical cam with internal thread GN 927-44-M4
-A-B (clamped)_a',
'Clamping lever with eccentrical cam with internal thread GN 927-44-M4
-A-B (clamped)_a',
'Clamping lever with eccentrical cam with internal thread GN 927-44-M4
-A-B (clamped)_a',(#1976));
#1969=PRODUCT(
'Clamping lever with eccentrical cam with internal thread GN 927-44-M4
-A-B (clamped)_s',
'Clamping lever with eccentrical cam with internal thread GN 927-44-M4
-A-B (clamped)_s',
'Clamping lever with eccentrical cam with internal thread GN 927-44-M4
-A-B (clamped)_s',(#1977));
#1970=PRODUCT(
'Clamping lever with eccentrical cam with internal thread GN 927-44-M4
-A-B (clamped)_h',
'Clamping lever with eccentrical cam with internal thread GN 927-44-M4
-A-B (clamped)_h',
'Clamping lever with eccentrical cam with internal thread GN 927-44-M4
-A-B (clamped)_h',(#1978));
#1971=PRODUCT_CATEGORY('','');
#1972=PRODUCT_CATEGORY('','');
#1973=PRODUCT_CATEGORY('','');
#1974=PRODUCT_CATEGORY('','');
#1975=PRODUCT_CONTEXT('',#1980,'mechanical');
#1976=PRODUCT_CONTEXT('',#1980,'mechanical');
#1977=PRODUCT_CONTEXT('',#1980,'mechanical');
#1978=PRODUCT_CONTEXT('',#1980,'mechanical');
#1979=APPLICATION_PROTOCOL_DEFINITION('international standard',
'automotive_design',2010,#1980);
#1980=APPLICATION_CONTEXT(
'core data for automotive mechanical design processes');
ENDSEC;
END-ISO-10303-21;
