ISO-10303-21;
HEADER;
FILE_DESCRIPTION (( 'STEP AP214' ),
    '1' );
FILE_NAME ('Castor Bracket.STEP',
    '2024-11-02T16:50:42',
    ( '' ),
    ( '' ),
    'SwSTEP 2.0',
    'SolidWorks 2023',
    '' );
FILE_SCHEMA (( 'AUTOMOTIVE_DESIGN' ));
ENDSEC;

DATA;
#1 = ORIENTED_EDGE ( 'NONE', *, *, #298, .T. ) ;
#2 = PRODUCT_CONTEXT ( 'NONE', #432, 'mechanical' ) ;
#3 = EDGE_CURVE ( 'NONE', #290, #127, #240, .T. ) ;
#4 = PLANE ( 'NONE',  #467 ) ;
#5 = ORIENTED_EDGE ( 'NONE', *, *, #298, .F. ) ;
#6 = EDGE_LOOP ( 'NONE', ( #63, #134, #45, #327 ) ) ;
#7 = EDGE_LOOP ( 'NONE', ( #218, #160 ) ) ;
#8 = AXIS2_PLACEMENT_3D ( 'NONE', #157, #470, #346 ) ;
#9 = ORIENTED_EDGE ( 'NONE', *, *, #362, .F. ) ;
#10 = CARTESIAN_POINT ( 'NONE',  ( 20.00000000000000000, 20.00000000000000000, 3.000000000000000000 ) ) ;
#11 = EDGE_CURVE ( 'NONE', #35, #148, #452, .T. ) ;
#12 = ORIENTED_EDGE ( 'NONE', *, *, #305, .T. ) ;
#13 = ORIENTED_EDGE ( 'NONE', *, *, #30, .T. ) ;
#14 = CIRCLE ( 'NONE', #448, 3.124999999999999112 ) ;
#15 = ORIENTED_EDGE ( 'NONE', *, *, #237, .F. ) ;
#16 = DIRECTION ( 'NONE',  ( 1.000000000000000000, 0.000000000000000000, 0.000000000000000000 ) ) ;
#17 = AXIS2_PLACEMENT_3D ( 'NONE', #26, #219, #65 ) ;
#18 = COLOUR_RGB ( '',0.7921568627450980005, 0.8196078431372548767, 0.9333333333333333481 ) ;
#19 = DIRECTION ( 'NONE',  ( -1.000000000000000000, 0.000000000000000000, -0.000000000000000000 ) ) ;
#20 = DIRECTION ( 'NONE',  ( -0.000000000000000000, -1.000000000000000000, -0.000000000000000000 ) ) ;
#21 = DIRECTION ( 'NONE',  ( -0.000000000000000000, -0.000000000000000000, 1.000000000000000000 ) ) ;
#22 = CARTESIAN_POINT ( 'NONE',  ( 3.000000000000000000, 3.000000000000000000, 3.000000000000000000 ) ) ;
#23 = CARTESIAN_POINT ( 'NONE',  ( 0.000000000000000000, 40.00000000000000000, 3.000000000000000000 ) ) ;
#24 = DIRECTION ( 'NONE',  ( 1.000000000000000000, 0.000000000000000000, 0.000000000000000000 ) ) ;
#25 = ORIENTED_EDGE ( 'NONE', *, *, #389, .F. ) ;
#26 = CARTESIAN_POINT ( 'NONE',  ( 3.000000000000000000, 3.000000000000000000, 3.000000000000000000 ) ) ;
#27 = CYLINDRICAL_SURFACE ( 'NONE', #276, 3.125000000000002665 ) ;
#28 = CARTESIAN_POINT ( 'NONE',  ( 99.99999999999998579, 20.00000000000000000, 0.000000000000000000 ) ) ;
#29 = DIRECTION ( 'NONE',  ( -1.000000000000000000, 0.000000000000000000, 0.000000000000000000 ) ) ;
#30 = EDGE_CURVE ( 'NONE', #84, #44, #331, .T. ) ;
#31 = CARTESIAN_POINT ( 'NONE',  ( 16.87500000000000000, 20.00000000000000000, 0.000000000000000000 ) ) ;
#32 = CARTESIAN_POINT ( 'NONE',  ( 3.000000000000000000, 3.000000000000000000, 0.000000000000000000 ) ) ;
#33 = EDGE_LOOP ( 'NONE', ( #75, #13, #1, #317 ) ) ;
#34 = DIRECTION ( 'NONE',  ( -1.000000000000000000, -0.000000000000000000, -0.000000000000000000 ) ) ;
#35 = VERTEX_POINT ( 'NONE', #125 ) ;
#36 = DIRECTION ( 'NONE',  ( -1.000000000000000000, 0.000000000000000000, 0.000000000000000000 ) ) ;
#37 = APPLICATION_PROTOCOL_DEFINITION ( 'draft international standard', 'automotive_design', 1998, #432 ) ;
#38 = FACE_BOUND ( 'NONE', #123, .T. ) ;
#39 = AXIS2_PLACEMENT_3D ( 'NONE', #308, #374, #93 ) ;
#40 = VERTEX_POINT ( 'NONE', #272 ) ;
#41 = ORIENTED_EDGE ( 'NONE', *, *, #251, .F. ) ;
#42 =( GEOMETRIC_REPRESENTATION_CONTEXT ( 3 ) GLOBAL_UNCERTAINTY_ASSIGNED_CONTEXT ( ( #172 ) ) GLOBAL_UNIT_ASSIGNED_CONTEXT ( ( #293, #295, #394 ) ) REPRESENTATION_CONTEXT ( 'NONE', 'WORKASPACE' ) );
#43 = ORIENTED_EDGE ( 'NONE', *, *, #251, .T. ) ;
#44 = VERTEX_POINT ( 'NONE', #403 ) ;
#45 = ORIENTED_EDGE ( 'NONE', *, *, #11, .F. ) ;
#46 = EDGE_CURVE ( 'NONE', #352, #178, #213, .T. ) ;
#47 = VECTOR ( 'NONE', #381, 1000.000000000000000 ) ;
#48 = EDGE_LOOP ( 'NONE', ( #280, #442, #117, #87 ) ) ;
#49 = ADVANCED_FACE ( 'NONE', ( #428 ), #181, .F. ) ;
#50 = ORIENTED_EDGE ( 'NONE', *, *, #389, .T. ) ;
#51 = AXIS2_PLACEMENT_3D ( 'NONE', #23, #95, #58 ) ;
#52 = CIRCLE ( 'NONE', #8, 3.000000000000002665 ) ;
#53 = DIRECTION ( 'NONE',  ( -0.000000000000000000, -0.000000000000000000, 1.000000000000000000 ) ) ;
#54 = LINE ( 'NONE', #203, #187 ) ;
#55 = CIRCLE ( 'NONE', #443, 3.000000000000000000 ) ;
#56 = CARTESIAN_POINT ( 'NONE',  ( 0.000000000000000000, 37.00000000000000000, 3.000000000000000000 ) ) ;
#57 = FACE_OUTER_BOUND ( 'NONE', #222, .T. ) ;
#58 = DIRECTION ( 'NONE',  ( 0.000000000000000000, -0.000000000000000000, -1.000000000000000000 ) ) ;
#59 = EDGE_CURVE ( 'NONE', #148, #352, #52, .T. ) ;
#60 = CIRCLE ( 'NONE', #80, 3.124999999999999112 ) ;
#61 = DIRECTION ( 'NONE',  ( 0.000000000000000000, 0.000000000000000000, 1.000000000000000000 ) ) ;
#62 = DIRECTION ( 'NONE',  ( 0.000000000000000000, 0.000000000000000000, -1.000000000000000000 ) ) ;
#63 = ORIENTED_EDGE ( 'NONE', *, *, #237, .T. ) ;
#64 = ADVANCED_FACE ( 'NONE', ( #322 ), #27, .F. ) ;
#65 = DIRECTION ( 'NONE',  ( -1.000000000000000000, 0.000000000000000000, 0.000000000000000000 ) ) ;
#66 = CARTESIAN_POINT ( 'NONE',  ( 117.0000000000000000, 0.000000000000000000, 3.000000000000000000 ) ) ;
#67 = EDGE_CURVE ( 'NONE', #35, #197, #186, .T. ) ;
#68 = LINE ( 'NONE', #173, #396 ) ;
#69 = CARTESIAN_POINT ( 'NONE',  ( 3.000000000000000000, 40.00000000000000000, 3.000000000000000000 ) ) ;
#70 = CARTESIAN_POINT ( 'NONE',  ( 0.000000000000000000, 0.000000000000000000, 0.000000000000000000 ) ) ;
#71 = AXIS2_PLACEMENT_3D ( 'NONE', #196, #53, #202 ) ;
#72 = EDGE_CURVE ( 'NONE', #162, #283, #338, .T. ) ;
#73 = CYLINDRICAL_SURFACE ( 'NONE', #17, 3.000000000000000000 ) ;
#74 = CARTESIAN_POINT ( 'NONE',  ( 0.000000000000000000, 3.000000000000000000, 0.000000000000000000 ) ) ;
#75 = ORIENTED_EDGE ( 'NONE', *, *, #329, .F. ) ;
#76 = CARTESIAN_POINT ( 'NONE',  ( 99.99999999999998579, 20.00000000000000000, 3.000000000000000000 ) ) ;
#77 = ORIENTED_EDGE ( 'NONE', *, *, #191, .F. ) ;
#78 = DIRECTION ( 'NONE',  ( 0.000000000000000000, 0.000000000000000000, 1.000000000000000000 ) ) ;
#79 = AXIS2_PLACEMENT_3D ( 'NONE', #115, #78, #145 ) ;
#80 = AXIS2_PLACEMENT_3D ( 'NONE', #417, #100, #24 ) ;
#81 = ORIENTED_EDGE ( 'NONE', *, *, #362, .T. ) ;
#82 = AXIS2_PLACEMENT_3D ( 'NONE', #450, #92, #19 ) ;
#83 = EDGE_CURVE ( 'NONE', #178, #84, #398, .T. ) ;
#84 = VERTEX_POINT ( 'NONE', #336 ) ;
#85 = MECHANICAL_DESIGN_GEOMETRIC_PRESENTATION_REPRESENTATION (  '', ( #361 ), #42 ) ;
#86 = ADVANCED_FACE ( 'NONE', ( #159, #303, #306 ), #405, .T. ) ;
#87 = ORIENTED_EDGE ( 'NONE', *, *, #72, .F. ) ;
#88 = AXIS2_PLACEMENT_3D ( 'NONE', #282, #177, #108 ) ;
#89 = ORIENTED_EDGE ( 'NONE', *, *, #137, .T. ) ;
#90 = ORIENTED_EDGE ( 'NONE', *, *, #340, .T. ) ;
#91 = ORIENTED_EDGE ( 'NONE', *, *, #130, .F. ) ;
#92 = DIRECTION ( 'NONE',  ( 0.000000000000000000, 0.000000000000000000, -1.000000000000000000 ) ) ;
#93 = DIRECTION ( 'NONE',  ( -1.000000000000000000, 0.000000000000000000, 0.000000000000000000 ) ) ;
#94 = AXIS2_PLACEMENT_3D ( 'NONE', #198, #302, #307 ) ;
#95 = DIRECTION ( 'NONE',  ( 0.000000000000000000, -1.000000000000000000, 0.000000000000000000 ) ) ;
#96 = ADVANCED_FACE ( 'NONE', ( #216 ), #383, .F. ) ;
#97 = CARTESIAN_POINT ( 'NONE',  ( 0.000000000000000000, 0.000000000000000000, 3.000000000000000000 ) ) ;
#98 = CARTESIAN_POINT ( 'NONE',  ( 120.0000000000000000, 3.000000000000000000, 3.000000000000000000 ) ) ;
#99 = DIRECTION ( 'NONE',  ( -0.000000000000000000, -0.000000000000000000, 1.000000000000000000 ) ) ;
#100 = DIRECTION ( 'NONE',  ( 0.000000000000000000, 0.000000000000000000, 1.000000000000000000 ) ) ;
#101 = VERTEX_POINT ( 'NONE', #278 ) ;
#102 = CIRCLE ( 'NONE', #139, 3.125000000000002665 ) ;
#103 = DIRECTION ( 'NONE',  ( 0.000000000000000000, 0.000000000000000000, -1.000000000000000000 ) ) ;
#104 = AXIS2_PLACEMENT_3D ( 'NONE', #176, #425, #107 ) ;
#105 = CARTESIAN_POINT ( 'NONE',  ( 3.000000000000000000, 37.00000000000000000, 3.000000000000000000 ) ) ;
#106 = CARTESIAN_POINT ( 'NONE',  ( 20.00000000000000000, 20.00000000000000000, 3.000000000000000000 ) ) ;
#107 = DIRECTION ( 'NONE',  ( -1.000000000000000000, 0.000000000000000000, 0.000000000000000000 ) ) ;
#108 = DIRECTION ( 'NONE',  ( -1.000000000000000000, 0.000000000000000000, 0.000000000000000000 ) ) ;
#109 = FACE_OUTER_BOUND ( 'NONE', #192, .T. ) ;
#110 = SURFACE_STYLE_USAGE ( .BOTH. , #472 ) ;
#111 = VERTEX_POINT ( 'NONE', #316 ) ;
#112 = PLANE ( 'NONE',  #175 ) ;
#113 = EDGE_LOOP ( 'NONE', ( #229, #89, #185, #473 ) ) ;
#114 = CIRCLE ( 'NONE', #415, 3.000000000000000000 ) ;
#115 = CARTESIAN_POINT ( 'NONE',  ( 0.000000000000000000, 0.000000000000000000, 0.000000000000000000 ) ) ;
#116 = DIRECTION ( 'NONE',  ( -0.000000000000000000, -0.000000000000000000, 1.000000000000000000 ) ) ;
#117 = ORIENTED_EDGE ( 'NONE', *, *, #413, .F. ) ;
#118 = ORIENTED_EDGE ( 'NONE', *, *, #59, .T. ) ;
#119 = ADVANCED_FACE ( 'NONE', ( #345 ), #287, .F. ) ;
#120 = VERTEX_POINT ( 'NONE', #242 ) ;
#121 = VECTOR ( 'NONE', #211, 1000.000000000000000 ) ;
#122 = DIRECTION ( 'NONE',  ( -0.000000000000000000, -0.000000000000000000, -1.000000000000000000 ) ) ;
#123 = EDGE_LOOP ( 'NONE', ( #378, #438 ) ) ;
#124 = AXIS2_PLACEMENT_3D ( 'NONE', #412, #206, #174 ) ;
#125 = CARTESIAN_POINT ( 'NONE',  ( 3.000000000000000000, 0.000000000000000000, 3.000000000000000000 ) ) ;
#126 = CIRCLE ( 'NONE', #375, 3.000000000000000000 ) ;
#127 = VERTEX_POINT ( 'NONE', #248 ) ;
#128 = ORIENTED_EDGE ( 'NONE', *, *, #286, .T. ) ;
#129 = LINE ( 'NONE', #457, #304 ) ;
#130 = EDGE_CURVE ( 'NONE', #299, #101, #142, .T. ) ;
#131 = EDGE_CURVE ( 'NONE', #363, #35, #114, .T. ) ;
#132 = DIRECTION ( 'NONE',  ( 0.000000000000000000, -0.000000000000000000, 1.000000000000000000 ) ) ;
#133 = CARTESIAN_POINT ( 'NONE',  ( 20.00000000000000000, 20.00000000000000000, 0.000000000000000000 ) ) ;
#134 = ORIENTED_EDGE ( 'NONE', *, *, #201, .T. ) ;
#135 = DIRECTION ( 'NONE',  ( -1.000000000000000000, 0.000000000000000000, 0.000000000000000000 ) ) ;
#136 = DIRECTION ( 'NONE',  ( 0.000000000000000000, 0.000000000000000000, -1.000000000000000000 ) ) ;
#137 = EDGE_CURVE ( 'NONE', #40, #290, #212, .T. ) ;
#138 = EDGE_LOOP ( 'NONE', ( #418, #193 ) ) ;
#139 = AXIS2_PLACEMENT_3D ( 'NONE', #433, #460, #135 ) ;
#140 = CARTESIAN_POINT ( 'NONE',  ( 0.000000000000000000, 40.00000000000000000, 3.000000000000000000 ) ) ;
#141 = CARTESIAN_POINT ( 'NONE',  ( 3.000000000000000000, 0.000000000000000000, 3.000000000000000000 ) ) ;
#142 = LINE ( 'NONE', #69, #263 ) ;
#143 = CARTESIAN_POINT ( 'NONE',  ( 103.1250000000000000, 20.00000000000000000, 0.000000000000000000 ) ) ;
#144 = ORIENTED_EDGE ( 'NONE', *, *, #469, .F. ) ;
#145 = DIRECTION ( 'NONE',  ( 1.000000000000000000, 0.000000000000000000, 0.000000000000000000 ) ) ;
#146 = ADVANCED_FACE ( 'NONE', ( #57 ), #426, .T. ) ;
#147 = LINE ( 'NONE', #292, #262 ) ;
#148 = VERTEX_POINT ( 'NONE', #66 ) ;
#149 = CARTESIAN_POINT ( 'NONE',  ( 0.000000000000000000, 0.000000000000000000, 3.000000000000000000 ) ) ;
#150 = ORIENTED_EDGE ( 'NONE', *, *, #137, .F. ) ;
#151 = PRODUCT_RELATED_PRODUCT_CATEGORY ( 'part', '', ( #456 ) ) ;
#152 = ORIENTED_EDGE ( 'NONE', *, *, #179, .T. ) ;
#153 = ADVANCED_FACE ( 'NONE', ( #416 ), #376, .F. ) ;
#154 = ORIENTED_EDGE ( 'NONE', *, *, #397, .T. ) ;
#155 = VECTOR ( 'NONE', #424, 1000.000000000000000 ) ;
#156 = EDGE_LOOP ( 'NONE', ( #249, #128, #225, #90 ) ) ;
#157 = CARTESIAN_POINT ( 'NONE',  ( 117.0000000000000000, 3.000000000000000000, 3.000000000000000000 ) ) ;
#158 = CARTESIAN_POINT ( 'NONE',  ( 117.0000000000000000, 40.00000000000000000, 3.000000000000000000 ) ) ;
#159 = FACE_BOUND ( 'NONE', #367, .T. ) ;
#160 = ORIENTED_EDGE ( 'NONE', *, *, #409, .F. ) ;
#161 = CIRCLE ( 'NONE', #271, 3.124999999999999112 ) ;
#162 = VERTEX_POINT ( 'NONE', #373 ) ;
#163 = PLANE ( 'NONE',  #324 ) ;
#164 = VECTOR ( 'NONE', #116, 1000.000000000000000 ) ;
#165 = CARTESIAN_POINT ( 'NONE',  ( 117.0000000000000000, 37.00000000000000000, 0.000000000000000000 ) ) ;
#166 = EDGE_CURVE ( 'NONE', #162, #297, #401, .T. ) ;
#167 = FACE_OUTER_BOUND ( 'NONE', #33, .T. ) ;
#168 = DIRECTION ( 'NONE',  ( 0.000000000000000000, 0.000000000000000000, 1.000000000000000000 ) ) ;
#169 = EDGE_LOOP ( 'NONE', ( #150, #152, #273, #208 ) ) ;
#170 = DIRECTION ( 'NONE',  ( 0.000000000000000000, 1.000000000000000000, 0.000000000000000000 ) ) ;
#171 = DIRECTION ( 'NONE',  ( -0.000000000000000000, -0.000000000000000000, -1.000000000000000000 ) ) ;
#172 = UNCERTAINTY_MEASURE_WITH_UNIT (LENGTH_MEASURE( 1.000000000000000082E-05 ), #293, 'distance_accuracy_value', 'NONE');
#173 = CARTESIAN_POINT ( 'NONE',  ( 0.000000000000000000, 40.00000000000000000, 0.000000000000000000 ) ) ;
#174 = DIRECTION ( 'NONE',  ( 1.000000000000000000, 0.000000000000000000, 0.000000000000000000 ) ) ;
#175 = AXIS2_PLACEMENT_3D ( 'NONE', #359, #289, #188 ) ;
#176 = CARTESIAN_POINT ( 'NONE',  ( 117.0000000000000000, 37.00000000000000000, 3.000000000000000000 ) ) ;
#177 = DIRECTION ( 'NONE',  ( -0.000000000000000000, -0.000000000000000000, -1.000000000000000000 ) ) ;
#178 = VERTEX_POINT ( 'NONE', #386 ) ;
#179 = EDGE_CURVE ( 'NONE', #40, #120, #235, .T. ) ;
#180 = MANIFOLD_SOLID_BREP ( 'Fillet1', #441 ) ;
#181 = CYLINDRICAL_SURFACE ( 'NONE', #410, 3.124999999999999112 ) ;
#182 =( LENGTH_UNIT ( ) NAMED_UNIT ( * ) SI_UNIT ( .MILLI., .METRE. ) );
#183 = FACE_OUTER_BOUND ( 'NONE', #368, .T. ) ;
#184 = FACE_OUTER_BOUND ( 'NONE', #234, .T. ) ;
#185 = ORIENTED_EDGE ( 'NONE', *, *, #268, .F. ) ;
#186 = LINE ( 'NONE', #141, #214 ) ;
#187 = VECTOR ( 'NONE', #205, 1000.000000000000000 ) ;
#188 = DIRECTION ( 'NONE',  ( -1.000000000000000000, 0.000000000000000000, -0.000000000000000000 ) ) ;
#189 = ORIENTED_EDGE ( 'NONE', *, *, #233, .F. ) ;
#190 = CIRCLE ( 'NONE', #451, 3.000000000000002665 ) ;
#191 = EDGE_CURVE ( 'NONE', #197, #195, #55, .T. ) ;
#192 = EDGE_LOOP ( 'NONE', ( #232, #269, #77, #390 ) ) ;
#193 = ORIENTED_EDGE ( 'NONE', *, *, #3, .T. ) ;
#194 = EDGE_LOOP ( 'NONE', ( #294, #25, #9, #301 ) ) ;
#195 = VERTEX_POINT ( 'NONE', #74 ) ;
#196 = CARTESIAN_POINT ( 'NONE',  ( 117.0000000000000000, 37.00000000000000000, 3.000000000000000000 ) ) ;
#197 = VERTEX_POINT ( 'NONE', #224 ) ;
#198 = CARTESIAN_POINT ( 'NONE',  ( 99.99999999999998579, 20.00000000000000000, 0.000000000000000000 ) ) ;
#199 = CIRCLE ( 'NONE', #420, 3.000000000000002665 ) ;
#200 = VECTOR ( 'NONE', #446, 1000.000000000000000 ) ;
#201 = EDGE_CURVE ( 'NONE', #449, #148, #434, .T. ) ;
#202 = DIRECTION ( 'NONE',  ( -1.000000000000000000, 0.000000000000000000, 0.000000000000000000 ) ) ;
#203 = CARTESIAN_POINT ( 'NONE',  ( 23.12500000000000000, 20.00000000000000000, 3.000000000000000000 ) ) ;
#204 = AXIS2_PLACEMENT_3D ( 'NONE', #105, #350, #256 ) ;
#205 = DIRECTION ( 'NONE',  ( -0.000000000000000000, -0.000000000000000000, -1.000000000000000000 ) ) ;
#206 = DIRECTION ( 'NONE',  ( 0.000000000000000000, 0.000000000000000000, 1.000000000000000000 ) ) ;
#207 = DIRECTION ( 'NONE',  ( -1.000000000000000000, 0.000000000000000000, 0.000000000000000000 ) ) ;
#208 = ORIENTED_EDGE ( 'NONE', *, *, #3, .F. ) ;
#209 = LINE ( 'NONE', #471, #371 ) ;
#210 = DIRECTION ( 'NONE',  ( -1.000000000000000000, 0.000000000000000000, 0.000000000000000000 ) ) ;
#211 = DIRECTION ( 'NONE',  ( 1.000000000000000000, 0.000000000000000000, 0.000000000000000000 ) ) ;
#212 = LINE ( 'NONE', #244, #47 ) ;
#213 = LINE ( 'NONE', #319, #155 ) ;
#214 = VECTOR ( 'NONE', #238, 1000.000000000000000 ) ;
#215 = CARTESIAN_POINT ( 'NONE',  ( 117.0000000000000000, 3.000000000000000000, 0.000000000000000000 ) ) ;
#216 = FACE_OUTER_BOUND ( 'NONE', #402, .T. ) ;
#217 = ADVANCED_FACE ( 'NONE', ( #184, #228, #38 ), #112, .F. ) ;
#218 = ORIENTED_EDGE ( 'NONE', *, *, #166, .F. ) ;
#219 = DIRECTION ( 'NONE',  ( 0.000000000000000000, 0.000000000000000000, -1.000000000000000000 ) ) ;
#220 = ADVANCED_BREP_SHAPE_REPRESENTATION ( 'Castor Bracket', ( #180, #79 ), #447 ) ;
#221 = DIRECTION ( 'NONE',  ( 0.000000000000000000, 0.000000000000000000, -1.000000000000000000 ) ) ;
#222 = EDGE_LOOP ( 'NONE', ( #231, #328, #41, #189 ) ) ;
#223 = ADVANCED_FACE ( 'NONE', ( #325 ), #4, .F. ) ;
#224 = CARTESIAN_POINT ( 'NONE',  ( 3.000000000000000000, 0.000000000000000000, 0.000000000000000000 ) ) ;
#225 = ORIENTED_EDGE ( 'NONE', *, *, #439, .F. ) ;
#226 = ADVANCED_FACE ( 'NONE', ( #354 ), #353, .T. ) ;
#227 = VECTOR ( 'NONE', #380, 1000.000000000000000 ) ;
#228 = FACE_BOUND ( 'NONE', #7, .T. ) ;
#229 = ORIENTED_EDGE ( 'NONE', *, *, #311, .T. ) ;
#230 = ORIENTED_EDGE ( 'NONE', *, *, #397, .F. ) ;
#231 = ORIENTED_EDGE ( 'NONE', *, *, #59, .F. ) ;
#232 = ORIENTED_EDGE ( 'NONE', *, *, #131, .F. ) ;
#233 = EDGE_CURVE ( 'NONE', #352, #267, #254, .T. ) ;
#234 = EDGE_LOOP ( 'NONE', ( #330, #399, #366, #404, #431, #326, #435, #118 ) ) ;
#235 = CIRCLE ( 'NONE', #347, 3.125000000000002665 ) ;
#236 = VERTEX_POINT ( 'NONE', #419 ) ;
#237 = EDGE_CURVE ( 'NONE', #197, #449, #385, .T. ) ;
#238 = DIRECTION ( 'NONE',  ( 0.000000000000000000, 0.000000000000000000, -1.000000000000000000 ) ) ;
#239 = LINE ( 'NONE', #245, #333 ) ;
#240 = CIRCLE ( 'NONE', #94, 3.125000000000002665 ) ;
#241 = DIRECTION ( 'NONE',  ( 0.000000000000000000, 0.000000000000000000, -1.000000000000000000 ) ) ;
#242 = CARTESIAN_POINT ( 'NONE',  ( 96.87499999999998579, 20.00000000000000000, 3.000000000000000000 ) ) ;
#243 = CARTESIAN_POINT ( 'NONE',  ( 0.000000000000000000, 3.000000000000000000, 3.000000000000000000 ) ) ;
#244 = CARTESIAN_POINT ( 'NONE',  ( 103.1250000000000000, 20.00000000000000000, 3.000000000000000000 ) ) ;
#245 = CARTESIAN_POINT ( 'NONE',  ( 0.000000000000000000, 0.000000000000000000, 3.000000000000000000 ) ) ;
#246 = CIRCLE ( 'NONE', #39, 3.000000000000000000 ) ;
#247 = DIRECTION ( 'NONE',  ( -0.000000000000000000, -0.000000000000000000, 1.000000000000000000 ) ) ;
#248 = CARTESIAN_POINT ( 'NONE',  ( 96.87499999999998579, 20.00000000000000000, 0.000000000000000000 ) ) ;
#249 = ORIENTED_EDGE ( 'NONE', *, *, #300, .T. ) ;
#250 = PRESENTATION_LAYER_ASSIGNMENT (  '', '', ( #361 ) ) ;
#251 = EDGE_CURVE ( 'NONE', #267, #449, #190, .T. ) ;
#252 = DIRECTION ( 'NONE',  ( 0.000000000000000000, 1.000000000000000000, 0.000000000000000000 ) ) ;
#253 = ADVANCED_FACE ( 'NONE', ( #109 ), #73, .T. ) ;
#254 = LINE ( 'NONE', #387, #423 ) ;
#255 = DIRECTION ( 'NONE',  ( -1.000000000000000000, 0.000000000000000000, 0.000000000000000000 ) ) ;
#256 = DIRECTION ( 'NONE',  ( -1.000000000000000000, 0.000000000000000000, 0.000000000000000000 ) ) ;
#257 = DIRECTION ( 'NONE',  ( 0.000000000000000000, 0.000000000000000000, -1.000000000000000000 ) ) ;
#258 = ORIENTED_EDGE ( 'NONE', *, *, #409, .T. ) ;
#259 = UNCERTAINTY_MEASURE_WITH_UNIT (LENGTH_MEASURE( 1.000000000000000082E-05 ), #182, 'distance_accuracy_value', 'NONE');
#260 = PRESENTATION_STYLE_ASSIGNMENT (( #110 ) ) ;
#261 = ORIENTED_EDGE ( 'NONE', *, *, #300, .F. ) ;
#262 = VECTOR ( 'NONE', #170, 1000.000000000000000 ) ;
#263 = VECTOR ( 'NONE', #99, 1000.000000000000000 ) ;
#264 = ORIENTED_EDGE ( 'NONE', *, *, #455, .T. ) ;
#265 = APPLICATION_CONTEXT ( 'automotive_design' ) ;
#266 = CIRCLE ( 'NONE', #285, 3.125000000000002665 ) ;
#267 = VERTEX_POINT ( 'NONE', #321 ) ;
#268 = EDGE_CURVE ( 'NONE', #127, #290, #266, .T. ) ;
#269 = ORIENTED_EDGE ( 'NONE', *, *, #286, .F. ) ;
#270 = PRODUCT_DEFINITION_FORMATION_WITH_SPECIFIED_SOURCE ( 'ANY', '', #456, .NOT_KNOWN. ) ;
#271 = AXIS2_PLACEMENT_3D ( 'NONE', #372, #313, #459 ) ;
#272 = CARTESIAN_POINT ( 'NONE',  ( 103.1250000000000000, 20.00000000000000000, 3.000000000000000000 ) ) ;
#273 = ORIENTED_EDGE ( 'NONE', *, *, #343, .T. ) ;
#274 = ADVANCED_FACE ( 'NONE', ( #183 ), #475, .T. ) ;
#275 = CARTESIAN_POINT ( 'NONE',  ( 0.000000000000000000, 0.000000000000000000, 3.000000000000000000 ) ) ;
#276 = AXIS2_PLACEMENT_3D ( 'NONE', #76, #171, #36 ) ;
#277 = DIRECTION ( 'NONE',  ( 0.000000000000000000, 0.000000000000000000, -1.000000000000000000 ) ) ;
#278 = CARTESIAN_POINT ( 'NONE',  ( 3.000000000000000000, 40.00000000000000000, 3.000000000000000000 ) ) ;
#279 = CARTESIAN_POINT ( 'NONE',  ( 23.12500000000000000, 20.00000000000000000, 0.000000000000000000 ) ) ;
#280 = ORIENTED_EDGE ( 'NONE', *, *, #166, .T. ) ;
#281 = LINE ( 'NONE', #140, #227 ) ;
#282 = CARTESIAN_POINT ( 'NONE',  ( 99.99999999999998579, 20.00000000000000000, 3.000000000000000000 ) ) ;
#283 = VERTEX_POINT ( 'NONE', #31 ) ;
#284 = VECTOR ( 'NONE', #344, 1000.000000000000000 ) ;
#285 = AXIS2_PLACEMENT_3D ( 'NONE', #28, #462, #348 ) ;
#286 = EDGE_CURVE ( 'NONE', #195, #363, #209, .T. ) ;
#287 = PLANE ( 'NONE',  #465 ) ;
#288 = LINE ( 'NONE', #429, #284 ) ;
#289 = DIRECTION ( 'NONE',  ( 0.000000000000000000, 0.000000000000000000, -1.000000000000000000 ) ) ;
#290 = VERTEX_POINT ( 'NONE', #143 ) ;
#291 =( NAMED_UNIT ( * ) PLANE_ANGLE_UNIT ( ) SI_UNIT ( $, .RADIAN. ) );
#292 = CARTESIAN_POINT ( 'NONE',  ( 120.0000000000000000, 0.000000000000000000, 0.000000000000000000 ) ) ;
#293 =( LENGTH_UNIT ( ) NAMED_UNIT ( * ) SI_UNIT ( .MILLI., .METRE. ) );
#294 = ORIENTED_EDGE ( 'NONE', *, *, #83, .F. ) ;
#295 =( NAMED_UNIT ( * ) PLANE_ANGLE_UNIT ( ) SI_UNIT ( $, .RADIAN. ) );
#296 = ORIENTED_EDGE ( 'NONE', *, *, #455, .F. ) ;
#297 = VERTEX_POINT ( 'NONE', #382 ) ;
#298 = EDGE_CURVE ( 'NONE', #44, #299, #68, .T. ) ;
#299 = VERTEX_POINT ( 'NONE', #466 ) ;
#300 = EDGE_CURVE ( 'NONE', #111, #195, #288, .T. ) ;
#301 = ORIENTED_EDGE ( 'NONE', *, *, #30, .F. ) ;
#302 = DIRECTION ( 'NONE',  ( 0.000000000000000000, 0.000000000000000000, 1.000000000000000000 ) ) ;
#303 = FACE_OUTER_BOUND ( 'NONE', #400, .T. ) ;
#304 = VECTOR ( 'NONE', #21, 1000.000000000000000 ) ;
#305 = EDGE_CURVE ( 'NONE', #267, #236, #147, .T. ) ;
#306 = FACE_BOUND ( 'NONE', #138, .T. ) ;
#307 = DIRECTION ( 'NONE',  ( -1.000000000000000000, 0.000000000000000000, 0.000000000000000000 ) ) ;
#308 = CARTESIAN_POINT ( 'NONE',  ( 3.000000000000000000, 37.00000000000000000, 3.000000000000000000 ) ) ;
#309 = FACE_OUTER_BOUND ( 'NONE', #427, .T. ) ;
#310 = CARTESIAN_POINT ( 'NONE',  ( 16.87500000000000000, 20.00000000000000000, 3.000000000000000000 ) ) ;
#311 = EDGE_CURVE ( 'NONE', #120, #40, #102, .T. ) ;
#312 = CARTESIAN_POINT ( 'NONE',  ( 117.0000000000000000, 3.000000000000000000, 3.000000000000000000 ) ) ;
#313 = DIRECTION ( 'NONE',  ( 0.000000000000000000, 0.000000000000000000, 1.000000000000000000 ) ) ;
#314 = CARTESIAN_POINT ( 'NONE',  ( 120.0000000000000000, 0.000000000000000000, 3.000000000000000000 ) ) ;
#315 = LINE ( 'NONE', #408, #358 ) ;
#316 = CARTESIAN_POINT ( 'NONE',  ( 0.000000000000000000, 37.00000000000000000, 0.000000000000000000 ) ) ;
#317 = ORIENTED_EDGE ( 'NONE', *, *, #130, .T. ) ;
#318 = VECTOR ( 'NONE', #453, 1000.000000000000000 ) ;
#319 = CARTESIAN_POINT ( 'NONE',  ( 120.0000000000000000, 0.000000000000000000, 3.000000000000000000 ) ) ;
#320 = FILL_AREA_STYLE ('',( #421 ) ) ;
#321 = CARTESIAN_POINT ( 'NONE',  ( 120.0000000000000000, 3.000000000000000000, 0.000000000000000000 ) ) ;
#322 = FACE_OUTER_BOUND ( 'NONE', #113, .T. ) ;
#323 = DIRECTION ( 'NONE',  ( 0.000000000000000000, 0.000000000000000000, -1.000000000000000000 ) ) ;
#324 = AXIS2_PLACEMENT_3D ( 'NONE', #314, #454, #377 ) ;
#325 = FACE_OUTER_BOUND ( 'NONE', #156, .T. ) ;
#326 = ORIENTED_EDGE ( 'NONE', *, *, #131, .T. ) ;
#327 = ORIENTED_EDGE ( 'NONE', *, *, #67, .T. ) ;
#328 = ORIENTED_EDGE ( 'NONE', *, *, #201, .F. ) ;
#329 = EDGE_CURVE ( 'NONE', #84, #101, #281, .T. ) ;
#330 = ORIENTED_EDGE ( 'NONE', *, *, #46, .T. ) ;
#331 = LINE ( 'NONE', #158, #200 ) ;
#332 = ORIENTED_EDGE ( 'NONE', *, *, #46, .F. ) ;
#333 = VECTOR ( 'NONE', #20, 1000.000000000000000 ) ;
#334 = ORIENTED_EDGE ( 'NONE', *, *, #340, .F. ) ;
#335 = CARTESIAN_POINT ( 'NONE',  ( 117.0000000000000000, 0.000000000000000000, 0.000000000000000000 ) ) ;
#336 = CARTESIAN_POINT ( 'NONE',  ( 117.0000000000000000, 40.00000000000000000, 3.000000000000000000 ) ) ;
#337 = PLANE ( 'NONE',  #51 ) ;
#338 = LINE ( 'NONE', #310, #318 ) ;
#339 = CARTESIAN_POINT ( 'NONE',  ( 3.000000000000000000, 37.00000000000000000, 0.000000000000000000 ) ) ;
#340 = EDGE_CURVE ( 'NONE', #364, #111, #315, .T. ) ;
#341 = LINE ( 'NONE', #414, #463 ) ;
#342 = ORIENTED_EDGE ( 'NONE', *, *, #233, .T. ) ;
#343 = EDGE_CURVE ( 'NONE', #120, #127, #341, .T. ) ;
#344 = DIRECTION ( 'NONE',  ( -0.000000000000000000, -1.000000000000000000, -0.000000000000000000 ) ) ;
#345 = FACE_OUTER_BOUND ( 'NONE', #6, .T. ) ;
#346 = DIRECTION ( 'NONE',  ( -1.000000000000000000, 0.000000000000000000, 0.000000000000000000 ) ) ;
#347 = AXIS2_PLACEMENT_3D ( 'NONE', #351, #61, #255 ) ;
#348 = DIRECTION ( 'NONE',  ( -1.000000000000000000, 0.000000000000000000, 0.000000000000000000 ) ) ;
#349 = VECTOR ( 'NONE', #407, 1000.000000000000000 ) ;
#350 = DIRECTION ( 'NONE',  ( 0.000000000000000000, 0.000000000000000000, -1.000000000000000000 ) ) ;
#351 = CARTESIAN_POINT ( 'NONE',  ( 99.99999999999998579, 20.00000000000000000, 3.000000000000000000 ) ) ;
#352 = VERTEX_POINT ( 'NONE', #98 ) ;
#353 = CYLINDRICAL_SURFACE ( 'NONE', #104, 3.000000000000002665 ) ;
#354 = FACE_OUTER_BOUND ( 'NONE', #194, .T. ) ;
#355 =( NAMED_UNIT ( * ) SI_UNIT ( $, .STERADIAN. ) SOLID_ANGLE_UNIT ( ) );
#356 = CARTESIAN_POINT ( 'NONE',  ( 117.0000000000000000, 0.000000000000000000, 3.000000000000000000 ) ) ;
#357 = ORIENTED_EDGE ( 'NONE', *, *, #413, .T. ) ;
#358 = VECTOR ( 'NONE', #277, 1000.000000000000000 ) ;
#359 = CARTESIAN_POINT ( 'NONE',  ( 0.000000000000000000, 0.000000000000000000, 3.000000000000000000 ) ) ;
#360 = ORIENTED_EDGE ( 'NONE', *, *, #379, .F. ) ;
#361 = STYLED_ITEM ( 'NONE', ( #260 ), #180 ) ;
#362 = EDGE_CURVE ( 'NONE', #44, #236, #199, .T. ) ;
#363 = VERTEX_POINT ( 'NONE', #243 ) ;
#364 = VERTEX_POINT ( 'NONE', #56 ) ;
#365 = PRODUCT_DEFINITION ( 'UNKNOWN', '', #270, #384 ) ;
#366 = ORIENTED_EDGE ( 'NONE', *, *, #329, .T. ) ;
#367 = EDGE_LOOP ( 'NONE', ( #357, #154 ) ) ;
#368 = EDGE_LOOP ( 'NONE', ( #360, #91, #296, #334 ) ) ;
#369 = AXIS2_PLACEMENT_3D ( 'NONE', #106, #461, #458 ) ;
#370 = DIRECTION ( 'NONE',  ( -1.000000000000000000, 0.000000000000000000, 0.000000000000000000 ) ) ;
#371 = VECTOR ( 'NONE', #247, 1000.000000000000000 ) ;
#372 = CARTESIAN_POINT ( 'NONE',  ( 20.00000000000000000, 20.00000000000000000, 3.000000000000000000 ) ) ;
#373 = CARTESIAN_POINT ( 'NONE',  ( 16.87500000000000000, 20.00000000000000000, 3.000000000000000000 ) ) ;
#374 = DIRECTION ( 'NONE',  ( -0.000000000000000000, -0.000000000000000000, 1.000000000000000000 ) ) ;
#375 = AXIS2_PLACEMENT_3D ( 'NONE', #339, #62, #370 ) ;
#376 = CYLINDRICAL_SURFACE ( 'NONE', #88, 3.125000000000002665 ) ;
#377 = DIRECTION ( 'NONE',  ( 0.000000000000000000, 0.000000000000000000, 1.000000000000000000 ) ) ;
#378 = ORIENTED_EDGE ( 'NONE', *, *, #311, .F. ) ;
#379 = EDGE_CURVE ( 'NONE', #101, #364, #246, .T. ) ;
#380 = DIRECTION ( 'NONE',  ( -1.000000000000000000, -0.000000000000000000, -0.000000000000000000 ) ) ;
#381 = DIRECTION ( 'NONE',  ( -0.000000000000000000, -0.000000000000000000, -1.000000000000000000 ) ) ;
#382 = CARTESIAN_POINT ( 'NONE',  ( 23.12500000000000000, 20.00000000000000000, 3.000000000000000000 ) ) ;
#383 = CYLINDRICAL_SURFACE ( 'NONE', #369, 3.124999999999999112 ) ;
#384 = PRODUCT_DEFINITION_CONTEXT ( 'detailed design', #265, 'design' ) ;
#385 = LINE ( 'NONE', #70, #121 ) ;
#386 = CARTESIAN_POINT ( 'NONE',  ( 120.0000000000000000, 37.00000000000000000, 3.000000000000000000 ) ) ;
#387 = CARTESIAN_POINT ( 'NONE',  ( 120.0000000000000000, 3.000000000000000000, 3.000000000000000000 ) ) ;
#388 = DIRECTION ( 'NONE',  ( -1.000000000000000000, 0.000000000000000000, 0.000000000000000000 ) ) ;
#389 = EDGE_CURVE ( 'NONE', #236, #178, #129, .T. ) ;
#390 = ORIENTED_EDGE ( 'NONE', *, *, #67, .F. ) ;
#391 = DIRECTION ( 'NONE',  ( -1.000000000000000000, 0.000000000000000000, 0.000000000000000000 ) ) ;
#392 = ORIENTED_EDGE ( 'NONE', *, *, #305, .F. ) ;
#393 = ADVANCED_FACE ( 'NONE', ( #167 ), #337, .F. ) ;
#394 =( NAMED_UNIT ( * ) SI_UNIT ( $, .STERADIAN. ) SOLID_ANGLE_UNIT ( ) );
#395 = VERTEX_POINT ( 'NONE', #279 ) ;
#396 = VECTOR ( 'NONE', #34, 1000.000000000000000 ) ;
#397 = EDGE_CURVE ( 'NONE', #395, #283, #14, .T. ) ;
#398 = CIRCLE ( 'NONE', #71, 3.000000000000002665 ) ;
#399 = ORIENTED_EDGE ( 'NONE', *, *, #83, .T. ) ;
#400 = EDGE_LOOP ( 'NONE', ( #5, #81, #392, #43, #15, #440, #261, #264 ) ) ;
#401 = CIRCLE ( 'NONE', #124, 3.124999999999999112 ) ;
#402 = EDGE_LOOP ( 'NONE', ( #144, #258, #444, #230 ) ) ;
#403 = CARTESIAN_POINT ( 'NONE',  ( 117.0000000000000000, 40.00000000000000000, 0.000000000000000000 ) ) ;
#404 = ORIENTED_EDGE ( 'NONE', *, *, #379, .T. ) ;
#405 = PLANE ( 'NONE',  #82 ) ;
#406 = PRODUCT_DEFINITION_SHAPE ( 'NONE', 'NONE',  #365 ) ;
#407 = DIRECTION ( 'NONE',  ( 1.000000000000000000, 0.000000000000000000, 0.000000000000000000 ) ) ;
#408 = CARTESIAN_POINT ( 'NONE',  ( 0.000000000000000000, 37.00000000000000000, 3.000000000000000000 ) ) ;
#409 = EDGE_CURVE ( 'NONE', #297, #162, #161, .T. ) ;
#410 = AXIS2_PLACEMENT_3D ( 'NONE', #10, #122, #391 ) ;
#411 = DIRECTION ( 'NONE',  ( -0.000000000000000000, -0.000000000000000000, -1.000000000000000000 ) ) ;
#412 = CARTESIAN_POINT ( 'NONE',  ( 20.00000000000000000, 20.00000000000000000, 3.000000000000000000 ) ) ;
#413 = EDGE_CURVE ( 'NONE', #283, #395, #60, .T. ) ;
#414 = CARTESIAN_POINT ( 'NONE',  ( 96.87499999999998579, 20.00000000000000000, 3.000000000000000000 ) ) ;
#415 = AXIS2_PLACEMENT_3D ( 'NONE', #22, #464, #210 ) ;
#416 = FACE_OUTER_BOUND ( 'NONE', #169, .T. ) ;
#417 = CARTESIAN_POINT ( 'NONE',  ( 20.00000000000000000, 20.00000000000000000, 0.000000000000000000 ) ) ;
#418 = ORIENTED_EDGE ( 'NONE', *, *, #268, .T. ) ;
#419 = CARTESIAN_POINT ( 'NONE',  ( 120.0000000000000000, 37.00000000000000000, 0.000000000000000000 ) ) ;
#420 = AXIS2_PLACEMENT_3D ( 'NONE', #165, #241, #207 ) ;
#421 = FILL_AREA_STYLE_COLOUR ( '', #18 ) ;
#422 = DIRECTION ( 'NONE',  ( -1.000000000000000000, 0.000000000000000000, 0.000000000000000000 ) ) ;
#423 = VECTOR ( 'NONE', #103, 1000.000000000000000 ) ;
#424 = DIRECTION ( 'NONE',  ( 0.000000000000000000, 1.000000000000000000, 0.000000000000000000 ) ) ;
#425 = DIRECTION ( 'NONE',  ( 0.000000000000000000, 0.000000000000000000, -1.000000000000000000 ) ) ;
#426 = CYLINDRICAL_SURFACE ( 'NONE', #437, 3.000000000000002665 ) ;
#427 = EDGE_LOOP ( 'NONE', ( #12, #50, #332, #342 ) ) ;
#428 = FACE_OUTER_BOUND ( 'NONE', #48, .T. ) ;
#429 = CARTESIAN_POINT ( 'NONE',  ( 0.000000000000000000, 0.000000000000000000, 0.000000000000000000 ) ) ;
#430 = DIRECTION ( 'NONE',  ( 1.000000000000000000, 0.000000000000000000, 0.000000000000000000 ) ) ;
#431 = ORIENTED_EDGE ( 'NONE', *, *, #439, .T. ) ;
#432 = APPLICATION_CONTEXT ( 'automotive_design' ) ;
#433 = CARTESIAN_POINT ( 'NONE',  ( 99.99999999999998579, 20.00000000000000000, 3.000000000000000000 ) ) ;
#434 = LINE ( 'NONE', #356, #164 ) ;
#435 = ORIENTED_EDGE ( 'NONE', *, *, #11, .T. ) ;
#436 = APPLICATION_PROTOCOL_DEFINITION ( 'draft international standard', 'automotive_design', 1998, #265 ) ;
#437 = AXIS2_PLACEMENT_3D ( 'NONE', #312, #136, #29 ) ;
#438 = ORIENTED_EDGE ( 'NONE', *, *, #179, .F. ) ;
#439 = EDGE_CURVE ( 'NONE', #364, #363, #239, .T. ) ;
#440 = ORIENTED_EDGE ( 'NONE', *, *, #191, .T. ) ;
#441 = CLOSED_SHELL ( 'NONE', ( #64, #49, #217, #86, #223, #119, #445, #393, #96, #153, #226, #146, #253, #274 ) ) ;
#442 = ORIENTED_EDGE ( 'NONE', *, *, #469, .T. ) ;
#443 = AXIS2_PLACEMENT_3D ( 'NONE', #32, #257, #388 ) ;
#444 = ORIENTED_EDGE ( 'NONE', *, *, #72, .T. ) ;
#445 = ADVANCED_FACE ( 'NONE', ( #309 ), #163, .F. ) ;
#446 = DIRECTION ( 'NONE',  ( 0.000000000000000000, 0.000000000000000000, -1.000000000000000000 ) ) ;
#447 =( GEOMETRIC_REPRESENTATION_CONTEXT ( 3 ) GLOBAL_UNCERTAINTY_ASSIGNED_CONTEXT ( ( #259 ) ) GLOBAL_UNIT_ASSIGNED_CONTEXT ( ( #182, #291, #355 ) ) REPRESENTATION_CONTEXT ( 'NONE', 'WORKASPACE' ) );
#448 = AXIS2_PLACEMENT_3D ( 'NONE', #133, #168, #16 ) ;
#449 = VERTEX_POINT ( 'NONE', #335 ) ;
#450 = CARTESIAN_POINT ( 'NONE',  ( 0.000000000000000000, 0.000000000000000000, 0.000000000000000000 ) ) ;
#451 = AXIS2_PLACEMENT_3D ( 'NONE', #215, #323, #422 ) ;
#452 = LINE ( 'NONE', #275, #349 ) ;
#453 = DIRECTION ( 'NONE',  ( -0.000000000000000000, -0.000000000000000000, -1.000000000000000000 ) ) ;
#454 = DIRECTION ( 'NONE',  ( -1.000000000000000000, 0.000000000000000000, 0.000000000000000000 ) ) ;
#455 = EDGE_CURVE ( 'NONE', #111, #299, #126, .T. ) ;
#456 = PRODUCT ( 'Castor Bracket', 'Castor Bracket', '', ( #2 ) ) ;
#457 = CARTESIAN_POINT ( 'NONE',  ( 120.0000000000000000, 37.00000000000000000, 3.000000000000000000 ) ) ;
#458 = DIRECTION ( 'NONE',  ( -1.000000000000000000, 0.000000000000000000, 0.000000000000000000 ) ) ;
#459 = DIRECTION ( 'NONE',  ( 1.000000000000000000, 0.000000000000000000, 0.000000000000000000 ) ) ;
#460 = DIRECTION ( 'NONE',  ( 0.000000000000000000, 0.000000000000000000, 1.000000000000000000 ) ) ;
#461 = DIRECTION ( 'NONE',  ( -0.000000000000000000, -0.000000000000000000, -1.000000000000000000 ) ) ;
#462 = DIRECTION ( 'NONE',  ( 0.000000000000000000, 0.000000000000000000, 1.000000000000000000 ) ) ;
#463 = VECTOR ( 'NONE', #411, 1000.000000000000000 ) ;
#464 = DIRECTION ( 'NONE',  ( -0.000000000000000000, -0.000000000000000000, 1.000000000000000000 ) ) ;
#465 = AXIS2_PLACEMENT_3D ( 'NONE', #97, #252, #132 ) ;
#466 = CARTESIAN_POINT ( 'NONE',  ( 3.000000000000000000, 40.00000000000000000, 0.000000000000000000 ) ) ;
#467 = AXIS2_PLACEMENT_3D ( 'NONE', #149, #430, #221 ) ;
#468 = SURFACE_STYLE_FILL_AREA ( #320 ) ;
#469 = EDGE_CURVE ( 'NONE', #297, #395, #54, .T. ) ;
#470 = DIRECTION ( 'NONE',  ( -0.000000000000000000, -0.000000000000000000, 1.000000000000000000 ) ) ;
#471 = CARTESIAN_POINT ( 'NONE',  ( 0.000000000000000000, 3.000000000000000000, 3.000000000000000000 ) ) ;
#472 = SURFACE_SIDE_STYLE ('',( #468 ) ) ;
#473 = ORIENTED_EDGE ( 'NONE', *, *, #343, .F. ) ;
#474 = SHAPE_DEFINITION_REPRESENTATION ( #406, #220 ) ;
#475 = CYLINDRICAL_SURFACE ( 'NONE', #204, 3.000000000000000000 ) ;
ENDSEC;
END-ISO-10303-21;
