ISO-10303-21;
HEADER;
FILE_DESCRIPTION (( 'STEP AP203' ),
    '1' );
FILE_NAME ('fab_circular bottom.STEP',
    '2026-03-23T17:22:44',
    ( '' ),
    ( '' ),
    'SwSTEP 2.0',
    'SolidWorks 2025',
    '' );
FILE_SCHEMA (( 'CONFIG_CONTROL_DESIGN' ));
ENDSEC;

DATA;
#1 = LINE ( 'NONE', #247, #956 ) ;
#2 = ORIENTED_EDGE ( 'NONE', *, *, #222, .F. ) ;
#3 = CARTESIAN_POINT ( 'NONE',  ( -27.50000000000000000, 1.102182119232617788E-16, -2.499999999999998668 ) ) ;
#4 = ORIENTED_EDGE ( 'NONE', *, *, #36, .F. ) ;
#5 = CARTESIAN_POINT ( 'NONE',  ( 0.000000000000000000, -15.00000000000000000, -25.00000000000000355 ) ) ;
#6 = EDGE_LOOP ( 'NONE', ( #220, #663 ) ) ;
#7 = AXIS2_PLACEMENT_3D ( 'NONE', #708, #146, #301 ) ;
#8 = AXIS2_PLACEMENT_3D ( 'NONE', #577, #155, #488 ) ;
#9 = EDGE_CURVE ( 'NONE', #19, #769, #564, .T. ) ;
#10 = VECTOR ( 'NONE', #882, 1000.000000000000000 ) ;
#11 = CARTESIAN_POINT ( 'NONE',  ( -1.387778780781445676E-14, 0.000000000000000000, 42.50000000000000000 ) ) ;
#12 = APPROVAL_PERSON_ORGANIZATION ( #57, #31, #307 ) ;
#13 = VERTEX_POINT ( 'NONE', #727 ) ;
#14 = DIRECTION ( 'NONE',  ( -0.000000000000000000, -1.000000000000000000, -0.000000000000000000 ) ) ;
#15 = ORIENTED_EDGE ( 'NONE', *, *, #924, .F. ) ;
#16 = DIRECTION ( 'NONE',  ( -0.000000000000000000, -1.000000000000000000, -0.000000000000000000 ) ) ;
#17 = DIRECTION ( 'NONE',  ( -0.000000000000000000, -1.000000000000000000, -0.000000000000000000 ) ) ;
#18 = DIRECTION ( 'NONE',  ( 0.000000000000000000, 0.000000000000000000, 1.000000000000000000 ) ) ;
#19 = VERTEX_POINT ( 'NONE', #832 ) ;
#20 = DIRECTION ( 'NONE',  ( -0.000000000000000000, 1.000000000000000000, -0.000000000000000000 ) ) ;
#21 = DIRECTION ( 'NONE',  ( 0.000000000000000000, 0.000000000000000000, -1.000000000000000000 ) ) ;
#22 = DIRECTION ( 'NONE',  ( 0.000000000000000000, 0.000000000000000000, -1.000000000000000000 ) ) ;
#23 = ORIENTED_EDGE ( 'NONE', *, *, #9, .T. ) ;
#24 = AXIS2_PLACEMENT_3D ( 'NONE', #820, #494, #919 ) ;
#25 = CARTESIAN_POINT ( 'NONE',  ( -33.23401871576773914, -15.00000000000000000, 33.23401871576772493 ) ) ;
#26 = AXIS2_PLACEMENT_3D ( 'NONE', #788, #387, #51 ) ;
#27 = CARTESIAN_POINT ( 'NONE',  ( 0.000000000000000000, 0.000000000000000000, 60.00000000000000000 ) ) ;
#28 = AXIS2_PLACEMENT_3D ( 'NONE', #630, #810, #959 ) ;
#29 = DIRECTION ( 'NONE',  ( -0.000000000000000000, -1.000000000000000000, -0.000000000000000000 ) ) ;
#30 = ORIENTED_EDGE ( 'NONE', *, *, #706, .T. ) ;
#31 = APPROVAL ( #228, 'UNSPECIFIED' ) ;
#32 = ORIENTED_EDGE ( 'NONE', *, *, #499, .T. ) ;
#33 = CYLINDRICAL_SURFACE ( 'NONE', #934, 4.499999999999997335 ) ;
#34 = CYLINDRICAL_SURFACE ( 'NONE', #903, 60.00000000000000000 ) ;
#35 = ORIENTED_EDGE ( 'NONE', *, *, #62, .T. ) ;
#36 = EDGE_CURVE ( 'NONE', #583, #461, #617, .T. ) ;
#37 = FACE_OUTER_BOUND ( 'NONE', #857, .T. ) ;
#38 = CARTESIAN_POINT ( 'NONE',  ( 3.061616997868379690E-16, 1.102182119232617788E-16, -30.00000000000000000 ) ) ;
#39 = EDGE_CURVE ( 'NONE', #343, #13, #252, .T. ) ;
#40 = CARTESIAN_POINT ( 'NONE',  ( -1.387778780781445676E-14, -15.00000000000000000, 42.50000000000000000 ) ) ;
#41 = CIRCLE ( 'NONE', #312, 2.499999999999998668 ) ;
#42 = CARTESIAN_POINT ( 'NONE',  ( -33.23401871576772493, -15.00000000000000000, -33.23401871576772493 ) ) ;
#43 = AXIS2_PLACEMENT_3D ( 'NONE', #299, #405, #1047 ) ;
#44 = DIRECTION ( 'NONE',  ( 0.000000000000000000, 0.000000000000000000, -1.000000000000000000 ) ) ;
#45 = ORIENTED_EDGE ( 'NONE', *, *, #511, .F. ) ;
#46 = CYLINDRICAL_SURFACE ( 'NONE', #159, 2.499999999999998668 ) ;
#47 = EDGE_CURVE ( 'NONE', #501, #741, #1001, .T. ) ;
#48 = CARTESIAN_POINT ( 'NONE',  ( 33.23401871576772493, 0.000000000000000000, -28.73401871576772848 ) ) ;
#49 = FACE_BOUND ( 'NONE', #94, .T. ) ;
#50 = VERTEX_POINT ( 'NONE', #591 ) ;
#51 = DIRECTION ( 'NONE',  ( 0.000000000000000000, 0.000000000000000000, -1.000000000000000000 ) ) ;
#52 = EDGE_CURVE ( 'NONE', #990, #92, #157, .T. ) ;
#53 = FACE_BOUND ( 'NONE', #156, .T. ) ;
#54 = VERTEX_POINT ( 'NONE', #506 ) ;
#55 = DIRECTION ( 'NONE',  ( 0.000000000000000000, 0.000000000000000000, -1.000000000000000000 ) ) ;
#56 = AXIS2_PLACEMENT_3D ( 'NONE', #775, #440, #353 ) ;
#57 = PERSON_AND_ORGANIZATION ( #872, #99 ) ;
#58 = AXIS2_PLACEMENT_3D ( 'NONE', #994, #182, #585 ) ;
#59 = CARTESIAN_POINT ( 'NONE',  ( 0.000000000000000000, 0.000000000000000000, 27.50000000000000000 ) ) ;
#60 = ORIENTED_EDGE ( 'NONE', *, *, #693, .F. ) ;
#61 = CIRCLE ( 'NONE', #551, 4.499999999999997335 ) ;
#62 = EDGE_CURVE ( 'NONE', #77, #753, #195, .T. ) ;
#63 = CARTESIAN_POINT ( 'NONE',  ( -46.99999999999998579, -15.00000000000000000, 4.499999999999992006 ) ) ;
#64 = CALENDAR_DATE ( 2026, 24, 3 ) ;
#65 = FACE_OUTER_BOUND ( 'NONE', #482, .T. ) ;
#66 = ORIENTED_EDGE ( 'NONE', *, *, #1024, .T. ) ;
#67 = LINE ( 'NONE', #391, #227 ) ;
#68 = DATE_AND_TIME ( #971, #518 ) ;
#69 = LINE ( 'NONE', #633, #363 ) ;
#70 = ORIENTED_EDGE ( 'NONE', *, *, #230, .T. ) ;
#71 = DIRECTION ( 'NONE',  ( -0.000000000000000000, -1.000000000000000000, -0.000000000000000000 ) ) ;
#72 = EDGE_CURVE ( 'NONE', #741, #769, #1009, .T. ) ;
#73 = CARTESIAN_POINT ( 'NONE',  ( 0.000000000000000000, 0.000000000000000000, 0.000000000000000000 ) ) ;
#74 = ADVANCED_FACE ( 'NONE', ( #37 ), #277, .F. ) ;
#75 = DIRECTION ( 'NONE',  ( -0.000000000000000000, 1.000000000000000000, -0.000000000000000000 ) ) ;
#76 = AXIS2_PLACEMENT_3D ( 'NONE', #510, #845, #21 ) ;
#77 = VERTEX_POINT ( 'NONE', #273 ) ;
#78 = AXIS2_PLACEMENT_3D ( 'NONE', #974, #891, #327 ) ;
#79 = VECTOR ( 'NONE', #342, 1000.000000000000000 ) ;
#80 = CARTESIAN_POINT ( 'NONE',  ( -27.50000000000000000, 1.102182119232617788E-16, 0.000000000000000000 ) ) ;
#81 = EDGE_LOOP ( 'NONE', ( #825, #722, #746, #759 ) ) ;
#82 = ADVANCED_FACE ( 'NONE', ( #198 ), #595, .F. ) ;
#83 = DIRECTION ( 'NONE',  ( -0.000000000000000000, -1.000000000000000000, -0.000000000000000000 ) ) ;
#84 = APPLICATION_CONTEXT ( 'configuration controlled 3d designs of mechanical parts and assemblies' ) ;
#85 = ORIENTED_EDGE ( 'NONE', *, *, #730, .F. ) ;
#86 = CARTESIAN_POINT ( 'NONE',  ( -1.332669674819814701E-14, -15.00000000000000000, 51.50000000000000000 ) ) ;
#87 = VERTEX_POINT ( 'NONE', #771 ) ;
#88 = CARTESIAN_POINT ( 'NONE',  ( 0.000000000000000000, -15.00000000000000000, 0.000000000000000000 ) ) ;
#89 = ADVANCED_FACE ( 'NONE', ( #930 ), #778, .F. ) ;
#90 = ORIENTED_EDGE ( 'NONE', *, *, #949, .F. ) ;
#91 = DIRECTION ( 'NONE',  ( -0.000000000000000000, -1.000000000000000000, -0.000000000000000000 ) ) ;
#92 = VERTEX_POINT ( 'NONE', #40 ) ;
#93 = CARTESIAN_POINT ( 'NONE',  ( 33.23401871576771782, -15.00000000000000000, 33.23401871576773203 ) ) ;
#94 = EDGE_LOOP ( 'NONE', ( #631, #457 ) ) ;
#95 = CIRCLE ( 'NONE', #780, 4.499999999999997335 ) ;
#96 = CIRCLE ( 'NONE', #797, 60.00000000000000000 ) ;
#97 = CIRCLE ( 'NONE', #533, 4.499999999999997335 ) ;
#98 = DIRECTION ( 'NONE',  ( 0.000000000000000000, 0.000000000000000000, -1.000000000000000000 ) ) ;
#99 = ORGANIZATION ( 'UNSPECIFIED', 'UNSPECIFIED', '' ) ;
#100 = EDGE_LOOP ( 'NONE', ( #626, #90, #734, #335 ) ) ;
#101 = DIRECTION ( 'NONE',  ( 0.000000000000000000, 0.000000000000000000, -1.000000000000000000 ) ) ;
#102 = ORIENTED_EDGE ( 'NONE', *, *, #136, .F. ) ;
#103 = CARTESIAN_POINT ( 'NONE',  ( 3.061616997868380183E-16, 0.000000000000000000, 25.00000000000000000 ) ) ;
#104 = CARTESIAN_POINT ( 'NONE',  ( -33.23401871576773914, -15.00000000000000000, 28.73401871576772848 ) ) ;
#105 = DIRECTION ( 'NONE',  ( 0.000000000000000000, 1.000000000000000000, 0.000000000000000000 ) ) ;
#106 = EDGE_LOOP ( 'NONE', ( #145, #70, #643, #453 ) ) ;
#107 = CARTESIAN_POINT ( 'NONE',  ( -33.23401871576772493, -15.00000000000000000, -37.73401871576772493 ) ) ;
#108 = DIRECTION ( 'NONE',  ( 0.000000000000000000, 0.000000000000000000, -1.000000000000000000 ) ) ;
#109 = EDGE_CURVE ( 'NONE', #426, #514, #917, .T. ) ;
#110 = CARTESIAN_POINT ( 'NONE',  ( 27.50000000000000000, 0.000000000000000000, -2.499999999999996891 ) ) ;
#111 = ORIENTED_EDGE ( 'NONE', *, *, #306, .T. ) ;
#112 = AXIS2_PLACEMENT_3D ( 'NONE', #420, #975, #988 ) ;
#113 = FACE_BOUND ( 'NONE', #521, .T. ) ;
#114 = AXIS2_PLACEMENT_3D ( 'NONE', #381, #970, #234 ) ;
#115 = AXIS2_PLACEMENT_3D ( 'NONE', #535, #779, #1015 ) ;
#116 = CARTESIAN_POINT ( 'NONE',  ( -1.387778780781445676E-14, -15.00000000000000000, 47.00000000000000000 ) ) ;
#117 = DIRECTION ( 'NONE',  ( 0.000000000000000000, 1.000000000000000000, 0.000000000000000000 ) ) ;
#118 = VERTEX_POINT ( 'NONE', #692 ) ;
#119 = ADVANCED_FACE ( 'NONE', ( #599 ), #1014, .F. ) ;
#120 = DIRECTION ( 'NONE',  ( -0.000000000000000000, 1.000000000000000000, -0.000000000000000000 ) ) ;
#121 = EDGE_CURVE ( 'NONE', #257, #343, #95, .T. ) ;
#122 = LINE ( 'NONE', #104, #584 ) ;
#123 = FACE_BOUND ( 'NONE', #1006, .T. ) ;
#124 = AXIS2_PLACEMENT_3D ( 'NONE', #941, #360, #670 ) ;
#125 = DIRECTION ( 'NONE',  ( -0.000000000000000000, -1.000000000000000000, -0.000000000000000000 ) ) ;
#126 = CYLINDRICAL_SURFACE ( 'NONE', #747, 2.499999999999996891 ) ;
#127 = AXIS2_PLACEMENT_3D ( 'NONE', #552, #546, #794 ) ;
#128 = CC_DESIGN_SECURITY_CLASSIFICATION ( #180, ( #316 ) ) ;
#129 = DIRECTION ( 'NONE',  ( 0.000000000000000000, 0.000000000000000000, 1.000000000000000000 ) ) ;
#130 = ORIENTED_EDGE ( 'NONE', *, *, #606, .T. ) ;
#131 = CARTESIAN_POINT ( 'NONE',  ( 33.23401871576772493, 0.000000000000000000, -33.23401871576772493 ) ) ;
#132 = EDGE_CURVE ( 'NONE', #802, #118, #744, .T. ) ;
#133 = DATE_TIME_ROLE ( 'creation_date' ) ;
#134 = ORIENTED_EDGE ( 'NONE', *, *, #397, .T. ) ;
#135 = CARTESIAN_POINT ( 'NONE',  ( 33.23401871576772493, -15.00000000000000000, -28.73401871576772848 ) ) ;
#136 = EDGE_CURVE ( 'NONE', #286, #580, #952, .T. ) ;
#137 = CARTESIAN_POINT ( 'NONE',  ( 0.000000000000000000, 1.102182119232617788E-16, 27.50000000000000000 ) ) ;
#138 = ORIENTED_EDGE ( 'NONE', *, *, #192, .T. ) ;
#139 = FACE_OUTER_BOUND ( 'NONE', #478, .T. ) ;
#140 = VECTOR ( 'NONE', #713, 1000.000000000000000 ) ;
#141 = DATE_AND_TIME ( #376, #1040 ) ;
#142 = CIRCLE ( 'NONE', #229, 60.00000000000000000 ) ;
#143 = CIRCLE ( 'NONE', #233, 2.499999999999995115 ) ;
#144 = CARTESIAN_POINT ( 'NONE',  ( 7.347880794884118356E-15, 0.000000000000000000, -60.00000000000000000 ) ) ;
#145 = ORIENTED_EDGE ( 'NONE', *, *, #306, .F. ) ;
#146 = DIRECTION ( 'NONE',  ( -0.000000000000000000, -1.000000000000000000, -0.000000000000000000 ) ) ;
#147 = CARTESIAN_POINT ( 'NONE',  ( -1.387778780781445676E-14, -15.00000000000000000, 47.00000000000000000 ) ) ;
#148 = ORIENTED_EDGE ( 'NONE', *, *, #326, .T. ) ;
#149 = EDGE_CURVE ( 'NONE', #576, #782, #687, .T. ) ;
#150 = EDGE_CURVE ( 'NONE', #77, #696, #122, .T. ) ;
#151 = CARTESIAN_POINT ( 'NONE',  ( 33.23401871576772493, 0.000000000000000000, -33.23401871576772493 ) ) ;
#152 = APPROVAL_STATUS ( 'not_yet_approved' ) ;
#153 = DIRECTION ( 'NONE',  ( 0.000000000000000000, 1.000000000000000000, 0.000000000000000000 ) ) ;
#154 = EDGE_LOOP ( 'NONE', ( #138, #411 ) ) ;
#155 = DIRECTION ( 'NONE',  ( -0.000000000000000000, -1.000000000000000000, -0.000000000000000000 ) ) ;
#156 = EDGE_LOOP ( 'NONE', ( #878, #537 ) ) ;
#157 = CIRCLE ( 'NONE', #899, 4.499999999999997335 ) ;
#158 = CARTESIAN_POINT ( 'NONE',  ( 33.23401871576771782, -15.00000000000000000, 28.73401871576773559 ) ) ;
#159 = AXIS2_PLACEMENT_3D ( 'NONE', #627, #226, #863 ) ;
#160 = EDGE_LOOP ( 'NONE', ( #955, #667, #1012, #321 ) ) ;
#161 = VECTOR ( 'NONE', #543, 1000.000000000000000 ) ;
#162 = CARTESIAN_POINT ( 'NONE',  ( 0.000000000000000000, -15.00000000000000000, 27.50000000000000000 ) ) ;
#163 = EDGE_CURVE ( 'NONE', #359, #476, #851, .T. ) ;
#164 = ORIENTED_EDGE ( 'NONE', *, *, #62, .F. ) ;
#165 = CARTESIAN_POINT ( 'NONE',  ( 0.000000000000000000, 0.000000000000000000, 27.50000000000000000 ) ) ;
#166 = ORIENTED_EDGE ( 'NONE', *, *, #109, .F. ) ;
#167 = CARTESIAN_POINT ( 'NONE',  ( 46.99999999999999289, -15.00000000000000000, -4.499999999999990230 ) ) ;
#168 = ORIENTED_EDGE ( 'NONE', *, *, #767, .F. ) ;
#169 = FACE_OUTER_BOUND ( 'NONE', #1048, .T. ) ;
#170 = ORIENTED_EDGE ( 'NONE', *, *, #612, .T. ) ;
#171 = EDGE_CURVE ( 'NONE', #973, #331, #379, .T. ) ;
#172 = DIRECTION ( 'NONE',  ( -0.000000000000000000, -1.000000000000000000, -0.000000000000000000 ) ) ;
#173 = VERTEX_POINT ( 'NONE', #27 ) ;
#174 = FACE_OUTER_BOUND ( 'NONE', #160, .T. ) ;
#175 = EDGE_LOOP ( 'NONE', ( #923, #402 ) ) ;
#176 = CLOSED_SHELL ( 'NONE', ( #1046, #673, #491, #823, #526, #718, #184, #992, #661, #418, #74, #937, #757, #1013, #1059, #638, #680, #82, #119, #209, #784, #89, #712, #447, #243, #795, #854, #527 ) ) ;
#177 = VECTOR ( 'NONE', #477, 1000.000000000000000 ) ;
#178 = AXIS2_PLACEMENT_3D ( 'NONE', #165, #758, #495 ) ;
#179 = DIRECTION ( 'NONE',  ( -0.000000000000000000, 1.000000000000000000, -0.000000000000000000 ) ) ;
#180 = SECURITY_CLASSIFICATION ( '', '', #1042 ) ;
#181 = ORIENTED_EDGE ( 'NONE', *, *, #890, .T. ) ;
#182 = DIRECTION ( 'NONE',  ( -0.000000000000000000, 1.000000000000000000, -0.000000000000000000 ) ) ;
#183 = EDGE_LOOP ( 'NONE', ( #249, #1063 ) ) ;
#184 = ADVANCED_FACE ( 'NONE', ( #437 ), #33, .F. ) ;
#185 = FACE_BOUND ( 'NONE', #237, .T. ) ;
#186 = DIRECTION ( 'NONE',  ( 0.000000000000000000, 0.000000000000000000, -1.000000000000000000 ) ) ;
#187 = LINE ( 'NONE', #110, #350 ) ;
#188 = ORIENTED_EDGE ( 'NONE', *, *, #1038, .F. ) ;
#189 = ORIENTED_EDGE ( 'NONE', *, *, #334, .F. ) ;
#190 = DIRECTION ( 'NONE',  ( -0.000000000000000000, 1.000000000000000000, -0.000000000000000000 ) ) ;
#191 = DIRECTION ( 'NONE',  ( -0.000000000000000000, -1.000000000000000000, -0.000000000000000000 ) ) ;
#192 = EDGE_CURVE ( 'NONE', #553, #242, #462, .T. ) ;
#193 = CARTESIAN_POINT ( 'NONE',  ( -1.332669674819814701E-14, -15.00000000000000000, 51.50000000000000000 ) ) ;
#194 = EDGE_LOOP ( 'NONE', ( #649, #245, #660, #711 ) ) ;
#195 = CIRCLE ( 'NONE', #761, 4.499999999999997335 ) ;
#196 = AXIS2_PLACEMENT_3D ( 'NONE', #500, #616, #676 ) ;
#197 = AXIS2_PLACEMENT_3D ( 'NONE', #748, #922, #926 ) ;
#198 = FACE_OUTER_BOUND ( 'NONE', #309, .T. ) ;
#199 = APPROVAL_PERSON_ORGANIZATION ( #637, #558, #388 ) ;
#200 = EDGE_CURVE ( 'NONE', #501, #19, #1029, .T. ) ;
#201 = DIRECTION ( 'NONE',  ( 0.000000000000000000, 0.000000000000000000, 1.000000000000000000 ) ) ;
#202 = ORIENTED_EDGE ( 'NONE', *, *, #192, .F. ) ;
#203 = CARTESIAN_POINT ( 'NONE',  ( 0.000000000000000000, 1.102182119232617788E-16, -27.50000000000000000 ) ) ;
#204 = LINE ( 'NONE', #931, #1035 ) ;
#205 = ORIENTED_EDGE ( 'NONE', *, *, #565, .F. ) ;
#206 = CARTESIAN_POINT ( 'NONE',  ( 0.000000000000000000, 1.102182119232617788E-16, 27.50000000000000000 ) ) ;
#207 = DIRECTION ( 'NONE',  ( 0.000000000000000000, 0.000000000000000000, -1.000000000000000000 ) ) ;
#208 = ORIENTED_EDGE ( 'NONE', *, *, #684, .F. ) ;
#209 = ADVANCED_FACE ( 'NONE', ( #139 ), #464, .F. ) ;
#210 = CARTESIAN_POINT ( 'NONE',  ( 33.23401871576772493, -15.00000000000000000, -28.73401871576772848 ) ) ;
#211 = CIRCLE ( 'NONE', #724, 2.499999999999995115 ) ;
#212 = DIRECTION ( 'NONE',  ( 0.000000000000000000, 0.000000000000000000, -1.000000000000000000 ) ) ;
#213 = AXIS2_PLACEMENT_3D ( 'NONE', #88, #657, #507 ) ;
#214 = CARTESIAN_POINT ( 'NONE',  ( 27.50000000000000000, -15.00000000000000000, 0.000000000000000000 ) ) ;
#215 = ORIENTED_EDGE ( 'NONE', *, *, #946, .T. ) ;
#216 = CARTESIAN_POINT ( 'NONE',  ( 6.938893903907228378E-15, -15.00000000000000000, -47.00000000000000000 ) ) ;
#217 = EDGE_CURVE ( 'NONE', #894, #422, #470, .T. ) ;
#218 = PERSON_AND_ORGANIZATION ( #872, #99 ) ;
#219 = FACE_OUTER_BOUND ( 'NONE', #106, .T. ) ;
#220 = ORIENTED_EDGE ( 'NONE', *, *, #803, .T. ) ;
#221 = CARTESIAN_POINT ( 'NONE',  ( 33.23401871576771782, -15.00000000000000000, 33.23401871576773203 ) ) ;
#222 = EDGE_CURVE ( 'NONE', #378, #409, #67, .T. ) ;
#223 = APPLICATION_PROTOCOL_DEFINITION ( 'international standard', 'config_control_design', 1994, #84 ) ;
#224 = LINE ( 'NONE', #471, #480 ) ;
#225 = ORIENTED_EDGE ( 'NONE', *, *, #150, .T. ) ;
#226 = DIRECTION ( 'NONE',  ( -0.000000000000000000, 1.000000000000000000, -0.000000000000000000 ) ) ;
#227 = VECTOR ( 'NONE', #950, 1000.000000000000000 ) ;
#228 = APPROVAL_STATUS ( 'not_yet_approved' ) ;
#229 = AXIS2_PLACEMENT_3D ( 'NONE', #866, #509, #590 ) ;
#230 = EDGE_CURVE ( 'NONE', #1057, #359, #717, .T. ) ;
#231 = FACE_OUTER_BOUND ( 'NONE', #567, .T. ) ;
#232 = VERTEX_POINT ( 'NONE', #375 ) ;
#233 = AXIS2_PLACEMENT_3D ( 'NONE', #855, #678, #430 ) ;
#234 = DIRECTION ( 'NONE',  ( 0.000000000000000000, 0.000000000000000000, -1.000000000000000000 ) ) ;
#235 = APPROVAL_ROLE ( '' ) ;
#236 = DIRECTION ( 'NONE',  ( -0.000000000000000000, 1.000000000000000000, -0.000000000000000000 ) ) ;
#237 = EDGE_LOOP ( 'NONE', ( #766, #489 ) ) ;
#238 = DIRECTION ( 'NONE',  ( -0.000000000000000000, 1.000000000000000000, -0.000000000000000000 ) ) ;
#239 = CARTESIAN_POINT ( 'NONE',  ( 33.23401871576771782, 0.000000000000000000, 33.23401871576773203 ) ) ;
#240 =( NAMED_UNIT ( * ) SI_UNIT ( $, .STERADIAN. ) SOLID_ANGLE_UNIT ( ) );
#241 = DIRECTION ( 'NONE',  ( 0.000000000000000000, 0.000000000000000000, -1.000000000000000000 ) ) ;
#242 = VERTEX_POINT ( 'NONE', #534 ) ;
#243 = ADVANCED_FACE ( 'NONE', ( #961 ), #46, .F. ) ;
#244 = CYLINDRICAL_SURFACE ( 'NONE', #8, 4.499999999999997335 ) ;
#245 = ORIENTED_EDGE ( 'NONE', *, *, #1038, .T. ) ;
#246 = AXIS2_PLACEMENT_3D ( 'NONE', #935, #120, #284 ) ;
#247 = CARTESIAN_POINT ( 'NONE',  ( -1.387778780781445676E-14, -15.00000000000000000, 42.50000000000000000 ) ) ;
#248 = AXIS2_PLACEMENT_3D ( 'NONE', #221, #369, #55 ) ;
#249 = ORIENTED_EDGE ( 'NONE', *, *, #720, .T. ) ;
#250 = CC_DESIGN_APPROVAL ( #558, ( #180 ) ) ;
#251 = CARTESIAN_POINT ( 'NONE',  ( 6.938893903907228378E-15, -15.00000000000000000, -47.00000000000000000 ) ) ;
#252 = LINE ( 'NONE', #751, #1017 ) ;
#253 = EDGE_CURVE ( 'NONE', #257, #266, #458, .T. ) ;
#254 = DIRECTION ( 'NONE',  ( -0.000000000000000000, -1.000000000000000000, -0.000000000000000000 ) ) ;
#255 = ORIENTED_EDGE ( 'NONE', *, *, #962, .T. ) ;
#256 = DIRECTION ( 'NONE',  ( -0.000000000000000000, -1.000000000000000000, -0.000000000000000000 ) ) ;
#257 = VERTEX_POINT ( 'NONE', #632 ) ;
#258 = CARTESIAN_POINT ( 'NONE',  ( -33.23401871576772493, -15.00000000000000000, -33.23401871576772493 ) ) ;
#259 = ORIENTED_EDGE ( 'NONE', *, *, #407, .F. ) ;
#260 = CARTESIAN_POINT ( 'NONE',  ( 0.000000000000000000, -15.00000000000000000, -27.50000000000000000 ) ) ;
#261 = VERTEX_POINT ( 'NONE', #296 ) ;
#262 = DIRECTION ( 'NONE',  ( 0.000000000000000000, 0.000000000000000000, -1.000000000000000000 ) ) ;
#263 = EDGE_CURVE ( 'NONE', #769, #19, #620, .T. ) ;
#264 = EDGE_LOOP ( 'NONE', ( #578, #130 ) ) ;
#265 = EDGE_CURVE ( 'NONE', #782, #331, #454, .T. ) ;
#266 = VERTEX_POINT ( 'NONE', #870 ) ;
#267 = AXIS2_PLACEMENT_3D ( 'NONE', #829, #733, #333 ) ;
#268 = VECTOR ( 'NONE', #105, 1000.000000000000000 ) ;
#269 = CARTESIAN_POINT ( 'NONE',  ( -27.50000000000000000, -15.00000000000000000, 0.000000000000000000 ) ) ;
#270 = CARTESIAN_POINT ( 'NONE',  ( -1.387778780781445676E-14, -15.00000000000000000, 47.00000000000000000 ) ) ;
#271 = ORIENTED_EDGE ( 'NONE', *, *, #171, .T. ) ;
#272 = DIRECTION ( 'NONE',  ( -0.000000000000000000, -1.000000000000000000, -0.000000000000000000 ) ) ;
#273 = CARTESIAN_POINT ( 'NONE',  ( -33.23401871576773914, 0.000000000000000000, 28.73401871576772848 ) ) ;
#274 = FACE_BOUND ( 'NONE', #304, .T. ) ;
#275 = EDGE_LOOP ( 'NONE', ( #593, #860, #571, #943 ) ) ;
#276 = EDGE_CURVE ( 'NONE', #50, #461, #886, .T. ) ;
#277 = CYLINDRICAL_SURFACE ( 'NONE', #723, 4.499999999999997335 ) ;
#278 = CARTESIAN_POINT ( 'NONE',  ( 0.000000000000000000, -15.00000000000000000, 60.00000000000000000 ) ) ;
#279 = EDGE_LOOP ( 'NONE', ( #689, #705 ) ) ;
#280 = ORIENTED_EDGE ( 'NONE', *, *, #837, .F. ) ;
#281 = AXIS2_PLACEMENT_3D ( 'NONE', #879, #449, #1041 ) ;
#282 = CIRCLE ( 'NONE', #26, 4.499999999999997335 ) ;
#283 = AXIS2_PLACEMENT_3D ( 'NONE', #59, #715, #384 ) ;
#284 = DIRECTION ( 'NONE',  ( 0.000000000000000000, 0.000000000000000000, 1.000000000000000000 ) ) ;
#285 = FACE_BOUND ( 'NONE', #154, .T. ) ;
#286 = VERTEX_POINT ( 'NONE', #636 ) ;
#287 = DIRECTION ( 'NONE',  ( -0.000000000000000000, -1.000000000000000000, -0.000000000000000000 ) ) ;
#288 = FACE_BOUND ( 'NONE', #340, .T. ) ;
#289 = CARTESIAN_POINT ( 'NONE',  ( 0.000000000000000000, 0.000000000000000000, 0.000000000000000000 ) ) ;
#290 = EDGE_LOOP ( 'NONE', ( #749, #668 ) ) ;
#291 = DIRECTION ( 'NONE',  ( -0.000000000000000000, -1.000000000000000000, -0.000000000000000000 ) ) ;
#292 = DIRECTION ( 'NONE',  ( -0.000000000000000000, -1.000000000000000000, -0.000000000000000000 ) ) ;
#293 = DIRECTION ( 'NONE',  ( 0.000000000000000000, 0.000000000000000000, -1.000000000000000000 ) ) ;
#294 = EDGE_LOOP ( 'NONE', ( #442, #1016, #300, #30 ) ) ;
#295 = AXIS2_PLACEMENT_3D ( 'NONE', #251, #572, #338 ) ;
#296 = CARTESIAN_POINT ( 'NONE',  ( 46.99999999999999289, 0.000000000000000000, 4.500000000000003553 ) ) ;
#297 = AXIS2_PLACEMENT_3D ( 'NONE', #752, #912, #18 ) ;
#298 = CIRCLE ( 'NONE', #434, 4.499999999999997335 ) ;
#299 = CARTESIAN_POINT ( 'NONE',  ( 33.23401871576771782, -15.00000000000000000, 33.23401871576773203 ) ) ;
#300 = ORIENTED_EDGE ( 'NONE', *, *, #846, .T. ) ;
#301 = DIRECTION ( 'NONE',  ( 0.000000000000000000, 0.000000000000000000, -1.000000000000000000 ) ) ;
#302 = DIRECTION ( 'NONE',  ( 1.000000000000000000, 0.000000000000000000, 0.000000000000000000 ) ) ;
#303 = FACE_OUTER_BOUND ( 'NONE', #275, .T. ) ;
#304 = EDGE_LOOP ( 'NONE', ( #634, #902 ) ) ;
#305 = CARTESIAN_POINT ( 'NONE',  ( 27.50000000000000000, 0.000000000000000000, 2.499999999999996891 ) ) ;
#306 = EDGE_CURVE ( 'NONE', #1057, #716, #586, .T. ) ;
#307 = APPROVAL_ROLE ( '' ) ;
#308 = CARTESIAN_POINT ( 'NONE',  ( 33.23401871576772493, -15.00000000000000000, -33.23401871576772493 ) ) ;
#309 = EDGE_LOOP ( 'NONE', ( #259, #166, #431, #516 ) ) ;
#310 = DIRECTION ( 'NONE',  ( -0.000000000000000000, -1.000000000000000000, -0.000000000000000000 ) ) ;
#311 = VECTOR ( 'NONE', #804, 1000.000000000000000 ) ;
#312 = AXIS2_PLACEMENT_3D ( 'NONE', #80, #317, #493 ) ;
#313 = CIRCLE ( 'NONE', #549, 4.499999999999997335 ) ;
#314 = CYLINDRICAL_SURFACE ( 'NONE', #465, 4.499999999999997335 ) ;
#315 = ORIENTED_EDGE ( 'NONE', *, *, #356, .F. ) ;
#316 = PRODUCT_DEFINITION_FORMATION_WITH_SPECIFIED_SOURCE ( 'ANY', '', #836, .NOT_KNOWN. ) ;
#317 = DIRECTION ( 'NONE',  ( -0.000000000000000000, 1.000000000000000000, -0.000000000000000000 ) ) ;
#318 = ORIENTED_EDGE ( 'NONE', *, *, #121, .F. ) ;
#319 = COORDINATED_UNIVERSAL_TIME_OFFSET ( 8, 0, .AHEAD. ) ;
#320 = DIRECTION ( 'NONE',  ( 0.000000000000000000, 0.000000000000000000, 1.000000000000000000 ) ) ;
#321 = ORIENTED_EDGE ( 'NONE', *, *, #730, .T. ) ;
#322 = CARTESIAN_POINT ( 'NONE',  ( 46.99999999999999289, 0.000000000000000000, 6.938893903907228378E-15 ) ) ;
#323 = ORIENTED_EDGE ( 'NONE', *, *, #869, .T. ) ;
#324 = FACE_OUTER_BOUND ( 'NONE', #796, .T. ) ;
#325 = ORIENTED_EDGE ( 'NONE', *, *, #200, .T. ) ;
#326 = EDGE_CURVE ( 'NONE', #827, #598, #957, .T. ) ;
#327 = DIRECTION ( 'NONE',  ( 0.000000000000000000, 0.000000000000000000, -1.000000000000000000 ) ) ;
#328 = EDGE_LOOP ( 'NONE', ( #168, #787 ) ) ;
#329 = CYLINDRICAL_SURFACE ( 'NONE', #178, 2.499999999999998668 ) ;
#330 = VECTOR ( 'NONE', #190, 1000.000000000000000 ) ;
#331 = VERTEX_POINT ( 'NONE', #965 ) ;
#332 = CIRCLE ( 'NONE', #815, 4.499999999999997335 ) ;
#333 = DIRECTION ( 'NONE',  ( 0.000000000000000000, 0.000000000000000000, 1.000000000000000000 ) ) ;
#334 = EDGE_CURVE ( 'NONE', #242, #553, #765, .T. ) ;
#335 = ORIENTED_EDGE ( 'NONE', *, *, #557, .T. ) ;
#336 = DIRECTION ( 'NONE',  ( 0.000000000000000000, 0.000000000000000000, -1.000000000000000000 ) ) ;
#337 = ORIENTED_EDGE ( 'NONE', *, *, #962, .F. ) ;
#338 = DIRECTION ( 'NONE',  ( 0.000000000000000000, 0.000000000000000000, -1.000000000000000000 ) ) ;
#339 = EDGE_CURVE ( 'NONE', #1028, #618, #479, .T. ) ;
#340 = EDGE_LOOP ( 'NONE', ( #608, #4 ) ) ;
#341 = PRODUCT_DEFINITION ( 'UNKNOWN', '', #316, #707 ) ;
#342 = DIRECTION ( 'NONE',  ( -0.000000000000000000, -1.000000000000000000, -0.000000000000000000 ) ) ;
#343 = VERTEX_POINT ( 'NONE', #875 ) ;
#344 = LINE ( 'NONE', #103, #330 ) ;
#345 = DIRECTION ( 'NONE',  ( -0.000000000000000000, 1.000000000000000000, -0.000000000000000000 ) ) ;
#346 = DIRECTION ( 'NONE',  ( -0.000000000000000000, 1.000000000000000000, -0.000000000000000000 ) ) ;
#347 = ORIENTED_EDGE ( 'NONE', *, *, #539, .F. ) ;
#348 = AXIS2_PLACEMENT_3D ( 'NONE', #424, #609, #944 ) ;
#349 = AXIS2_PLACEMENT_3D ( 'NONE', #131, #125, #1045 ) ;
#350 = VECTOR ( 'NONE', #346, 1000.000000000000000 ) ;
#351 = DIRECTION ( 'NONE',  ( 0.000000000000000000, -0.000000000000000000, 1.000000000000000000 ) ) ;
#352 = CC_DESIGN_APPROVAL ( #1026, ( #316 ) ) ;
#353 = DIRECTION ( 'NONE',  ( 0.000000000000000000, 0.000000000000000000, 1.000000000000000000 ) ) ;
#354 = CARTESIAN_POINT ( 'NONE',  ( -33.23401871576773914, -15.00000000000000000, 37.73401871576772493 ) ) ;
#355 = ORIENTED_EDGE ( 'NONE', *, *, #397, .F. ) ;
#356 = EDGE_CURVE ( 'NONE', #378, #827, #282, .T. ) ;
#357 = CARTESIAN_POINT ( 'NONE',  ( -1.387778780781445676E-14, 0.000000000000000000, 47.00000000000000000 ) ) ;
#358 = CARTESIAN_POINT ( 'NONE',  ( 0.000000000000000000, -15.00000000000000000, 0.000000000000000000 ) ) ;
#359 = VERTEX_POINT ( 'NONE', #135 ) ;
#360 = DIRECTION ( 'NONE',  ( -0.000000000000000000, -1.000000000000000000, -0.000000000000000000 ) ) ;
#361 = EDGE_LOOP ( 'NONE', ( #280, #181, #215, #205 ) ) ;
#362 = AXIS2_PLACEMENT_3D ( 'NONE', #151, #91, #743 ) ;
#363 = VECTOR ( 'NONE', #83, 1000.000000000000000 ) ;
#364 = DIRECTION ( 'NONE',  ( 0.000000000000000000, 0.000000000000000000, -1.000000000000000000 ) ) ;
#365 = AXIS2_PLACEMENT_3D ( 'NONE', #600, #117, #615 ) ;
#366 = PLANE ( 'NONE',  #365 ) ;
#367 = CARTESIAN_POINT ( 'NONE',  ( -27.50000000000000000, 0.000000000000000000, 2.499999999999996891 ) ) ;
#368 = EDGE_LOOP ( 'NONE', ( #85, #102 ) ) ;
#369 = DIRECTION ( 'NONE',  ( -0.000000000000000000, -1.000000000000000000, -0.000000000000000000 ) ) ;
#370 = EDGE_CURVE ( 'NONE', #87, #927, #211, .T. ) ;
#371 = FACE_BOUND ( 'NONE', #739, .T. ) ;
#372 = FACE_BOUND ( 'NONE', #264, .T. ) ;
#373 = ORIENTED_EDGE ( 'NONE', *, *, #149, .F. ) ;
#374 = UNCERTAINTY_MEASURE_WITH_UNIT (LENGTH_MEASURE( 1.000000000000000082E-05 ), #441, 'distance_accuracy_value', 'NONE');
#375 = CARTESIAN_POINT ( 'NONE',  ( -27.50000000000000000, 1.102182119232617788E-16, 2.499999999999998668 ) ) ;
#376 = CALENDAR_DATE ( 2026, 24, 3 ) ;
#377 = PLANE ( 'NONE',  #446 ) ;
#378 = VERTEX_POINT ( 'NONE', #651 ) ;
#379 = CIRCLE ( 'NONE', #652, 2.499999999999998668 ) ;
#380 = AXIS2_PLACEMENT_3D ( 'NONE', #986, #71, #483 ) ;
#381 = CARTESIAN_POINT ( 'NONE',  ( -33.23401871576772493, 0.000000000000000000, -33.23401871576772493 ) ) ;
#382 = CIRCLE ( 'NONE', #901, 2.499999999999998668 ) ;
#383 = PERSON_AND_ORGANIZATION ( #872, #99 ) ;
#384 = DIRECTION ( 'NONE',  ( 0.000000000000000000, 0.000000000000000000, 1.000000000000000000 ) ) ;
#385 = EDGE_LOOP ( 'NONE', ( #35, #940 ) ) ;
#386 = EDGE_CURVE ( 'NONE', #613, #696, #566, .T. ) ;
#387 = DIRECTION ( 'NONE',  ( -0.000000000000000000, -1.000000000000000000, -0.000000000000000000 ) ) ;
#388 = APPROVAL_ROLE ( '' ) ;
#389 = CARTESIAN_POINT ( 'NONE',  ( 46.99999999999999289, -15.00000000000000000, 6.938893903907228378E-15 ) ) ;
#390 = ORIENTED_EDGE ( 'NONE', *, *, #924, .T. ) ;
#391 = CARTESIAN_POINT ( 'NONE',  ( -46.99999999999998579, -15.00000000000000000, -4.500000000000002665 ) ) ;
#392 = EDGE_CURVE ( 'NONE', #13, #266, #763, .T. ) ;
#393 = COORDINATED_UNIVERSAL_TIME_OFFSET ( 8, 0, .AHEAD. ) ;
#394 = CYLINDRICAL_SURFACE ( 'NONE', #283, 2.499999999999998668 ) ;
#395 = ORIENTED_EDGE ( 'NONE', *, *, #121, .T. ) ;
#396 = FACE_OUTER_BOUND ( 'NONE', #816, .T. ) ;
#397 = EDGE_CURVE ( 'NONE', #266, #13, #985, .T. ) ;
#398 = ORIENTED_EDGE ( 'NONE', *, *, #499, .F. ) ;
#399 = CIRCLE ( 'NONE', #532, 2.499999999999995115 ) ;
#400 = AXIS2_PLACEMENT_3D ( 'NONE', #893, #153, #1043 ) ;
#401 = CARTESIAN_POINT ( 'NONE',  ( 33.23401871576771782, 0.000000000000000000, 28.73401871576773559 ) ) ;
#402 = ORIENTED_EDGE ( 'NONE', *, *, #149, .T. ) ;
#403 = CARTESIAN_POINT ( 'NONE',  ( -1.332669674819814701E-14, 0.000000000000000000, 51.50000000000000000 ) ) ;
#404 = ORIENTED_EDGE ( 'NONE', *, *, #370, .F. ) ;
#405 = DIRECTION ( 'NONE',  ( -0.000000000000000000, -1.000000000000000000, -0.000000000000000000 ) ) ;
#406 = ORIENTED_EDGE ( 'NONE', *, *, #522, .T. ) ;
#407 = EDGE_CURVE ( 'NONE', #514, #990, #412, .T. ) ;
#408 = FACE_OUTER_BOUND ( 'NONE', #100, .T. ) ;
#409 = VERTEX_POINT ( 'NONE', #1056 ) ;
#410 = CYLINDRICAL_SURFACE ( 'NONE', #58, 2.499999999999996891 ) ;
#411 = ORIENTED_EDGE ( 'NONE', *, *, #334, .T. ) ;
#412 = LINE ( 'NONE', #86, #463 ) ;
#413 = ORIENTED_EDGE ( 'NONE', *, *, #684, .T. ) ;
#414 = CARTESIAN_POINT ( 'NONE',  ( -27.50000000000000000, -15.00000000000000000, -2.499999999999995115 ) ) ;
#415 = AXIS2_PLACEMENT_3D ( 'NONE', #322, #172, #98 ) ;
#416 = ORIENTED_EDGE ( 'NONE', *, *, #755, .F. ) ;
#417 = AXIS2_PLACEMENT_3D ( 'NONE', #592, #502, #847 ) ;
#418 = ADVANCED_FACE ( 'NONE', ( #563 ), #910, .F. ) ;
#419 = CARTESIAN_POINT ( 'NONE',  ( 46.99999999999999289, -15.00000000000000000, 6.938893903907228378E-15 ) ) ;
#420 = CARTESIAN_POINT ( 'NONE',  ( 27.50000000000000000, 1.102182119232617788E-16, 0.000000000000000000 ) ) ;
#421 = CYLINDRICAL_SURFACE ( 'NONE', #1055, 4.499999999999997335 ) ;
#422 = VERTEX_POINT ( 'NONE', #167 ) ;
#423 = CARTESIAN_POINT ( 'NONE',  ( 27.50000000000000000, 1.102182119232617788E-16, -2.499999999999998668 ) ) ;
#424 = CARTESIAN_POINT ( 'NONE',  ( -33.23401871576773914, -15.00000000000000000, 33.23401871576772493 ) ) ;
#425 = DIRECTION ( 'NONE',  ( -0.000000000000000000, -1.000000000000000000, -0.000000000000000000 ) ) ;
#426 = VERTEX_POINT ( 'NONE', #11 ) ;
#427 = CARTESIAN_POINT ( 'NONE',  ( 0.000000000000000000, 1.102182119232617788E-16, 30.00000000000000000 ) ) ;
#428 = DIRECTION ( 'NONE',  ( -0.000000000000000000, -1.000000000000000000, -0.000000000000000000 ) ) ;
#429 = EDGE_CURVE ( 'NONE', #618, #1028, #1054, .T. ) ;
#430 = DIRECTION ( 'NONE',  ( 0.000000000000000000, 0.000000000000000000, 1.000000000000000000 ) ) ;
#431 = ORIENTED_EDGE ( 'NONE', *, *, #929, .T. ) ;
#432 = CIRCLE ( 'NONE', #653, 4.499999999999997335 ) ;
#433 = ORIENTED_EDGE ( 'NONE', *, *, #72, .F. ) ;
#434 = AXIS2_PLACEMENT_3D ( 'NONE', #938, #29, #525 ) ;
#435 = LOCAL_TIME ( 1, 22, 44.00000000000000000, #319 ) ;
#436 = DIRECTION ( 'NONE',  ( 0.000000000000000000, 1.000000000000000000, 0.000000000000000000 ) ) ;
#437 = FACE_OUTER_BOUND ( 'NONE', #1044, .T. ) ;
#438 = CARTESIAN_POINT ( 'NONE',  ( -27.50000000000000000, 0.000000000000000000, 0.000000000000000000 ) ) ;
#439 = ORIENTED_EDGE ( 'NONE', *, *, #253, .T. ) ;
#440 = DIRECTION ( 'NONE',  ( -0.000000000000000000, 1.000000000000000000, -0.000000000000000000 ) ) ;
#441 =( LENGTH_UNIT ( ) NAMED_UNIT ( * ) SI_UNIT ( .MILLI., .METRE. ) );
#442 = ORIENTED_EDGE ( 'NONE', *, *, #230, .F. ) ;
#443 = DIRECTION ( 'NONE',  ( -0.000000000000000000, -1.000000000000000000, -0.000000000000000000 ) ) ;
#444 = FACE_BOUND ( 'NONE', #385, .T. ) ;
#445 = ORIENTED_EDGE ( 'NONE', *, *, #459, .T. ) ;
#446 = AXIS2_PLACEMENT_3D ( 'NONE', #754, #703, #351 ) ;
#447 = ADVANCED_FACE ( 'NONE', ( #408 ), #244, .F. ) ;
#448 = CIRCLE ( 'NONE', #417, 2.499999999999995115 ) ;
#449 = DIRECTION ( 'NONE',  ( -0.000000000000000000, -1.000000000000000000, -0.000000000000000000 ) ) ;
#450 = PRODUCT_RELATED_PRODUCT_CATEGORY ( 'detail', '', ( #836 ) ) ;
#451 = DIRECTION ( 'NONE',  ( -0.000000000000000000, 1.000000000000000000, -0.000000000000000000 ) ) ;
#452 = CARTESIAN_POINT ( 'NONE',  ( -27.50000000000000000, 0.000000000000000000, 0.000000000000000000 ) ) ;
#453 = ORIENTED_EDGE ( 'NONE', *, *, #846, .F. ) ;
#454 = LINE ( 'NONE', #548, #496 ) ;
#455 = PERSON_AND_ORGANIZATION ( #872, #99 ) ;
#456 = DIRECTION ( 'NONE',  ( 0.000000000000000000, 0.000000000000000000, -1.000000000000000000 ) ) ;
#457 = ORIENTED_EDGE ( 'NONE', *, *, #777, .F. ) ;
#458 = LINE ( 'NONE', #538, #1002 ) ;
#459 = EDGE_CURVE ( 'NONE', #472, #232, #884, .T. ) ;
#460 = CARTESIAN_POINT ( 'NONE',  ( 33.23401871576772493, 0.000000000000000000, -37.73401871576772493 ) ) ;
#461 = VERTEX_POINT ( 'NONE', #659 ) ;
#462 = CIRCLE ( 'NONE', #7, 4.499999999999997335 ) ;
#463 = VECTOR ( 'NONE', #256, 1000.000000000000000 ) ;
#464 = CYLINDRICAL_SURFACE ( 'NONE', #281, 4.499999999999997335 ) ;
#465 = AXIS2_PLACEMENT_3D ( 'NONE', #1051, #625, #888 ) ;
#466 = PERSON_AND_ORGANIZATION_ROLE ( 'design_supplier' ) ;
#467 = CARTESIAN_POINT ( 'NONE',  ( 33.23401871576772493, -15.00000000000000000, -33.23401871576772493 ) ) ;
#468 = ORIENTED_EDGE ( 'NONE', *, *, #774, .F. ) ;
#469 = CC_DESIGN_PERSON_AND_ORGANIZATION_ASSIGNMENT ( #624, #958, ( #180 ) ) ;
#470 = LINE ( 'NONE', #621, #140 ) ;
#471 = CARTESIAN_POINT ( 'NONE',  ( 46.99999999999999289, -15.00000000000000000, 4.500000000000003553 ) ) ;
#472 = VERTEX_POINT ( 'NONE', #3 ) ;
#473 = CARTESIAN_POINT ( 'NONE',  ( 33.23401871576771782, 0.000000000000000000, 37.73401871576773203 ) ) ;
#474 = APPROVAL_DATE_TIME ( #141, #1026 ) ;
#475 = FACE_OUTER_BOUND ( 'NONE', #294, .T. ) ;
#476 = VERTEX_POINT ( 'NONE', #996 ) ;
#477 = DIRECTION ( 'NONE',  ( -0.000000000000000000, 1.000000000000000000, -0.000000000000000000 ) ) ;
#478 = EDGE_LOOP ( 'NONE', ( #523, #315, #896, #874 ) ) ;
#479 = CIRCLE ( 'NONE', #635, 4.499999999999997335 ) ;
#480 = VECTOR ( 'NONE', #806, 1000.000000000000000 ) ;
#481 = DIRECTION ( 'NONE',  ( 0.000000000000000000, 0.000000000000000000, 1.000000000000000000 ) ) ;
#482 = EDGE_LOOP ( 'NONE', ( #170, #842, #654, #1011 ) ) ;
#483 = DIRECTION ( 'NONE',  ( 0.000000000000000000, 0.000000000000000000, -1.000000000000000000 ) ) ;
#484 = VERTEX_POINT ( 'NONE', #824 ) ;
#485 = EDGE_CURVE ( 'NONE', #716, #1057, #515, .T. ) ;
#486 = CARTESIAN_POINT ( 'NONE',  ( 33.23401871576772493, -15.00000000000000000, -37.73401871576772493 ) ) ;
#487 = ORIENTED_EDGE ( 'NONE', *, *, #163, .F. ) ;
#488 = DIRECTION ( 'NONE',  ( 0.000000000000000000, 0.000000000000000000, -1.000000000000000000 ) ) ;
#489 = ORIENTED_EDGE ( 'NONE', *, *, #386, .F. ) ;
#490 = CYLINDRICAL_SURFACE ( 'NONE', #939, 4.499999999999997335 ) ;
#491 = ADVANCED_FACE ( 'NONE', ( #991 ), #559, .F. ) ;
#492 = ORIENTED_EDGE ( 'NONE', *, *, #774, .T. ) ;
#493 = DIRECTION ( 'NONE',  ( 0.000000000000000000, 0.000000000000000000, 1.000000000000000000 ) ) ;
#494 = DIRECTION ( 'NONE',  ( -0.000000000000000000, -1.000000000000000000, -0.000000000000000000 ) ) ;
#495 = DIRECTION ( 'NONE',  ( 0.000000000000000000, 0.000000000000000000, 1.000000000000000000 ) ) ;
#496 = VECTOR ( 'NONE', #799, 1000.000000000000000 ) ;
#497 = ORIENTED_EDGE ( 'NONE', *, *, #650, .T. ) ;
#498 = CIRCLE ( 'NONE', #297, 2.499999999999998668 ) ;
#499 = EDGE_CURVE ( 'NONE', #232, #472, #41, .T. ) ;
#500 = CARTESIAN_POINT ( 'NONE',  ( 46.99999999999999289, -15.00000000000000000, 6.938893903907228378E-15 ) ) ;
#501 = VERTEX_POINT ( 'NONE', #473 ) ;
#502 = DIRECTION ( 'NONE',  ( -0.000000000000000000, 1.000000000000000000, -0.000000000000000000 ) ) ;
#503 = ORIENTED_EDGE ( 'NONE', *, *, #136, .T. ) ;
#504 = DIRECTION ( 'NONE',  ( -0.000000000000000000, -1.000000000000000000, -0.000000000000000000 ) ) ;
#505 = ADVANCED_BREP_SHAPE_REPRESENTATION ( 'fab_circular bottom', ( #623, #921 ), #622 ) ;
#506 = CARTESIAN_POINT ( 'NONE',  ( 27.50000000000000000, -15.00000000000000000, -2.499999999999995115 ) ) ;
#507 = DIRECTION ( 'NONE',  ( 0.000000000000000000, 0.000000000000000000, 1.000000000000000000 ) ) ;
#508 = ORIENTED_EDGE ( 'NONE', *, *, #539, .T. ) ;
#509 = DIRECTION ( 'NONE',  ( 0.000000000000000000, 1.000000000000000000, 0.000000000000000000 ) ) ;
#510 = CARTESIAN_POINT ( 'NONE',  ( 6.938893903907228378E-15, -15.00000000000000000, -47.00000000000000000 ) ) ;
#511 = EDGE_CURVE ( 'NONE', #927, #580, #664, .T. ) ;
#512 = FACE_OUTER_BOUND ( 'NONE', #542, .T. ) ;
#513 = AXIS2_PLACEMENT_3D ( 'NONE', #206, #345, #605 ) ;
#514 = VERTEX_POINT ( 'NONE', #403 ) ;
#515 = CIRCLE ( 'NONE', #362, 4.499999999999997335 ) ;
#516 = ORIENTED_EDGE ( 'NONE', *, *, #767, .T. ) ;
#517 = AXIS2_PLACEMENT_3D ( 'NONE', #308, #555, #897 ) ;
#518 = LOCAL_TIME ( 1, 22, 44.00000000000000000, #1058 ) ;
#519 = CARTESIAN_POINT ( 'NONE',  ( -1.387778780781445676E-14, -15.00000000000000000, 47.00000000000000000 ) ) ;
#520 = CARTESIAN_POINT ( 'NONE',  ( 7.347880794884118356E-15, -15.00000000000000000, -60.00000000000000000 ) ) ;
#521 = EDGE_LOOP ( 'NONE', ( #497, #907 ) ) ;
#522 = EDGE_CURVE ( 'NONE', #261, #894, #1019, .T. ) ;
#523 = ORIENTED_EDGE ( 'NONE', *, *, #326, .F. ) ;
#524 = DIRECTION ( 'NONE',  ( -0.000000000000000000, 1.000000000000000000, -0.000000000000000000 ) ) ;
#525 = DIRECTION ( 'NONE',  ( 0.000000000000000000, 0.000000000000000000, -1.000000000000000000 ) ) ;
#526 = ADVANCED_FACE ( 'NONE', ( #646 ), #980, .F. ) ;
#527 = ADVANCED_FACE ( 'NONE', ( #396 ), #873, .F. ) ;
#528 = DIRECTION ( 'NONE',  ( -0.000000000000000000, -1.000000000000000000, -0.000000000000000000 ) ) ;
#529 = CARTESIAN_POINT ( 'NONE',  ( -33.23401871576772493, -15.00000000000000000, -28.73401871576772848 ) ) ;
#530 = FACE_BOUND ( 'NONE', #968, .T. ) ;
#531 = ORIENTED_EDGE ( 'NONE', *, *, #276, .T. ) ;
#532 = AXIS2_PLACEMENT_3D ( 'NONE', #260, #850, #582 ) ;
#533 = AXIS2_PLACEMENT_3D ( 'NONE', #389, #821, #101 ) ;
#534 = CARTESIAN_POINT ( 'NONE',  ( -33.23401871576772493, 0.000000000000000000, -28.73401871576772848 ) ) ;
#535 = CARTESIAN_POINT ( 'NONE',  ( -46.99999999999998579, -15.00000000000000000, -5.204170427930421283E-15 ) ) ;
#536 = CARTESIAN_POINT ( 'NONE',  ( -33.23401871576773914, 0.000000000000000000, 33.23401871576772493 ) ) ;
#537 = ORIENTED_EDGE ( 'NONE', *, *, #9, .F. ) ;
#538 = CARTESIAN_POINT ( 'NONE',  ( 7.489984963523538122E-15, -15.00000000000000000, -42.50000000000000000 ) ) ;
#539 = EDGE_CURVE ( 'NONE', #343, #257, #432, .T. ) ;
#540 = PERSON_AND_ORGANIZATION ( #872, #99 ) ;
#541 = CARTESIAN_POINT ( 'NONE',  ( -33.23401871576773914, 0.000000000000000000, 37.73401871576772493 ) ) ;
#542 = EDGE_LOOP ( 'NONE', ( #189, #413, #658, #849 ) ) ;
#543 = DIRECTION ( 'NONE',  ( -0.000000000000000000, 1.000000000000000000, -0.000000000000000000 ) ) ;
#544 = DATE_TIME_ROLE ( 'classification_date' ) ;
#545 = CC_DESIGN_DATE_AND_TIME_ASSIGNMENT ( #68, #133, ( #341 ) ) ;
#546 = DIRECTION ( 'NONE',  ( 0.000000000000000000, 1.000000000000000000, 0.000000000000000000 ) ) ;
#547 = EDGE_LOOP ( 'NONE', ( #932, #603, #562, #732 ) ) ;
#548 = CARTESIAN_POINT ( 'NONE',  ( 0.000000000000000000, 0.000000000000000000, -25.00000000000000000 ) ) ;
#549 = AXIS2_PLACEMENT_3D ( 'NONE', #147, #977, #241 ) ;
#550 = DATE_AND_TIME ( #876, #656 ) ;
#551 = AXIS2_PLACEMENT_3D ( 'NONE', #694, #1025, #212 ) ;
#552 = CARTESIAN_POINT ( 'NONE',  ( 0.000000000000000000, -15.00000000000000000, 0.000000000000000000 ) ) ;
#553 = VERTEX_POINT ( 'NONE', #916 ) ;
#554 = DIRECTION ( 'NONE',  ( 0.000000000000000000, 0.000000000000000000, 1.000000000000000000 ) ) ;
#555 = DIRECTION ( 'NONE',  ( -0.000000000000000000, -1.000000000000000000, -0.000000000000000000 ) ) ;
#556 = ORIENTED_EDGE ( 'NONE', *, *, #429, .T. ) ;
#557 = EDGE_CURVE ( 'NONE', #422, #484, #1034, .T. ) ;
#558 = APPROVAL ( #892, 'UNSPECIFIED' ) ;
#559 = CYLINDRICAL_SURFACE ( 'NONE', #267, 2.499999999999996891 ) ;
#560 = ORIENTED_EDGE ( 'NONE', *, *, #693, .T. ) ;
#561 = CYLINDRICAL_SURFACE ( 'NONE', #43, 4.499999999999997335 ) ;
#562 = ORIENTED_EDGE ( 'NONE', *, *, #777, .T. ) ;
#563 = FACE_OUTER_BOUND ( 'NONE', #194, .T. ) ;
#564 = CIRCLE ( 'NONE', #24, 4.499999999999997335 ) ;
#565 = EDGE_CURVE ( 'NONE', #776, #173, #96, .T. ) ;
#566 = CIRCLE ( 'NONE', #853, 4.499999999999997335 ) ;
#567 = EDGE_LOOP ( 'NONE', ( #416, #148, #390, #2 ) ) ;
#568 = CIRCLE ( 'NONE', #115, 4.499999999999997335 ) ;
#569 = LOCAL_TIME ( 1, 22, 44.00000000000000000, #393 ) ;
#570 = DIRECTION ( 'NONE',  ( -0.000000000000000000, -1.000000000000000000, -0.000000000000000000 ) ) ;
#571 = ORIENTED_EDGE ( 'NONE', *, *, #72, .T. ) ;
#572 = DIRECTION ( 'NONE',  ( -0.000000000000000000, -1.000000000000000000, -0.000000000000000000 ) ) ;
#573 = EDGE_CURVE ( 'NONE', #87, #286, #344, .T. ) ;
#574 = EDGE_LOOP ( 'NONE', ( #807, #111 ) ) ;
#575 = DIRECTION ( 'NONE',  ( -0.000000000000000000, -1.000000000000000000, -0.000000000000000000 ) ) ;
#576 = VERTEX_POINT ( 'NONE', #954 ) ;
#577 = CARTESIAN_POINT ( 'NONE',  ( 46.99999999999999289, -15.00000000000000000, 6.938893903907228378E-15 ) ) ;
#578 = ORIENTED_EDGE ( 'NONE', *, *, #1007, .T. ) ;
#579 = CARTESIAN_POINT ( 'NONE',  ( -1.387778780781445676E-14, 0.000000000000000000, 47.00000000000000000 ) ) ;
#580 = VERTEX_POINT ( 'NONE', #427 ) ;
#581 = CC_DESIGN_PERSON_AND_ORGANIZATION_ASSIGNMENT ( #800, #793, ( #836 ) ) ;
#582 = DIRECTION ( 'NONE',  ( 0.000000000000000000, 0.000000000000000000, 1.000000000000000000 ) ) ;
#583 = VERTEX_POINT ( 'NONE', #423 ) ;
#584 = VECTOR ( 'NONE', #528, 1000.000000000000000 ) ;
#585 = DIRECTION ( 'NONE',  ( 0.000000000000000000, 0.000000000000000000, 1.000000000000000000 ) ) ;
#586 = CIRCLE ( 'NONE', #349, 4.499999999999997335 ) ;
#587 = ORIENTED_EDGE ( 'NONE', *, *, #171, .F. ) ;
#588 = CIRCLE ( 'NONE', #726, 4.499999999999997335 ) ;
#589 = EDGE_CURVE ( 'NONE', #753, #77, #688, .T. ) ;
#590 = DIRECTION ( 'NONE',  ( 0.000000000000000000, 0.000000000000000000, 1.000000000000000000 ) ) ;
#591 = CARTESIAN_POINT ( 'NONE',  ( 27.50000000000000000, -15.00000000000000000, 2.499999999999995115 ) ) ;
#592 = CARTESIAN_POINT ( 'NONE',  ( 0.000000000000000000, -15.00000000000000000, 27.50000000000000000 ) ) ;
#593 = ORIENTED_EDGE ( 'NONE', *, *, #200, .F. ) ;
#594 = FACE_BOUND ( 'NONE', #914, .T. ) ;
#595 = CYLINDRICAL_SURFACE ( 'NONE', #704, 4.499999999999997335 ) ;
#596 = LINE ( 'NONE', #278, #768 ) ;
#597 = EDGE_LOOP ( 'NONE', ( #468, #883, #889, #560 ) ) ;
#598 = VERTEX_POINT ( 'NONE', #760 ) ;
#599 = FACE_OUTER_BOUND ( 'NONE', #993, .T. ) ;
#600 = CARTESIAN_POINT ( 'NONE',  ( 0.000000000000000000, 0.000000000000000000, 0.000000000000000000 ) ) ;
#601 = ORIENTED_EDGE ( 'NONE', *, *, #47, .F. ) ;
#602 = AXIS2_PLACEMENT_3D ( 'NONE', #419, #16, #808 ) ;
#603 = ORIENTED_EDGE ( 'NONE', *, *, #736, .T. ) ;
#604 = CIRCLE ( 'NONE', #690, 2.499999999999998668 ) ;
#605 = DIRECTION ( 'NONE',  ( 0.000000000000000000, 0.000000000000000000, 1.000000000000000000 ) ) ;
#606 = EDGE_CURVE ( 'NONE', #54, #50, #672, .T. ) ;
#607 = LINE ( 'NONE', #354, #987 ) ;
#608 = ORIENTED_EDGE ( 'NONE', *, *, #828, .F. ) ;
#609 = DIRECTION ( 'NONE',  ( -0.000000000000000000, -1.000000000000000000, -0.000000000000000000 ) ) ;
#610 = FACE_BOUND ( 'NONE', #773, .T. ) ;
#611 = FACE_BOUND ( 'NONE', #905, .T. ) ;
#612 = EDGE_CURVE ( 'NONE', #911, #1061, #142, .T. ) ;
#613 = VERTEX_POINT ( 'NONE', #770 ) ;
#614 = DIRECTION ( 'NONE',  ( -0.000000000000000000, -1.000000000000000000, -0.000000000000000000 ) ) ;
#615 = DIRECTION ( 'NONE',  ( 0.000000000000000000, -0.000000000000000000, 1.000000000000000000 ) ) ;
#616 = DIRECTION ( 'NONE',  ( -0.000000000000000000, -1.000000000000000000, -0.000000000000000000 ) ) ;
#617 = CIRCLE ( 'NONE', #112, 2.499999999999998668 ) ;
#618 = VERTEX_POINT ( 'NONE', #107 ) ;
#619 = EDGE_CURVE ( 'NONE', #696, #613, #969, .T. ) ;
#620 = CIRCLE ( 'NONE', #248, 4.499999999999997335 ) ;
#621 = CARTESIAN_POINT ( 'NONE',  ( 46.99999999999999289, -15.00000000000000000, -4.499999999999990230 ) ) ;
#622 =( GEOMETRIC_REPRESENTATION_CONTEXT ( 3 ) GLOBAL_UNCERTAINTY_ASSIGNED_CONTEXT ( ( #374 ) ) GLOBAL_UNIT_ASSIGNED_CONTEXT ( ( #441, #1020, #240 ) ) REPRESENTATION_CONTEXT ( 'NONE', 'WORKASPACE' ) );
#623 = MANIFOLD_SOLID_BREP ( 'M6x1.0 Tapped Hole2', #176 ) ;
#624 = PERSON_AND_ORGANIZATION ( #872, #99 ) ;
#625 = DIRECTION ( 'NONE',  ( -0.000000000000000000, -1.000000000000000000, -0.000000000000000000 ) ) ;
#626 = ORIENTED_EDGE ( 'NONE', *, *, #736, .F. ) ;
#627 = CARTESIAN_POINT ( 'NONE',  ( 0.000000000000000000, 0.000000000000000000, -27.50000000000000000 ) ) ;
#628 = EDGE_CURVE ( 'NONE', #118, #232, #790, .T. ) ;
#629 = MECHANICAL_CONTEXT ( 'NONE', #714, 'mechanical' ) ;
#630 = CARTESIAN_POINT ( 'NONE',  ( 33.23401871576772493, -15.00000000000000000, -33.23401871576772493 ) ) ;
#631 = ORIENTED_EDGE ( 'NONE', *, *, #557, .F. ) ;
#632 = CARTESIAN_POINT ( 'NONE',  ( 7.489984963523538122E-15, 0.000000000000000000, -42.50000000000000000 ) ) ;
#633 = CARTESIAN_POINT ( 'NONE',  ( -33.23401871576772493, -15.00000000000000000, -28.73401871576772848 ) ) ;
#634 = ORIENTED_EDGE ( 'NONE', *, *, #356, .T. ) ;
#635 = AXIS2_PLACEMENT_3D ( 'NONE', #697, #701, #1033 ) ;
#636 = CARTESIAN_POINT ( 'NONE',  ( 3.061616997868379690E-16, 1.102182119232617788E-16, 25.00000000000000000 ) ) ;
#637 = PERSON_AND_ORGANIZATION ( #872, #99 ) ;
#638 = ADVANCED_FACE ( 'NONE', ( #113, #1027, #372, #786, #49, #594, #611, #947, #530, #185, #699, #53, #669 ), #377, .F. ) ;
#639 = FACE_OUTER_BOUND ( 'NONE', #843, .T. ) ;
#640 = ORIENTED_EDGE ( 'NONE', *, *, #1007, .F. ) ;
#641 = EDGE_CURVE ( 'NONE', #782, #576, #399, .T. ) ;
#642 = CARTESIAN_POINT ( 'NONE',  ( -33.23401871576773914, -15.00000000000000000, 33.23401871576772493 ) ) ;
#643 = ORIENTED_EDGE ( 'NONE', *, *, #163, .T. ) ;
#644 = CYLINDRICAL_SURFACE ( 'NONE', #127, 60.00000000000000000 ) ;
#645 = ORIENTED_EDGE ( 'NONE', *, *, #47, .T. ) ;
#646 = FACE_OUTER_BOUND ( 'NONE', #547, .T. ) ;
#647 = ORIENTED_EDGE ( 'NONE', *, *, #869, .F. ) ;
#648 = LINE ( 'NONE', #735, #268 ) ;
#649 = ORIENTED_EDGE ( 'NONE', *, *, #589, .F. ) ;
#650 = EDGE_CURVE ( 'NONE', #118, #802, #868, .T. ) ;
#651 = CARTESIAN_POINT ( 'NONE',  ( -46.99999999999998579, 0.000000000000000000, -4.500000000000002665 ) ) ;
#652 = AXIS2_PLACEMENT_3D ( 'NONE', #203, #524, #1003 ) ;
#653 = AXIS2_PLACEMENT_3D ( 'NONE', #1031, #272, #44 ) ;
#654 = ORIENTED_EDGE ( 'NONE', *, *, #720, .F. ) ;
#655 = AXIS2_PLACEMENT_3D ( 'NONE', #731, #1060, #967 ) ;
#656 = LOCAL_TIME ( 1, 22, 44.00000000000000000, #966 ) ;
#657 = DIRECTION ( 'NONE',  ( 0.000000000000000000, 1.000000000000000000, 0.000000000000000000 ) ) ;
#658 = ORIENTED_EDGE ( 'NONE', *, *, #339, .T. ) ;
#659 = CARTESIAN_POINT ( 'NONE',  ( 27.50000000000000000, 1.102182119232617788E-16, 2.499999999999998668 ) ) ;
#660 = ORIENTED_EDGE ( 'NONE', *, *, #386, .T. ) ;
#661 = ADVANCED_FACE ( 'NONE', ( #231 ), #314, .F. ) ;
#662 = LINE ( 'NONE', #904, #79 ) ;
#663 = ORIENTED_EDGE ( 'NONE', *, *, #370, .T. ) ;
#664 = LINE ( 'NONE', #895, #177 ) ;
#665 = ORIENTED_EDGE ( 'NONE', *, *, #39, .F. ) ;
#666 = CARTESIAN_POINT ( 'NONE',  ( 46.99999999999999289, 0.000000000000000000, -4.499999999999990230 ) ) ;
#667 = ORIENTED_EDGE ( 'NONE', *, *, #803, .F. ) ;
#668 = ORIENTED_EDGE ( 'NONE', *, *, #339, .F. ) ;
#669 = FACE_OUTER_BOUND ( 'NONE', #279, .T. ) ;
#670 = DIRECTION ( 'NONE',  ( 0.000000000000000000, 0.000000000000000000, -1.000000000000000000 ) ) ;
#671 = CARTESIAN_POINT ( 'NONE',  ( -46.99999999999998579, -15.00000000000000000, -5.204170427930421283E-15 ) ) ;
#672 = CIRCLE ( 'NONE', #936, 2.499999999999995115 ) ;
#673 = ADVANCED_FACE ( 'NONE', ( #639 ), #394, .F. ) ;
#674 = ORIENTED_EDGE ( 'NONE', *, *, #392, .F. ) ;
#675 = CIRCLE ( 'NONE', #213, 60.00000000000000000 ) ;
#676 = DIRECTION ( 'NONE',  ( 0.000000000000000000, 0.000000000000000000, -1.000000000000000000 ) ) ;
#677 = DIRECTION ( 'NONE',  ( 0.000000000000000000, 0.000000000000000000, -1.000000000000000000 ) ) ;
#678 = DIRECTION ( 'NONE',  ( -0.000000000000000000, 1.000000000000000000, -0.000000000000000000 ) ) ;
#679 = ORIENTED_EDGE ( 'NONE', *, *, #392, .T. ) ;
#680 = ADVANCED_FACE ( 'NONE', ( #303 ), #561, .F. ) ;
#681 = DIRECTION ( 'NONE',  ( -0.000000000000000000, -1.000000000000000000, -0.000000000000000000 ) ) ;
#682 = DIRECTION ( 'NONE',  ( 0.000000000000000000, 1.000000000000000000, 0.000000000000000000 ) ) ;
#683 = EDGE_LOOP ( 'NONE', ( #66, #645 ) ) ;
#684 = EDGE_CURVE ( 'NONE', #242, #1028, #69, .T. ) ;
#685 = CARTESIAN_POINT ( 'NONE',  ( -33.23401871576773914, 0.000000000000000000, 33.23401871576772493 ) ) ;
#686 = FACE_OUTER_BOUND ( 'NONE', #183, .T. ) ;
#687 = CIRCLE ( 'NONE', #56, 2.499999999999995115 ) ;
#688 = CIRCLE ( 'NONE', #865, 4.499999999999997335 ) ;
#689 = ORIENTED_EDGE ( 'NONE', *, *, #612, .F. ) ;
#690 = AXIS2_PLACEMENT_3D ( 'NONE', #972, #236, #320 ) ;
#691 = CC_DESIGN_APPROVAL ( #31, ( #341 ) ) ;
#692 = CARTESIAN_POINT ( 'NONE',  ( -27.50000000000000000, -15.00000000000000000, 2.499999999999995115 ) ) ;
#693 = EDGE_CURVE ( 'NONE', #331, #973, #604, .T. ) ;
#694 = CARTESIAN_POINT ( 'NONE',  ( 33.23401871576771782, 0.000000000000000000, 33.23401871576773203 ) ) ;
#695 = DIRECTION ( 'NONE',  ( 0.000000000000000000, 0.000000000000000000, 1.000000000000000000 ) ) ;
#696 = VERTEX_POINT ( 'NONE', #710 ) ;
#697 = CARTESIAN_POINT ( 'NONE',  ( -33.23401871576772493, -15.00000000000000000, -33.23401871576772493 ) ) ;
#698 = FACE_BOUND ( 'NONE', #948, .T. ) ;
#699 = FACE_BOUND ( 'NONE', #328, .T. ) ;
#700 = ORIENTED_EDGE ( 'NONE', *, *, #407, .T. ) ;
#701 = DIRECTION ( 'NONE',  ( -0.000000000000000000, -1.000000000000000000, -0.000000000000000000 ) ) ;
#702 = APPROVAL_DATE_TIME ( #809, #558 ) ;
#703 = DIRECTION ( 'NONE',  ( 0.000000000000000000, 1.000000000000000000, 0.000000000000000000 ) ) ;
#704 = AXIS2_PLACEMENT_3D ( 'NONE', #270, #287, #364 ) ;
#705 = ORIENTED_EDGE ( 'NONE', *, *, #890, .F. ) ;
#706 = EDGE_CURVE ( 'NONE', #476, #359, #1004, .T. ) ;
#707 = DESIGN_CONTEXT ( 'detailed design', #84, 'design' ) ;
#708 = CARTESIAN_POINT ( 'NONE',  ( -33.23401871576772493, 0.000000000000000000, -33.23401871576772493 ) ) ;
#709 = DIRECTION ( 'NONE',  ( 0.000000000000000000, 0.000000000000000000, 1.000000000000000000 ) ) ;
#710 = CARTESIAN_POINT ( 'NONE',  ( -33.23401871576773914, -15.00000000000000000, 28.73401871576772848 ) ) ;
#711 = ORIENTED_EDGE ( 'NONE', *, *, #150, .F. ) ;
#712 = ADVANCED_FACE ( 'NONE', ( #475 ), #1036, .F. ) ;
#713 = DIRECTION ( 'NONE',  ( -0.000000000000000000, -1.000000000000000000, -0.000000000000000000 ) ) ;
#714 = APPLICATION_CONTEXT ( 'configuration controlled 3d designs of mechanical parts and assemblies' ) ;
#715 = DIRECTION ( 'NONE',  ( -0.000000000000000000, 1.000000000000000000, -0.000000000000000000 ) ) ;
#716 = VERTEX_POINT ( 'NONE', #460 ) ;
#717 = LINE ( 'NONE', #210, #830 ) ;
#718 = ADVANCED_FACE ( 'NONE', ( #219 ), #721, .F. ) ;
#719 = DATE_AND_TIME ( #887, #569 ) ;
#720 = EDGE_CURVE ( 'NONE', #173, #776, #856, .T. ) ;
#721 = CYLINDRICAL_SURFACE ( 'NONE', #920, 4.499999999999997335 ) ;
#722 = ORIENTED_EDGE ( 'NONE', *, *, #913, .T. ) ;
#723 = AXIS2_PLACEMENT_3D ( 'NONE', #519, #681, #677 ) ;
#724 = AXIS2_PLACEMENT_3D ( 'NONE', #162, #900, #554 ) ;
#725 = DIRECTION ( 'NONE',  ( -0.000000000000000000, -1.000000000000000000, -0.000000000000000000 ) ) ;
#726 = AXIS2_PLACEMENT_3D ( 'NONE', #579, #575, #22 ) ;
#727 = CARTESIAN_POINT ( 'NONE',  ( 6.938893903907228378E-15, -15.00000000000000000, -51.50000000000000000 ) ) ;
#728 = SHAPE_DEFINITION_REPRESENTATION ( #1039, #505 ) ;
#729 = APPROVAL_PERSON_ORGANIZATION ( #455, #1026, #235 ) ;
#730 = EDGE_CURVE ( 'NONE', #580, #286, #382, .T. ) ;
#731 = CARTESIAN_POINT ( 'NONE',  ( -46.99999999999998579, 0.000000000000000000, -5.204170427930421283E-15 ) ) ;
#732 = ORIENTED_EDGE ( 'NONE', *, *, #217, .F. ) ;
#733 = DIRECTION ( 'NONE',  ( -0.000000000000000000, 1.000000000000000000, -0.000000000000000000 ) ) ;
#734 = ORIENTED_EDGE ( 'NONE', *, *, #217, .T. ) ;
#735 = CARTESIAN_POINT ( 'NONE',  ( 7.347880794884118356E-15, -15.00000000000000000, -60.00000000000000000 ) ) ;
#736 = EDGE_CURVE ( 'NONE', #261, #484, #224, .T. ) ;
#737 = ORIENTED_EDGE ( 'NONE', *, *, #52, .T. ) ;
#738 = DIRECTION ( 'NONE',  ( 0.000000000000000000, 0.000000000000000000, 1.000000000000000000 ) ) ;
#739 = EDGE_LOOP ( 'NONE', ( #508, #395 ) ) ;
#740 = LINE ( 'NONE', #486, #798 ) ;
#741 = VERTEX_POINT ( 'NONE', #401 ) ;
#742 = CC_DESIGN_PERSON_AND_ORGANIZATION_ASSIGNMENT ( #218, #880, ( #341 ) ) ;
#743 = DIRECTION ( 'NONE',  ( 0.000000000000000000, 0.000000000000000000, -1.000000000000000000 ) ) ;
#744 = CIRCLE ( 'NONE', #246, 2.499999999999995115 ) ;
#745 = AXIS2_PLACEMENT_3D ( 'NONE', #642, #906, #1062 ) ;
#746 = ORIENTED_EDGE ( 'NONE', *, *, #36, .T. ) ;
#747 = AXIS2_PLACEMENT_3D ( 'NONE', #438, #451, #785 ) ;
#748 = CARTESIAN_POINT ( 'NONE',  ( 0.000000000000000000, 0.000000000000000000, -27.50000000000000000 ) ) ;
#749 = ORIENTED_EDGE ( 'NONE', *, *, #429, .F. ) ;
#750 = CARTESIAN_POINT ( 'NONE',  ( -33.23401871576773914, -15.00000000000000000, 33.23401871576772493 ) ) ;
#751 = CARTESIAN_POINT ( 'NONE',  ( 6.938893903907228378E-15, -15.00000000000000000, -51.50000000000000000 ) ) ;
#752 = CARTESIAN_POINT ( 'NONE',  ( 27.50000000000000000, 1.102182119232617788E-16, 0.000000000000000000 ) ) ;
#753 = VERTEX_POINT ( 'NONE', #541 ) ;
#754 = CARTESIAN_POINT ( 'NONE',  ( 0.000000000000000000, -15.00000000000000000, 0.000000000000000000 ) ) ;
#755 = EDGE_CURVE ( 'NONE', #827, #378, #833, .T. ) ;
#756 = DIRECTION ( 'NONE',  ( -0.000000000000000000, -1.000000000000000000, -0.000000000000000000 ) ) ;
#757 = ADVANCED_FACE ( 'NONE', ( #65 ), #644, .T. ) ;
#758 = DIRECTION ( 'NONE',  ( -0.000000000000000000, 1.000000000000000000, -0.000000000000000000 ) ) ;
#759 = ORIENTED_EDGE ( 'NONE', *, *, #276, .F. ) ;
#760 = CARTESIAN_POINT ( 'NONE',  ( -46.99999999999998579, -15.00000000000000000, 4.499999999999992006 ) ) ;
#761 = AXIS2_PLACEMENT_3D ( 'NONE', #685, #861, #852 ) ;
#762 = DIRECTION ( 'NONE',  ( 0.000000000000000000, 0.000000000000000000, -1.000000000000000000 ) ) ;
#763 = CIRCLE ( 'NONE', #380, 4.499999999999997335 ) ;
#764 = FACE_BOUND ( 'NONE', #574, .T. ) ;
#765 = CIRCLE ( 'NONE', #114, 4.499999999999997335 ) ;
#766 = ORIENTED_EDGE ( 'NONE', *, *, #619, .F. ) ;
#767 = EDGE_CURVE ( 'NONE', #92, #990, #313, .T. ) ;
#768 = VECTOR ( 'NONE', #942, 1000.000000000000000 ) ;
#769 = VERTEX_POINT ( 'NONE', #158 ) ;
#770 = CARTESIAN_POINT ( 'NONE',  ( -33.23401871576773914, -15.00000000000000000, 37.73401871576772493 ) ) ;
#771 = CARTESIAN_POINT ( 'NONE',  ( 3.061616997868377225E-16, -15.00000000000000000, 25.00000000000000355 ) ) ;
#772 = FACE_OUTER_BOUND ( 'NONE', #361, .T. ) ;
#773 = EDGE_LOOP ( 'NONE', ( #1022, #323 ) ) ;
#774 = EDGE_CURVE ( 'NONE', #576, #973, #817, .T. ) ;
#775 = CARTESIAN_POINT ( 'NONE',  ( 0.000000000000000000, -15.00000000000000000, -27.50000000000000000 ) ) ;
#776 = VERTEX_POINT ( 'NONE', #144 ) ;
#777 = EDGE_CURVE ( 'NONE', #484, #422, #97, .T. ) ;
#778 = CYLINDRICAL_SURFACE ( 'NONE', #76, 4.499999999999997335 ) ;
#779 = DIRECTION ( 'NONE',  ( -0.000000000000000000, -1.000000000000000000, -0.000000000000000000 ) ) ;
#780 = AXIS2_PLACEMENT_3D ( 'NONE', #858, #191, #762 ) ;
#781 = AXIS2_PLACEMENT_3D ( 'NONE', #25, #928, #293 ) ;
#782 = VERTEX_POINT ( 'NONE', #5 ) ;
#783 = DIRECTION ( 'NONE',  ( 0.000000000000000000, 0.000000000000000000, -1.000000000000000000 ) ) ;
#784 = ADVANCED_FACE ( 'NONE', ( #324 ), #421, .F. ) ;
#785 = DIRECTION ( 'NONE',  ( 0.000000000000000000, 0.000000000000000000, 1.000000000000000000 ) ) ;
#786 = FACE_BOUND ( 'NONE', #175, .T. ) ;
#787 = ORIENTED_EDGE ( 'NONE', *, *, #52, .F. ) ;
#788 = CARTESIAN_POINT ( 'NONE',  ( -46.99999999999998579, 0.000000000000000000, -5.204170427930421283E-15 ) ) ;
#789 = PERSON_AND_ORGANIZATION_ROLE ( 'creator' ) ;
#790 = LINE ( 'NONE', #367, #918 ) ;
#791 = ORIENTED_EDGE ( 'NONE', *, *, #132, .F. ) ;
#792 = DIRECTION ( 'NONE',  ( -0.000000000000000000, -1.000000000000000000, -0.000000000000000000 ) ) ;
#793 = PERSON_AND_ORGANIZATION_ROLE ( 'design_owner' ) ;
#794 = DIRECTION ( 'NONE',  ( 0.000000000000000000, 0.000000000000000000, 1.000000000000000000 ) ) ;
#795 = ADVANCED_FACE ( 'NONE', ( #834 ), #410, .F. ) ;
#796 = EDGE_LOOP ( 'NONE', ( #208, #202, #822, #556 ) ) ;
#797 = AXIS2_PLACEMENT_3D ( 'NONE', #289, #436, #695 ) ;
#798 = VECTOR ( 'NONE', #425, 1000.000000000000000 ) ;
#799 = DIRECTION ( 'NONE',  ( -0.000000000000000000, 1.000000000000000000, -0.000000000000000000 ) ) ;
#800 = PERSON_AND_ORGANIZATION ( #872, #99 ) ;
#801 = DIRECTION ( 'NONE',  ( 0.000000000000000000, 0.000000000000000000, -1.000000000000000000 ) ) ;
#802 = VERTEX_POINT ( 'NONE', #414 ) ;
#803 = EDGE_CURVE ( 'NONE', #927, #87, #448, .T. ) ;
#804 = DIRECTION ( 'NONE',  ( -0.000000000000000000, -1.000000000000000000, -0.000000000000000000 ) ) ;
#805 = APPROVAL_DATE_TIME ( #550, #31 ) ;
#806 = DIRECTION ( 'NONE',  ( -0.000000000000000000, -1.000000000000000000, -0.000000000000000000 ) ) ;
#807 = ORIENTED_EDGE ( 'NONE', *, *, #485, .T. ) ;
#808 = DIRECTION ( 'NONE',  ( 0.000000000000000000, 0.000000000000000000, -1.000000000000000000 ) ) ;
#809 = DATE_AND_TIME ( #64, #435 ) ;
#810 = DIRECTION ( 'NONE',  ( -0.000000000000000000, -1.000000000000000000, -0.000000000000000000 ) ) ;
#811 = EDGE_LOOP ( 'NONE', ( #60, #587 ) ) ;
#812 = VECTOR ( 'NONE', #1023, 1000.000000000000000 ) ;
#813 = AXIS2_PLACEMENT_3D ( 'NONE', #452, #20, #1000 ) ;
#814 = CARTESIAN_POINT ( 'NONE',  ( -27.50000000000000000, 1.102182119232617788E-16, 0.000000000000000000 ) ) ;
#815 = AXIS2_PLACEMENT_3D ( 'NONE', #671, #989, #1005 ) ;
#816 = EDGE_LOOP ( 'NONE', ( #337, #848, #867, #32 ) ) ;
#817 = LINE ( 'NONE', #877, #10 ) ;
#818 = ORIENTED_EDGE ( 'NONE', *, *, #929, .F. ) ;
#819 = DIRECTION ( 'NONE',  ( 0.000000000000000000, 0.000000000000000000, -1.000000000000000000 ) ) ;
#820 = CARTESIAN_POINT ( 'NONE',  ( 33.23401871576771782, -15.00000000000000000, 33.23401871576773203 ) ) ;
#821 = DIRECTION ( 'NONE',  ( -0.000000000000000000, -1.000000000000000000, -0.000000000000000000 ) ) ;
#822 = ORIENTED_EDGE ( 'NONE', *, *, #881, .T. ) ;
#823 = ADVANCED_FACE ( 'NONE', ( #826 ), #841, .F. ) ;
#824 = CARTESIAN_POINT ( 'NONE',  ( 46.99999999999999289, -15.00000000000000000, 4.500000000000003553 ) ) ;
#825 = ORIENTED_EDGE ( 'NONE', *, *, #606, .F. ) ;
#826 = FACE_OUTER_BOUND ( 'NONE', #960, .T. ) ;
#827 = VERTEX_POINT ( 'NONE', #982 ) ;
#828 = EDGE_CURVE ( 'NONE', #461, #583, #498, .T. ) ;
#829 = CARTESIAN_POINT ( 'NONE',  ( 27.50000000000000000, 0.000000000000000000, 0.000000000000000000 ) ) ;
#830 = VECTOR ( 'NONE', #310, 1000.000000000000000 ) ;
#831 = AXIS2_PLACEMENT_3D ( 'NONE', #814, #238, #738 ) ;
#832 = CARTESIAN_POINT ( 'NONE',  ( 33.23401871576771782, -15.00000000000000000, 37.73401871576773203 ) ) ;
#833 = CIRCLE ( 'NONE', #655, 4.499999999999997335 ) ;
#834 = FACE_OUTER_BOUND ( 'NONE', #909, .T. ) ;
#835 = ORIENTED_EDGE ( 'NONE', *, *, #706, .F. ) ;
#836 = PRODUCT ( 'fab_circular bottom', 'fab_circular bottom', '', ( #629 ) ) ;
#837 = EDGE_CURVE ( 'NONE', #1061, #776, #648, .T. ) ;
#838 = DIRECTION ( 'NONE',  ( -0.000000000000000000, 1.000000000000000000, -0.000000000000000000 ) ) ;
#839 = CC_DESIGN_DATE_AND_TIME_ASSIGNMENT ( #719, #544, ( #180 ) ) ;
#840 = ORIENTED_EDGE ( 'NONE', *, *, #39, .T. ) ;
#841 = CYLINDRICAL_SURFACE ( 'NONE', #197, 2.499999999999998668 ) ;
#842 = ORIENTED_EDGE ( 'NONE', *, *, #837, .T. ) ;
#843 = EDGE_LOOP ( 'NONE', ( #404, #981, #503, #45 ) ) ;
#844 = DIRECTION ( 'NONE',  ( -0.000000000000000000, 1.000000000000000000, -0.000000000000000000 ) ) ;
#845 = DIRECTION ( 'NONE',  ( -0.000000000000000000, -1.000000000000000000, -0.000000000000000000 ) ) ;
#846 = EDGE_CURVE ( 'NONE', #716, #476, #740, .T. ) ;
#847 = DIRECTION ( 'NONE',  ( 0.000000000000000000, 0.000000000000000000, 1.000000000000000000 ) ) ;
#848 = ORIENTED_EDGE ( 'NONE', *, *, #650, .F. ) ;
#849 = ORIENTED_EDGE ( 'NONE', *, *, #881, .F. ) ;
#850 = DIRECTION ( 'NONE',  ( -0.000000000000000000, 1.000000000000000000, -0.000000000000000000 ) ) ;
#851 = CIRCLE ( 'NONE', #124, 4.499999999999997335 ) ;
#852 = DIRECTION ( 'NONE',  ( 0.000000000000000000, 0.000000000000000000, -1.000000000000000000 ) ) ;
#853 = AXIS2_PLACEMENT_3D ( 'NONE', #750, #725, #819 ) ;
#854 = ADVANCED_FACE ( 'NONE', ( #174 ), #329, .F. ) ;
#855 = CARTESIAN_POINT ( 'NONE',  ( 27.50000000000000000, -15.00000000000000000, 0.000000000000000000 ) ) ;
#856 = CIRCLE ( 'NONE', #400, 60.00000000000000000 ) ;
#857 = EDGE_LOOP ( 'NONE', ( #647, #700, #737, #818 ) ) ;
#858 = CARTESIAN_POINT ( 'NONE',  ( 6.938893903907228378E-15, 0.000000000000000000, -47.00000000000000000 ) ) ;
#859 = CC_DESIGN_PERSON_AND_ORGANIZATION_ASSIGNMENT ( #383, #466, ( #316 ) ) ;
#860 = ORIENTED_EDGE ( 'NONE', *, *, #1024, .F. ) ;
#861 = DIRECTION ( 'NONE',  ( -0.000000000000000000, -1.000000000000000000, -0.000000000000000000 ) ) ;
#862 = CYLINDRICAL_SURFACE ( 'NONE', #885, 4.499999999999997335 ) ;
#863 = DIRECTION ( 'NONE',  ( 0.000000000000000000, 0.000000000000000000, 1.000000000000000000 ) ) ;
#864 = FACE_OUTER_BOUND ( 'NONE', #983, .T. ) ;
#865 = AXIS2_PLACEMENT_3D ( 'NONE', #536, #504, #456 ) ;
#866 = CARTESIAN_POINT ( 'NONE',  ( 0.000000000000000000, -15.00000000000000000, 0.000000000000000000 ) ) ;
#867 = ORIENTED_EDGE ( 'NONE', *, *, #628, .T. ) ;
#868 = CIRCLE ( 'NONE', #1021, 2.499999999999995115 ) ;
#869 = EDGE_CURVE ( 'NONE', #514, #426, #588, .T. ) ;
#870 = CARTESIAN_POINT ( 'NONE',  ( 7.489984963523538122E-15, -15.00000000000000000, -42.50000000000000000 ) ) ;
#871 = FACE_BOUND ( 'NONE', #811, .T. ) ;
#872 = PERSON ( 'UNSPECIFIED', 'UNSPECIFIED', 'UNSPECIFIED', ('UNSPECIFIED'), ('UNSPECIFIED'), ('UNSPECIFIED') ) ;
#873 = CYLINDRICAL_SURFACE ( 'NONE', #813, 2.499999999999996891 ) ;
#874 = ORIENTED_EDGE ( 'NONE', *, *, #979, .T. ) ;
#875 = CARTESIAN_POINT ( 'NONE',  ( 6.938893903907228378E-15, 0.000000000000000000, -51.50000000000000000 ) ) ;
#876 = CALENDAR_DATE ( 2026, 24, 3 ) ;
#877 = CARTESIAN_POINT ( 'NONE',  ( 3.061616997868380183E-16, 0.000000000000000000, -30.00000000000000000 ) ) ;
#878 = ORIENTED_EDGE ( 'NONE', *, *, #263, .F. ) ;
#879 = CARTESIAN_POINT ( 'NONE',  ( -46.99999999999998579, -15.00000000000000000, -5.204170427930421283E-15 ) ) ;
#880 = PERSON_AND_ORGANIZATION_ROLE ( 'creator' ) ;
#881 = EDGE_CURVE ( 'NONE', #553, #618, #662, .T. ) ;
#882 = DIRECTION ( 'NONE',  ( -0.000000000000000000, 1.000000000000000000, -0.000000000000000000 ) ) ;
#883 = ORIENTED_EDGE ( 'NONE', *, *, #641, .F. ) ;
#884 = CIRCLE ( 'NONE', #831, 2.499999999999998668 ) ;
#885 = AXIS2_PLACEMENT_3D ( 'NONE', #42, #292, #207 ) ;
#886 = LINE ( 'NONE', #305, #161 ) ;
#887 = CALENDAR_DATE ( 2026, 24, 3 ) ;
#888 = DIRECTION ( 'NONE',  ( 0.000000000000000000, 0.000000000000000000, -1.000000000000000000 ) ) ;
#889 = ORIENTED_EDGE ( 'NONE', *, *, #265, .T. ) ;
#890 = EDGE_CURVE ( 'NONE', #1061, #911, #675, .T. ) ;
#891 = DIRECTION ( 'NONE',  ( -0.000000000000000000, -1.000000000000000000, -0.000000000000000000 ) ) ;
#892 = APPROVAL_STATUS ( 'not_yet_approved' ) ;
#893 = CARTESIAN_POINT ( 'NONE',  ( 0.000000000000000000, 0.000000000000000000, 0.000000000000000000 ) ) ;
#894 = VERTEX_POINT ( 'NONE', #666 ) ;
#895 = CARTESIAN_POINT ( 'NONE',  ( 0.000000000000000000, 0.000000000000000000, 30.00000000000000000 ) ) ;
#896 = ORIENTED_EDGE ( 'NONE', *, *, #222, .T. ) ;
#897 = DIRECTION ( 'NONE',  ( 0.000000000000000000, 0.000000000000000000, -1.000000000000000000 ) ) ;
#898 = EDGE_LOOP ( 'NONE', ( #1032, #347, #840, #679 ) ) ;
#899 = AXIS2_PLACEMENT_3D ( 'NONE', #116, #443, #186 ) ;
#900 = DIRECTION ( 'NONE',  ( -0.000000000000000000, 1.000000000000000000, -0.000000000000000000 ) ) ;
#901 = AXIS2_PLACEMENT_3D ( 'NONE', #137, #75, #481 ) ;
#902 = ORIENTED_EDGE ( 'NONE', *, *, #755, .T. ) ;
#903 = AXIS2_PLACEMENT_3D ( 'NONE', #358, #682, #201 ) ;
#904 = CARTESIAN_POINT ( 'NONE',  ( -33.23401871576772493, -15.00000000000000000, -37.73401871576772493 ) ) ;
#905 = EDGE_LOOP ( 'NONE', ( #674, #355 ) ) ;
#906 = DIRECTION ( 'NONE',  ( -0.000000000000000000, -1.000000000000000000, -0.000000000000000000 ) ) ;
#907 = ORIENTED_EDGE ( 'NONE', *, *, #132, .T. ) ;
#908 = CARTESIAN_POINT ( 'NONE',  ( 0.000000000000000000, -15.00000000000000000, 29.99999999999999645 ) ) ;
#909 = EDGE_LOOP ( 'NONE', ( #1037, #640, #531, #933 ) ) ;
#910 = CYLINDRICAL_SURFACE ( 'NONE', #745, 4.499999999999997335 ) ;
#911 = VERTEX_POINT ( 'NONE', #998 ) ;
#912 = DIRECTION ( 'NONE',  ( -0.000000000000000000, 1.000000000000000000, -0.000000000000000000 ) ) ;
#913 = EDGE_CURVE ( 'NONE', #54, #583, #187, .T. ) ;
#914 = EDGE_LOOP ( 'NONE', ( #835, #487 ) ) ;
#915 = CC_DESIGN_PERSON_AND_ORGANIZATION_ASSIGNMENT ( #540, #789, ( #316 ) ) ;
#916 = CARTESIAN_POINT ( 'NONE',  ( -33.23401871576772493, 0.000000000000000000, -37.73401871576772493 ) ) ;
#917 = CIRCLE ( 'NONE', #1052, 4.499999999999997335 ) ;
#918 = VECTOR ( 'NONE', #838, 1000.000000000000000 ) ;
#919 = DIRECTION ( 'NONE',  ( 0.000000000000000000, 0.000000000000000000, -1.000000000000000000 ) ) ;
#920 = AXIS2_PLACEMENT_3D ( 'NONE', #467, #963, #801 ) ;
#921 = AXIS2_PLACEMENT_3D ( 'NONE', #73, #709, #302 ) ;
#922 = DIRECTION ( 'NONE',  ( -0.000000000000000000, 1.000000000000000000, -0.000000000000000000 ) ) ;
#923 = ORIENTED_EDGE ( 'NONE', *, *, #641, .T. ) ;
#924 = EDGE_CURVE ( 'NONE', #598, #409, #332, .T. ) ;
#925 = CARTESIAN_POINT ( 'NONE',  ( 33.23401871576771782, -15.00000000000000000, 28.73401871576773559 ) ) ;
#926 = DIRECTION ( 'NONE',  ( 0.000000000000000000, 0.000000000000000000, 1.000000000000000000 ) ) ;
#927 = VERTEX_POINT ( 'NONE', #908 ) ;
#928 = DIRECTION ( 'NONE',  ( -0.000000000000000000, -1.000000000000000000, -0.000000000000000000 ) ) ;
#929 = EDGE_CURVE ( 'NONE', #426, #92, #1, .T. ) ;
#930 = FACE_OUTER_BOUND ( 'NONE', #898, .T. ) ;
#931 = CARTESIAN_POINT ( 'NONE',  ( -27.50000000000000000, 0.000000000000000000, -2.499999999999996891 ) ) ;
#932 = ORIENTED_EDGE ( 'NONE', *, *, #522, .F. ) ;
#933 = ORIENTED_EDGE ( 'NONE', *, *, #828, .T. ) ;
#934 = AXIS2_PLACEMENT_3D ( 'NONE', #216, #614, #783 ) ;
#935 = CARTESIAN_POINT ( 'NONE',  ( -27.50000000000000000, -15.00000000000000000, 0.000000000000000000 ) ) ;
#936 = AXIS2_PLACEMENT_3D ( 'NONE', #214, #179, #129 ) ;
#937 = ADVANCED_FACE ( 'NONE', ( #169 ), #490, .F. ) ;
#938 = CARTESIAN_POINT ( 'NONE',  ( 46.99999999999999289, 0.000000000000000000, 6.938893903907228378E-15 ) ) ;
#939 = AXIS2_PLACEMENT_3D ( 'NONE', #93, #14, #336 ) ;
#940 = ORIENTED_EDGE ( 'NONE', *, *, #589, .T. ) ;
#941 = CARTESIAN_POINT ( 'NONE',  ( 33.23401871576772493, -15.00000000000000000, -33.23401871576772493 ) ) ;
#942 = DIRECTION ( 'NONE',  ( 0.000000000000000000, 1.000000000000000000, 0.000000000000000000 ) ) ;
#943 = ORIENTED_EDGE ( 'NONE', *, *, #263, .T. ) ;
#944 = DIRECTION ( 'NONE',  ( 0.000000000000000000, 0.000000000000000000, -1.000000000000000000 ) ) ;
#945 = FACE_BOUND ( 'NONE', #368, .T. ) ;
#946 = EDGE_CURVE ( 'NONE', #911, #173, #596, .T. ) ;
#947 = FACE_BOUND ( 'NONE', #290, .T. ) ;
#948 = EDGE_LOOP ( 'NONE', ( #398, #964 ) ) ;
#949 = EDGE_CURVE ( 'NONE', #894, #261, #298, .T. ) ;
#950 = DIRECTION ( 'NONE',  ( -0.000000000000000000, -1.000000000000000000, -0.000000000000000000 ) ) ;
#951 = DIRECTION ( 'NONE',  ( -0.000000000000000000, 1.000000000000000000, -0.000000000000000000 ) ) ;
#952 = CIRCLE ( 'NONE', #513, 2.499999999999998668 ) ;
#953 = VECTOR ( 'NONE', #291, 1000.000000000000000 ) ;
#954 = CARTESIAN_POINT ( 'NONE',  ( 3.061616997868377225E-16, -15.00000000000000000, -29.99999999999999645 ) ) ;
#955 = ORIENTED_EDGE ( 'NONE', *, *, #573, .F. ) ;
#956 = VECTOR ( 'NONE', #570, 1000.000000000000000 ) ;
#957 = LINE ( 'NONE', #63, #953 ) ;
#958 = PERSON_AND_ORGANIZATION_ROLE ( 'classification_officer' ) ;
#959 = DIRECTION ( 'NONE',  ( 0.000000000000000000, 0.000000000000000000, -1.000000000000000000 ) ) ;
#960 = EDGE_LOOP ( 'NONE', ( #373, #492, #271, #1053 ) ) ;
#961 = FACE_OUTER_BOUND ( 'NONE', #597, .T. ) ;
#962 = EDGE_CURVE ( 'NONE', #802, #472, #204, .T. ) ;
#963 = DIRECTION ( 'NONE',  ( -0.000000000000000000, -1.000000000000000000, -0.000000000000000000 ) ) ;
#964 = ORIENTED_EDGE ( 'NONE', *, *, #459, .F. ) ;
#965 = CARTESIAN_POINT ( 'NONE',  ( 0.000000000000000000, 1.102182119232617788E-16, -25.00000000000000000 ) ) ;
#966 = COORDINATED_UNIVERSAL_TIME_OFFSET ( 8, 0, .AHEAD. ) ;
#967 = DIRECTION ( 'NONE',  ( 0.000000000000000000, 0.000000000000000000, -1.000000000000000000 ) ) ;
#968 = EDGE_LOOP ( 'NONE', ( #997, #15 ) ) ;
#969 = CIRCLE ( 'NONE', #781, 4.499999999999997335 ) ;
#970 = DIRECTION ( 'NONE',  ( -0.000000000000000000, -1.000000000000000000, -0.000000000000000000 ) ) ;
#971 = CALENDAR_DATE ( 2026, 24, 3 ) ;
#972 = CARTESIAN_POINT ( 'NONE',  ( 0.000000000000000000, 1.102182119232617788E-16, -27.50000000000000000 ) ) ;
#973 = VERTEX_POINT ( 'NONE', #38 ) ;
#974 = CARTESIAN_POINT ( 'NONE',  ( -33.23401871576772493, -15.00000000000000000, -33.23401871576772493 ) ) ;
#975 = DIRECTION ( 'NONE',  ( -0.000000000000000000, 1.000000000000000000, -0.000000000000000000 ) ) ;
#976 = COORDINATED_UNIVERSAL_TIME_OFFSET ( 8, 0, .AHEAD. ) ;
#977 = DIRECTION ( 'NONE',  ( -0.000000000000000000, -1.000000000000000000, -0.000000000000000000 ) ) ;
#978 = ORIENTED_EDGE ( 'NONE', *, *, #619, .T. ) ;
#979 = EDGE_CURVE ( 'NONE', #409, #598, #568, .T. ) ;
#980 = CYLINDRICAL_SURFACE ( 'NONE', #602, 4.499999999999997335 ) ;
#981 = ORIENTED_EDGE ( 'NONE', *, *, #573, .T. ) ;
#982 = CARTESIAN_POINT ( 'NONE',  ( -46.99999999999998579, 0.000000000000000000, 4.499999999999992006 ) ) ;
#983 = EDGE_LOOP ( 'NONE', ( #791, #255, #445, #995 ) ) ;
#984 = AXIS2_PLACEMENT_3D ( 'NONE', #239, #756, #1018 ) ;
#985 = CIRCLE ( 'NONE', #295, 4.499999999999997335 ) ;
#986 = CARTESIAN_POINT ( 'NONE',  ( 6.938893903907228378E-15, -15.00000000000000000, -47.00000000000000000 ) ) ;
#987 = VECTOR ( 'NONE', #1010, 1000.000000000000000 ) ;
#988 = DIRECTION ( 'NONE',  ( 0.000000000000000000, 0.000000000000000000, 1.000000000000000000 ) ) ;
#989 = DIRECTION ( 'NONE',  ( -0.000000000000000000, -1.000000000000000000, -0.000000000000000000 ) ) ;
#990 = VERTEX_POINT ( 'NONE', #193 ) ;
#991 = FACE_OUTER_BOUND ( 'NONE', #81, .T. ) ;
#992 = ADVANCED_FACE ( 'NONE', ( #512 ), #862, .F. ) ;
#993 = EDGE_LOOP ( 'NONE', ( #188, #164, #225, #978 ) ) ;
#994 = CARTESIAN_POINT ( 'NONE',  ( 27.50000000000000000, 0.000000000000000000, 0.000000000000000000 ) ) ;
#995 = ORIENTED_EDGE ( 'NONE', *, *, #628, .F. ) ;
#996 = CARTESIAN_POINT ( 'NONE',  ( 33.23401871576772493, -15.00000000000000000, -37.73401871576772493 ) ) ;
#997 = ORIENTED_EDGE ( 'NONE', *, *, #979, .F. ) ;
#998 = CARTESIAN_POINT ( 'NONE',  ( 0.000000000000000000, -15.00000000000000000, 60.00000000000000000 ) ) ;
#999 = ORIENTED_EDGE ( 'NONE', *, *, #949, .T. ) ;
#1000 = DIRECTION ( 'NONE',  ( 0.000000000000000000, 0.000000000000000000, 1.000000000000000000 ) ) ;
#1001 = CIRCLE ( 'NONE', #984, 4.499999999999997335 ) ;
#1002 = VECTOR ( 'NONE', #792, 1000.000000000000000 ) ;
#1003 = DIRECTION ( 'NONE',  ( 0.000000000000000000, 0.000000000000000000, 1.000000000000000000 ) ) ;
#1004 = CIRCLE ( 'NONE', #517, 4.499999999999997335 ) ;
#1005 = DIRECTION ( 'NONE',  ( 0.000000000000000000, 0.000000000000000000, -1.000000000000000000 ) ) ;
#1006 = EDGE_LOOP ( 'NONE', ( #999, #406 ) ) ;
#1007 = EDGE_CURVE ( 'NONE', #50, #54, #143, .T. ) ;
#1008 = DIRECTION ( 'NONE',  ( 0.000000000000000000, 0.000000000000000000, 1.000000000000000000 ) ) ;
#1009 = LINE ( 'NONE', #925, #812 ) ;
#1010 = DIRECTION ( 'NONE',  ( -0.000000000000000000, -1.000000000000000000, -0.000000000000000000 ) ) ;
#1011 = ORIENTED_EDGE ( 'NONE', *, *, #946, .F. ) ;
#1012 = ORIENTED_EDGE ( 'NONE', *, *, #511, .T. ) ;
#1013 = ADVANCED_FACE ( 'NONE', ( #698, #945, #288, #871, #123, #764, #371, #285, #274, #444, #686, #1030, #610 ), #366, .T. ) ;
#1014 = CYLINDRICAL_SURFACE ( 'NONE', #348, 4.499999999999997335 ) ;
#1015 = DIRECTION ( 'NONE',  ( 0.000000000000000000, 0.000000000000000000, -1.000000000000000000 ) ) ;
#1016 = ORIENTED_EDGE ( 'NONE', *, *, #485, .F. ) ;
#1017 = VECTOR ( 'NONE', #17, 1000.000000000000000 ) ;
#1018 = DIRECTION ( 'NONE',  ( 0.000000000000000000, 0.000000000000000000, -1.000000000000000000 ) ) ;
#1019 = CIRCLE ( 'NONE', #415, 4.499999999999997335 ) ;
#1020 =( NAMED_UNIT ( * ) PLANE_ANGLE_UNIT ( ) SI_UNIT ( $, .RADIAN. ) );
#1021 = AXIS2_PLACEMENT_3D ( 'NONE', #269, #844, #1008 ) ;
#1022 = ORIENTED_EDGE ( 'NONE', *, *, #109, .T. ) ;
#1023 = DIRECTION ( 'NONE',  ( -0.000000000000000000, -1.000000000000000000, -0.000000000000000000 ) ) ;
#1024 = EDGE_CURVE ( 'NONE', #741, #501, #61, .T. ) ;
#1025 = DIRECTION ( 'NONE',  ( -0.000000000000000000, -1.000000000000000000, -0.000000000000000000 ) ) ;
#1026 = APPROVAL ( #152, 'UNSPECIFIED' ) ;
#1027 = FACE_BOUND ( 'NONE', #6, .T. ) ;
#1028 = VERTEX_POINT ( 'NONE', #529 ) ;
#1029 = LINE ( 'NONE', #1049, #311 ) ;
#1030 = FACE_BOUND ( 'NONE', #683, .T. ) ;
#1031 = CARTESIAN_POINT ( 'NONE',  ( 6.938893903907228378E-15, 0.000000000000000000, -47.00000000000000000 ) ) ;
#1032 = ORIENTED_EDGE ( 'NONE', *, *, #253, .F. ) ;
#1033 = DIRECTION ( 'NONE',  ( 0.000000000000000000, 0.000000000000000000, -1.000000000000000000 ) ) ;
#1034 = CIRCLE ( 'NONE', #196, 4.499999999999997335 ) ;
#1035 = VECTOR ( 'NONE', #951, 1000.000000000000000 ) ;
#1036 = CYLINDRICAL_SURFACE ( 'NONE', #28, 4.499999999999997335 ) ;
#1037 = ORIENTED_EDGE ( 'NONE', *, *, #913, .F. ) ;
#1038 = EDGE_CURVE ( 'NONE', #753, #613, #607, .T. ) ;
#1039 = PRODUCT_DEFINITION_SHAPE ( 'NONE', 'NONE',  #341 ) ;
#1040 = LOCAL_TIME ( 1, 22, 44.00000000000000000, #976 ) ;
#1041 = DIRECTION ( 'NONE',  ( 0.000000000000000000, 0.000000000000000000, -1.000000000000000000 ) ) ;
#1042 = SECURITY_CLASSIFICATION_LEVEL ( 'unclassified' ) ;
#1043 = DIRECTION ( 'NONE',  ( 0.000000000000000000, 0.000000000000000000, 1.000000000000000000 ) ) ;
#1044 = EDGE_LOOP ( 'NONE', ( #318, #439, #134, #665 ) ) ;
#1045 = DIRECTION ( 'NONE',  ( 0.000000000000000000, 0.000000000000000000, -1.000000000000000000 ) ) ;
#1046 = ADVANCED_FACE ( 'NONE', ( #864 ), #126, .F. ) ;
#1047 = DIRECTION ( 'NONE',  ( 0.000000000000000000, 0.000000000000000000, -1.000000000000000000 ) ) ;
#1048 = EDGE_LOOP ( 'NONE', ( #601, #325, #23, #433 ) ) ;
#1049 = CARTESIAN_POINT ( 'NONE',  ( 33.23401871576771782, -15.00000000000000000, 37.73401871576773203 ) ) ;
#1050 = APPLICATION_PROTOCOL_DEFINITION ( 'international standard', 'config_control_design', 1994, #714 ) ;
#1051 = CARTESIAN_POINT ( 'NONE',  ( -46.99999999999998579, -15.00000000000000000, -5.204170427930421283E-15 ) ) ;
#1052 = AXIS2_PLACEMENT_3D ( 'NONE', #357, #428, #108 ) ;
#1053 = ORIENTED_EDGE ( 'NONE', *, *, #265, .F. ) ;
#1054 = CIRCLE ( 'NONE', #78, 4.499999999999997335 ) ;
#1055 = AXIS2_PLACEMENT_3D ( 'NONE', #258, #254, #262 ) ;
#1056 = CARTESIAN_POINT ( 'NONE',  ( -46.99999999999998579, -15.00000000000000000, -4.500000000000002665 ) ) ;
#1057 = VERTEX_POINT ( 'NONE', #48 ) ;
#1058 = COORDINATED_UNIVERSAL_TIME_OFFSET ( 8, 0, .AHEAD. ) ;
#1059 = ADVANCED_FACE ( 'NONE', ( #772 ), #34, .T. ) ;
#1060 = DIRECTION ( 'NONE',  ( -0.000000000000000000, -1.000000000000000000, -0.000000000000000000 ) ) ;
#1061 = VERTEX_POINT ( 'NONE', #520 ) ;
#1062 = DIRECTION ( 'NONE',  ( 0.000000000000000000, 0.000000000000000000, -1.000000000000000000 ) ) ;
#1063 = ORIENTED_EDGE ( 'NONE', *, *, #565, .T. ) ;
ENDSEC;
END-ISO-10303-21;
