ISO-10303-21;
HEADER;
FILE_DESCRIPTION (( 'STEP AP203' ),
    '1' );
FILE_NAME ('LCEC8-4040-G_203.STEP',
    '2020-04-16T01:36:10',
    ( '' ),
    ( '' ),
    'SwSTEP 2.0',
    'SolidWorks 2014',
    '' );
FILE_SCHEMA (( 'CONFIG_CONTROL_DESIGN' ));
ENDSEC;

DATA;
#1 = EDGE_CURVE ( 'NONE', #199, #402, #512, .T. ) ;
#2 = COORDINATED_UNIVERSAL_TIME_OFFSET ( 8, 0, .AHEAD. ) ;
#3 = ORIENTED_EDGE ( 'NONE', *, *, #240, .T. ) ;
#4 = PERSON_AND_ORGANIZATION_ROLE ( 'design_owner' ) ;
#5 = LOCAL_TIME ( 9, 36, 10.00000000000000000, #266 ) ;
#6 = CC_DESIGN_DATE_AND_TIME_ASSIGNMENT ( #441, #126, ( #452 ) ) ;
#7 = CIRCLE ( 'NONE', #221, 2.499999999999998700 ) ;
#8 = VERTEX_POINT ( 'NONE', #422 ) ;
#9 = DIRECTION ( 'NONE',  ( 0.0000000000000000000, 0.0000000000000000000, -1.000000000000000000 ) ) ;
#10 = EDGE_CURVE ( 'NONE', #184, #469, #117, .T. ) ;
#11 = DIRECTION ( 'NONE',  ( -1.000000000000000000, 0.0000000000000000000, 0.0000000000000000000 ) ) ;
#12 = ADVANCED_FACE ( 'NONE', ( #450 ), #457, .T. ) ;
#13 = DIRECTION ( 'NONE',  ( 0.0000000000000000000, 1.000000000000000000, 0.0000000000000000000 ) ) ;
#14 = VECTOR ( 'NONE', #509, 1000.000000000000000 ) ;
#15 = ORIENTED_EDGE ( 'NONE', *, *, #489, .T. ) ;
#16 = DIRECTION ( 'NONE',  ( -0.0000000000000000000, -0.0000000000000000000, 1.000000000000000000 ) ) ;
#17 = ADVANCED_BREP_SHAPE_REPRESENTATION ( 'LCEC8-4040-G_203', ( #537, #440 ), #411 ) ;
#18 = DIRECTION ( 'NONE',  ( 0.0000000000000000000, 1.000000000000000000, 0.0000000000000000000 ) ) ;
#19 = CALENDAR_DATE ( 2020, 16, 4 ) ;
#20 = CIRCLE ( 'NONE', #30, 2.500000000000000000 ) ;
#21 = EDGE_CURVE ( 'NONE', #449, #443, #333, .T. ) ;
#22 = ORIENTED_EDGE ( 'NONE', *, *, #473, .T. ) ;
#23 = ORIENTED_EDGE ( 'NONE', *, *, #21, .F. ) ;
#24 = EDGE_CURVE ( 'NONE', #511, #443, #483, .T. ) ;
#25 = CARTESIAN_POINT ( 'NONE',  ( 17.50000000000000400, -17.50000000000000400, 2.500000000000000000 ) ) ;
#26 = VECTOR ( 'NONE', #369, 1000.000000000000000 ) ;
#27 = CLOSED_SHELL ( 'NONE', ( #307, #207, #346, #294, #425, #47, #430, #385, #169, #128, #210, #299, #12, #341, #216, #82, #252, #514 ) ) ;
#28 = ORIENTED_EDGE ( 'NONE', *, *, #263, .T. ) ;
#29 = EDGE_LOOP ( 'NONE', ( #526, #176, #328, #153 ) ) ;
#30 = AXIS2_PLACEMENT_3D ( 'NONE', #394, #218, #262 ) ;
#31 = CARTESIAN_POINT ( 'NONE',  ( -17.50000000000000400, 17.49999999999999600, 0.0000000000000000000 ) ) ;
#32 = DIRECTION ( 'NONE',  ( -1.734723475976807100E-016, 1.000000000000000000, -0.0000000000000000000 ) ) ;
#33 = DIRECTION ( 'NONE',  ( 0.0000000000000000000, 1.000000000000000000, 0.0000000000000000000 ) ) ;
#34 = CARTESIAN_POINT ( 'NONE',  ( -17.50000000000000000, -20.00000000000000400, 4.000000000000000000 ) ) ;
#35 = PERSON_AND_ORGANIZATION ( #253, #291 ) ;
#36 = CIRCLE ( 'NONE', #101, 2.500000000000000000 ) ;
#37 = SECURITY_CLASSIFICATION ( '', '', #395 ) ;
#38 = EDGE_CURVE ( 'NONE', #470, #478, #403, .T. ) ;
#39 = PERSON_AND_ORGANIZATION ( #253, #291 ) ;
#40 = ORIENTED_EDGE ( 'NONE', *, *, #289, .T. ) ;
#41 = ORIENTED_EDGE ( 'NONE', *, *, #38, .F. ) ;
#42 = DIRECTION ( 'NONE',  ( 0.0000000000000000000, 0.0000000000000000000, -1.000000000000000000 ) ) ;
#43 = CARTESIAN_POINT ( 'NONE',  ( 20.00000000000000400, -17.50000000000000700, 2.500000000000000000 ) ) ;
#44 = LOCAL_TIME ( 9, 36, 10.00000000000000000, #426 ) ;
#45 = ORIENTED_EDGE ( 'NONE', *, *, #222, .T. ) ;
#46 = CARTESIAN_POINT ( 'NONE',  ( -20.00000000000000000, -20.00000000000000400, 4.000000000000000000 ) ) ;
#47 = ADVANCED_FACE ( 'NONE', ( #211 ), #355, .F. ) ;
#48 = PLANE ( 'NONE',  #301 ) ;
#49 = PERSON_AND_ORGANIZATION_ROLE ( 'creator' ) ;
#50 = CARTESIAN_POINT ( 'NONE',  ( -20.00000000000000400, 17.49999999999999600, 2.500000000000000000 ) ) ;
#51 = CIRCLE ( 'NONE', #386, 2.499999999999998700 ) ;
#52 = DIRECTION ( 'NONE',  ( -1.000000000000000000, -0.0000000000000000000, -0.0000000000000000000 ) ) ;
#53 = ORIENTED_EDGE ( 'NONE', *, *, #424, .F. ) ;
#54 = DIRECTION ( 'NONE',  ( 0.0000000000000000000, 0.0000000000000000000, -1.000000000000000000 ) ) ;
#55 = CARTESIAN_POINT ( 'NONE',  ( -20.00000000000000000, -17.50000000000000400, 2.500000000000000000 ) ) ;
#56 = AXIS2_PLACEMENT_3D ( 'NONE', #518, #264, #446 ) ;
#57 = DIRECTION ( 'NONE',  ( -0.0000000000000000000, -0.0000000000000000000, 1.000000000000000000 ) ) ;
#58 = DIRECTION ( 'NONE',  ( 8.673617379884035500E-017, -1.000000000000000000, 0.0000000000000000000 ) ) ;
#59 = LINE ( 'NONE', #152, #26 ) ;
#60 = FACE_OUTER_BOUND ( 'NONE', #29, .T. ) ;
#61 = VERTEX_POINT ( 'NONE', #354 ) ;
#62 = CIRCLE ( 'NONE', #137, 2.499999999999998700 ) ;
#63 = AXIS2_PLACEMENT_3D ( 'NONE', #306, #16, #11 ) ;
#64 = ORIENTED_EDGE ( 'NONE', *, *, #179, .F. ) ;
#65 = APPROVAL_DATE_TIME ( #500, #481 ) ;
#66 = CARTESIAN_POINT ( 'NONE',  ( -20.00000000000000400, 19.99999999999999600, 4.000000000000000000 ) ) ;
#67 = CALENDAR_DATE ( 2020, 16, 4 ) ;
#68 = LINE ( 'NONE', #220, #525 ) ;
#69 = ORIENTED_EDGE ( 'NONE', *, *, #163, .F. ) ;
#70 = CC_DESIGN_PERSON_AND_ORGANIZATION_ASSIGNMENT ( #467, #466, ( #37 ) ) ;
#71 = CARTESIAN_POINT ( 'NONE',  ( 17.50000000000000000, 17.49999999999999600, 4.000000000000000000 ) ) ;
#72 =( NAMED_UNIT ( * ) PLANE_ANGLE_UNIT ( ) SI_UNIT ( $, .RADIAN. ) );
#73 = AXIS2_PLACEMENT_3D ( 'NONE', #96, #399, #480 ) ;
#74 = VECTOR ( 'NONE', #303, 1000.000000000000000 ) ;
#75 = ORIENTED_EDGE ( 'NONE', *, *, #1, .T. ) ;
#76 = APPLICATION_PROTOCOL_DEFINITION ( 'international standard', 'config_control_design', 1994, #81 ) ;
#77 = DIRECTION ( 'NONE',  ( -1.000000000000000000, 0.0000000000000000000, 0.0000000000000000000 ) ) ;
#78 = DATE_AND_TIME ( #538, #44 ) ;
#79 = LINE ( 'NONE', #342, #409 ) ;
#80 = ORIENTED_EDGE ( 'NONE', *, *, #372, .F. ) ;
#81 = APPLICATION_CONTEXT ( 'configuration controlled 3d designs of mechanical parts and assemblies' ) ;
#82 = ADVANCED_FACE ( 'NONE', ( #60 ), #140, .T. ) ;
#83 = VECTOR ( 'NONE', #136, 1000.000000000000000 ) ;
#84 = ORIENTED_EDGE ( 'NONE', *, *, #10, .T. ) ;
#85 = EDGE_LOOP ( 'NONE', ( #460, #64, #146, #320 ) ) ;
#86 = CARTESIAN_POINT ( 'NONE',  ( -20.00000000000000400, 19.99999999999999600, 4.000000000000000000 ) ) ;
#87 = DIRECTION ( 'NONE',  ( 0.0000000000000000000, 0.0000000000000000000, -1.000000000000000000 ) ) ;
#88 = AXIS2_PLACEMENT_3D ( 'NONE', #97, #18, #404 ) ;
#89 = CARTESIAN_POINT ( 'NONE',  ( 0.0000000000000000000, 17.49999999999999600, 0.0000000000000000000 ) ) ;
#90 = CARTESIAN_POINT ( 'NONE',  ( -20.00000000000000000, -20.00000000000000400, 4.000000000000000000 ) ) ;
#91 = APPROVAL_ROLE ( '' ) ;
#92 = DIRECTION ( 'NONE',  ( 0.0000000000000000000, 0.0000000000000000000, -1.000000000000000000 ) ) ;
#93 = LINE ( 'NONE', #34, #217 ) ;
#94 = ORIENTED_EDGE ( 'NONE', *, *, #289, .F. ) ;
#95 = CIRCLE ( 'NONE', #323, 2.500000000000000000 ) ;
#96 = CARTESIAN_POINT ( 'NONE',  ( 17.49999999999999600, 19.99999999999999600, 2.500000000000000000 ) ) ;
#97 = CARTESIAN_POINT ( 'NONE',  ( -17.50000000000000400, 17.49999999999999600, 2.500000000000000000 ) ) ;
#98 = EDGE_CURVE ( 'NONE', #469, #227, #68, .T. ) ;
#99 = FACE_OUTER_BOUND ( 'NONE', #85, .T. ) ;
#100 = EDGE_LOOP ( 'NONE', ( #353, #305, #40, #84, #242, #520, #365, #132 ) ) ;
#101 = AXIS2_PLACEMENT_3D ( 'NONE', #348, #474, #92 ) ;
#102 = ORIENTED_EDGE ( 'NONE', *, *, #484, .F. ) ;
#103 = ORIENTED_EDGE ( 'NONE', *, *, #484, .T. ) ;
#104 = UNCERTAINTY_MEASURE_WITH_UNIT (LENGTH_MEASURE( 1.000000000000000100E-005 ), #493, 'distance_accuracy_value', 'NONE');
#105 = DIRECTION ( 'NONE',  ( 1.734723475976807100E-016, -1.000000000000000000, 0.0000000000000000000 ) ) ;
#106 = CARTESIAN_POINT ( 'NONE',  ( 19.99999999999999600, 19.99999999999999600, 4.000000000000000000 ) ) ;
#107 = AXIS2_PLACEMENT_3D ( 'NONE', #50, #127, #528 ) ;
#108 = DIRECTION ( 'NONE',  ( -0.0000000000000000000, 0.0000000000000000000, 1.000000000000000000 ) ) ;
#109 = CARTESIAN_POINT ( 'NONE',  ( 17.49999999999999600, 17.49999999999999600, 0.0000000000000000000 ) ) ;
#110 = SHAPE_DEFINITION_REPRESENTATION ( #485, #17 ) ;
#111 = FACE_OUTER_BOUND ( 'NONE', #178, .T. ) ;
#112 = EDGE_LOOP ( 'NONE', ( #461, #345, #113, #419 ) ) ;
#113 = ORIENTED_EDGE ( 'NONE', *, *, #456, .F. ) ;
#114 = AXIS2_PLACEMENT_3D ( 'NONE', #149, #147, #105 ) ;
#115 = LOCAL_TIME ( 9, 36, 10.00000000000000000, #350 ) ;
#116 = ORIENTED_EDGE ( 'NONE', *, *, #424, .T. ) ;
#117 = CIRCLE ( 'NONE', #501, 2.500000000000000400 ) ;
#118 = CARTESIAN_POINT ( 'NONE',  ( 17.50000000000000400, -17.50000000000000400, 0.0000000000000000000 ) ) ;
#119 = DIRECTION ( 'NONE',  ( 1.000000000000000000, 0.0000000000000000000, 0.0000000000000000000 ) ) ;
#120 = DIRECTION ( 'NONE',  ( 1.000000000000000000, -0.0000000000000000000, -0.0000000000000000000 ) ) ;
#121 = LOCAL_TIME ( 9, 36, 10.00000000000000000, #356 ) ;
#122 = FACE_OUTER_BOUND ( 'NONE', #100, .T. ) ;
#123 = ORIENTED_EDGE ( 'NONE', *, *, #527, .F. ) ;
#124 = VERTEX_POINT ( 'NONE', #181 ) ;
#125 = AXIS2_PLACEMENT_3D ( 'NONE', #479, #472, #311 ) ;
#126 = DATE_TIME_ROLE ( 'creation_date' ) ;
#127 = DIRECTION ( 'NONE',  ( -1.000000000000000000, 0.0000000000000000000, 0.0000000000000000000 ) ) ;
#128 = ADVANCED_FACE ( 'NONE', ( #99 ), #166, .T. ) ;
#129 = CARTESIAN_POINT ( 'NONE',  ( -20.00000000000000400, 17.49999999999999600, 2.500000000000000000 ) ) ;
#130 = DIRECTION ( 'NONE',  ( -1.000000000000000000, 0.0000000000000000000, 0.0000000000000000000 ) ) ;
#131 = APPROVAL_PERSON_ORGANIZATION ( #39, #481, #168 ) ;
#132 = ORIENTED_EDGE ( 'NONE', *, *, #189, .T. ) ;
#133 = ORIENTED_EDGE ( 'NONE', *, *, #244, .F. ) ;
#134 = CARTESIAN_POINT ( 'NONE',  ( -20.00000000000000000, -17.50000000000000700, 4.000000000000000000 ) ) ;
#135 = EDGE_LOOP ( 'NONE', ( #213, #133, #154, #359 ) ) ;
#136 = DIRECTION ( 'NONE',  ( -1.734723475976807100E-016, 1.000000000000000000, 0.0000000000000000000 ) ) ;
#137 = AXIS2_PLACEMENT_3D ( 'NONE', #391, #431, #214 ) ;
#138 = AXIS2_PLACEMENT_3D ( 'NONE', #185, #482, #270 ) ;
#139 = LOCAL_TIME ( 9, 36, 10.00000000000000000, #2 ) ;
#140 = CYLINDRICAL_SURFACE ( 'NONE', #73, 2.500000000000000400 ) ;
#141 = CC_DESIGN_PERSON_AND_ORGANIZATION_ASSIGNMENT ( #519, #49, ( #322 ) ) ;
#142 = CARTESIAN_POINT ( 'NONE',  ( -20.00000000000000000, -20.00000000000000400, 2.500000000000000000 ) ) ;
#143 = AXIS2_PLACEMENT_3D ( 'NONE', #296, #42, #204 ) ;
#144 = FACE_OUTER_BOUND ( 'NONE', #335, .T. ) ;
#145 = EDGE_LOOP ( 'NONE', ( #363, #45, #228 ) ) ;
#146 = ORIENTED_EDGE ( 'NONE', *, *, #459, .F. ) ;
#147 = DIRECTION ( 'NONE',  ( -1.000000000000000000, -1.734723475976807100E-016, 0.0000000000000000000 ) ) ;
#148 = CARTESIAN_POINT ( 'NONE',  ( -20.00000000000000000, -17.50000000000000700, 4.000000000000000000 ) ) ;
#149 = CARTESIAN_POINT ( 'NONE',  ( 19.99999999999999600, 19.99999999999999600, 4.000000000000000000 ) ) ;
#150 = DIRECTION ( 'NONE',  ( -1.000000000000000000, 0.0000000000000000000, 0.0000000000000000000 ) ) ;
#151 = VECTOR ( 'NONE', #57, 1000.000000000000000 ) ;
#152 = CARTESIAN_POINT ( 'NONE',  ( 20.00000000000000400, -17.50000000000000700, 4.000000000000000000 ) ) ;
#153 = ORIENTED_EDGE ( 'NONE', *, *, #156, .F. ) ;
#154 = ORIENTED_EDGE ( 'NONE', *, *, #445, .F. ) ;
#155 = MECHANICAL_CONTEXT ( 'NONE', #236, 'mechanical' ) ;
#156 = EDGE_CURVE ( 'NONE', #449, #160, #344, .T. ) ;
#157 = VECTOR ( 'NONE', #256, 1000.000000000000000 ) ;
#158 = EDGE_CURVE ( 'NONE', #260, #124, #226, .T. ) ;
#159 = ORIENTED_EDGE ( 'NONE', *, *, #163, .T. ) ;
#160 = VERTEX_POINT ( 'NONE', #393 ) ;
#161 = ORIENTED_EDGE ( 'NONE', *, *, #517, .F. ) ;
#162 = AXIS2_PLACEMENT_3D ( 'NONE', #25, #366, #193 ) ;
#163 = EDGE_CURVE ( 'NONE', #469, #243, #174, .T. ) ;
#164 = CARTESIAN_POINT ( 'NONE',  ( -20.00000000000000400, 17.49999999999999600, 4.000000000000000000 ) ) ;
#165 = CIRCLE ( 'NONE', #379, 2.500000000000000000 ) ;
#166 = CYLINDRICAL_SURFACE ( 'NONE', #56, 2.500000000000000400 ) ;
#167 = DIRECTION ( 'NONE',  ( -0.0000000000000000000, -0.0000000000000000000, 1.000000000000000000 ) ) ;
#168 = APPROVAL_ROLE ( '' ) ;
#169 = ADVANCED_FACE ( 'NONE', ( #111 ), #319, .T. ) ;
#170 = APPROVAL_STATUS ( 'not_yet_approved' ) ;
#171 = DESIGN_CONTEXT ( 'detailed design', #81, 'design' ) ;
#172 = PRODUCT ( 'LCEC8-4040-G_203', 'LCEC8-4040-G_203', '', ( #155 ) ) ;
#173 = DIRECTION ( 'NONE',  ( 0.0000000000000000000, -0.0000000000000000000, 1.000000000000000000 ) ) ;
#174 = LINE ( 'NONE', #396, #442 ) ;
#175 = DIRECTION ( 'NONE',  ( 0.0000000000000000000, -0.0000000000000000000, -1.000000000000000000 ) ) ;
#176 = ORIENTED_EDGE ( 'NONE', *, *, #24, .F. ) ;
#177 = DIRECTION ( 'NONE',  ( 1.000000000000000000, 0.0000000000000000000, 0.0000000000000000000 ) ) ;
#178 = EDGE_LOOP ( 'NONE', ( #203, #53, #292, #69 ) ) ;
#179 = EDGE_CURVE ( 'NONE', #243, #219, #539, .T. ) ;
#180 = CARTESIAN_POINT ( 'NONE',  ( 17.50000000000000400, -20.00000000000000400, 4.000000000000000000 ) ) ;
#181 = CARTESIAN_POINT ( 'NONE',  ( 17.50000000000000400, -20.00000000000000400, 2.500000000000000000 ) ) ;
#182 = APPROVAL_PERSON_ORGANIZATION ( #448, #367, #471 ) ;
#183 = CYLINDRICAL_SURFACE ( 'NONE', #435, 2.500000000000000400 ) ;
#184 = VERTEX_POINT ( 'NONE', #515 ) ;
#185 = CARTESIAN_POINT ( 'NONE',  ( 17.50000000000000400, -17.50000000000000400, 2.500000000000000000 ) ) ;
#186 = LINE ( 'NONE', #180, #151 ) ;
#187 = ORIENTED_EDGE ( 'NONE', *, *, #200, .F. ) ;
#188 = ORIENTED_EDGE ( 'NONE', *, *, #274, .F. ) ;
#189 = EDGE_CURVE ( 'NONE', #61, #8, #7, .T. ) ;
#190 = APPROVAL_PERSON_ORGANIZATION ( #209, #271, #91 ) ;
#191 = LINE ( 'NONE', #148, #487 ) ;
#192 = EDGE_LOOP ( 'NONE', ( #362, #415, #488, #321 ) ) ;
#193 = DIRECTION ( 'NONE',  ( 1.000000000000000000, 0.0000000000000000000, 0.0000000000000000000 ) ) ;
#194 = DIRECTION ( 'NONE',  ( 1.000000000000000000, 0.0000000000000000000, 0.0000000000000000000 ) ) ;
#195 = EDGE_CURVE ( 'NONE', #199, #219, #36, .T. ) ;
#196 = CARTESIAN_POINT ( 'NONE',  ( 17.50000000000000000, 19.99999999999999600, 4.000000000000000000 ) ) ;
#197 = CIRCLE ( 'NONE', #533, 2.499999999999998700 ) ;
#198 = CYLINDRICAL_SURFACE ( 'NONE', #239, 2.500000000000000000 ) ;
#199 = VERTEX_POINT ( 'NONE', #308 ) ;
#200 = EDGE_CURVE ( 'NONE', #260, #199, #238, .T. ) ;
#201 = LINE ( 'NONE', #312, #14 ) ;
#202 = ORIENTED_EDGE ( 'NONE', *, *, #339, .T. ) ;
#203 = ORIENTED_EDGE ( 'NONE', *, *, #10, .F. ) ;
#204 = DIRECTION ( 'NONE',  ( -1.000000000000000000, 0.0000000000000000000, 0.0000000000000000000 ) ) ;
#205 = CARTESIAN_POINT ( 'NONE',  ( -17.50000000000000400, -1.517883041479706600E-015, 0.0000000000000000000 ) ) ;
#206 = CARTESIAN_POINT ( 'NONE',  ( -20.00000000000000400, 19.99999999999999600, 2.500000000000000000 ) ) ;
#207 = ADVANCED_FACE ( 'NONE', ( #468 ), #261, .F. ) ;
#208 = DIRECTION ( 'NONE',  ( -0.0000000000000000000, 0.0000000000000000000, 1.000000000000000000 ) ) ;
#209 = PERSON_AND_ORGANIZATION ( #253, #291 ) ;
#210 = ADVANCED_FACE ( 'NONE', ( #383 ), #198, .T. ) ;
#211 = FACE_OUTER_BOUND ( 'NONE', #439, .T. ) ;
#212 = AXIS2_PLACEMENT_3D ( 'NONE', #272, #398, #119 ) ;
#213 = ORIENTED_EDGE ( 'NONE', *, *, #189, .F. ) ;
#214 = DIRECTION ( 'NONE',  ( 1.387778780781446500E-015, 1.000000000000000000, 0.0000000000000000000 ) ) ;
#215 = CARTESIAN_POINT ( 'NONE',  ( 17.50000000000000400, -17.50000000000000700, 4.000000000000000000 ) ) ;
#216 = ADVANCED_FACE ( 'NONE', ( #413 ), #510, .T. ) ;
#217 = VECTOR ( 'NONE', #535, 1000.000000000000000 ) ;
#218 = DIRECTION ( 'NONE',  ( -0.0000000000000000000, 1.000000000000000000, 0.0000000000000000000 ) ) ;
#219 = VERTEX_POINT ( 'NONE', #223 ) ;
#220 = CARTESIAN_POINT ( 'NONE',  ( -20.00000000000000400, 19.99999999999999600, 4.000000000000000000 ) ) ;
#221 = AXIS2_PLACEMENT_3D ( 'NONE', #215, #429, #177 ) ;
#222 = EDGE_CURVE ( 'NONE', #511, #470, #62, .T. ) ;
#223 = CARTESIAN_POINT ( 'NONE',  ( -20.00000000000000000, -17.50000000000000400, 2.500000000000000000 ) ) ;
#224 = AXIS2_PLACEMENT_3D ( 'NONE', #281, #451, #324 ) ;
#225 = CARTESIAN_POINT ( 'NONE',  ( -17.50000000000000400, 17.49999999999999600, 4.000000000000000000 ) ) ;
#226 = LINE ( 'NONE', #142, #358 ) ;
#227 = VERTEX_POINT ( 'NONE', #134 ) ;
#228 = ORIENTED_EDGE ( 'NONE', *, *, #263, .F. ) ;
#229 = AXIS2_PLACEMENT_3D ( 'NONE', #462, #245, #298 ) ;
#230 = VECTOR ( 'NONE', #380, 1000.000000000000000 ) ;
#231 = ORIENTED_EDGE ( 'NONE', *, *, #222, .F. ) ;
#232 = CARTESIAN_POINT ( 'NONE',  ( -17.50000000000000000, -17.50000000000000400, 2.500000000000000000 ) ) ;
#233 = DIRECTION ( 'NONE',  ( -8.673617379884035500E-017, 1.000000000000000000, 0.0000000000000000000 ) ) ;
#234 = CARTESIAN_POINT ( 'NONE',  ( 0.0000000000000000000, -17.50000000000000400, 0.0000000000000000000 ) ) ;
#235 = CARTESIAN_POINT ( 'NONE',  ( -17.50000000000000000, -17.50000000000000400, 2.500000000000000000 ) ) ;
#236 = APPLICATION_CONTEXT ( 'configuration controlled 3d designs of mechanical parts and assemblies' ) ;
#237 = DATE_AND_TIME ( #19, #121 ) ;
#238 = CIRCLE ( 'NONE', #125, 2.500000000000000000 ) ;
#239 = AXIS2_PLACEMENT_3D ( 'NONE', #55, #255, #9 ) ;
#240 = EDGE_CURVE ( 'NONE', #402, #511, #495, .T. ) ;
#241 = CC_DESIGN_DATE_AND_TIME_ASSIGNMENT ( #237, #300, ( #37 ) ) ;
#242 = ORIENTED_EDGE ( 'NONE', *, *, #98, .T. ) ;
#243 = VERTEX_POINT ( 'NONE', #129 ) ;
#244 = EDGE_CURVE ( 'NONE', #124, #61, #186, .T. ) ;
#245 = DIRECTION ( 'NONE',  ( 0.0000000000000000000, 0.0000000000000000000, -1.000000000000000000 ) ) ;
#246 = CARTESIAN_POINT ( 'NONE',  ( 17.50000000000000000, 19.99999999999999600, 2.500000000000000000 ) ) ;
#247 = PERSON_AND_ORGANIZATION ( #253, #291 ) ;
#248 = AXIS2_PLACEMENT_3D ( 'NONE', #232, #33, #447 ) ;
#249 = FACE_OUTER_BOUND ( 'NONE', #378, .T. ) ;
#250 = DIRECTION ( 'NONE',  ( 1.000000000000000000, 0.0000000000000000000, 0.0000000000000000000 ) ) ;
#251 = ORIENTED_EDGE ( 'NONE', *, *, #405, .T. ) ;
#252 = ADVANCED_FACE ( 'NONE', ( #257 ), #280, .T. ) ;
#253 = PERSON ( 'UNSPECIFIED', 'UNSPECIFIED', 'UNSPECIFIED', ('UNSPECIFIED'), ('UNSPECIFIED'), ('UNSPECIFIED') ) ;
#254 = CC_DESIGN_APPROVAL ( #271, ( #322 ) ) ;
#255 = DIRECTION ( 'NONE',  ( 1.000000000000000000, 0.0000000000000000000, 0.0000000000000000000 ) ) ;
#256 = DIRECTION ( 'NONE',  ( 8.673617379884035500E-017, -1.000000000000000000, 0.0000000000000000000 ) ) ;
#257 = FACE_OUTER_BOUND ( 'NONE', #145, .T. ) ;
#258 = AXIS2_PLACEMENT_3D ( 'NONE', #90, #13, #173 ) ;
#259 = ORIENTED_EDGE ( 'NONE', *, *, #459, .T. ) ;
#260 = VERTEX_POINT ( 'NONE', #309 ) ;
#261 = PLANE ( 'NONE',  #258 ) ;
#262 = DIRECTION ( 'NONE',  ( 0.0000000000000000000, 0.0000000000000000000, 1.000000000000000000 ) ) ;
#263 = EDGE_CURVE ( 'NONE', #160, #470, #285, .T. ) ;
#264 = DIRECTION ( 'NONE',  ( 8.673617379884035500E-017, -1.000000000000000000, 0.0000000000000000000 ) ) ;
#265 = DIRECTION ( 'NONE',  ( -0.0000000000000000000, 0.0000000000000000000, 1.000000000000000000 ) ) ;
#266 = COORDINATED_UNIVERSAL_TIME_OFFSET ( 8, 0, .AHEAD. ) ;
#267 = SPHERICAL_SURFACE ( 'NONE', #162, 2.500000000000000000 ) ;
#268 = ORIENTED_EDGE ( 'NONE', *, *, #98, .F. ) ;
#269 = ORIENTED_EDGE ( 'NONE', *, *, #38, .T. ) ;
#270 = DIRECTION ( 'NONE',  ( 1.000000000000000000, -1.387778780781446500E-015, 0.0000000000000000000 ) ) ;
#271 = APPROVAL ( #392, 'UNSPECIFIED' ) ;
#272 = CARTESIAN_POINT ( 'NONE',  ( 0.0000000000000000000, 0.0000000000000000000, 0.0000000000000000000 ) ) ;
#273 = AXIS2_PLACEMENT_3D ( 'NONE', #433, #476, #436 ) ;
#274 = EDGE_CURVE ( 'NONE', #530, #470, #418, .T. ) ;
#275 = FACE_OUTER_BOUND ( 'NONE', #135, .T. ) ;
#276 = APPROVAL_STATUS ( 'not_yet_approved' ) ;
#277 = DIRECTION ( 'NONE',  ( 0.0000000000000000000, 0.0000000000000000000, -1.000000000000000000 ) ) ;
#278 = DIRECTION ( 'NONE',  ( 1.000000000000000000, 0.0000000000000000000, 0.0000000000000000000 ) ) ;
#279 = ORIENTED_EDGE ( 'NONE', *, *, #179, .T. ) ;
#280 = SPHERICAL_SURFACE ( 'NONE', #273, 2.500000000000000000 ) ;
#281 = CARTESIAN_POINT ( 'NONE',  ( -17.50000000000000000, -17.50000000000000400, 4.000000000000000000 ) ) ;
#282 =( NAMED_UNIT ( * ) SI_UNIT ( $, .STERADIAN. ) SOLID_ANGLE_UNIT ( ) );
#283 = ORIENTED_EDGE ( 'NONE', *, *, #445, .T. ) ;
#284 = CARTESIAN_POINT ( 'NONE',  ( 0.0000000000000000000, 0.0000000000000000000, 0.0000000000000000000 ) ) ;
#285 = CIRCLE ( 'NONE', #63, 2.500000000000000400 ) ;
#286 = ORIENTED_EDGE ( 'NONE', *, *, #536, .F. ) ;
#287 = VECTOR ( 'NONE', #464, 1000.000000000000000 ) ;
#288 = EDGE_CURVE ( 'NONE', #160, #511, #20, .T. ) ;
#289 = EDGE_CURVE ( 'NONE', #530, #184, #376, .T. ) ;
#290 = DIRECTION ( 'NONE',  ( 0.0000000000000000000, 0.0000000000000000000, 1.000000000000000000 ) ) ;
#291 = ORGANIZATION ( 'UNSPECIFIED', 'UNSPECIFIED', '' ) ;
#292 = ORIENTED_EDGE ( 'NONE', *, *, #408, .F. ) ;
#293 = VECTOR ( 'NONE', #77, 1000.000000000000000 ) ;
#294 = ADVANCED_FACE ( 'NONE', ( #302 ), #48, .F. ) ;
#295 = EDGE_LOOP ( 'NONE', ( #187, #390, #373 ) ) ;
#296 = CARTESIAN_POINT ( 'NONE',  ( -17.50000000000000000, -17.50000000000000400, 4.000000000000000000 ) ) ;
#297 = AXIS2_PLACEMENT_3D ( 'NONE', #71, #108, #194 ) ;
#298 = DIRECTION ( 'NONE',  ( -1.000000000000000000, 0.0000000000000000000, 0.0000000000000000000 ) ) ;
#299 = ADVANCED_FACE ( 'NONE', ( #275 ), #183, .T. ) ;
#300 = DATE_TIME_ROLE ( 'classification_date' ) ;
#301 = AXIS2_PLACEMENT_3D ( 'NONE', #86, #387, #175 ) ;
#302 = FACE_OUTER_BOUND ( 'NONE', #540, .T. ) ;
#303 = DIRECTION ( 'NONE',  ( 1.000000000000000000, -0.0000000000000000000, -0.0000000000000000000 ) ) ;
#304 = EDGE_LOOP ( 'NONE', ( #286, #102, #28, #188 ) ) ;
#305 = ORIENTED_EDGE ( 'NONE', *, *, #536, .T. ) ;
#306 = CARTESIAN_POINT ( 'NONE',  ( 17.50000000000000000, 17.49999999999999600, 2.500000000000000000 ) ) ;
#307 = ADVANCED_FACE ( 'NONE', ( #249 ), #368, .F. ) ;
#308 = CARTESIAN_POINT ( 'NONE',  ( -17.50000000000000000, -17.50000000000000400, 0.0000000000000000000 ) ) ;
#309 = CARTESIAN_POINT ( 'NONE',  ( -17.50000000000000000, -20.00000000000000400, 2.500000000000000000 ) ) ;
#310 = PERSON_AND_ORGANIZATION_ROLE ( 'creator' ) ;
#311 = DIRECTION ( 'NONE',  ( 0.0000000000000000000, 0.0000000000000000000, 1.000000000000000000 ) ) ;
#312 = CARTESIAN_POINT ( 'NONE',  ( 19.99999999999999600, 17.49999999999999600, 4.000000000000000000 ) ) ;
#313 = PERSON_AND_ORGANIZATION ( #253, #291 ) ;
#314 = CC_DESIGN_APPROVAL ( #367, ( #452 ) ) ;
#315 = ORIENTED_EDGE ( 'NONE', *, *, #508, .T. ) ;
#316 = CYLINDRICAL_SURFACE ( 'NONE', #143, 2.499999999999998700 ) ;
#317 = DIRECTION ( 'NONE',  ( 1.000000000000000000, 0.0000000000000000000, 0.0000000000000000000 ) ) ;
#318 = VECTOR ( 'NONE', #412, 1000.000000000000000 ) ;
#319 = CYLINDRICAL_SURFACE ( 'NONE', #340, 2.499999999999998700 ) ;
#320 = ORIENTED_EDGE ( 'NONE', *, *, #1, .F. ) ;
#321 = ORIENTED_EDGE ( 'NONE', *, *, #158, .F. ) ;
#322 = PRODUCT_DEFINITION_FORMATION_WITH_SPECIFIED_SOURCE ( 'ANY', '', #172, .NOT_KNOWN. ) ;
#323 = AXIS2_PLACEMENT_3D ( 'NONE', #329, #532, #277 ) ;
#324 = DIRECTION ( 'NONE',  ( 1.000000000000000000, 0.0000000000000000000, 0.0000000000000000000 ) ) ;
#325 = DIRECTION ( 'NONE',  ( 1.000000000000000000, 8.673617379884035500E-017, -0.0000000000000000000 ) ) ;
#326 = APPROVAL_DATE_TIME ( #417, #367 ) ;
#327 = ORIENTED_EDGE ( 'NONE', *, *, #534, .F. ) ;
#328 = ORIENTED_EDGE ( 'NONE', *, *, #288, .F. ) ;
#329 = CARTESIAN_POINT ( 'NONE',  ( 17.50000000000000400, -17.50000000000000400, 2.500000000000000000 ) ) ;
#330 = DIRECTION ( 'NONE',  ( -0.0000000000000000000, -0.0000000000000000000, -1.000000000000000000 ) ) ;
#331 = CARTESIAN_POINT ( 'NONE',  ( 19.99999999999999600, 17.49999999999999600, 4.000000000000000000 ) ) ;
#332 = LINE ( 'NONE', #46, #230 ) ;
#333 = CIRCLE ( 'NONE', #138, 2.499999999999998700 ) ;
#334 = EDGE_LOOP ( 'NONE', ( #22, #41, #231, #477 ) ) ;
#335 = EDGE_LOOP ( 'NONE', ( #123, #161, #80, #503 ) ) ;
#336 = LINE ( 'NONE', #234, #318 ) ;
#337 = ORIENTED_EDGE ( 'NONE', *, *, #408, .T. ) ;
#338 = CARTESIAN_POINT ( 'NONE',  ( -17.50000000000000400, 17.49999999999999600, 2.500000000000000000 ) ) ;
#339 = EDGE_CURVE ( 'NONE', #124, #443, #95, .T. ) ;
#340 = AXIS2_PLACEMENT_3D ( 'NONE', #437, #87, #130 ) ;
#341 = ADVANCED_FACE ( 'NONE', ( #506 ), #267, .T. ) ;
#342 = CARTESIAN_POINT ( 'NONE',  ( -17.50000000000000400, 19.99999999999999600, 4.000000000000000000 ) ) ;
#343 = CIRCLE ( 'NONE', #414, 2.500000000000000000 ) ;
#344 = LINE ( 'NONE', #397, #83 ) ;
#345 = ORIENTED_EDGE ( 'NONE', *, *, #244, .T. ) ;
#346 = ADVANCED_FACE ( 'NONE', ( #388 ), #490, .F. ) ;
#347 = CARTESIAN_POINT ( 'NONE',  ( 17.50000000000000000, 19.99999999999999600, 4.000000000000000000 ) ) ;
#348 = CARTESIAN_POINT ( 'NONE',  ( -17.50000000000000000, -17.50000000000000400, 2.500000000000000000 ) ) ;
#349 = AXIS2_PLACEMENT_3D ( 'NONE', #423, #208, #250 ) ;
#350 = COORDINATED_UNIVERSAL_TIME_OFFSET ( 8, 0, .AHEAD. ) ;
#351 = CARTESIAN_POINT ( 'NONE',  ( -20.00000000000000400, 19.99999999999999600, 4.000000000000000000 ) ) ;
#352 = EDGE_LOOP ( 'NONE', ( #259, #337, #541 ) ) ;
#353 = ORIENTED_EDGE ( 'NONE', *, *, #534, .T. ) ;
#354 = CARTESIAN_POINT ( 'NONE',  ( 17.50000000000000400, -20.00000000000000400, 4.000000000000000000 ) ) ;
#355 = PLANE ( 'NONE',  #212 ) ;
#356 = COORDINATED_UNIVERSAL_TIME_OFFSET ( 8, 0, .AHEAD. ) ;
#357 = CC_DESIGN_SECURITY_CLASSIFICATION ( #37, ( #322 ) ) ;
#358 = VECTOR ( 'NONE', #438, 1000.000000000000000 ) ;
#359 = ORIENTED_EDGE ( 'NONE', *, *, #489, .F. ) ;
#360 = AXIS2_PLACEMENT_3D ( 'NONE', #66, #325, #233 ) ;
#361 = VECTOR ( 'NONE', #32, 1000.000000000000000 ) ;
#362 = ORIENTED_EDGE ( 'NONE', *, *, #200, .T. ) ;
#363 = ORIENTED_EDGE ( 'NONE', *, *, #288, .T. ) ;
#364 = DIRECTION ( 'NONE',  ( -1.000000000000000000, 0.0000000000000000000, 0.0000000000000000000 ) ) ;
#365 = ORIENTED_EDGE ( 'NONE', *, *, #456, .T. ) ;
#366 = DIRECTION ( 'NONE',  ( 0.0000000000000000000, 1.000000000000000000, 0.0000000000000000000 ) ) ;
#367 = APPROVAL ( #276, 'UNSPECIFIED' ) ;
#368 = PLANE ( 'NONE',  #360 ) ;
#369 = DIRECTION ( 'NONE',  ( 0.0000000000000000000, 0.0000000000000000000, -1.000000000000000000 ) ) ;
#370 = FACE_OUTER_BOUND ( 'NONE', #304, .T. ) ;
#371 = CIRCLE ( 'NONE', #224, 2.500000000000000400 ) ;
#372 = EDGE_CURVE ( 'NONE', #227, #458, #371, .T. ) ;
#373 = ORIENTED_EDGE ( 'NONE', *, *, #195, .F. ) ;
#374 = APPLICATION_PROTOCOL_DEFINITION ( 'international standard', 'config_control_design', 1994, #236 ) ;
#375 = CALENDAR_DATE ( 2020, 16, 4 ) ;
#376 = LINE ( 'NONE', #351, #531 ) ;
#377 = ORIENTED_EDGE ( 'NONE', *, *, #156, .T. ) ;
#378 = EDGE_LOOP ( 'NONE', ( #279, #251, #268, #159 ) ) ;
#379 = AXIS2_PLACEMENT_3D ( 'NONE', #338, #463, #290 ) ;
#380 = DIRECTION ( 'NONE',  ( 1.000000000000000000, 0.0000000000000000000, 0.0000000000000000000 ) ) ;
#381 = DIRECTION ( 'NONE',  ( 0.0000000000000000000, 0.0000000000000000000, -1.000000000000000000 ) ) ;
#382 = CYLINDRICAL_SURFACE ( 'NONE', #420, 2.500000000000000400 ) ;
#383 = FACE_OUTER_BOUND ( 'NONE', #192, .T. ) ;
#384 = CARTESIAN_POINT ( 'NONE',  ( -17.50000000000000400, 17.49999999999999600, 2.500000000000000000 ) ) ;
#385 = ADVANCED_FACE ( 'NONE', ( #502 ), #521, .T. ) ;
#386 = AXIS2_PLACEMENT_3D ( 'NONE', #486, #381, #465 ) ;
#387 = DIRECTION ( 'NONE',  ( 0.0000000000000000000, -1.000000000000000000, 0.0000000000000000000 ) ) ;
#388 = FACE_OUTER_BOUND ( 'NONE', #444, .T. ) ;
#389 = ORIENTED_EDGE ( 'NONE', *, *, #274, .T. ) ;
#390 = ORIENTED_EDGE ( 'NONE', *, *, #527, .T. ) ;
#391 = CARTESIAN_POINT ( 'NONE',  ( 17.49999999999999600, 17.49999999999999600, 2.500000000000000000 ) ) ;
#392 = APPROVAL_STATUS ( 'not_yet_approved' ) ;
#393 = CARTESIAN_POINT ( 'NONE',  ( 19.99999999999999600, 17.49999999999999600, 2.500000000000000000 ) ) ;
#394 = CARTESIAN_POINT ( 'NONE',  ( 17.49999999999999600, 17.49999999999999600, 2.500000000000000000 ) ) ;
#395 = SECURITY_CLASSIFICATION_LEVEL ( 'unclassified' ) ;
#396 = CARTESIAN_POINT ( 'NONE',  ( -20.00000000000000400, 17.49999999999999600, 4.000000000000000000 ) ) ;
#397 = CARTESIAN_POINT ( 'NONE',  ( 19.99999999999999600, 19.99999999999999600, 2.500000000000000000 ) ) ;
#398 = DIRECTION ( 'NONE',  ( -0.0000000000000000000, 0.0000000000000000000, 1.000000000000000000 ) ) ;
#399 = DIRECTION ( 'NONE',  ( -1.734723475976807100E-016, 1.000000000000000000, 0.0000000000000000000 ) ) ;
#400 = CC_DESIGN_PERSON_AND_ORGANIZATION_ASSIGNMENT ( #35, #516, ( #322 ) ) ;
#401 = CIRCLE ( 'NONE', #297, 2.499999999999998700 ) ;
#402 = VERTEX_POINT ( 'NONE', #31 ) ;
#403 = LINE ( 'NONE', #206, #293 ) ;
#404 = DIRECTION ( 'NONE',  ( 1.000000000000000000, 0.0000000000000000000, 0.0000000000000000000 ) ) ;
#405 = EDGE_CURVE ( 'NONE', #219, #227, #191, .T. ) ;
#406 = VECTOR ( 'NONE', #54, 1000.000000000000000 ) ;
#407 = VERTEX_POINT ( 'NONE', #331 ) ;
#408 = EDGE_CURVE ( 'NONE', #243, #478, #51, .T. ) ;
#409 = VECTOR ( 'NONE', #167, 1000.000000000000000 ) ;
#410 = CARTESIAN_POINT ( 'NONE',  ( 17.50000000000000000, 17.49999999999999600, 4.000000000000000000 ) ) ;
#411 =( GEOMETRIC_REPRESENTATION_CONTEXT ( 3 ) GLOBAL_UNCERTAINTY_ASSIGNED_CONTEXT ( ( #104 ) ) GLOBAL_UNIT_ASSIGNED_CONTEXT ( ( #493, #72, #282 ) ) REPRESENTATION_CONTEXT ( 'NONE', 'WORKASPACE' ) );
#412 = DIRECTION ( 'NONE',  ( -1.000000000000000000, -0.0000000000000000000, -0.0000000000000000000 ) ) ;
#413 = FACE_OUTER_BOUND ( 'NONE', #334, .T. ) ;
#414 = AXIS2_PLACEMENT_3D ( 'NONE', #384, #120, #492 ) ;
#415 = ORIENTED_EDGE ( 'NONE', *, *, #508, .F. ) ;
#416 = CARTESIAN_POINT ( 'NONE',  ( -17.50000000000000000, -20.00000000000000400, 4.000000000000000000 ) ) ;
#417 = DATE_AND_TIME ( #475, #139 ) ;
#418 = LINE ( 'NONE', #347, #406 ) ;
#419 = ORIENTED_EDGE ( 'NONE', *, *, #517, .T. ) ;
#420 = AXIS2_PLACEMENT_3D ( 'NONE', #410, #497, #150 ) ;
#421 = CARTESIAN_POINT ( 'NONE',  ( -17.50000000000000400, 19.99999999999999600, 2.500000000000000000 ) ) ;
#422 = CARTESIAN_POINT ( 'NONE',  ( 20.00000000000000400, -17.50000000000000700, 4.000000000000000000 ) ) ;
#423 = CARTESIAN_POINT ( 'NONE',  ( 0.0000000000000000000, 0.0000000000000000000, 4.000000000000000000 ) ) ;
#424 = EDGE_CURVE ( 'NONE', #478, #184, #79, .T. ) ;
#425 = ADVANCED_FACE ( 'NONE', ( #122 ), #507, .T. ) ;
#426 = COORDINATED_UNIVERSAL_TIME_OFFSET ( 8, 0, .AHEAD. ) ;
#427 = VECTOR ( 'NONE', #523, 1000.000000000000000 ) ;
#428 = EDGE_LOOP ( 'NONE', ( #283, #202, #23 ) ) ;
#429 = DIRECTION ( 'NONE',  ( -0.0000000000000000000, 0.0000000000000000000, 1.000000000000000000 ) ) ;
#430 = ADVANCED_FACE ( 'NONE', ( #144 ), #316, .T. ) ;
#431 = DIRECTION ( 'NONE',  ( 1.000000000000000000, -1.387778780781446500E-015, 0.0000000000000000000 ) ) ;
#432 = CARTESIAN_POINT ( 'NONE',  ( -20.00000000000000400, 19.99999999999999600, 2.500000000000000000 ) ) ;
#433 = CARTESIAN_POINT ( 'NONE',  ( 17.49999999999999600, 17.49999999999999600, 2.500000000000000000 ) ) ;
#434 = DIRECTION ( 'NONE',  ( 0.0000000000000000000, 0.0000000000000000000, -1.000000000000000000 ) ) ;
#435 = AXIS2_PLACEMENT_3D ( 'NONE', #529, #491, #364 ) ;
#436 = DIRECTION ( 'NONE',  ( 1.000000000000000000, 0.0000000000000000000, 0.0000000000000000000 ) ) ;
#437 = CARTESIAN_POINT ( 'NONE',  ( -17.50000000000000400, 17.49999999999999600, 4.000000000000000000 ) ) ;
#438 = DIRECTION ( 'NONE',  ( 1.000000000000000000, 0.0000000000000000000, 0.0000000000000000000 ) ) ;
#439 = EDGE_LOOP ( 'NONE', ( #3, #496, #315, #75 ) ) ;
#440 = AXIS2_PLACEMENT_3D ( 'NONE', #284, #499, #278 ) ;
#441 = DATE_AND_TIME ( #67, #5 ) ;
#442 = VECTOR ( 'NONE', #434, 1000.000000000000000 ) ;
#443 = VERTEX_POINT ( 'NONE', #118 ) ;
#444 = EDGE_LOOP ( 'NONE', ( #377, #103, #327, #15 ) ) ;
#445 = EDGE_CURVE ( 'NONE', #449, #124, #455, .T. ) ;
#446 = DIRECTION ( 'NONE',  ( 1.000000000000000000, 0.0000000000000000000, 0.0000000000000000000 ) ) ;
#447 = DIRECTION ( 'NONE',  ( 1.000000000000000000, 0.0000000000000000000, 0.0000000000000000000 ) ) ;
#448 = PERSON_AND_ORGANIZATION ( #253, #291 ) ;
#449 = VERTEX_POINT ( 'NONE', #43 ) ;
#450 = FACE_OUTER_BOUND ( 'NONE', #352, .T. ) ;
#451 = DIRECTION ( 'NONE',  ( -0.0000000000000000000, 0.0000000000000000000, 1.000000000000000000 ) ) ;
#452 = PRODUCT_DEFINITION ( 'UNKNOWN', '', #322, #171 ) ;
#453 = DIRECTION ( 'NONE',  ( -0.0000000000000000000, -0.0000000000000000000, 1.000000000000000000 ) ) ;
#454 = DIRECTION ( 'NONE',  ( -1.000000000000000000, 0.0000000000000000000, 0.0000000000000000000 ) ) ;
#455 = CIRCLE ( 'NONE', #229, 2.500000000000000400 ) ;
#456 = EDGE_CURVE ( 'NONE', #458, #61, #332, .T. ) ;
#457 = SPHERICAL_SURFACE ( 'NONE', #88, 2.500000000000000000 ) ;
#458 = VERTEX_POINT ( 'NONE', #416 ) ;
#459 = EDGE_CURVE ( 'NONE', #402, #243, #165, .T. ) ;
#460 = ORIENTED_EDGE ( 'NONE', *, *, #195, .T. ) ;
#461 = ORIENTED_EDGE ( 'NONE', *, *, #158, .T. ) ;
#462 = CARTESIAN_POINT ( 'NONE',  ( 17.50000000000000400, -17.50000000000000700, 2.500000000000000000 ) ) ;
#463 = DIRECTION ( 'NONE',  ( 0.0000000000000000000, 1.000000000000000000, 0.0000000000000000000 ) ) ;
#464 = DIRECTION ( 'NONE',  ( -8.673617379884035500E-017, 1.000000000000000000, -0.0000000000000000000 ) ) ;
#465 = DIRECTION ( 'NONE',  ( -1.000000000000000000, 0.0000000000000000000, 0.0000000000000000000 ) ) ;
#466 = PERSON_AND_ORGANIZATION_ROLE ( 'classification_officer' ) ;
#467 = PERSON_AND_ORGANIZATION ( #253, #291 ) ;
#468 = FACE_OUTER_BOUND ( 'NONE', #112, .T. ) ;
#469 = VERTEX_POINT ( 'NONE', #164 ) ;
#470 = VERTEX_POINT ( 'NONE', #246 ) ;
#471 = APPROVAL_ROLE ( '' ) ;
#472 = DIRECTION ( 'NONE',  ( 1.000000000000000000, 0.0000000000000000000, 0.0000000000000000000 ) ) ;
#473 = EDGE_CURVE ( 'NONE', #402, #478, #343, .T. ) ;
#474 = DIRECTION ( 'NONE',  ( 0.0000000000000000000, 1.000000000000000000, 0.0000000000000000000 ) ) ;
#475 = CALENDAR_DATE ( 2020, 16, 4 ) ;
#476 = DIRECTION ( 'NONE',  ( 0.0000000000000000000, 1.000000000000000000, 0.0000000000000000000 ) ) ;
#477 = ORIENTED_EDGE ( 'NONE', *, *, #240, .F. ) ;
#478 = VERTEX_POINT ( 'NONE', #421 ) ;
#479 = CARTESIAN_POINT ( 'NONE',  ( -17.50000000000000000, -17.50000000000000400, 2.500000000000000000 ) ) ;
#480 = DIRECTION ( 'NONE',  ( -1.000000000000000000, 0.0000000000000000000, 0.0000000000000000000 ) ) ;
#481 = APPROVAL ( #170, 'UNSPECIFIED' ) ;
#482 = DIRECTION ( 'NONE',  ( 1.387778780781446500E-015, 1.000000000000000000, 0.0000000000000000000 ) ) ;
#483 = LINE ( 'NONE', #522, #427 ) ;
#484 = EDGE_CURVE ( 'NONE', #160, #407, #201, .T. ) ;
#485 = PRODUCT_DEFINITION_SHAPE ( 'NONE', 'NONE',  #452 ) ;
#486 = CARTESIAN_POINT ( 'NONE',  ( -17.50000000000000400, 17.49999999999999600, 2.500000000000000000 ) ) ;
#487 = VECTOR ( 'NONE', #453, 1000.000000000000000 ) ;
#488 = ORIENTED_EDGE ( 'NONE', *, *, #339, .F. ) ;
#489 = EDGE_CURVE ( 'NONE', #8, #449, #59, .T. ) ;
#490 = PLANE ( 'NONE',  #114 ) ;
#491 = DIRECTION ( 'NONE',  ( 0.0000000000000000000, 0.0000000000000000000, -1.000000000000000000 ) ) ;
#492 = DIRECTION ( 'NONE',  ( 0.0000000000000000000, 0.0000000000000000000, 1.000000000000000000 ) ) ;
#493 =( LENGTH_UNIT ( ) NAMED_UNIT ( * ) SI_UNIT ( .MILLI., .METRE. ) );
#494 = LINE ( 'NONE', #106, #361 ) ;
#495 = LINE ( 'NONE', #89, #74 ) ;
#496 = ORIENTED_EDGE ( 'NONE', *, *, #24, .T. ) ;
#497 = DIRECTION ( 'NONE',  ( 0.0000000000000000000, 0.0000000000000000000, -1.000000000000000000 ) ) ;
#498 = CC_DESIGN_PERSON_AND_ORGANIZATION_ASSIGNMENT ( #247, #4, ( #172 ) ) ;
#499 = DIRECTION ( 'NONE',  ( 0.0000000000000000000, 0.0000000000000000000, 1.000000000000000000 ) ) ;
#500 = DATE_AND_TIME ( #375, #115 ) ;
#501 = AXIS2_PLACEMENT_3D ( 'NONE', #225, #265, #317 ) ;
#502 = FACE_OUTER_BOUND ( 'NONE', #295, .T. ) ;
#503 = ORIENTED_EDGE ( 'NONE', *, *, #405, .F. ) ;
#504 = APPROVAL_DATE_TIME ( #78, #271 ) ;
#505 = PRODUCT_RELATED_PRODUCT_CATEGORY ( 'detail', '', ( #172 ) ) ;
#506 = FACE_OUTER_BOUND ( 'NONE', #428, .T. ) ;
#507 = PLANE ( 'NONE',  #349 ) ;
#508 = EDGE_CURVE ( 'NONE', #443, #199, #336, .T. ) ;
#509 = DIRECTION ( 'NONE',  ( -0.0000000000000000000, -0.0000000000000000000, 1.000000000000000000 ) ) ;
#510 = CYLINDRICAL_SURFACE ( 'NONE', #107, 2.500000000000000000 ) ;
#511 = VERTEX_POINT ( 'NONE', #109 ) ;
#512 = LINE ( 'NONE', #205, #287 ) ;
#513 = CC_DESIGN_APPROVAL ( #481, ( #37 ) ) ;
#514 = ADVANCED_FACE ( 'NONE', ( #370 ), #382, .T. ) ;
#515 = CARTESIAN_POINT ( 'NONE',  ( -17.50000000000000400, 19.99999999999999600, 4.000000000000000000 ) ) ;
#516 = PERSON_AND_ORGANIZATION_ROLE ( 'design_supplier' ) ;
#517 = EDGE_CURVE ( 'NONE', #458, #260, #93, .T. ) ;
#518 = CARTESIAN_POINT ( 'NONE',  ( -17.50000000000000400, 19.99999999999999600, 2.500000000000000000 ) ) ;
#519 = PERSON_AND_ORGANIZATION ( #253, #291 ) ;
#520 = ORIENTED_EDGE ( 'NONE', *, *, #372, .T. ) ;
#521 = SPHERICAL_SURFACE ( 'NONE', #248, 2.500000000000000000 ) ;
#522 = CARTESIAN_POINT ( 'NONE',  ( 17.50000000000000000, 3.035766082959412800E-015, 0.0000000000000000000 ) ) ;
#523 = DIRECTION ( 'NONE',  ( 1.734723475976807100E-016, -1.000000000000000000, -0.0000000000000000000 ) ) ;
#524 = CC_DESIGN_PERSON_AND_ORGANIZATION_ASSIGNMENT ( #313, #310, ( #452 ) ) ;
#525 = VECTOR ( 'NONE', #58, 1000.000000000000000 ) ;
#526 = ORIENTED_EDGE ( 'NONE', *, *, #21, .T. ) ;
#527 = EDGE_CURVE ( 'NONE', #260, #219, #197, .T. ) ;
#528 = DIRECTION ( 'NONE',  ( 0.0000000000000000000, 0.0000000000000000000, 1.000000000000000000 ) ) ;
#529 = CARTESIAN_POINT ( 'NONE',  ( 17.50000000000000400, -17.50000000000000700, 4.000000000000000000 ) ) ;
#530 = VERTEX_POINT ( 'NONE', #196 ) ;
#531 = VECTOR ( 'NONE', #52, 1000.000000000000000 ) ;
#532 = DIRECTION ( 'NONE',  ( 1.000000000000000000, 0.0000000000000000000, 0.0000000000000000000 ) ) ;
#533 = AXIS2_PLACEMENT_3D ( 'NONE', #235, #330, #454 ) ;
#534 = EDGE_CURVE ( 'NONE', #8, #407, #494, .T. ) ;
#535 = DIRECTION ( 'NONE',  ( 0.0000000000000000000, 0.0000000000000000000, -1.000000000000000000 ) ) ;
#536 = EDGE_CURVE ( 'NONE', #407, #530, #401, .T. ) ;
#537 = MANIFOLD_SOLID_BREP ( 'Fillet1', #27 ) ;
#538 = CALENDAR_DATE ( 2020, 16, 4 ) ;
#539 = LINE ( 'NONE', #432, #157 ) ;
#540 = EDGE_LOOP ( 'NONE', ( #94, #389, #269, #116 ) ) ;
#541 = ORIENTED_EDGE ( 'NONE', *, *, #473, .F. ) ;
ENDSEC;
END-ISO-10303-21;
