ISO-10303-21;
HEADER;
FILE_DESCRIPTION (( 'STEP AP203' ),
    '1' );
FILE_NAME ('Angled Bracket.STEP',
    '2024-09-25T12:42:08',
    ( '' ),
    ( '' ),
    'SwSTEP 2.0',
    'SolidWorks 2023',
    '' );
FILE_SCHEMA (( 'CONFIG_CONTROL_DESIGN' ));
ENDSEC;

DATA;
#1 = ADVANCED_FACE ( 'NONE', ( #162 ), #102, .T. ) ;
#2 = DIRECTION ( 'NONE',  ( 1.224646799147351975E-16, -1.000000000000000000, 0.000000000000000000 ) ) ;
#3 = DIRECTION ( 'NONE',  ( 0.000000000000000000, 1.000000000000000000, -0.000000000000000000 ) ) ;
#4 = FACE_OUTER_BOUND ( 'NONE', #358, .T. ) ;
#5 = CARTESIAN_POINT ( 'NONE',  ( 28.28427124746171017, 32.52691193458134222, 27.00000000000000000 ) ) ;
#6 = PERSON_AND_ORGANIZATION_ROLE ( 'classification_officer' ) ;
#7 = EDGE_CURVE ( 'NONE', #281, #231, #320, .T. ) ;
#8 = LINE ( 'NONE', #564, #526 ) ;
#9 = CC_DESIGN_APPROVAL ( #516, ( #547 ) ) ;
#10 = DIRECTION ( 'NONE',  ( -0.7071067811865435759, -0.7071067811865515695, 0.000000000000000000 ) ) ;
#11 = DIRECTION ( 'NONE',  ( 1.000000000000000000, 0.000000000000000000, -0.000000000000000000 ) ) ;
#12 = CARTESIAN_POINT ( 'NONE',  ( 1.461692569885876157E-16, -2.168404344971008868E-15, 30.00000000000000000 ) ) ;
#13 = CIRCLE ( 'NONE', #268, 3.000000000000002665 ) ;
#14 = VERTEX_POINT ( 'NONE', #247 ) ;
#15 = DIRECTION ( 'NONE',  ( -0.7071067811865435759, -0.7071067811865513475, 0.000000000000000000 ) ) ;
#16 = FACE_OUTER_BOUND ( 'NONE', #171, .T. ) ;
#17 = ADVANCED_FACE ( 'NONE', ( #661, #458 ), #206, .F. ) ;
#18 = ORIENTED_EDGE ( 'NONE', *, *, #177, .F. ) ;
#19 = DIRECTION ( 'NONE',  ( 0.7071067811865434649, 0.7071067811865514585, 0.000000000000000000 ) ) ;
#20 = ORIENTED_EDGE ( 'NONE', *, *, #580, .F. ) ;
#21 = APPROVAL ( #560, 'UNSPECIFIED' ) ;
#22 = CIRCLE ( 'NONE', #378, 3.000000000000002665 ) ;
#23 = DIRECTION ( 'NONE',  ( 1.000000000000000000, 1.224646799147353207E-16, -0.000000000000000000 ) ) ;
#24 = ORIENTED_EDGE ( 'NONE', *, *, #474, .T. ) ;
#25 = LINE ( 'NONE', #77, #150 ) ;
#26 = ORIENTED_EDGE ( 'NONE', *, *, #406, .F. ) ;
#27 = EDGE_CURVE ( 'NONE', #53, #360, #414, .T. ) ;
#28 = ORIENTED_EDGE ( 'NONE', *, *, #7, .F. ) ;
#29 = CARTESIAN_POINT ( 'NONE',  ( 3.000000000000000000, -1.242640687119274778, 30.00000000000000000 ) ) ;
#30 = AXIS2_PLACEMENT_3D ( 'NONE', #197, #610, #515 ) ;
#31 = DIRECTION ( 'NONE',  ( -0.7071067811865513475, 0.7071067811865435759, -0.000000000000000000 ) ) ;
#32 = CC_DESIGN_DATE_AND_TIME_ASSIGNMENT ( #165, #59, ( #64 ) ) ;
#33 = DIRECTION ( 'NONE',  ( 1.000000000000000000, 1.224646799147353207E-16, -0.000000000000000000 ) ) ;
#34 = VERTEX_POINT ( 'NONE', #604 ) ;
#35 = DIRECTION ( 'NONE',  ( -0.7071067811865435759, -0.7071067811865513475, 0.000000000000000000 ) ) ;
#36 = VERTEX_POINT ( 'NONE', #654 ) ;
#37 = EDGE_CURVE ( 'NONE', #444, #84, #519, .T. ) ;
#38 = DIRECTION ( 'NONE',  ( 1.000000000000000000, 0.000000000000000000, 0.000000000000000000 ) ) ;
#39 = ORIENTED_EDGE ( 'NONE', *, *, #493, .F. ) ;
#40 =( GEOMETRIC_REPRESENTATION_CONTEXT ( 3 ) GLOBAL_UNCERTAINTY_ASSIGNED_CONTEXT ( ( #46 ) ) GLOBAL_UNIT_ASSIGNED_CONTEXT ( ( #504, #402, #86 ) ) REPRESENTATION_CONTEXT ( 'NONE', 'WORKASPACE' ) );
#41 = PERSON_AND_ORGANIZATION ( #96, #498 ) ;
#42 = EDGE_LOOP ( 'NONE', ( #115, #591, #266, #606, #284, #176 ) ) ;
#43 = DIRECTION ( 'NONE',  ( 0.000000000000000000, 0.000000000000000000, 1.000000000000000000 ) ) ;
#44 = AXIS2_PLACEMENT_3D ( 'NONE', #205, #508, #410 ) ;
#45 = PLANE ( 'NONE',  #30 ) ;
#46 = UNCERTAINTY_MEASURE_WITH_UNIT (LENGTH_MEASURE( 1.000000000000000082E-05 ), #504, 'distance_accuracy_value', 'NONE');
#47 = DIRECTION ( 'NONE',  ( 0.7071067811865515695, -0.7071067811865435759, -0.000000000000000000 ) ) ;
#48 = ADVANCED_FACE ( 'NONE', ( #405 ), #147, .F. ) ;
#49 = DIRECTION ( 'NONE',  ( -0.7071067811865435759, -0.7071067811865513475, 0.000000000000000000 ) ) ;
#50 = DIRECTION ( 'NONE',  ( 1.000000000000000000, 0.000000000000000000, -0.000000000000000000 ) ) ;
#51 = AXIS2_PLACEMENT_3D ( 'NONE', #530, #213, #432 ) ;
#52 = AXIS2_PLACEMENT_3D ( 'NONE', #566, #91, #363 ) ;
#53 = VERTEX_POINT ( 'NONE', #450 ) ;
#54 = CALENDAR_DATE ( 2024, 25, 9 ) ;
#55 = VECTOR ( 'NONE', #301, 1000.000000000000000 ) ;
#56 = CARTESIAN_POINT ( 'NONE',  ( -2.999999999999995115, -39.99999999999999289, 2.999999999999999112 ) ) ;
#57 = DIRECTION ( 'NONE',  ( -0.000000000000000000, -0.000000000000000000, -1.000000000000000000 ) ) ;
#58 = VERTEX_POINT ( 'NONE', #98 ) ;
#59 = DATE_TIME_ROLE ( 'classification_date' ) ;
#60 = DIRECTION ( 'NONE',  ( -1.000000000000000000, -1.224646799147353207E-16, 0.000000000000000000 ) ) ;
#61 = DIRECTION ( 'NONE',  ( -0.7071067811865514585, 0.7071067811865436870, -0.000000000000000000 ) ) ;
#62 = ADVANCED_FACE ( 'NONE', ( #304, #510 ), #45, .F. ) ;
#63 = CARTESIAN_POINT ( 'NONE',  ( 5.265981236333618470E-15, -39.99999999999999289, 30.00000000000000000 ) ) ;
#64 = SECURITY_CLASSIFICATION ( '', '', #319 ) ;
#65 = CARTESIAN_POINT ( 'NONE',  ( -2.121320343559659261, 2.121320343559628174, 0.000000000000000000 ) ) ;
#66 = EDGE_LOOP ( 'NONE', ( #248, #532, #154, #548 ) ) ;
#67 = CARTESIAN_POINT ( 'NONE',  ( -2.121320343559655708, 2.121320343559631727, 30.00000000000000000 ) ) ;
#68 = DIRECTION ( 'NONE',  ( 0.7071067811865515695, -0.7071067811865435759, -0.000000000000000000 ) ) ;
#69 = VECTOR ( 'NONE', #408, 1000.000000000000000 ) ;
#70 = ORIENTED_EDGE ( 'NONE', *, *, #658, .F. ) ;
#71 = DIRECTION ( 'NONE',  ( 1.224646799147353207E-16, -1.000000000000000000, 0.000000000000000000 ) ) ;
#72 = EDGE_CURVE ( 'NONE', #142, #549, #465, .T. ) ;
#73 = CARTESIAN_POINT ( 'NONE',  ( 28.28427124746171017, 32.52691193458134222, 0.000000000000000000 ) ) ;
#74 = EDGE_LOOP ( 'NONE', ( #39, #393 ) ) ;
#75 = FACE_OUTER_BOUND ( 'NONE', #496, .T. ) ;
#76 = ORIENTED_EDGE ( 'NONE', *, *, #394, .F. ) ;
#77 = CARTESIAN_POINT ( 'NONE',  ( 28.28427124746173504, 28.28427124746205479, 0.000000000000000000 ) ) ;
#78 = VERTEX_POINT ( 'NONE', #5 ) ;
#79 = VERTEX_POINT ( 'NONE', #156 ) ;
#80 = ORIENTED_EDGE ( 'NONE', *, *, #390, .F. ) ;
#81 = AXIS2_PLACEMENT_3D ( 'NONE', #524, #265, #228 ) ;
#82 = AXIS2_PLACEMENT_3D ( 'NONE', #118, #269, #224 ) ;
#83 = DIRECTION ( 'NONE',  ( 0.7071067811865515695, -0.7071067811865435759, -0.000000000000000000 ) ) ;
#84 = VERTEX_POINT ( 'NONE', #563 ) ;
#85 = DESIGN_CONTEXT ( 'detailed design', #529, 'design' ) ;
#86 =( NAMED_UNIT ( * ) SI_UNIT ( $, .STERADIAN. ) SOLID_ANGLE_UNIT ( ) );
#87 = LINE ( 'NONE', #339, #659 ) ;
#88 = ADVANCED_FACE ( 'NONE', ( #309 ), #420, .T. ) ;
#89 = ORIENTED_EDGE ( 'NONE', *, *, #541, .F. ) ;
#90 = ORIENTED_EDGE ( 'NONE', *, *, #608, .F. ) ;
#91 = DIRECTION ( 'NONE',  ( -1.000000000000000000, 0.000000000000000000, 0.000000000000000000 ) ) ;
#92 = LINE ( 'NONE', #289, #552 ) ;
#93 = EDGE_CURVE ( 'NONE', #624, #94, #475, .T. ) ;
#94 = VERTEX_POINT ( 'NONE', #65 ) ;
#95 = CARTESIAN_POINT ( 'NONE',  ( -3.000000000000000000, 1.242640687119274112, 0.000000000000000000 ) ) ;
#96 = PERSON ( 'UNSPECIFIED', 'UNSPECIFIED', 'UNSPECIFIED', ('UNSPECIFIED'), ('UNSPECIFIED'), ('UNSPECIFIED') ) ;
#97 = FACE_OUTER_BOUND ( 'NONE', #486, .T. ) ;
#98 = CARTESIAN_POINT ( 'NONE',  ( 5.265981236333618470E-15, -43.00000000000000000, 2.999999999999999112 ) ) ;
#99 = DATE_AND_TIME ( #54, #262 ) ;
#100 = DIRECTION ( 'NONE',  ( 0.7071067811865515695, -0.7071067811865435759, -0.000000000000000000 ) ) ;
#101 = EDGE_CURVE ( 'NONE', #637, #471, #374, .T. ) ;
#102 = CYLINDRICAL_SURFACE ( 'NONE', #52, 2.999999999999999112 ) ;
#103 = PERSON_AND_ORGANIZATION ( #96, #498 ) ;
#104 = CIRCLE ( 'NONE', #456, 3.000000000000000000 ) ;
#105 = DIRECTION ( 'NONE',  ( -0.7071067811865514585, 0.7071067811865436870, 0.000000000000000000 ) ) ;
#106 = CARTESIAN_POINT ( 'NONE',  ( 30.40559159102136633, 30.40559159102171094, 30.00000000000000000 ) ) ;
#107 = PERSON_AND_ORGANIZATION_ROLE ( 'design_supplier' ) ;
#108 = DIRECTION ( 'NONE',  ( 0.000000000000000000, 0.000000000000000000, 1.000000000000000000 ) ) ;
#109 = CARTESIAN_POINT ( 'NONE',  ( 26.16295090390207889, 30.40559159102168607, 2.999999999999999112 ) ) ;
#111 = ORIENTED_EDGE ( 'NONE', *, *, #148, .F. ) ;
#110 = MANIFOLD_SOLID_BREP ( 'Fillet1', #136 ) ;
#112 = DIRECTION ( 'NONE',  ( 1.000000000000000000, 0.000000000000000000, 0.000000000000000000 ) ) ;
#113 = AXIS2_PLACEMENT_3D ( 'NONE', #381, #167, #121 ) ;
#114 = CARTESIAN_POINT ( 'NONE',  ( -2.999999999999997780, -19.87499999999999289, 15.00000000000000178 ) ) ;
#115 = ORIENTED_EDGE ( 'NONE', *, *, #390, .T. ) ;
#116 = ADVANCED_FACE ( 'NONE', ( #16 ), #581, .T. ) ;
#117 = LINE ( 'NONE', #368, #587 ) ;
#118 = CARTESIAN_POINT ( 'NONE',  ( 5.265981236333618470E-15, -39.99999999999999289, 2.999999999999999112 ) ) ;
#119 = ORIENTED_EDGE ( 'NONE', *, *, #531, .F. ) ;
#120 = EDGE_CURVE ( 'NONE', #522, #14, #423, .T. ) ;
#121 = DIRECTION ( 'NONE',  ( 1.387778780781444443E-16, -1.000000000000000000, 0.000000000000000000 ) ) ;
#122 = ORIENTED_EDGE ( 'NONE', *, *, #461, .T. ) ;
#123 = LINE ( 'NONE', #534, #542 ) ;
#124 = VECTOR ( 'NONE', #343, 1000.000000000000000 ) ;
#125 = ADVANCED_FACE ( 'NONE', ( #428 ), #170, .F. ) ;
#126 = VERTEX_POINT ( 'NONE', #568 ) ;
#127 = EDGE_LOOP ( 'NONE', ( #318, #433, #649, #226, #586, #140 ) ) ;
#128 = APPROVAL ( #153, 'UNSPECIFIED' ) ;
#129 = CIRCLE ( 'NONE', #298, 3.125000000000001332 ) ;
#130 = LOCAL_TIME ( 20, 42, 8.000000000000000000, #311 ) ;
#131 = ORIENTED_EDGE ( 'NONE', *, *, #246, .F. ) ;
#132 = ADVANCED_BREP_SHAPE_REPRESENTATION ( 'Angled Bracket', ( #110, #533 ), #40 ) ;
#133 = CARTESIAN_POINT ( 'NONE',  ( 16.26345596729049703, 16.26345596729068177, 15.00000000000001421 ) ) ;
#134 = EDGE_LOOP ( 'NONE', ( #600, #650, #26, #122 ) ) ;
#135 = CIRCLE ( 'NONE', #223, 3.000000000000001776 ) ;
#136 = CLOSED_SHELL ( 'NONE', ( #425, #366, #379, #550, #62, #17, #325, #348, #451, #145, #125, #48, #1, #88, #116, #233, #599, #188 ) ) ;
#137 = CARTESIAN_POINT ( 'NONE',  ( -2.999999999999995115, -39.99999999999999289, 30.00000000000000000 ) ) ;
#138 = LINE ( 'NONE', #344, #254 ) ;
#139 = AXIS2_PLACEMENT_3D ( 'NONE', #355, #47, #407 ) ;
#140 = ORIENTED_EDGE ( 'NONE', *, *, #204, .T. ) ;
#141 = COORDINATED_UNIVERSAL_TIME_OFFSET ( 8, 0, .AHEAD. ) ;
#142 = VERTEX_POINT ( 'NONE', #527 ) ;
#143 = MECHANICAL_CONTEXT ( 'NONE', #459, 'mechanical' ) ;
#144 = ORIENTED_EDGE ( 'NONE', *, *, #177, .T. ) ;
#145 = ADVANCED_FACE ( 'NONE', ( #322 ), #273, .F. ) ;
#146 = CALENDAR_DATE ( 2024, 25, 9 ) ;
#147 = CYLINDRICAL_SURFACE ( 'NONE', #603, 3.125000000000001332 ) ;
#148 = EDGE_CURVE ( 'NONE', #34, #360, #201, .T. ) ;
#149 = LINE ( 'NONE', #95, #55 ) ;
#150 = VECTOR ( 'NONE', #328, 1000.000000000000000 ) ;
#151 = CYLINDRICAL_SURFACE ( 'NONE', #44, 3.125000000000001332 ) ;
#152 = ORIENTED_EDGE ( 'NONE', *, *, #580, .T. ) ;
#153 = APPROVAL_STATUS ( 'not_yet_approved' ) ;
#154 = ORIENTED_EDGE ( 'NONE', *, *, #361, .T. ) ;
#155 = LINE ( 'NONE', #605, #244 ) ;
#156 = CARTESIAN_POINT ( 'NONE',  ( 0.8786796564403455134, 0.8786796564403555054, 0.000000000000000000 ) ) ;
#157 = FACE_OUTER_BOUND ( 'NONE', #258, .T. ) ;
#158 = PERSON_AND_ORGANIZATION ( #96, #498 ) ;
#159 = AXIS2_PLACEMENT_3D ( 'NONE', #192, #239, #398 ) ;
#160 = CARTESIAN_POINT ( 'NONE',  ( 16.26345596729049703, 16.26345596729068177, 15.00000000000001421 ) ) ;
#161 = CC_DESIGN_PERSON_AND_ORGANIZATION_ASSIGNMENT ( #103, #6, ( #64 ) ) ;
#162 = FACE_OUTER_BOUND ( 'NONE', #232, .T. ) ;
#163 = DIRECTION ( 'NONE',  ( -0.7071067811865515695, 0.7071067811865435759, 0.000000000000000000 ) ) ;
#164 = CARTESIAN_POINT ( 'NONE',  ( 28.28427124746173504, 28.28427124746205479, 2.999999999999999112 ) ) ;
#165 = DATE_AND_TIME ( #255, #613 ) ;
#166 = FACE_OUTER_BOUND ( 'NONE', #347, .T. ) ;
#167 = DIRECTION ( 'NONE',  ( -1.000000000000000000, -1.176279342079496339E-16, 0.000000000000000000 ) ) ;
#168 = ORIENTED_EDGE ( 'NONE', *, *, #336, .F. ) ;
#169 = DIRECTION ( 'NONE',  ( 0.000000000000000000, -1.000000000000000000, 0.000000000000000000 ) ) ;
#170 = CYLINDRICAL_SURFACE ( 'NONE', #51, 3.125000000000002665 ) ;
#171 = EDGE_LOOP ( 'NONE', ( #111, #482, #582, #367 ) ) ;
#172 = EDGE_CURVE ( 'NONE', #221, #624, #595, .T. ) ;
#173 = AXIS2_PLACEMENT_3D ( 'NONE', #660, #558, #50 ) ;
#174 = DIRECTION ( 'NONE',  ( 0.7071067811865435759, 0.7071067811865515695, 0.000000000000000000 ) ) ;
#175 = DIRECTION ( 'NONE',  ( 0.7071067811865434649, 0.7071067811865514585, 0.000000000000000000 ) ) ;
#176 = ORIENTED_EDGE ( 'NONE', *, *, #509, .T. ) ;
#177 = EDGE_CURVE ( 'NONE', #488, #640, #317, .T. ) ;
#178 = DIRECTION ( 'NONE',  ( -0.7071067811865515695, 0.7071067811865435759, -0.000000000000000000 ) ) ;
#179 = EDGE_LOOP ( 'NONE', ( #70, #653, #274, #89 ) ) ;
#180 = EDGE_CURVE ( 'NONE', #14, #640, #306, .T. ) ;
#181 = ORIENTED_EDGE ( 'NONE', *, *, #120, .F. ) ;
#182 = DIRECTION ( 'NONE',  ( 0.7071067811865515695, -0.7071067811865435759, 0.000000000000000000 ) ) ;
#183 = ORIENTED_EDGE ( 'NONE', *, *, #216, .T. ) ;
#184 = CIRCLE ( 'NONE', #555, 3.000000000000000000 ) ;
#185 = CARTESIAN_POINT ( 'NONE',  ( -3.000000000000000000, -2.602085213965210642E-15, 30.00000000000000000 ) ) ;
#186 = CARTESIAN_POINT ( 'NONE',  ( 3.000000000000000000, -1.242640687119274778, 0.000000000000000000 ) ) ;
#187 = ORIENTED_EDGE ( 'NONE', *, *, #445, .T. ) ;
#188 = ADVANCED_FACE ( 'NONE', ( #470 ), #632, .T. ) ;
#189 = DIRECTION ( 'NONE',  ( 1.000000000000000000, 1.224646799147353207E-16, -0.000000000000000000 ) ) ;
#190 = DIRECTION ( 'NONE',  ( -0.7071067811865435759, -0.7071067811865513475, 0.000000000000000000 ) ) ;
#191 = EDGE_LOOP ( 'NONE', ( #28, #382 ) ) ;
#192 = CARTESIAN_POINT ( 'NONE',  ( 1.461692569885876157E-16, -2.168404344971008868E-15, 30.00000000000000000 ) ) ;
#193 = CC_DESIGN_PERSON_AND_ORGANIZATION_ASSIGNMENT ( #158, #512, ( #241 ) ) ;
#194 = VECTOR ( 'NONE', #100, 1000.000000000000000 ) ;
#195 = ORIENTED_EDGE ( 'NONE', *, *, #7, .T. ) ;
#196 = DIRECTION ( 'NONE',  ( 0.7071067811865435759, 0.7071067811865515695, 0.000000000000000000 ) ) ;
#197 = CARTESIAN_POINT ( 'NONE',  ( 28.28427124746171017, 32.52691193458134222, 30.00000000000000000 ) ) ;
#198 = CARTESIAN_POINT ( 'NONE',  ( 0.000000000000000000, 0.000000000000000000, 0.000000000000000000 ) ) ;
#199 = ORIENTED_EDGE ( 'NONE', *, *, #263, .F. ) ;
#200 = LINE ( 'NONE', #554, #295 ) ;
#201 = CIRCLE ( 'NONE', #426, 3.000000000000001776 ) ;
#202 = CARTESIAN_POINT ( 'NONE',  ( 28.28427124746171017, 32.52691193458134222, 30.00000000000000000 ) ) ;
#203 = DIRECTION ( 'NONE',  ( -0.7071067811865513475, 0.7071067811865435759, -0.000000000000000000 ) ) ;
#204 = EDGE_CURVE ( 'NONE', #549, #78, #135, .T. ) ;
#205 = CARTESIAN_POINT ( 'NONE',  ( 22.51345596729053256, 10.01345596729071374, 15.00000000000001421 ) ) ;
#206 = PLANE ( 'NONE',  #225 ) ;
#207 = CARTESIAN_POINT ( 'NONE',  ( 1.521795939970888014E-16, -1.242640687119275222, 0.000000000000000000 ) ) ;
#208 = CARTESIAN_POINT ( 'NONE',  ( 30.40559159102136633, 30.40559159102171094, 2.999999999999999112 ) ) ;
#209 = ORIENTED_EDGE ( 'NONE', *, *, #509, .F. ) ;
#210 = COORDINATED_UNIVERSAL_TIME_OFFSET ( 8, 0, .AHEAD. ) ;
#211 = AXIS2_PLACEMENT_3D ( 'NONE', #655, #189, #449 ) ;
#212 = FACE_OUTER_BOUND ( 'NONE', #492, .T. ) ;
#213 = DIRECTION ( 'NONE',  ( -1.000000000000000000, -1.176279342079496339E-16, -0.000000000000000000 ) ) ;
#214 = LINE ( 'NONE', #202, #387 ) ;
#215 = AXIS2_PLACEMENT_3D ( 'NONE', #316, #60, #71 ) ;
#216 = EDGE_CURVE ( 'NONE', #231, #281, #454, .T. ) ;
#217 = DIRECTION ( 'NONE',  ( 0.000000000000000000, 0.000000000000000000, -1.000000000000000000 ) ) ;
#218 = ORIENTED_EDGE ( 'NONE', *, *, #531, .T. ) ;
#219 = PLANE ( 'NONE',  #215 ) ;
#220 = CARTESIAN_POINT ( 'NONE',  ( -2.999999999999994671, -43.00000000000000000, 27.00000000000000000 ) ) ;
#221 = VERTEX_POINT ( 'NONE', #371 ) ;
#222 = DIRECTION ( 'NONE',  ( -0.000000000000000000, 0.000000000000000000, -1.000000000000000000 ) ) ;
#223 = AXIS2_PLACEMENT_3D ( 'NONE', #635, #178, #175 ) ;
#224 = DIRECTION ( 'NONE',  ( 0.000000000000000000, 0.000000000000000000, -1.000000000000000000 ) ) ;
#225 = AXIS2_PLACEMENT_3D ( 'NONE', #553, #351, #453 ) ;
#226 = ORIENTED_EDGE ( 'NONE', *, *, #314, .T. ) ;
#227 = VECTOR ( 'NONE', #642, 1000.000000000000000 ) ;
#228 = DIRECTION ( 'NONE',  ( -1.445602896647337931E-16, 1.000000000000000000, 0.000000000000000000 ) ) ;
#229 = EDGE_LOOP ( 'NONE', ( #243, #168 ) ) ;
#230 = LINE ( 'NONE', #279, #340 ) ;
#231 = VERTEX_POINT ( 'NONE', #114 ) ;
#232 = EDGE_LOOP ( 'NONE', ( #537, #181, #494, #76 ) ) ;
#233 = ADVANCED_FACE ( 'NONE', ( #75 ), #275, .T. ) ;
#234 = DIRECTION ( 'NONE',  ( 1.224646799147351975E-16, -1.000000000000000000, 0.000000000000000000 ) ) ;
#235 = ORIENTED_EDGE ( 'NONE', *, *, #361, .F. ) ;
#236 = VECTOR ( 'NONE', #419, 1000.000000000000000 ) ;
#237 = CARTESIAN_POINT ( 'NONE',  ( 0.8786796564403458465, 0.8786796564403556165, 0.000000000000000000 ) ) ;
#238 = ORIENTED_EDGE ( 'NONE', *, *, #541, .T. ) ;
#239 = DIRECTION ( 'NONE',  ( 0.000000000000000000, -0.000000000000000000, 1.000000000000000000 ) ) ;
#240 = ORIENTED_EDGE ( 'NONE', *, *, #639, .T. ) ;
#241 = PRODUCT_DEFINITION_FORMATION_WITH_SPECIFIED_SOURCE ( 'ANY', '', #411, .NOT_KNOWN. ) ;
#242 = PERSON_AND_ORGANIZATION_ROLE ( 'creator' ) ;
#243 = ORIENTED_EDGE ( 'NONE', *, *, #501, .F. ) ;
#244 = VECTOR ( 'NONE', #307, 1000.000000000000000 ) ;
#245 = LINE ( 'NONE', #545, #124 ) ;
#246 = EDGE_CURVE ( 'NONE', #36, #270, #123, .T. ) ;
#247 = CARTESIAN_POINT ( 'NONE',  ( -2.999999999999994671, -43.00000000000000000, 27.00000000000000000 ) ) ;
#248 = ORIENTED_EDGE ( 'NONE', *, *, #303, .F. ) ;
#249 = PERSON_AND_ORGANIZATION_ROLE ( 'design_owner' ) ;
#250 = VECTOR ( 'NONE', #332, 1000.000000000000000 ) ;
#251 = VECTOR ( 'NONE', #203, 1000.000000000000114 ) ;
#252 = CARTESIAN_POINT ( 'NONE',  ( 30.40559159102136633, 30.40559159102171094, 27.00000000000000000 ) ) ;
#253 = CARTESIAN_POINT ( 'NONE',  ( -2.999999999999997335, -22.99999999999999645, 15.00000000000000178 ) ) ;
#254 = VECTOR ( 'NONE', #31, 1000.000000000000114 ) ;
#255 = CALENDAR_DATE ( 2024, 25, 9 ) ;
#256 = DIRECTION ( 'NONE',  ( -1.000000000000000000, -1.176279342079496339E-16, 0.000000000000000000 ) ) ;
#257 = CARTESIAN_POINT ( 'NONE',  ( 0.000000000000000000, 0.000000000000000000, 0.000000000000000000 ) ) ;
#258 = EDGE_LOOP ( 'NONE', ( #543, #646, #20, #209 ) ) ;
#259 = SHAPE_DEFINITION_REPRESENTATION ( #615, #132 ) ;
#260 = DIRECTION ( 'NONE',  ( -1.445602896647337931E-16, 1.000000000000000000, 0.000000000000000000 ) ) ;
#261 = DIRECTION ( 'NONE',  ( -1.224646799147353207E-16, 1.000000000000000000, -0.000000000000000000 ) ) ;
#262 = LOCAL_TIME ( 20, 42, 8.000000000000000000, #315 ) ;
#263 = EDGE_CURVE ( 'NONE', #471, #231, #230, .T. ) ;
#264 = LINE ( 'NONE', #67, #418 ) ;
#265 = DIRECTION ( 'NONE',  ( -1.000000000000000000, -1.176279342079496339E-16, 0.000000000000000000 ) ) ;
#266 = ORIENTED_EDGE ( 'NONE', *, *, #27, .F. ) ;
#267 = CC_DESIGN_DATE_AND_TIME_ASSIGNMENT ( #500, #611, ( #547 ) ) ;
#268 = AXIS2_PLACEMENT_3D ( 'NONE', #56, #256, #260 ) ;
#269 = DIRECTION ( 'NONE',  ( 1.000000000000000000, 0.000000000000000000, 0.000000000000000000 ) ) ;
#270 = VERTEX_POINT ( 'NONE', #434 ) ;
#271 = CC_DESIGN_APPROVAL ( #128, ( #64 ) ) ;
#272 = DIRECTION ( 'NONE',  ( -0.000000000000000000, -0.000000000000000000, -1.000000000000000000 ) ) ;
#273 = PLANE ( 'NONE',  #628 ) ;
#274 = ORIENTED_EDGE ( 'NONE', *, *, #338, .F. ) ;
#275 = CYLINDRICAL_SURFACE ( 'NONE', #573, 3.000000000000001776 ) ;
#276 = ORIENTED_EDGE ( 'NONE', *, *, #37, .T. ) ;
#277 = EDGE_CURVE ( 'NONE', #624, #34, #25, .T. ) ;
#278 = AXIS2_PLACEMENT_3D ( 'NONE', #283, #538, #182 ) ;
#279 = CARTESIAN_POINT ( 'NONE',  ( 8.838834764831853263, -19.87499999999999289, 15.00000000000000178 ) ) ;
#280 = ORIENTED_EDGE ( 'NONE', *, *, #292, .T. ) ;
#281 = VERTEX_POINT ( 'NONE', #413 ) ;
#282 = VECTOR ( 'NONE', #626, 1000.000000000000000 ) ;
#283 = CARTESIAN_POINT ( 'NONE',  ( 30.40559159102136633, 30.40559159102171094, 30.00000000000000000 ) ) ;
#284 = ORIENTED_EDGE ( 'NONE', *, *, #652, .F. ) ;
#285 = LINE ( 'NONE', #237, #565 ) ;
#286 = AXIS2_PLACEMENT_3D ( 'NONE', #186, #441, #392 ) ;
#287 = DIRECTION ( 'NONE',  ( 0.000000000000000000, 0.000000000000000000, -1.000000000000000000 ) ) ;
#288 = ORIENTED_EDGE ( 'NONE', *, *, #72, .T. ) ;
#289 = CARTESIAN_POINT ( 'NONE',  ( 0.000000000000000000, -39.99999999999999289, 0.000000000000000000 ) ) ;
#290 = DIRECTION ( 'NONE',  ( -0.000000000000000000, 0.000000000000000000, -1.000000000000000000 ) ) ;
#291 = VERTEX_POINT ( 'NONE', #612 ) ;
#292 = EDGE_CURVE ( 'NONE', #549, #397, #380, .T. ) ;
#293 = DATE_AND_TIME ( #146, #585 ) ;
#294 = ORIENTED_EDGE ( 'NONE', *, *, #93, .F. ) ;
#295 = VECTOR ( 'NONE', #196, 1000.000000000000000 ) ;
#296 = CALENDAR_DATE ( 2024, 25, 9 ) ;
#297 = ORIENTED_EDGE ( 'NONE', *, *, #593, .F. ) ;
#298 = AXIS2_PLACEMENT_3D ( 'NONE', #160, #324, #15 ) ;
#299 = APPROVAL_DATE_TIME ( #293, #516 ) ;
#300 = DIRECTION ( 'NONE',  ( -0.7071067811865515695, 0.7071067811865435759, 0.000000000000000000 ) ) ;
#301 = DIRECTION ( 'NONE',  ( 1.176279342079496339E-16, -1.000000000000000000, 0.000000000000000000 ) ) ;
#302 = CARTESIAN_POINT ( 'NONE',  ( 0.8786796564403455134, 0.8786796564403555054, 30.00000000000000000 ) ) ;
#303 = EDGE_CURVE ( 'NONE', #522, #58, #556, .T. ) ;
#304 = FACE_BOUND ( 'NONE', #74, .T. ) ;
#305 = APPROVAL_DATE_TIME ( #99, #21 ) ;
#306 = CIRCLE ( 'NONE', #81, 3.000000000000002665 ) ;
#307 = DIRECTION ( 'NONE',  ( -0.000000000000000000, -0.000000000000000000, 1.000000000000000000 ) ) ;
#308 = CC_DESIGN_PERSON_AND_ORGANIZATION_ASSIGNMENT ( #602, #249, ( #411 ) ) ;
#309 = FACE_OUTER_BOUND ( 'NONE', #614, .T. ) ;
#310 = AXIS2_PLACEMENT_3D ( 'NONE', #133, #83, #190 ) ;
#311 = COORDINATED_UNIVERSAL_TIME_OFFSET ( 8, 0, .AHEAD. ) ;
#312 = DIRECTION ( 'NONE',  ( -0.000000000000000000, -0.000000000000000000, -1.000000000000000000 ) ) ;
#313 = DIRECTION ( 'NONE',  ( -0.000000000000000000, -0.000000000000000000, -1.000000000000000000 ) ) ;
#314 = EDGE_CURVE ( 'NONE', #94, #397, #264, .T. ) ;
#315 = COORDINATED_UNIVERSAL_TIME_OFFSET ( 8, 0, .AHEAD. ) ;
#316 = CARTESIAN_POINT ( 'NONE',  ( 0.000000000000000000, 0.000000000000000000, 30.00000000000000000 ) ) ;
#317 = LINE ( 'NONE', #521, #250 ) ;
#318 = ORIENTED_EDGE ( 'NONE', *, *, #406, .T. ) ;
#319 = SECURITY_CLASSIFICATION_LEVEL ( 'unclassified' ) ;
#320 = CIRCLE ( 'NONE', #656, 3.125000000000002665 ) ;
#321 = DIRECTION ( 'NONE',  ( -0.7071067811865435759, -0.7071067811865513475, 0.000000000000000000 ) ) ;
#322 = FACE_OUTER_BOUND ( 'NONE', #601, .T. ) ;
#323 = ORIENTED_EDGE ( 'NONE', *, *, #648, .T. ) ;
#324 = DIRECTION ( 'NONE',  ( 0.7071067811865515695, -0.7071067811865435759, -0.000000000000000000 ) ) ;
#325 = ADVANCED_FACE ( 'NONE', ( #567 ), #579, .F. ) ;
#326 = DIRECTION ( 'NONE',  ( -1.000000000000000000, 0.000000000000000000, 0.000000000000000000 ) ) ;
#327 = EDGE_LOOP ( 'NONE', ( #199, #240, #323, #195 ) ) ;
#328 = DIRECTION ( 'NONE',  ( 0.7071067811865515695, -0.7071067811865435759, -0.000000000000000000 ) ) ;
#329 = CARTESIAN_POINT ( 'NONE',  ( 28.28427124746173504, 28.28427124746205479, 2.999999999999999112 ) ) ;
#330 = ORIENTED_EDGE ( 'NONE', *, *, #336, .T. ) ;
#331 = APPROVAL_PERSON_ORGANIZATION ( #616, #128, #415 ) ;
#332 = DIRECTION ( 'NONE',  ( 1.176279342079496339E-16, -1.000000000000000000, 0.000000000000000000 ) ) ;
#333 = ORIENTED_EDGE ( 'NONE', *, *, #437, .F. ) ;
#334 = AXIS2_PLACEMENT_3D ( 'NONE', #617, #163, #422 ) ;
#335 = ORIENTED_EDGE ( 'NONE', *, *, #101, .T. ) ;
#336 = EDGE_CURVE ( 'NONE', #444, #446, #129, .T. ) ;
#337 = ORIENTED_EDGE ( 'NONE', *, *, #623, .F. ) ;
#338 = EDGE_CURVE ( 'NONE', #291, #94, #184, .T. ) ;
#339 = CARTESIAN_POINT ( 'NONE',  ( 5.265981236333618470E-15, -43.00000000000000000, 2.999999999999999112 ) ) ;
#340 = VECTOR ( 'NONE', #485, 1000.000000000000000 ) ;
#341 = VECTOR ( 'NONE', #10, 1000.000000000000000 ) ;
#342 = ORIENTED_EDGE ( 'NONE', *, *, #356, .T. ) ;
#343 = DIRECTION ( 'NONE',  ( -1.000000000000000000, -1.176279342079496339E-16, -0.000000000000000000 ) ) ;
#344 = CARTESIAN_POINT ( 'NONE',  ( 20.30374727608258567, 7.803747276082740214, 15.00000000000001421 ) ) ;
#345 = AXIS2_PLACEMENT_3D ( 'NONE', #29, #43, #455 ) ;
#346 = EDGE_CURVE ( 'NONE', #372, #439, #13, .T. ) ;
#347 = EDGE_LOOP ( 'NONE', ( #131, #578, #589, #539, #435, #187 ) ) ;
#348 = ADVANCED_FACE ( 'NONE', ( #575, #166 ), #219, .F. ) ;
#349 = ORIENTED_EDGE ( 'NONE', *, *, #72, .F. ) ;
#350 = APPROVAL_STATUS ( 'not_yet_approved' ) ;
#351 = DIRECTION ( 'NONE',  ( 1.000000000000000000, 1.176279342079496339E-16, -0.000000000000000000 ) ) ;
#352 = CC_DESIGN_APPROVAL ( #21, ( #241 ) ) ;
#353 = CARTESIAN_POINT ( 'NONE',  ( 26.16295090390207889, 30.40559159102168607, 0.000000000000000000 ) ) ;
#354 = CARTESIAN_POINT ( 'NONE',  ( 26.16295090390207889, 30.40559159102168607, 30.00000000000000000 ) ) ;
#355 = CARTESIAN_POINT ( 'NONE',  ( 28.28427124746173504, 28.28427124746205479, 27.00000000000000000 ) ) ;
#356 = EDGE_CURVE ( 'NONE', #84, #409, #619, .T. ) ;
#357 = PLANE ( 'NONE',  #173 ) ;
#358 = EDGE_LOOP ( 'NONE', ( #144, #412, #636, #24, #421, #288, #280, #389 ) ) ;
#359 = PERSON_AND_ORGANIZATION ( #96, #498 ) ;
#360 = VERTEX_POINT ( 'NONE', #208 ) ;
#361 = EDGE_CURVE ( 'NONE', #14, #439, #8, .T. ) ;
#362 = LINE ( 'NONE', #252, #194 ) ;
#363 = DIRECTION ( 'NONE',  ( 0.000000000000000000, 0.000000000000000000, 1.000000000000000000 ) ) ;
#364 = CALENDAR_DATE ( 2024, 25, 9 ) ;
#365 = CARTESIAN_POINT ( 'NONE',  ( 14.14213562373084265, 18.38477631085031305, 15.00000000000001421 ) ) ;
#366 = ADVANCED_FACE ( 'NONE', ( #212 ), #477, .F. ) ;
#367 = ORIENTED_EDGE ( 'NONE', *, *, #484, .F. ) ;
#368 = CARTESIAN_POINT ( 'NONE',  ( 0.000000000000000000, 0.000000000000000000, 0.000000000000000000 ) ) ;
#369 = DIRECTION ( 'NONE',  ( 0.000000000000000000, -0.000000000000000000, 1.000000000000000000 ) ) ;
#370 = CARTESIAN_POINT ( 'NONE',  ( 28.28427124746171017, 32.52691193458134222, 30.00000000000000000 ) ) ;
#371 = CARTESIAN_POINT ( 'NONE',  ( 28.28427124746171017, 32.52691193458134222, 2.999999999999999112 ) ) ;
#372 = VERTEX_POINT ( 'NONE', #416 ) ;
#373 = AXIS2_PLACEMENT_3D ( 'NONE', #571, #23, #467 ) ;
#374 = CIRCLE ( 'NONE', #373, 3.125000000000002665 ) ;
#375 = CARTESIAN_POINT ( 'NONE',  ( 5.265981236333618470E-15, -43.00000000000000000, 30.00000000000000000 ) ) ;
#376 = DIRECTION ( 'NONE',  ( -0.7071067811865434649, -0.7071067811865514585, -8.673617379884030542E-16 ) ) ;
#377 = ORIENTED_EDGE ( 'NONE', *, *, #37, .F. ) ;
#378 = AXIS2_PLACEMENT_3D ( 'NONE', #466, #460, #2 ) ;
#379 = ADVANCED_FACE ( 'NONE', ( #625, #570 ), #630, .F. ) ;
#380 = LINE ( 'NONE', #370, #236 ) ;
#381 = CARTESIAN_POINT ( 'NONE',  ( -2.999999999999997335, -22.99999999999999645, 15.00000000000000178 ) ) ;
#382 = ORIENTED_EDGE ( 'NONE', *, *, #216, .F. ) ;
#383 = DIRECTION ( 'NONE',  ( 0.7071067811865515695, -0.7071067811865435759, -0.000000000000000000 ) ) ;
#384 = ORIENTED_EDGE ( 'NONE', *, *, #204, .F. ) ;
#385 = CIRCLE ( 'NONE', #211, 3.125000000000002665 ) ;
#386 = ORIENTED_EDGE ( 'NONE', *, *, #639, .F. ) ;
#387 = VECTOR ( 'NONE', #57, 1000.000000000000000 ) ;
#388 = CARTESIAN_POINT ( 'NONE',  ( 26.16295090390207889, 30.40559159102168607, 30.00000000000000000 ) ) ;
#389 = ORIENTED_EDGE ( 'NONE', *, *, #658, .T. ) ;
#390 = EDGE_CURVE ( 'NONE', #79, #34, #117, .T. ) ;
#391 = CARTESIAN_POINT ( 'NONE',  ( 30.40559159102136633, 30.40559159102171094, 2.999999999999999112 ) ) ;
#392 = DIRECTION ( 'NONE',  ( 1.000000000000000000, 0.000000000000000000, 0.000000000000000000 ) ) ;
#393 = ORIENTED_EDGE ( 'NONE', *, *, #356, .F. ) ;
#394 = EDGE_CURVE ( 'NONE', #640, #36, #520, .T. ) ;
#395 = CARTESIAN_POINT ( 'NONE',  ( 5.265981236333618470E-15, -43.00000000000000000, 27.00000000000000000 ) ) ;
#396 = AXIS2_PLACEMENT_3D ( 'NONE', #329, #622, #417 ) ;
#397 = VERTEX_POINT ( 'NONE', #469 ) ;
#398 = DIRECTION ( 'NONE',  ( 1.000000000000000000, 0.000000000000000000, 0.000000000000000000 ) ) ;
#399 = CIRCLE ( 'NONE', #310, 3.125000000000001332 ) ;
#400 = CC_DESIGN_PERSON_AND_ORGANIZATION_ASSIGNMENT ( #607, #107, ( #241 ) ) ;
#401 = ORIENTED_EDGE ( 'NONE', *, *, #101, .F. ) ;
#402 =( NAMED_UNIT ( * ) PLANE_ANGLE_UNIT ( ) SI_UNIT ( $, .RADIAN. ) );
#403 = ORIENTED_EDGE ( 'NONE', *, *, #608, .T. ) ;
#404 = APPLICATION_PROTOCOL_DEFINITION ( 'international standard', 'config_control_design', 1994, #459 ) ;
#405 = FACE_OUTER_BOUND ( 'NONE', #429, .T. ) ;
#406 = EDGE_CURVE ( 'NONE', #78, #221, #214, .T. ) ;
#407 = DIRECTION ( 'NONE',  ( -0.7071067811865434649, -0.7071067811865514585, -2.312964634635741478E-15 ) ) ;
#408 = DIRECTION ( 'NONE',  ( -1.224646799147353207E-16, 1.000000000000000000, -0.000000000000000000 ) ) ;
#409 = VERTEX_POINT ( 'NONE', #514 ) ;
#410 = DIRECTION ( 'NONE',  ( -0.7071067811865435759, -0.7071067811865513475, 0.000000000000000000 ) ) ;
#411 = PRODUCT ( 'Angled Bracket', 'Angled Bracket', '', ( #143 ) ) ;
#412 = ORIENTED_EDGE ( 'NONE', *, *, #394, .T. ) ;
#413 = CARTESIAN_POINT ( 'NONE',  ( -2.999999999999996891, -26.12500000000000000, 15.00000000000000178 ) ) ;
#414 = LINE ( 'NONE', #106, #523 ) ;
#415 = APPROVAL_ROLE ( '' ) ;
#416 = CARTESIAN_POINT ( 'NONE',  ( -2.999999999999995115, -39.99999999999999289, 0.000000000000000000 ) ) ;
#417 = DIRECTION ( 'NONE',  ( -0.7071067811865434649, -0.7071067811865514585, 0.000000000000000000 ) ) ;
#418 = VECTOR ( 'NONE', #463, 1000.000000000000000 ) ;
#419 = DIRECTION ( 'NONE',  ( -0.7071067811865435759, -0.7071067811865515695, 0.000000000000000000 ) ) ;
#420 = CYLINDRICAL_SURFACE ( 'NONE', #82, 3.000000000000000000 ) ;
#421 = ORIENTED_EDGE ( 'NONE', *, *, #652, .T. ) ;
#422 = DIRECTION ( 'NONE',  ( -0.7071067811865435759, -0.7071067811865515695, 0.000000000000000000 ) ) ;
#423 = LINE ( 'NONE', #220, #282 ) ;
#424 = ORIENTED_EDGE ( 'NONE', *, *, #346, .T. ) ;
#425 = ADVANCED_FACE ( 'NONE', ( #97 ), #151, .F. ) ;
#426 = AXIS2_PLACEMENT_3D ( 'NONE', #164, #68, #376 ) ;
#427 = DIRECTION ( 'NONE',  ( -1.000000000000000000, -1.176279342079496339E-16, -0.000000000000000000 ) ) ;
#428 = FACE_OUTER_BOUND ( 'NONE', #327, .T. ) ;
#429 = EDGE_LOOP ( 'NONE', ( #377, #330, #218, #584 ) ) ;
#430 = CIRCLE ( 'NONE', #139, 3.000000000000001776 ) ;
#431 = CC_DESIGN_PERSON_AND_ORGANIZATION_ASSIGNMENT ( #41, #242, ( #547 ) ) ;
#432 = DIRECTION ( 'NONE',  ( 0.000000000000000000, -1.000000000000000000, 0.000000000000000000 ) ) ;
#433 = ORIENTED_EDGE ( 'NONE', *, *, #172, .T. ) ;
#434 = CARTESIAN_POINT ( 'NONE',  ( 1.521795939970888014E-16, -1.242640687119275222, 30.00000000000000000 ) ) ;
#435 = ORIENTED_EDGE ( 'NONE', *, *, #437, .T. ) ;
#436 = LOCAL_TIME ( 20, 42, 8.000000000000000000, #551 ) ;
#437 = EDGE_CURVE ( 'NONE', #126, #596, #457, .T. ) ;
#438 = PLANE ( 'NONE',  #278 ) ;
#439 = VERTEX_POINT ( 'NONE', #464 ) ;
#440 = AXIS2_PLACEMENT_3D ( 'NONE', #518, #427, #169 ) ;
#441 = DIRECTION ( 'NONE',  ( 0.000000000000000000, -0.000000000000000000, 1.000000000000000000 ) ) ;
#442 = VERTEX_POINT ( 'NONE', #302 ) ;
#443 = LINE ( 'NONE', #391, #227 ) ;
#444 = VERTEX_POINT ( 'NONE', #609 ) ;
#445 = EDGE_CURVE ( 'NONE', #596, #270, #155, .T. ) ;
#446 = VERTEX_POINT ( 'NONE', #562 ) ;
#447 = APPROVAL_PERSON_ORGANIZATION ( #647, #516, #598 ) ;
#448 = ORIENTED_EDGE ( 'NONE', *, *, #277, .T. ) ;
#449 = DIRECTION ( 'NONE',  ( 1.224646799147351975E-16, -1.000000000000000000, 0.000000000000000000 ) ) ;
#450 = CARTESIAN_POINT ( 'NONE',  ( 30.40559159102136633, 30.40559159102171094, 27.00000000000000000 ) ) ;
#451 = ADVANCED_FACE ( 'NONE', ( #4 ), #357, .T. ) ;
#452 = DIRECTION ( 'NONE',  ( -1.000000000000000000, -1.176279342079496339E-16, 0.000000000000000000 ) ) ;
#453 = DIRECTION ( 'NONE',  ( -1.176279342079496339E-16, 1.000000000000000000, 0.000000000000000000 ) ) ;
#454 = CIRCLE ( 'NONE', #113, 3.125000000000002665 ) ;
#455 = DIRECTION ( 'NONE',  ( 1.000000000000000000, 0.000000000000000000, 0.000000000000000000 ) ) ;
#456 = AXIS2_PLACEMENT_3D ( 'NONE', #490, #290, #594 ) ;
#457 = LINE ( 'NONE', #257, #69 ) ;
#458 = FACE_OUTER_BOUND ( 'NONE', #561, .T. ) ;
#459 = APPLICATION_CONTEXT ( 'configuration controlled 3d designs of mechanical parts and assemblies' ) ;
#460 = DIRECTION ( 'NONE',  ( 1.000000000000000000, 1.224646799147353207E-16, -0.000000000000000000 ) ) ;
#461 = EDGE_CURVE ( 'NONE', #78, #53, #362, .T. ) ;
#462 = DATE_AND_TIME ( #364, #130 ) ;
#463 = DIRECTION ( 'NONE',  ( -0.000000000000000000, -0.000000000000000000, 1.000000000000000000 ) ) ;
#464 = CARTESIAN_POINT ( 'NONE',  ( -2.999999999999994671, -43.00000000000000000, 2.999999999999999112 ) ) ;
#465 = LINE ( 'NONE', #354, #629 ) ;
#466 = CARTESIAN_POINT ( 'NONE',  ( 4.898587196589412237E-15, -39.99999999999999289, 2.999999999999999112 ) ) ;
#467 = DIRECTION ( 'NONE',  ( 1.224646799147351975E-16, -1.000000000000000000, 0.000000000000000000 ) ) ;
#468 = CIRCLE ( 'NONE', #159, 3.000000000000000000 ) ;
#469 = CARTESIAN_POINT ( 'NONE',  ( -2.121320343559659261, 2.121320343559628174, 30.00000000000000000 ) ) ;
#470 = FACE_OUTER_BOUND ( 'NONE', #179, .T. ) ;
#471 = VERTEX_POINT ( 'NONE', #546 ) ;
#472 = VECTOR ( 'NONE', #312, 1000.000000000000000 ) ;
#473 = CARTESIAN_POINT ( 'NONE',  ( 5.265981236333618470E-15, -43.00000000000000000, 30.00000000000000000 ) ) ;
#474 = EDGE_CURVE ( 'NONE', #270, #442, #104, .T. ) ;
#475 = LINE ( 'NONE', #73, #341 ) ;
#476 = ORIENTED_EDGE ( 'NONE', *, *, #338, .T. ) ;
#477 = CYLINDRICAL_SURFACE ( 'NONE', #440, 3.125000000000002665 ) ;
#478 = CARTESIAN_POINT ( 'NONE',  ( 0.000000000000000000, 0.000000000000000000, 0.000000000000000000 ) ) ;
#479 = ORIENTED_EDGE ( 'NONE', *, *, #505, .F. ) ;
#480 = AXIS2_PLACEMENT_3D ( 'NONE', #12, #217, #326 ) ;
#481 = CARTESIAN_POINT ( 'NONE',  ( 28.28427124746173504, 28.28427124746205479, 27.00000000000000000 ) ) ;
#482 = ORIENTED_EDGE ( 'NONE', *, *, #277, .F. ) ;
#483 = VECTOR ( 'NONE', #287, 1000.000000000000000 ) ;
#484 = EDGE_CURVE ( 'NONE', #360, #221, #443, .T. ) ;
#485 = DIRECTION ( 'NONE',  ( -1.000000000000000000, -1.176279342079496339E-16, -0.000000000000000000 ) ) ;
#486 = EDGE_LOOP ( 'NONE', ( #525, #276, #342, #119 ) ) ;
#487 = LINE ( 'NONE', #643, #483 ) ;
#488 = VERTEX_POINT ( 'NONE', #185 ) ;
#489 = CYLINDRICAL_SURFACE ( 'NONE', #345, 3.000000000000000000 ) ;
#490 = CARTESIAN_POINT ( 'NONE',  ( 3.000000000000000000, -1.242640687119274778, 30.00000000000000000 ) ) ;
#491 = CARTESIAN_POINT ( 'NONE',  ( 4.898587196589412237E-15, -39.99999999999999289, 27.00000000000000000 ) ) ;
#492 = EDGE_LOOP ( 'NONE', ( #335, #528, #183, #499 ) ) ;
#493 = EDGE_CURVE ( 'NONE', #409, #84, #544, .T. ) ;
#494 = ORIENTED_EDGE ( 'NONE', *, *, #557, .F. ) ;
#495 = DIRECTION ( 'NONE',  ( 0.000000000000000000, 0.000000000000000000, -1.000000000000000000 ) ) ;
#496 = EDGE_LOOP ( 'NONE', ( #337, #627, #384, #349 ) ) ;
#497 = APPLICATION_PROTOCOL_DEFINITION ( 'international standard', 'config_control_design', 1994, #529 ) ;
#498 = ORGANIZATION ( 'UNSPECIFIED', 'UNSPECIFIED', '' ) ;
#499 = ORIENTED_EDGE ( 'NONE', *, *, #648, .F. ) ;
#500 = DATE_AND_TIME ( #296, #436 ) ;
#501 = EDGE_CURVE ( 'NONE', #446, #444, #399, .T. ) ;
#502 = AXIS2_PLACEMENT_3D ( 'NONE', #365, #105, #321 ) ;
#503 = CARTESIAN_POINT ( 'NONE',  ( 24.72316465849848299, 12.22316465849868727, 15.00000000000001421 ) ) ;
#504 =( LENGTH_UNIT ( ) NAMED_UNIT ( * ) SI_UNIT ( .MILLI., .METRE. ) );
#505 = EDGE_CURVE ( 'NONE', #439, #58, #87, .T. ) ;
#506 = CARTESIAN_POINT ( 'NONE',  ( 22.51345596729053256, 10.01345596729071374, 15.00000000000001421 ) ) ;
#507 = DIRECTION ( 'NONE',  ( 0.000000000000000000, 0.000000000000000000, 1.000000000000000000 ) ) ;
#508 = DIRECTION ( 'NONE',  ( -0.7071067811865514585, 0.7071067811865436870, -0.000000000000000000 ) ) ;
#509 = EDGE_CURVE ( 'NONE', #442, #79, #285, .T. ) ;
#510 = FACE_OUTER_BOUND ( 'NONE', #127, .T. ) ;
#511 = AXIS2_PLACEMENT_3D ( 'NONE', #109, #577, #19 ) ;
#512 = PERSON_AND_ORGANIZATION_ROLE ( 'creator' ) ;
#513 = AXIS2_PLACEMENT_3D ( 'NONE', #645, #590, #35 ) ;
#514 = CARTESIAN_POINT ( 'NONE',  ( 11.93242693252289399, 16.17506761964233775, 15.00000000000001421 ) ) ;
#515 = DIRECTION ( 'NONE',  ( 0.7071067811865435759, 0.7071067811865515695, 0.000000000000000000 ) ) ;
#516 = APPROVAL ( #350, 'UNSPECIFIED' ) ;
#517 = APPROVAL_ROLE ( '' ) ;
#518 = CARTESIAN_POINT ( 'NONE',  ( 8.838834764831853263, -22.99999999999999645, 15.00000000000000178 ) ) ;
#519 = LINE ( 'NONE', #503, #251 ) ;
#520 = LINE ( 'NONE', #63, #536 ) ;
#521 = CARTESIAN_POINT ( 'NONE',  ( -3.000000000000000000, 1.242640687119274112, 30.00000000000000000 ) ) ;
#522 = VERTEX_POINT ( 'NONE', #395 ) ;
#523 = VECTOR ( 'NONE', #313, 1000.000000000000000 ) ;
#524 = CARTESIAN_POINT ( 'NONE',  ( -2.999999999999995115, -39.99999999999999289, 27.00000000000000000 ) ) ;
#525 = ORIENTED_EDGE ( 'NONE', *, *, #501, .T. ) ;
#526 = VECTOR ( 'NONE', #272, 1000.000000000000000 ) ;
#527 = CARTESIAN_POINT ( 'NONE',  ( 28.28427124746172794, 28.28427124746205124, 30.00000000000000000 ) ) ;
#528 = ORIENTED_EDGE ( 'NONE', *, *, #263, .T. ) ;
#529 = APPLICATION_CONTEXT ( 'configuration controlled 3d designs of mechanical parts and assemblies' ) ;
#530 = CARTESIAN_POINT ( 'NONE',  ( 8.838834764831853263, -22.99999999999999645, 15.00000000000000178 ) ) ;
#531 = EDGE_CURVE ( 'NONE', #446, #409, #138, .T. ) ;
#532 = ORIENTED_EDGE ( 'NONE', *, *, #120, .T. ) ;
#533 = AXIS2_PLACEMENT_3D ( 'NONE', #198, #507, #38 ) ;
#534 = CARTESIAN_POINT ( 'NONE',  ( 0.000000000000000000, 0.000000000000000000, 30.00000000000000000 ) ) ;
#535 = EDGE_LOOP ( 'NONE', ( #401, #386 ) ) ;
#536 = VECTOR ( 'NONE', #11, 1000.000000000000000 ) ;
#537 = ORIENTED_EDGE ( 'NONE', *, *, #180, .F. ) ;
#538 = DIRECTION ( 'NONE',  ( -0.7071067811865435759, -0.7071067811865515695, 0.000000000000000000 ) ) ;
#539 = ORIENTED_EDGE ( 'NONE', *, *, #593, .T. ) ;
#540 = DIRECTION ( 'NONE',  ( 1.000000000000000000, 0.000000000000000000, 0.000000000000000000 ) ) ;
#541 = EDGE_CURVE ( 'NONE', #488, #291, #487, .T. ) ;
#542 = VECTOR ( 'NONE', #261, 1000.000000000000000 ) ;
#543 = ORIENTED_EDGE ( 'NONE', *, *, #474, .F. ) ;
#544 = CIRCLE ( 'NONE', #513, 3.125000000000001332 ) ;
#545 = CARTESIAN_POINT ( 'NONE',  ( 8.838834764831853263, -26.12500000000000000, 15.00000000000000178 ) ) ;
#546 = CARTESIAN_POINT ( 'NONE',  ( 3.086744827220066062E-15, -19.87499999999999289, 15.00000000000000178 ) ) ;
#547 = PRODUCT_DEFINITION ( 'UNKNOWN', '', #241, #85 ) ;
#548 = ORIENTED_EDGE ( 'NONE', *, *, #505, .T. ) ;
#549 = VERTEX_POINT ( 'NONE', #388 ) ;
#550 = ADVANCED_FACE ( 'NONE', ( #588 ), #438, .F. ) ;
#551 = COORDINATED_UNIVERSAL_TIME_OFFSET ( 8, 0, .AHEAD. ) ;
#552 = VECTOR ( 'NONE', #592, 1000.000000000000000 ) ;
#553 = CARTESIAN_POINT ( 'NONE',  ( -3.000000000000000000, 1.242640687119274112, 30.00000000000000000 ) ) ;
#554 = CARTESIAN_POINT ( 'NONE',  ( 0.000000000000000000, 0.000000000000000000, 30.00000000000000000 ) ) ;
#555 = AXIS2_PLACEMENT_3D ( 'NONE', #621, #222, #112 ) ;
#556 = LINE ( 'NONE', #375, #472 ) ;
#557 = EDGE_CURVE ( 'NONE', #36, #522, #576, .T. ) ;
#558 = DIRECTION ( 'NONE',  ( 0.000000000000000000, -0.000000000000000000, 1.000000000000000000 ) ) ;
#559 = DIRECTION ( 'NONE',  ( 1.387778780781444443E-16, -1.000000000000000000, 0.000000000000000000 ) ) ;
#560 = APPROVAL_STATUS ( 'not_yet_approved' ) ;
#561 = EDGE_LOOP ( 'NONE', ( #235, #657, #18, #238, #403, #424 ) ) ;
#562 = CARTESIAN_POINT ( 'NONE',  ( 14.05374727608254837, 14.05374727608270646, 15.00000000000001421 ) ) ;
#563 = CARTESIAN_POINT ( 'NONE',  ( 16.35184431493879487, 20.59448500205828836, 15.00000000000001421 ) ) ;
#564 = CARTESIAN_POINT ( 'NONE',  ( -2.999999999999994671, -43.00000000000000000, 30.00000000000000000 ) ) ;
#565 = VECTOR ( 'NONE', #495, 1000.000000000000000 ) ;
#566 = CARTESIAN_POINT ( 'NONE',  ( 0.000000000000000000, -39.99999999999999289, 27.00000000000000000 ) ) ;
#567 = FACE_OUTER_BOUND ( 'NONE', #66, .T. ) ;
#568 = CARTESIAN_POINT ( 'NONE',  ( 4.898587196589412237E-15, -39.99999999999999289, 0.000000000000000000 ) ) ;
#569 = APPROVAL_DATE_TIME ( #462, #128 ) ;
#570 = FACE_OUTER_BOUND ( 'NONE', #42, .T. ) ;
#571 = CARTESIAN_POINT ( 'NONE',  ( 3.469446951953614189E-15, -22.99999999999999645, 15.00000000000000178 ) ) ;
#572 = ORIENTED_EDGE ( 'NONE', *, *, #634, .T. ) ;
#573 = AXIS2_PLACEMENT_3D ( 'NONE', #481, #383, #583 ) ;
#574 = PRODUCT_RELATED_PRODUCT_CATEGORY ( 'detail', '', ( #411 ) ) ;
#575 = FACE_BOUND ( 'NONE', #535, .T. ) ;
#576 = CIRCLE ( 'NONE', #631, 3.000000000000002665 ) ;
#577 = DIRECTION ( 'NONE',  ( -0.7071067811865515695, 0.7071067811865435759, -0.000000000000000000 ) ) ;
#578 = ORIENTED_EDGE ( 'NONE', *, *, #557, .T. ) ;
#579 = PLANE ( 'NONE',  #641 ) ;
#580 = EDGE_CURVE ( 'NONE', #79, #596, #597, .T. ) ;
#581 = CYLINDRICAL_SURFACE ( 'NONE', #396, 3.000000000000001776 ) ;
#582 = ORIENTED_EDGE ( 'NONE', *, *, #172, .F. ) ;
#583 = DIRECTION ( 'NONE',  ( 0.7071067811865434649, 0.7071067811865514585, 0.000000000000000000 ) ) ;
#584 = ORIENTED_EDGE ( 'NONE', *, *, #493, .T. ) ;
#585 = LOCAL_TIME ( 20, 42, 8.000000000000000000, #141 ) ;
#586 = ORIENTED_EDGE ( 'NONE', *, *, #292, .F. ) ;
#587 = VECTOR ( 'NONE', #174, 1000.000000000000000 ) ;
#588 = FACE_OUTER_BOUND ( 'NONE', #134, .T. ) ;
#589 = ORIENTED_EDGE ( 'NONE', *, *, #303, .T. ) ;
#590 = DIRECTION ( 'NONE',  ( -0.7071067811865514585, 0.7071067811865436870, 0.000000000000000000 ) ) ;
#591 = ORIENTED_EDGE ( 'NONE', *, *, #148, .T. ) ;
#592 = DIRECTION ( 'NONE',  ( -1.000000000000000000, -0.000000000000000000, -0.000000000000000000 ) ) ;
#593 = EDGE_CURVE ( 'NONE', #58, #126, #22, .T. ) ;
#594 = DIRECTION ( 'NONE',  ( 1.000000000000000000, 0.000000000000000000, 0.000000000000000000 ) ) ;
#595 = CIRCLE ( 'NONE', #511, 3.000000000000001776 ) ;
#596 = VERTEX_POINT ( 'NONE', #207 ) ;
#597 = CIRCLE ( 'NONE', #286, 3.000000000000000000 ) ;
#598 = APPROVAL_ROLE ( '' ) ;
#599 = ADVANCED_FACE ( 'NONE', ( #157 ), #489, .F. ) ;
#600 = ORIENTED_EDGE ( 'NONE', *, *, #27, .T. ) ;
#601 = EDGE_LOOP ( 'NONE', ( #333, #572, #90, #476, #294, #448, #80, #152 ) ) ;
#602 = PERSON_AND_ORGANIZATION ( #96, #498 ) ;
#603 = AXIS2_PLACEMENT_3D ( 'NONE', #506, #61, #49 ) ;
#604 = CARTESIAN_POINT ( 'NONE',  ( 28.28427124746172794, 28.28427124746205124, 0.000000000000000000 ) ) ;
#605 = CARTESIAN_POINT ( 'NONE',  ( 1.521795939970888014E-16, -1.242640687119275222, 30.00000000000000000 ) ) ;
#606 = ORIENTED_EDGE ( 'NONE', *, *, #623, .T. ) ;
#607 = PERSON_AND_ORGANIZATION ( #96, #498 ) ;
#608 = EDGE_CURVE ( 'NONE', #291, #372, #149, .T. ) ;
#609 = CARTESIAN_POINT ( 'NONE',  ( 18.47316465849844747, 18.47316465849865708, 15.00000000000001421 ) ) ;
#610 = DIRECTION ( 'NONE',  ( 0.7071067811865515695, -0.7071067811865435759, 0.000000000000000000 ) ) ;
#611 = DATE_TIME_ROLE ( 'creation_date' ) ;
#612 = CARTESIAN_POINT ( 'NONE',  ( -3.000000000000000000, -2.602085213965210642E-15, 0.000000000000000000 ) ) ;
#613 = LOCAL_TIME ( 20, 42, 8.000000000000000000, #210 ) ;
#614 = EDGE_LOOP ( 'NONE', ( #644, #633, #297, #479 ) ) ;
#615 = PRODUCT_DEFINITION_SHAPE ( 'NONE', 'NONE',  #547 ) ;
#616 = PERSON_AND_ORGANIZATION ( #96, #498 ) ;
#617 = CARTESIAN_POINT ( 'NONE',  ( 0.000000000000000000, 0.000000000000000000, 30.00000000000000000 ) ) ;
#618 = DIRECTION ( 'NONE',  ( 1.000000000000000000, 0.000000000000000000, -0.000000000000000000 ) ) ;
#619 = CIRCLE ( 'NONE', #502, 3.125000000000001332 ) ;
#620 = CC_DESIGN_SECURITY_CLASSIFICATION ( #64, ( #241 ) ) ;
#621 = CARTESIAN_POINT ( 'NONE',  ( 1.461692569885876157E-16, -2.168404344971008868E-15, 0.000000000000000000 ) ) ;
#622 = DIRECTION ( 'NONE',  ( -0.7071067811865515695, 0.7071067811865435759, 0.000000000000000000 ) ) ;
#623 = EDGE_CURVE ( 'NONE', #53, #142, #430, .T. ) ;
#624 = VERTEX_POINT ( 'NONE', #353 ) ;
#625 = FACE_BOUND ( 'NONE', #229, .T. ) ;
#626 = DIRECTION ( 'NONE',  ( -1.000000000000000000, 0.000000000000000000, -0.000000000000000000 ) ) ;
#627 = ORIENTED_EDGE ( 'NONE', *, *, #461, .F. ) ;
#628 = AXIS2_PLACEMENT_3D ( 'NONE', #478, #369, #618 ) ;
#629 = VECTOR ( 'NONE', #300, 1000.000000000000000 ) ;
#630 = PLANE ( 'NONE',  #334 ) ;
#631 = AXIS2_PLACEMENT_3D ( 'NONE', #491, #33, #234 ) ;
#632 = CYLINDRICAL_SURFACE ( 'NONE', #480, 3.000000000000000000 ) ;
#633 = ORIENTED_EDGE ( 'NONE', *, *, #634, .F. ) ;
#634 = EDGE_CURVE ( 'NONE', #126, #372, #92, .T. ) ;
#635 = CARTESIAN_POINT ( 'NONE',  ( 26.16295090390207889, 30.40559159102168607, 27.00000000000000000 ) ) ;
#636 = ORIENTED_EDGE ( 'NONE', *, *, #246, .T. ) ;
#637 = VERTEX_POINT ( 'NONE', #651 ) ;
#638 = APPROVAL_PERSON_ORGANIZATION ( #359, #21, #517 ) ;
#639 = EDGE_CURVE ( 'NONE', #471, #637, #385, .T. ) ;
#640 = VERTEX_POINT ( 'NONE', #137 ) ;
#641 = AXIS2_PLACEMENT_3D ( 'NONE', #473, #3, #108 ) ;
#642 = DIRECTION ( 'NONE',  ( -0.7071067811865515695, 0.7071067811865435759, 0.000000000000000000 ) ) ;
#643 = CARTESIAN_POINT ( 'NONE',  ( -3.000000000000000000, -2.602085213965210642E-15, 30.00000000000000000 ) ) ;
#644 = ORIENTED_EDGE ( 'NONE', *, *, #346, .F. ) ;
#645 = CARTESIAN_POINT ( 'NONE',  ( 14.14213562373084265, 18.38477631085031305, 15.00000000000001421 ) ) ;
#646 = ORIENTED_EDGE ( 'NONE', *, *, #445, .F. ) ;
#647 = PERSON_AND_ORGANIZATION ( #96, #498 ) ;
#648 = EDGE_CURVE ( 'NONE', #637, #281, #245, .T. ) ;
#649 = ORIENTED_EDGE ( 'NONE', *, *, #93, .T. ) ;
#650 = ORIENTED_EDGE ( 'NONE', *, *, #484, .T. ) ;
#651 = CARTESIAN_POINT ( 'NONE',  ( 3.852149076687162316E-15, -26.12500000000000000, 15.00000000000000178 ) ) ;
#652 = EDGE_CURVE ( 'NONE', #442, #142, #200, .T. ) ;
#653 = ORIENTED_EDGE ( 'NONE', *, *, #314, .F. ) ;
#654 = CARTESIAN_POINT ( 'NONE',  ( 4.898587196589412237E-15, -39.99999999999999289, 30.00000000000000000 ) ) ;
#655 = CARTESIAN_POINT ( 'NONE',  ( 3.469446951953614189E-15, -22.99999999999999645, 15.00000000000000178 ) ) ;
#656 = AXIS2_PLACEMENT_3D ( 'NONE', #253, #452, #559 ) ;
#657 = ORIENTED_EDGE ( 'NONE', *, *, #180, .T. ) ;
#658 = EDGE_CURVE ( 'NONE', #397, #488, #468, .T. ) ;
#659 = VECTOR ( 'NONE', #540, 1000.000000000000000 ) ;
#660 = CARTESIAN_POINT ( 'NONE',  ( 0.000000000000000000, 0.000000000000000000, 30.00000000000000000 ) ) ;
#661 = FACE_BOUND ( 'NONE', #191, .T. ) ;
ENDSEC;
END-ISO-10303-21;
