ISO-10303-21;
HEADER;
FILE_DESCRIPTION (( 'STEP AP203' ),
    '1' );
FILE_NAME ('weld_wheel bracket.STEP',
    '2026-03-23T09:24:14',
    ( '' ),
    ( '' ),
    'SwSTEP 2.0',
    'SolidWorks 2025',
    '' );
FILE_SCHEMA (( 'CONFIG_CONTROL_DESIGN' ));
ENDSEC;

DATA;
#1 = CARTESIAN_POINT ( 'NONE',  ( -2.718384415654095054, 18.08444007146926680, 5.000000000000000000 ) ) ;
#2 = SECURITY_CLASSIFICATION ( '', '', #400 ) ;
#3 = CARTESIAN_POINT ( 'NONE',  ( -2.718384415654095054, 18.08444007146926680, 5.000000000000000000 ) ) ;
#4 = VERTEX_POINT ( 'NONE', #43 ) ;
#5 = EDGE_CURVE ( 'NONE', #38, #46, #279, .T. ) ;
#6 = DIRECTION ( 'NONE',  ( 1.000000000000000000, 0.000000000000000000, 0.000000000000000000 ) ) ;
#7 = EDGE_LOOP ( 'NONE', ( #137, #49, #329, #295 ) ) ;
#8 = CARTESIAN_POINT ( 'NONE',  ( 10.00000000000000000, -17.32050807568877460, 5.000000000000000000 ) ) ;
#9 = EDGE_LOOP ( 'NONE', ( #200, #142, #166, #114 ) ) ;
#10 = VECTOR ( 'NONE', #163, 1000.000000000000000 ) ;
#11 = ORIENTED_EDGE ( 'NONE', *, *, #301, .F. ) ;
#12 = DATE_TIME_ROLE ( 'creation_date' ) ;
#13 = DIRECTION ( 'NONE',  ( -0.000000000000000000, -0.000000000000000000, -1.000000000000000000 ) ) ;
#14 = ORIENTED_EDGE ( 'NONE', *, *, #94, .F. ) ;
#15 = UNCERTAINTY_MEASURE_WITH_UNIT (LENGTH_MEASURE( 1.000000000000000082E-05 ), #62, 'distance_accuracy_value', 'NONE');
#16 = CIRCLE ( 'NONE', #326, 6.000000000000005329 ) ;
#17 = PERSON_AND_ORGANIZATION ( #269, #116 ) ;
#18 = DIRECTION ( 'NONE',  ( 0.000000000000000000, 0.000000000000000000, -1.000000000000000000 ) ) ;
#19 = EDGE_CURVE ( 'NONE', #292, #225, #21, .T. ) ;
#20 = DATE_AND_TIME ( #47, #75 ) ;
#21 = LINE ( 'NONE', #45, #158 ) ;
#22 = CARTESIAN_POINT ( 'NONE',  ( 51.96152422706627760, 30.00000000000007816, 5.000000000000000000 ) ) ;
#23 = AXIS2_PLACEMENT_3D ( 'NONE', #181, #341, #315 ) ;
#24 = EDGE_CURVE ( 'NONE', #332, #398, #126, .T. ) ;
#25 = DIRECTION ( 'NONE',  ( 0.8660254037844380415, 0.5000000000000011102, 0.000000000000000000 ) ) ;
#26 = CARTESIAN_POINT ( 'NONE',  ( -4.715161401998198443, -19.43623556538421937, 5.000000000000000000 ) ) ;
#27 = CARTESIAN_POINT ( 'NONE',  ( 41.96152422706625629, 47.32050807568884210, 5.000000000000000000 ) ) ;
#28 = AXIS2_PLACEMENT_3D ( 'NONE', #247, #379, #83 ) ;
#29 = DIRECTION ( 'NONE',  ( 0.000000000000000000, 0.000000000000000000, 1.000000000000000000 ) ) ;
#30 = AXIS2_PLACEMENT_3D ( 'NONE', #360, #328, #127 ) ;
#31 = ADVANCED_FACE ( 'NONE', ( #339 ), #145, .F. ) ;
#32 = DIRECTION ( 'NONE',  ( 0.000000000000000000, 0.000000000000000000, 1.000000000000000000 ) ) ;
#33 = ORIENTED_EDGE ( 'NONE', *, *, #195, .F. ) ;
#34 = CARTESIAN_POINT ( 'NONE',  ( -3.322675994799974664, 21.17566288755736892, 5.000000000000000000 ) ) ;
#35 = VERTEX_POINT ( 'NONE', #274 ) ;
#36 = EDGE_CURVE ( 'NONE', #306, #4, #240, .T. ) ;
#37 = DIRECTION ( 'NONE',  ( 0.000000000000000000, 0.000000000000000000, 1.000000000000000000 ) ) ;
#38 = VERTEX_POINT ( 'NONE', #243 ) ;
#39 = LINE ( 'NONE', #1, #286 ) ;
#40 = FACE_OUTER_BOUND ( 'NONE', #96, .T. ) ;
#41 = ORIENTED_EDGE ( 'NONE', *, *, #252, .T. ) ;
#42 = DATE_AND_TIME ( #44, #185 ) ;
#43 = CARTESIAN_POINT ( 'NONE',  ( 61.96152422706629181, 12.67949192431131600, -5.000000000000000000 ) ) ;
#44 = CALENDAR_DATE ( 2026, 23, 3 ) ;
#45 = CARTESIAN_POINT ( 'NONE',  ( 57.96152422706628471, 30.00000000000007816, 5.000000000000000000 ) ) ;
#46 = VERTEX_POINT ( 'NONE', #52 ) ;
#47 = CALENDAR_DATE ( 2026, 23, 3 ) ;
#48 = ADVANCED_FACE ( 'NONE', ( #206 ), #79, .F. ) ;
#49 = ORIENTED_EDGE ( 'NONE', *, *, #182, .F. ) ;
#50 = VECTOR ( 'NONE', #136, 1000.000000000000227 ) ;
#51 = DATE_AND_TIME ( #375, #238 ) ;
#52 = CARTESIAN_POINT ( 'NONE',  ( -4.715161401998198443, -19.43623556538421937, -5.000000000000000000 ) ) ;
#53 = DIRECTION ( 'NONE',  ( 0.000000000000000000, 0.000000000000000000, 1.000000000000000000 ) ) ;
#54 = CARTESIAN_POINT ( 'NONE',  ( -10.00000000000000000, 17.32050807568877460, 5.000000000000000000 ) ) ;
#55 = AXIS2_PLACEMENT_3D ( 'NONE', #288, #37, #6 ) ;
#56 = PLANE ( 'NONE',  #135 ) ;
#57 = DIRECTION ( 'NONE',  ( -0.03489949670250100389, 0.9993908270190956511, 0.000000000000000000 ) ) ;
#58 = CARTESIAN_POINT ( 'NONE',  ( 45.96152422706627050, 30.00000000000007816, 5.000000000000000000 ) ) ;
#59 = ADVANCED_FACE ( 'NONE', ( #347 ), #376, .T. ) ;
#60 = FACE_BOUND ( 'NONE', #68, .T. ) ;
#61 = AXIS2_PLACEMENT_3D ( 'NONE', #8, #355, #327 ) ;
#62 =( LENGTH_UNIT ( ) NAMED_UNIT ( * ) SI_UNIT ( .MILLI., .METRE. ) );
#63 = VERTEX_POINT ( 'NONE', #174 ) ;
#64 = EDGE_CURVE ( 'NONE', #245, #332, #155, .T. ) ;
#65 = FACE_OUTER_BOUND ( 'NONE', #362, .T. ) ;
#66 = ORIENTED_EDGE ( 'NONE', *, *, #275, .T. ) ;
#67 = CARTESIAN_POINT ( 'NONE',  ( 10.00000000000000000, -17.32050807568877460, 5.000000000000000000 ) ) ;
#68 = EDGE_LOOP ( 'NONE', ( #372, #299 ) ) ;
#69 = CARTESIAN_POINT ( 'NONE',  ( 51.96152422706627760, 30.00000000000007816, 5.000000000000000000 ) ) ;
#70 = ORIENTED_EDGE ( 'NONE', *, *, #290, .T. ) ;
#71 = APPROVAL_STATUS ( 'not_yet_approved' ) ;
#72 = EDGE_LOOP ( 'NONE', ( #367, #344, #41, #407 ) ) ;
#73 = MECHANICAL_CONTEXT ( 'NONE', #175, 'mechanical' ) ;
#74 = CARTESIAN_POINT ( 'NONE',  ( -11.66530778476992936, -12.24627970612863770, 5.000000000000000000 ) ) ;
#75 = LOCAL_TIME ( 17, 24, 14.00000000000000000, #236 ) ;
#76 = APPLICATION_PROTOCOL_DEFINITION ( 'international standard', 'config_control_design', 1994, #192 ) ;
#77 = ORIENTED_EDGE ( 'NONE', *, *, #101, .T. ) ;
#78 = COORDINATED_UNIVERSAL_TIME_OFFSET ( 8, 0, .AHEAD. ) ;
#79 = CYLINDRICAL_SURFACE ( 'NONE', #324, 6.000000000000005329 ) ;
#80 = ORIENTED_EDGE ( 'NONE', *, *, #5, .F. ) ;
#81 = VECTOR ( 'NONE', #237, 1000.000000000000000 ) ;
#82 = DIRECTION ( 'NONE',  ( -1.000000000000000000, 0.000000000000000000, 0.000000000000000000 ) ) ;
#83 = DIRECTION ( 'NONE',  ( -1.000000000000000000, 0.000000000000000000, 0.000000000000000000 ) ) ;
#84 = CARTESIAN_POINT ( 'NONE',  ( -1.671399514579063883, -11.89728473910363249, 5.000000000000000000 ) ) ;
#85 = AXIS2_PLACEMENT_3D ( 'NONE', #22, #217, #348 ) ;
#86 = CIRCLE ( 'NONE', #30, 20.00000000000000000 ) ;
#87 = FACE_OUTER_BOUND ( 'NONE', #263, .T. ) ;
#88 = CC_DESIGN_PERSON_AND_ORGANIZATION_ASSIGNMENT ( #232, #397, ( #197 ) ) ;
#89 = PLANE ( 'NONE',  #202 ) ;
#90 = CC_DESIGN_PERSON_AND_ORGANIZATION_ASSIGNMENT ( #371, #396, ( #2 ) ) ;
#91 = CARTESIAN_POINT ( 'NONE',  ( -4.715161401998198443, -19.43623556538421937, 5.000000000000000000 ) ) ;
#92 = AXIS2_PLACEMENT_3D ( 'NONE', #115, #18, #82 ) ;
#93 = VERTEX_POINT ( 'NONE', #414 ) ;
#94 = EDGE_CURVE ( 'NONE', #93, #131, #212, .T. ) ;
#95 = DIRECTION ( 'NONE',  ( -0.000000000000000000, -0.000000000000000000, -1.000000000000000000 ) ) ;
#96 = EDGE_LOOP ( 'NONE', ( #107, #308, #77, #359 ) ) ;
#97 = DIRECTION ( 'NONE',  ( -1.000000000000000000, 0.000000000000000000, 0.000000000000000000 ) ) ;
#98 = VERTEX_POINT ( 'NONE', #26 ) ;
#99 = CARTESIAN_POINT ( 'NONE',  ( 61.96152422706629181, 12.67949192431131600, 5.000000000000000000 ) ) ;
#100 = AXIS2_PLACEMENT_3D ( 'NONE', #106, #171, #314 ) ;
#101 = EDGE_CURVE ( 'NONE', #35, #368, #384, .T. ) ;
#102 = DATE_TIME_ROLE ( 'classification_date' ) ;
#103 = ORIENTED_EDGE ( 'NONE', *, *, #134, .F. ) ;
#104 = CALENDAR_DATE ( 2026, 23, 3 ) ;
#105 = DIRECTION ( 'NONE',  ( -1.000000000000000000, 0.000000000000000000, 0.000000000000000000 ) ) ;
#106 = CARTESIAN_POINT ( 'NONE',  ( 0.000000000000000000, 0.000000000000000000, 0.000000000000000000 ) ) ;
#107 = ORIENTED_EDGE ( 'NONE', *, *, #19, .F. ) ;
#108 = CC_DESIGN_DATE_AND_TIME_ASSIGNMENT ( #42, #12, ( #307 ) ) ;
#109 = LOCAL_TIME ( 17, 24, 14.00000000000000000, #338 ) ;
#110 = PERSON_AND_ORGANIZATION_ROLE ( 'design_owner' ) ;
#111 = ORIENTED_EDGE ( 'NONE', *, *, #64, .T. ) ;
#112 = APPROVAL_STATUS ( 'not_yet_approved' ) ;
#113 = PRODUCT ( 'weld_wheel bracket', 'weld_wheel bracket', '', ( #73 ) ) ;
#114 = ORIENTED_EDGE ( 'NONE', *, *, #285, .T. ) ;
#115 = CARTESIAN_POINT ( 'NONE',  ( -12.71229268584506045, 17.73544510444425981, 5.000000000000000000 ) ) ;
#116 = ORGANIZATION ( 'UNSPECIFIED', 'UNSPECIFIED', '' ) ;
#117 = DIRECTION ( 'NONE',  ( 0.03489949670250100389, -0.9993908270190956511, -0.000000000000000000 ) ) ;
#118 = DIRECTION ( 'NONE',  ( 0.9993908270190957621, 0.03489949670250101083, -0.000000000000000000 ) ) ;
#119 = FACE_OUTER_BOUND ( 'NONE', #129, .T. ) ;
#120 = ADVANCED_FACE ( 'NONE', ( #280 ), #89, .F. ) ;
#121 = CIRCLE ( 'NONE', #55, 6.000000000000005329 ) ;
#122 = DIRECTION ( 'NONE',  ( -0.8660254037844380415, -0.5000000000000011102, -0.000000000000000000 ) ) ;
#123 = DIRECTION ( 'NONE',  ( -0.000000000000000000, -0.000000000000000000, -1.000000000000000000 ) ) ;
#124 = CARTESIAN_POINT ( 'NONE',  ( 51.96152422706627760, 30.00000000000007816, -5.000000000000000000 ) ) ;
#125 = ORIENTED_EDGE ( 'NONE', *, *, #214, .T. ) ;
#126 = CIRCLE ( 'NONE', #92, 10.00000000000000533 ) ;
#127 = DIRECTION ( 'NONE',  ( -1.000000000000000000, 0.000000000000000000, 0.000000000000000000 ) ) ;
#128 = CC_DESIGN_APPROVAL ( #156, ( #197 ) ) ;
#129 = EDGE_LOOP ( 'NONE', ( #289, #191, #405, #261 ) ) ;
#130 = CARTESIAN_POINT ( 'NONE',  ( 10.00000000000000000, -17.32050807568877460, -5.000000000000000000 ) ) ;
#131 = VERTEX_POINT ( 'NONE', #385 ) ;
#132 = LINE ( 'NONE', #296, #415 ) ;
#133 = ORIENTED_EDGE ( 'NONE', *, *, #151, .T. ) ;
#134 = EDGE_CURVE ( 'NONE', #35, #292, #361, .T. ) ;
#135 = AXIS2_PLACEMENT_3D ( 'NONE', #54, #318, #25 ) ;
#136 = DIRECTION ( 'NONE',  ( 0.03489949670250101083, -0.9993908270190956511, 0.000000000000000000 ) ) ;
#137 = ORIENTED_EDGE ( 'NONE', *, *, #94, .T. ) ;
#138 = COORDINATED_UNIVERSAL_TIME_OFFSET ( 8, 0, .AHEAD. ) ;
#139 = DIRECTION ( 'NONE',  ( -0.000000000000000000, -0.000000000000000000, -1.000000000000000000 ) ) ;
#140 = COORDINATED_UNIVERSAL_TIME_OFFSET ( 8, 0, .AHEAD. ) ;
#141 = EDGE_CURVE ( 'NONE', #306, #245, #256, .T. ) ;
#142 = ORIENTED_EDGE ( 'NONE', *, *, #337, .F. ) ;
#143 = CC_DESIGN_DATE_AND_TIME_ASSIGNMENT ( #51, #102, ( #2 ) ) ;
#144 = CIRCLE ( 'NONE', #408, 20.00000000000000355 ) ;
#145 = CYLINDRICAL_SURFACE ( 'NONE', #272, 9.999999999999932498 ) ;
#146 = VECTOR ( 'NONE', #196, 1000.000000000000000 ) ;
#147 = APPROVAL_DATE_TIME ( #20, #156 ) ;
#148 = DIRECTION ( 'NONE',  ( -0.000000000000000000, -0.000000000000000000, -1.000000000000000000 ) ) ;
#149 = PERSON_AND_ORGANIZATION ( #269, #116 ) ;
#150 = ORIENTED_EDGE ( 'NONE', *, *, #214, .F. ) ;
#151 = EDGE_CURVE ( 'NONE', #4, #93, #144, .T. ) ;
#152 = LINE ( 'NONE', #409, #283 ) ;
#153 = VECTOR ( 'NONE', #410, 1000.000000000000000 ) ;
#154 = CARTESIAN_POINT ( 'NONE',  ( 51.96152422706627760, 30.00000000000007816, 5.000000000000000000 ) ) ;
#155 = LINE ( 'NONE', #284, #340 ) ;
#156 = APPROVAL ( #112, 'UNSPECIFIED' ) ;
#157 = CARTESIAN_POINT ( 'NONE',  ( 51.96152422706627760, 30.00000000000007816, -5.000000000000000000 ) ) ;
#158 = VECTOR ( 'NONE', #13, 1000.000000000000000 ) ;
#159 = DIRECTION ( 'NONE',  ( -0.000000000000000000, -0.000000000000000000, -1.000000000000000000 ) ) ;
#160 = DIRECTION ( 'NONE',  ( -0.000000000000000000, -0.000000000000000000, -1.000000000000000000 ) ) ;
#161 = ORIENTED_EDGE ( 'NONE', *, *, #381, .T. ) ;
#162 = CARTESIAN_POINT ( 'NONE',  ( 57.96152422706628471, 30.00000000000007816, 5.000000000000000000 ) ) ;
#163 = DIRECTION ( 'NONE',  ( -0.000000000000000000, -0.000000000000000000, -1.000000000000000000 ) ) ;
#164 = ORIENTED_EDGE ( 'NONE', *, *, #208, .T. ) ;
#165 = LINE ( 'NONE', #67, #146 ) ;
#166 = ORIENTED_EDGE ( 'NONE', *, *, #208, .F. ) ;
#167 = EDGE_CURVE ( 'NONE', #245, #93, #325, .T. ) ;
#168 = CYLINDRICAL_SURFACE ( 'NONE', #363, 6.000000000000005329 ) ;
#169 = VERTEX_POINT ( 'NONE', #353 ) ;
#170 = VECTOR ( 'NONE', #122, 1000.000000000000114 ) ;
#171 = DIRECTION ( 'NONE',  ( 0.000000000000000000, 0.000000000000000000, 1.000000000000000000 ) ) ;
#172 = DIRECTION ( 'NONE',  ( -1.000000000000000000, 0.000000000000000000, 0.000000000000000000 ) ) ;
#173 = EDGE_CURVE ( 'NONE', #368, #225, #309, .T. ) ;
#174 = CARTESIAN_POINT ( 'NONE',  ( -2.718384415654095054, 18.08444007146926680, -5.000000000000000000 ) ) ;
#175 = APPLICATION_CONTEXT ( 'configuration controlled 3d designs of mechanical parts and assemblies' ) ;
#176 = ORIENTED_EDGE ( 'NONE', *, *, #377, .F. ) ;
#177 = AXIS2_PLACEMENT_3D ( 'NONE', #287, #282, #350 ) ;
#178 =( NAMED_UNIT ( * ) PLANE_ANGLE_UNIT ( ) SI_UNIT ( $, .RADIAN. ) );
#179 = ORIENTED_EDGE ( 'NONE', *, *, #19, .T. ) ;
#180 = CIRCLE ( 'NONE', #266, 20.00000000000000000 ) ;
#181 = CARTESIAN_POINT ( 'NONE',  ( 0.000000000000000000, 0.000000000000000000, 5.000000000000000000 ) ) ;
#182 = EDGE_CURVE ( 'NONE', #332, #131, #320, .T. ) ;
#183 = CARTESIAN_POINT ( 'NONE',  ( 0.000000000000000000, 0.000000000000000000, 5.000000000000000000 ) ) ;
#184 = DIRECTION ( 'NONE',  ( 1.000000000000000000, 0.000000000000000000, 0.000000000000000000 ) ) ;
#185 = LOCAL_TIME ( 17, 24, 14.00000000000000000, #140 ) ;
#186 = ADVANCED_FACE ( 'NONE', ( #87, #416 ), #253, .F. ) ;
#187 = FACE_OUTER_BOUND ( 'NONE', #7, .T. ) ;
#188 = DIRECTION ( 'NONE',  ( -0.000000000000000000, -0.000000000000000000, -1.000000000000000000 ) ) ;
#189 = DIRECTION ( 'NONE',  ( 1.000000000000000000, 0.000000000000000000, 0.000000000000000000 ) ) ;
#190 = CARTESIAN_POINT ( 'NONE',  ( -12.71229268584506045, 17.73544510444425981, -5.000000000000000000 ) ) ;
#191 = ORIENTED_EDGE ( 'NONE', *, *, #381, .F. ) ;
#192 = APPLICATION_CONTEXT ( 'configuration controlled 3d designs of mechanical parts and assemblies' ) ;
#193 = DIRECTION ( 'NONE',  ( -0.000000000000000000, -0.000000000000000000, -1.000000000000000000 ) ) ;
#194 = ORIENTED_EDGE ( 'NONE', *, *, #141, .T. ) ;
#195 = EDGE_CURVE ( 'NONE', #63, #38, #152, .T. ) ;
#196 = DIRECTION ( 'NONE',  ( 0.8660254037844379305, 0.5000000000000013323, 0.000000000000000000 ) ) ;
#197 = PRODUCT_DEFINITION_FORMATION_WITH_SPECIFIED_SOURCE ( 'ANY', '', #113, .NOT_KNOWN. ) ;
#198 = VERTEX_POINT ( 'NONE', #84 ) ;
#199 = FACE_OUTER_BOUND ( 'NONE', #258, .T. ) ;
#200 = ORIENTED_EDGE ( 'NONE', *, *, #5, .T. ) ;
#201 = APPROVAL_ROLE ( '' ) ;
#202 = AXIS2_PLACEMENT_3D ( 'NONE', #215, #118, #57 ) ;
#203 = CALENDAR_DATE ( 2026, 23, 3 ) ;
#204 = CARTESIAN_POINT ( 'NONE',  ( 51.96152422706627760, 30.00000000000007816, 5.000000000000000000 ) ) ;
#205 = SHAPE_DEFINITION_REPRESENTATION ( #311, #323 ) ;
#206 = FACE_OUTER_BOUND ( 'NONE', #277, .T. ) ;
#207 = DIRECTION ( 'NONE',  ( -0.000000000000000000, -0.000000000000000000, -1.000000000000000000 ) ) ;
#208 = EDGE_CURVE ( 'NONE', #198, #98, #394, .T. ) ;
#209 = EDGE_LOOP ( 'NONE', ( #125, #336, #176, #70 ) ) ;
#210 = CC_DESIGN_PERSON_AND_ORGANIZATION_ASSIGNMENT ( #242, #305, ( #197 ) ) ;
#211 = APPROVAL_PERSON_ORGANIZATION ( #276, #241, #373 ) ;
#212 = LINE ( 'NONE', #354, #170 ) ;
#213 = LINE ( 'NONE', #216, #264 ) ;
#214 = EDGE_CURVE ( 'NONE', #278, #4, #213, .T. ) ;
#215 = CARTESIAN_POINT ( 'NONE',  ( -2.084320107237262576, -0.07278606201184743829, 5.000000000000000000 ) ) ;
#216 = CARTESIAN_POINT ( 'NONE',  ( 10.00000000000000000, -17.32050807568877460, -5.000000000000000000 ) ) ;
#217 = DIRECTION ( 'NONE',  ( 0.000000000000000000, 0.000000000000000000, 1.000000000000000000 ) ) ;
#218 = DIRECTION ( 'NONE',  ( -1.000000000000000000, 0.000000000000000000, 0.000000000000000000 ) ) ;
#219 = ADVANCED_FACE ( 'NONE', ( #187 ), #56, .F. ) ;
#220 = VECTOR ( 'NONE', #159, 1000.000000000000000 ) ;
#221 = CARTESIAN_POINT ( 'NONE',  ( 10.00000000000000000, -17.32050807568877460, 5.000000000000000000 ) ) ;
#222 = EDGE_LOOP ( 'NONE', ( #103, #11 ) ) ;
#223 = MANIFOLD_SOLID_BREP ( 'Cut-Extrude1', #317 ) ;
#224 = DIRECTION ( 'NONE',  ( -1.000000000000000000, 0.000000000000000000, 0.000000000000000000 ) ) ;
#225 = VERTEX_POINT ( 'NONE', #281 ) ;
#226 = ADVANCED_FACE ( 'NONE', ( #119 ), #249, .F. ) ;
#227 = CARTESIAN_POINT ( 'NONE',  ( 0.000000000000000000, 0.000000000000000000, -5.000000000000000000 ) ) ;
#228 = ORIENTED_EDGE ( 'NONE', *, *, #364, .F. ) ;
#229 = AXIS2_PLACEMENT_3D ( 'NONE', #183, #412, #316 ) ;
#230 = CYLINDRICAL_SURFACE ( 'NONE', #246, 19.99999999999999645 ) ;
#231 = CIRCLE ( 'NONE', #383, 10.00000000000000533 ) ;
#232 = PERSON_AND_ORGANIZATION ( #269, #116 ) ;
#233 = ORIENTED_EDGE ( 'NONE', *, *, #195, .T. ) ;
#234 = DATE_AND_TIME ( #104, #109 ) ;
#235 = ORIENTED_EDGE ( 'NONE', *, *, #252, .F. ) ;
#236 = COORDINATED_UNIVERSAL_TIME_OFFSET ( 8, 0, .AHEAD. ) ;
#237 = DIRECTION ( 'NONE',  ( -0.000000000000000000, -0.000000000000000000, -1.000000000000000000 ) ) ;
#238 = LOCAL_TIME ( 17, 24, 14.00000000000000000, #138 ) ;
#239 = APPROVAL_STATUS ( 'not_yet_approved' ) ;
#240 = LINE ( 'NONE', #271, #81 ) ;
#241 = APPROVAL ( #239, 'UNSPECIFIED' ) ;
#242 = PERSON_AND_ORGANIZATION ( #269, #116 ) ;
#243 = CARTESIAN_POINT ( 'NONE',  ( -1.671399514579064771, -11.89728473910363071, -5.000000000000000000 ) ) ;
#244 = APPROVAL ( #71, 'UNSPECIFIED' ) ;
#245 = VERTEX_POINT ( 'NONE', #27 ) ;
#246 = AXIS2_PLACEMENT_3D ( 'NONE', #69, #330, #97 ) ;
#247 = CARTESIAN_POINT ( 'NONE',  ( -11.66530778476992936, -12.24627970612863770, 5.000000000000000000 ) ) ;
#248 = DIRECTION ( 'NONE',  ( -0.8660254037844380415, -0.5000000000000011102, -0.000000000000000000 ) ) ;
#249 = CYLINDRICAL_SURFACE ( 'NONE', #333, 10.00000000000000533 ) ;
#250 = APPROVAL_PERSON_ORGANIZATION ( #17, #156, #310 ) ;
#251 = CARTESIAN_POINT ( 'NONE',  ( 41.96152422706625629, 47.32050807568884210, 5.000000000000000000 ) ) ;
#252 = EDGE_CURVE ( 'NONE', #46, #278, #86, .T. ) ;
#253 = PLANE ( 'NONE',  #229 ) ;
#254 = DIRECTION ( 'NONE',  ( 1.000000000000000000, 0.000000000000000000, 0.000000000000000000 ) ) ;
#255 = ORIENTED_EDGE ( 'NONE', *, *, #36, .T. ) ;
#256 = CIRCLE ( 'NONE', #331, 20.00000000000000355 ) ;
#257 = CARTESIAN_POINT ( 'NONE',  ( 0.000000000000000000, 0.000000000000000000, 5.000000000000000000 ) ) ;
#258 = EDGE_LOOP ( 'NONE', ( #387, #14, #389, #150, #235, #80, #33 ) ) ;
#259 = CC_DESIGN_PERSON_AND_ORGANIZATION_ASSIGNMENT ( #149, #270, ( #307 ) ) ;
#260 = FACE_OUTER_BOUND ( 'NONE', #209, .T. ) ;
#261 = ORIENTED_EDGE ( 'NONE', *, *, #182, .T. ) ;
#262 = DIRECTION ( 'NONE',  ( -1.000000000000000000, 0.000000000000000000, 0.000000000000000000 ) ) ;
#263 = EDGE_LOOP ( 'NONE', ( #111, #312, #401, #164, #66, #391, #194 ) ) ;
#264 = VECTOR ( 'NONE', #349, 1000.000000000000000 ) ;
#265 = PLANE ( 'NONE',  #356 ) ;
#266 = AXIS2_PLACEMENT_3D ( 'NONE', #257, #388, #386 ) ;
#267 = APPLICATION_PROTOCOL_DEFINITION ( 'international standard', 'config_control_design', 1994, #175 ) ;
#268 = ORIENTED_EDGE ( 'NONE', *, *, #167, .F. ) ;
#269 = PERSON ( 'UNSPECIFIED', 'UNSPECIFIED', 'UNSPECIFIED', ('UNSPECIFIED'), ('UNSPECIFIED'), ('UNSPECIFIED') ) ;
#270 = PERSON_AND_ORGANIZATION_ROLE ( 'creator' ) ;
#271 = CARTESIAN_POINT ( 'NONE',  ( 61.96152422706629181, 12.67949192431131600, 5.000000000000000000 ) ) ;
#272 = AXIS2_PLACEMENT_3D ( 'NONE', #74, #148, #172 ) ;
#273 =( NAMED_UNIT ( * ) SI_UNIT ( $, .STERADIAN. ) SOLID_ANGLE_UNIT ( ) );
#274 = CARTESIAN_POINT ( 'NONE',  ( 45.96152422706627050, 30.00000000000007816, 5.000000000000000000 ) ) ;
#275 = EDGE_CURVE ( 'NONE', #98, #169, #180, .T. ) ;
#276 = PERSON_AND_ORGANIZATION ( #269, #116 ) ;
#277 = EDGE_LOOP ( 'NONE', ( #297, #179, #418, #357 ) ) ;
#278 = VERTEX_POINT ( 'NONE', #130 ) ;
#279 = CIRCLE ( 'NONE', #300, 9.999999999999932498 ) ;
#280 = FACE_OUTER_BOUND ( 'NONE', #378, .T. ) ;
#281 = CARTESIAN_POINT ( 'NONE',  ( 57.96152422706628471, 30.00000000000007816, -5.000000000000000000 ) ) ;
#282 = DIRECTION ( 'NONE',  ( 0.000000000000000000, 0.000000000000000000, 1.000000000000000000 ) ) ;
#283 = VECTOR ( 'NONE', #117, 1000.000000000000114 ) ;
#284 = CARTESIAN_POINT ( 'NONE',  ( -10.00000000000000000, 17.32050807568877460, 5.000000000000000000 ) ) ;
#285 = EDGE_CURVE ( 'NONE', #198, #38, #132, .T. ) ;
#286 = VECTOR ( 'NONE', #393, 1000.000000000000000 ) ;
#287 = CARTESIAN_POINT ( 'NONE',  ( 51.96152422706627760, 30.00000000000007816, -5.000000000000000000 ) ) ;
#288 = CARTESIAN_POINT ( 'NONE',  ( 51.96152422706627760, 30.00000000000007816, 5.000000000000000000 ) ) ;
#289 = ORIENTED_EDGE ( 'NONE', *, *, #322, .T. ) ;
#290 = EDGE_CURVE ( 'NONE', #169, #278, #365, .T. ) ;
#291 = CARTESIAN_POINT ( 'NONE',  ( 45.96152422706627050, 30.00000000000007816, -5.000000000000000000 ) ) ;
#292 = VERTEX_POINT ( 'NONE', #162 ) ;
#293 = APPROVAL_PERSON_ORGANIZATION ( #366, #244, #201 ) ;
#294 = DIRECTION ( 'NONE',  ( -0.000000000000000000, 0.000000000000000000, -1.000000000000000000 ) ) ;
#295 = ORIENTED_EDGE ( 'NONE', *, *, #167, .T. ) ;
#296 = CARTESIAN_POINT ( 'NONE',  ( -1.671399514579063883, -11.89728473910363249, 5.000000000000000000 ) ) ;
#297 = ORIENTED_EDGE ( 'NONE', *, *, #134, .T. ) ;
#298 = PLANE ( 'NONE',  #61 ) ;
#299 = ORIENTED_EDGE ( 'NONE', *, *, #411, .T. ) ;
#300 = AXIS2_PLACEMENT_3D ( 'NONE', #374, #139, #105 ) ;
#301 = EDGE_CURVE ( 'NONE', #292, #35, #121, .T. ) ;
#302 = PERSON_AND_ORGANIZATION ( #269, #116 ) ;
#303 = LOCAL_TIME ( 17, 24, 14.00000000000000000, #78 ) ;
#304 = ORIENTED_EDGE ( 'NONE', *, *, #285, .F. ) ;
#305 = PERSON_AND_ORGANIZATION_ROLE ( 'design_supplier' ) ;
#306 = VERTEX_POINT ( 'NONE', #99 ) ;
#307 = PRODUCT_DEFINITION ( 'UNKNOWN', '', #197, #402 ) ;
#308 = ORIENTED_EDGE ( 'NONE', *, *, #301, .T. ) ;
#309 = CIRCLE ( 'NONE', #177, 6.000000000000005329 ) ;
#310 = APPROVAL_ROLE ( '' ) ;
#311 = PRODUCT_DEFINITION_SHAPE ( 'NONE', 'NONE',  #307 ) ;
#312 = ORIENTED_EDGE ( 'NONE', *, *, #24, .T. ) ;
#313 = CC_DESIGN_APPROVAL ( #244, ( #2 ) ) ;
#314 = DIRECTION ( 'NONE',  ( 1.000000000000000000, 0.000000000000000000, 0.000000000000000000 ) ) ;
#315 = DIRECTION ( 'NONE',  ( -1.000000000000000000, 0.000000000000000000, 0.000000000000000000 ) ) ;
#316 = DIRECTION ( 'NONE',  ( -1.000000000000000000, 0.000000000000000000, 0.000000000000000000 ) ) ;
#317 = CLOSED_SHELL ( 'NONE', ( #48, #186, #369, #59, #406, #392, #219, #352, #120, #226, #31 ) ) ;
#318 = DIRECTION ( 'NONE',  ( 0.5000000000000011102, -0.8660254037844380415, 0.000000000000000000 ) ) ;
#319 = VECTOR ( 'NONE', #335, 1000.000000000000000 ) ;
#320 = LINE ( 'NONE', #380, #413 ) ;
#321 = DIRECTION ( 'NONE',  ( -1.000000000000000000, 0.000000000000000000, 0.000000000000000000 ) ) ;
#322 = EDGE_CURVE ( 'NONE', #131, #63, #231, .T. ) ;
#323 = ADVANCED_BREP_SHAPE_REPRESENTATION ( 'weld_wheel bracket', ( #223, #100 ), #395 ) ;
#324 = AXIS2_PLACEMENT_3D ( 'NONE', #204, #207, #346 ) ;
#325 = LINE ( 'NONE', #251, #220 ) ;
#326 = AXIS2_PLACEMENT_3D ( 'NONE', #124, #32, #254 ) ;
#327 = DIRECTION ( 'NONE',  ( -0.8660254037844379305, -0.5000000000000013323, 0.000000000000000000 ) ) ;
#328 = DIRECTION ( 'NONE',  ( 0.000000000000000000, 0.000000000000000000, 1.000000000000000000 ) ) ;
#329 = ORIENTED_EDGE ( 'NONE', *, *, #64, .F. ) ;
#330 = DIRECTION ( 'NONE',  ( -0.000000000000000000, -0.000000000000000000, -1.000000000000000000 ) ) ;
#331 = AXIS2_PLACEMENT_3D ( 'NONE', #154, #29, #189 ) ;
#332 = VERTEX_POINT ( 'NONE', #34 ) ;
#333 = AXIS2_PLACEMENT_3D ( 'NONE', #382, #188, #321 ) ;
#334 = LINE ( 'NONE', #91, #10 ) ;
#335 = DIRECTION ( 'NONE',  ( -0.000000000000000000, -0.000000000000000000, -1.000000000000000000 ) ) ;
#336 = ORIENTED_EDGE ( 'NONE', *, *, #36, .F. ) ;
#337 = EDGE_CURVE ( 'NONE', #98, #46, #334, .T. ) ;
#338 = COORDINATED_UNIVERSAL_TIME_OFFSET ( 8, 0, .AHEAD. ) ;
#339 = FACE_OUTER_BOUND ( 'NONE', #9, .T. ) ;
#340 = VECTOR ( 'NONE', #248, 1000.000000000000114 ) ;
#341 = DIRECTION ( 'NONE',  ( -0.000000000000000000, -0.000000000000000000, -1.000000000000000000 ) ) ;
#342 = CC_DESIGN_PERSON_AND_ORGANIZATION_ASSIGNMENT ( #302, #110, ( #113 ) ) ;
#343 = APPROVAL_DATE_TIME ( #234, #244 ) ;
#344 = ORIENTED_EDGE ( 'NONE', *, *, #337, .T. ) ;
#345 = APPROVAL_DATE_TIME ( #404, #241 ) ;
#346 = DIRECTION ( 'NONE',  ( -1.000000000000000000, 0.000000000000000000, 0.000000000000000000 ) ) ;
#347 = FACE_OUTER_BOUND ( 'NONE', #72, .T. ) ;
#348 = DIRECTION ( 'NONE',  ( 1.000000000000000000, 0.000000000000000000, 0.000000000000000000 ) ) ;
#349 = DIRECTION ( 'NONE',  ( 0.8660254037844379305, 0.5000000000000013323, 0.000000000000000000 ) ) ;
#350 = DIRECTION ( 'NONE',  ( 1.000000000000000000, 0.000000000000000000, 0.000000000000000000 ) ) ;
#351 = CC_DESIGN_SECURITY_CLASSIFICATION ( #2, ( #197 ) ) ;
#352 = ADVANCED_FACE ( 'NONE', ( #40 ), #168, .F. ) ;
#353 = CARTESIAN_POINT ( 'NONE',  ( 10.00000000000000000, -17.32050807568877460, 5.000000000000000000 ) ) ;
#354 = CARTESIAN_POINT ( 'NONE',  ( -10.00000000000000000, 17.32050807568877460, -5.000000000000000000 ) ) ;
#355 = DIRECTION ( 'NONE',  ( -0.5000000000000013323, 0.8660254037844379305, 0.000000000000000000 ) ) ;
#356 = AXIS2_PLACEMENT_3D ( 'NONE', #227, #294, #218 ) ;
#357 = ORIENTED_EDGE ( 'NONE', *, *, #101, .F. ) ;
#358 = LINE ( 'NONE', #390, #50 ) ;
#359 = ORIENTED_EDGE ( 'NONE', *, *, #411, .F. ) ;
#360 = CARTESIAN_POINT ( 'NONE',  ( 0.000000000000000000, 0.000000000000000000, -5.000000000000000000 ) ) ;
#361 = CIRCLE ( 'NONE', #85, 6.000000000000005329 ) ;
#362 = EDGE_LOOP ( 'NONE', ( #133, #268, #403, #255 ) ) ;
#363 = AXIS2_PLACEMENT_3D ( 'NONE', #417, #95, #224 ) ;
#364 = EDGE_CURVE ( 'NONE', #398, #198, #358, .T. ) ;
#365 = LINE ( 'NONE', #221, #319 ) ;
#366 = PERSON_AND_ORGANIZATION ( #269, #116 ) ;
#367 = ORIENTED_EDGE ( 'NONE', *, *, #275, .F. ) ;
#368 = VERTEX_POINT ( 'NONE', #291 ) ;
#369 = ADVANCED_FACE ( 'NONE', ( #199, #60 ), #265, .T. ) ;
#370 = CC_DESIGN_APPROVAL ( #241, ( #307 ) ) ;
#371 = PERSON_AND_ORGANIZATION ( #269, #116 ) ;
#372 = ORIENTED_EDGE ( 'NONE', *, *, #173, .T. ) ;
#373 = APPROVAL_ROLE ( '' ) ;
#374 = CARTESIAN_POINT ( 'NONE',  ( -11.66530778476992936, -12.24627970612863770, -5.000000000000000000 ) ) ;
#375 = CALENDAR_DATE ( 2026, 23, 3 ) ;
#376 = CYLINDRICAL_SURFACE ( 'NONE', #23, 20.00000000000000000 ) ;
#377 = EDGE_CURVE ( 'NONE', #169, #306, #165, .T. ) ;
#378 = EDGE_LOOP ( 'NONE', ( #233, #304, #228, #161 ) ) ;
#379 = DIRECTION ( 'NONE',  ( 0.000000000000000000, 0.000000000000000000, -1.000000000000000000 ) ) ;
#380 = CARTESIAN_POINT ( 'NONE',  ( -3.322675994799977328, 21.17566288755736892, 5.000000000000000000 ) ) ;
#381 = EDGE_CURVE ( 'NONE', #398, #63, #39, .T. ) ;
#382 = CARTESIAN_POINT ( 'NONE',  ( -12.71229268584506045, 17.73544510444425981, 5.000000000000000000 ) ) ;
#383 = AXIS2_PLACEMENT_3D ( 'NONE', #190, #160, #262 ) ;
#384 = LINE ( 'NONE', #58, #153 ) ;
#385 = CARTESIAN_POINT ( 'NONE',  ( -3.322675994799976440, 21.17566288755736892, -5.000000000000000888 ) ) ;
#386 = DIRECTION ( 'NONE',  ( -1.000000000000000000, 0.000000000000000000, 0.000000000000000000 ) ) ;
#387 = ORIENTED_EDGE ( 'NONE', *, *, #322, .F. ) ;
#388 = DIRECTION ( 'NONE',  ( 0.000000000000000000, 0.000000000000000000, 1.000000000000000000 ) ) ;
#389 = ORIENTED_EDGE ( 'NONE', *, *, #151, .F. ) ;
#390 = CARTESIAN_POINT ( 'NONE',  ( -2.084320107237262576, -0.07278606201184743829, 5.000000000000000000 ) ) ;
#391 = ORIENTED_EDGE ( 'NONE', *, *, #377, .T. ) ;
#392 = ADVANCED_FACE ( 'NONE', ( #65 ), #230, .T. ) ;
#393 = DIRECTION ( 'NONE',  ( -0.000000000000000000, -0.000000000000000000, -1.000000000000000000 ) ) ;
#394 = CIRCLE ( 'NONE', #28, 9.999999999999932498 ) ;
#395 =( GEOMETRIC_REPRESENTATION_CONTEXT ( 3 ) GLOBAL_UNCERTAINTY_ASSIGNED_CONTEXT ( ( #15 ) ) GLOBAL_UNIT_ASSIGNED_CONTEXT ( ( #62, #178, #273 ) ) REPRESENTATION_CONTEXT ( 'NONE', 'WORKASPACE' ) );
#396 = PERSON_AND_ORGANIZATION_ROLE ( 'classification_officer' ) ;
#397 = PERSON_AND_ORGANIZATION_ROLE ( 'creator' ) ;
#398 = VERTEX_POINT ( 'NONE', #3 ) ;
#399 = PRODUCT_RELATED_PRODUCT_CATEGORY ( 'detail', '', ( #113 ) ) ;
#400 = SECURITY_CLASSIFICATION_LEVEL ( 'unclassified' ) ;
#401 = ORIENTED_EDGE ( 'NONE', *, *, #364, .T. ) ;
#402 = DESIGN_CONTEXT ( 'detailed design', #192, 'design' ) ;
#403 = ORIENTED_EDGE ( 'NONE', *, *, #141, .F. ) ;
#404 = DATE_AND_TIME ( #203, #303 ) ;
#405 = ORIENTED_EDGE ( 'NONE', *, *, #24, .F. ) ;
#406 = ADVANCED_FACE ( 'NONE', ( #260 ), #298, .F. ) ;
#407 = ORIENTED_EDGE ( 'NONE', *, *, #290, .F. ) ;
#408 = AXIS2_PLACEMENT_3D ( 'NONE', #157, #53, #184 ) ;
#409 = CARTESIAN_POINT ( 'NONE',  ( -2.084320107237262576, -0.07278606201184743829, -5.000000000000000000 ) ) ;
#410 = DIRECTION ( 'NONE',  ( -0.000000000000000000, -0.000000000000000000, -1.000000000000000000 ) ) ;
#411 = EDGE_CURVE ( 'NONE', #225, #368, #16, .T. ) ;
#412 = DIRECTION ( 'NONE',  ( -0.000000000000000000, 0.000000000000000000, -1.000000000000000000 ) ) ;
#413 = VECTOR ( 'NONE', #123, 1000.000000000000000 ) ;
#414 = CARTESIAN_POINT ( 'NONE',  ( 41.96152422706625629, 47.32050807568884210, -5.000000000000000000 ) ) ;
#415 = VECTOR ( 'NONE', #193, 1000.000000000000000 ) ;
#416 = FACE_BOUND ( 'NONE', #222, .T. ) ;
#417 = CARTESIAN_POINT ( 'NONE',  ( 51.96152422706627760, 30.00000000000007816, 5.000000000000000000 ) ) ;
#418 = ORIENTED_EDGE ( 'NONE', *, *, #173, .F. ) ;
ENDSEC;
END-ISO-10303-21;
