ISO-10303-21;
HEADER;
FILE_DESCRIPTION (( 'STEP AP203' ),
    '1' );
FILE_NAME ('Base (Aluminium).STEP',
    '2024-09-25T03:05:56',
    ( '' ),
    ( '' ),
    'SwSTEP 2.0',
    'SolidWorks 2023',
    '' );
FILE_SCHEMA (( 'CONFIG_CONTROL_DESIGN' ));
ENDSEC;

DATA;
#1 = DIRECTION ( 'NONE',  ( -0.000000000000000000, 1.000000000000000000, -0.000000000000000000 ) ) ;
#2 = CARTESIAN_POINT ( 'NONE',  ( 0.000000000000000000, 3.000000000000000000, -400.0000000000000000 ) ) ;
#3 = EDGE_CURVE ( 'NONE', #393, #442, #822, .T. ) ;
#4 = CALENDAR_DATE ( 2024, 25, 9 ) ;
#5 = CARTESIAN_POINT ( 'NONE',  ( 159.9999999999994031, 3.000000000000000000, -236.8749999999999432 ) ) ;
#6 = LINE ( 'NONE', #1033, #943 ) ;
#7 = EDGE_LOOP ( 'NONE', ( #960, #873 ) ) ;
#8 = CARTESIAN_POINT ( 'NONE',  ( 89.99999999999938893, -28.28427124746190913, -249.9999999999999432 ) ) ;
#9 = PERSON_AND_ORGANIZATION_ROLE ( 'design_owner' ) ;
#10 = EDGE_LOOP ( 'NONE', ( #256, #339, #176, #1279 ) ) ;
#11 = ADVANCED_FACE ( 'NONE', ( #949 ), #26, .F. ) ;
#12 = FACE_OUTER_BOUND ( 'NONE', #83, .T. ) ;
#13 = DIRECTION ( 'NONE',  ( -0.000000000000000000, 1.000000000000000000, -0.000000000000000000 ) ) ;
#14 = DIRECTION ( 'NONE',  ( -0.000000000000000000, 1.000000000000000000, -0.000000000000000000 ) ) ;
#15 = AXIS2_PLACEMENT_3D ( 'NONE', #526, #1239, #18 ) ;
#16 = DIRECTION ( 'NONE',  ( 0.000000000000000000, 0.000000000000000000, 1.000000000000000000 ) ) ;
#17 = EDGE_CURVE ( 'NONE', #1331, #1177, #821, .T. ) ;
#18 = DIRECTION ( 'NONE',  ( 0.000000000000000000, 0.000000000000000000, 1.000000000000000000 ) ) ;
#19 = AXIS2_PLACEMENT_3D ( 'NONE', #1068, #968, #867 ) ;
#20 = PLANE ( 'NONE',  #181 ) ;
#21 = ORIENTED_EDGE ( 'NONE', *, *, #497, .T. ) ;
#22 = VECTOR ( 'NONE', #1234, 1000.000000000000000 ) ;
#23 = DIRECTION ( 'NONE',  ( 0.000000000000000000, 0.000000000000000000, 1.000000000000000000 ) ) ;
#24 = DIRECTION ( 'NONE',  ( 0.000000000000000000, 0.000000000000000000, -1.000000000000000000 ) ) ;
#25 = EDGE_CURVE ( 'NONE', #528, #78, #1251, .T. ) ;
#26 = CYLINDRICAL_SURFACE ( 'NONE', #1141, 3.124999999999999112 ) ;
#27 = CIRCLE ( 'NONE', #1139, 3.125000000000016875 ) ;
#28 = VECTOR ( 'NONE', #14, 1000.000000000000000 ) ;
#29 = EDGE_LOOP ( 'NONE', ( #137, #663, #278, #882 ) ) ;
#30 = DIRECTION ( 'NONE',  ( 0.000000000000000000, 0.000000000000000000, 1.000000000000000000 ) ) ;
#31 = FACE_BOUND ( 'NONE', #7, .T. ) ;
#32 = ORIENTED_EDGE ( 'NONE', *, *, #644, .F. ) ;
#33 = DIRECTION ( 'NONE',  ( 0.000000000000000000, 1.000000000000000000, 0.000000000000000000 ) ) ;
#34 = CC_DESIGN_DATE_AND_TIME_ASSIGNMENT ( #950, #855, ( #1265 ) ) ;
#35 = CARTESIAN_POINT ( 'NONE',  ( 144.0000000000000568, -8.838834764831844382, -200.0000000000000000 ) ) ;
#36 = VECTOR ( 'NONE', #534, 1000.000000000000000 ) ;
#37 = ORIENTED_EDGE ( 'NONE', *, *, #447, .T. ) ;
#38 = DIRECTION ( 'NONE',  ( 0.000000000000000000, 1.000000000000000000, 0.000000000000000000 ) ) ;
#39 = DIRECTION ( 'NONE',  ( 0.000000000000000000, -0.000000000000000000, -1.000000000000000000 ) ) ;
#40 = ORIENTED_EDGE ( 'NONE', *, *, #850, .F. ) ;
#41 = DIRECTION ( 'NONE',  ( -0.000000000000000000, 1.000000000000000000, -0.000000000000000000 ) ) ;
#42 = DIRECTION ( 'NONE',  ( 0.000000000000000000, 0.000000000000000000, -1.000000000000000000 ) ) ;
#43 = AXIS2_PLACEMENT_3D ( 'NONE', #343, #963, #24 ) ;
#44 = AXIS2_PLACEMENT_3D ( 'NONE', #82, #1213, #503 ) ;
#45 = EDGE_CURVE ( 'NONE', #652, #823, #969, .T. ) ;
#46 = EDGE_LOOP ( 'NONE', ( #289, #1292 ) ) ;
#47 = ORIENTED_EDGE ( 'NONE', *, *, #540, .T. ) ;
#48 = ORIENTED_EDGE ( 'NONE', *, *, #1095, .F. ) ;
#49 = CARTESIAN_POINT ( 'NONE',  ( 400.0000000000000000, 3.000000000000000000, 0.000000000000000000 ) ) ;
#50 = ADVANCED_FACE ( 'NONE', ( #1260 ), #718, .F. ) ;
#51 = ORIENTED_EDGE ( 'NONE', *, *, #1159, .F. ) ;
#52 = VERTEX_POINT ( 'NONE', #335 ) ;
#53 = CARTESIAN_POINT ( 'NONE',  ( 144.0000000000000568, 0.000000000000000000, -203.1250000000000000 ) ) ;
#54 = DIRECTION ( 'NONE',  ( 0.000000000000000000, 0.000000000000000000, 1.000000000000000000 ) ) ;
#55 = LINE ( 'NONE', #378, #983 ) ;
#56 = AXIS2_PLACEMENT_3D ( 'NONE', #714, #1124, #94 ) ;
#57 = ORIENTED_EDGE ( 'NONE', *, *, #1235, .F. ) ;
#58 = CIRCLE ( 'NONE', #433, 10.00000000000000888 ) ;
#59 = EDGE_LOOP ( 'NONE', ( #765, #1306 ) ) ;
#60 = EDGE_CURVE ( 'NONE', #146, #487, #323, .T. ) ;
#61 = DIRECTION ( 'NONE',  ( 0.000000000000000000, 0.000000000000000000, 1.000000000000000000 ) ) ;
#62 = DIRECTION ( 'NONE',  ( -0.000000000000000000, 1.000000000000000000, -0.000000000000000000 ) ) ;
#63 = CARTESIAN_POINT ( 'NONE',  ( 19.99999999999990763, 0.000000000000000000, -376.8749999999999432 ) ) ;
#64 = AXIS2_PLACEMENT_3D ( 'NONE', #1063, #775, #1183 ) ;
#65 = ORIENTED_EDGE ( 'NONE', *, *, #1194, .F. ) ;
#66 = ORIENTED_EDGE ( 'NONE', *, *, #716, .F. ) ;
#67 = CARTESIAN_POINT ( 'NONE',  ( 19.99999999999990763, 3.000000000000000000, -20.00000000000007461 ) ) ;
#68 = FACE_BOUND ( 'NONE', #297, .T. ) ;
#69 = EDGE_CURVE ( 'NONE', #506, #353, #208, .T. ) ;
#70 = CARTESIAN_POINT ( 'NONE',  ( 89.99999999999938893, 3.000000000000000000, -229.9999999999999147 ) ) ;
#71 = AXIS2_PLACEMENT_3D ( 'NONE', #122, #1021, #544 ) ;
#72 = EDGE_LOOP ( 'NONE', ( #509, #838 ) ) ;
#73 = CARTESIAN_POINT ( 'NONE',  ( 256.0000000000000000, 3.000000000000000000, -196.8750000000000284 ) ) ;
#74 = CARTESIAN_POINT ( 'NONE',  ( 0.000000000000000000, 0.000000000000000000, 0.000000000000000000 ) ) ;
#75 = DIRECTION ( 'NONE',  ( 0.000000000000000000, 0.000000000000000000, -1.000000000000000000 ) ) ;
#76 = VECTOR ( 'NONE', #742, 1000.000000000000000 ) ;
#77 = AXIS2_PLACEMENT_3D ( 'NONE', #253, #665, #770 ) ;
#78 = VERTEX_POINT ( 'NONE', #958 ) ;
#79 = DIRECTION ( 'NONE',  ( -0.000000000000000000, 1.000000000000000000, -0.000000000000000000 ) ) ;
#80 = ORIENTED_EDGE ( 'NONE', *, *, #530, .T. ) ;
#81 = CARTESIAN_POINT ( 'NONE',  ( 19.99999999999938183, -28.28427124746190913, -160.0000000000000853 ) ) ;
#82 = CARTESIAN_POINT ( 'NONE',  ( 19.99999999999938183, 0.000000000000000000, -239.9999999999999432 ) ) ;
#83 = EDGE_LOOP ( 'NONE', ( #1165, #248, #21, #155 ) ) ;
#84 = CIRCLE ( 'NONE', #351, 3.124999999999999112 ) ;
#85 = ADVANCED_FACE ( 'NONE', ( #1046 ), #95, .F. ) ;
#86 = VECTOR ( 'NONE', #315, 1000.000000000000000 ) ;
#87 = ORIENTED_EDGE ( 'NONE', *, *, #432, .F. ) ;
#88 = EDGE_LOOP ( 'NONE', ( #761, #581, #739, #978 ) ) ;
#89 = CYLINDRICAL_SURFACE ( 'NONE', #498, 3.124999999999988898 ) ;
#90 = DIRECTION ( 'NONE',  ( -0.000000000000000000, 1.000000000000000000, -0.000000000000000000 ) ) ;
#91 = APPROVAL_DATE_TIME ( #1148, #268 ) ;
#92 = EDGE_CURVE ( 'NONE', #251, #1108, #318, .T. ) ;
#93 = ORIENTED_EDGE ( 'NONE', *, *, #1142, .T. ) ;
#94 = DIRECTION ( 'NONE',  ( 0.000000000000000000, 0.000000000000000000, 1.000000000000000000 ) ) ;
#95 = CYLINDRICAL_SURFACE ( 'NONE', #965, 10.00000000000000888 ) ;
#96 = FACE_OUTER_BOUND ( 'NONE', #1290, .T. ) ;
#97 = PERSON_AND_ORGANIZATION ( #1187, #124 ) ;
#98 = VECTOR ( 'NONE', #811, 1000.000000000000000 ) ;
#99 = ORIENTED_EDGE ( 'NONE', *, *, #691, .F. ) ;
#100 = DIRECTION ( 'NONE',  ( 0.000000000000000000, 1.000000000000000000, 0.000000000000000000 ) ) ;
#101 = DIRECTION ( 'NONE',  ( -0.000000000000000000, 1.000000000000000000, -0.000000000000000000 ) ) ;
#102 = ADVANCED_FACE ( 'NONE', ( #636 ), #833, .F. ) ;
#103 = DIRECTION ( 'NONE',  ( 0.000000000000000000, 0.000000000000000000, -1.000000000000000000 ) ) ;
#104 = PERSON_AND_ORGANIZATION_ROLE ( 'creator' ) ;
#105 = CIRCLE ( 'NONE', #1045, 9.999999999999980460 ) ;
#106 = DIRECTION ( 'NONE',  ( 1.000000000000000000, -0.000000000000000000, 0.000000000000000000 ) ) ;
#107 = CARTESIAN_POINT ( 'NONE',  ( 19.99999999999938183, -28.28427124746190913, -163.1250000000001137 ) ) ;
#108 = ORIENTED_EDGE ( 'NONE', *, *, #419, .F. ) ;
#109 = CARTESIAN_POINT ( 'NONE',  ( 19.99999999999938183, 0.000000000000000000, -160.0000000000000853 ) ) ;
#110 = EDGE_CURVE ( 'NONE', #255, #324, #327, .T. ) ;
#111 = DIRECTION ( 'NONE',  ( 1.000000000000000000, 0.000000000000000000, 0.000000000000000000 ) ) ;
#112 = EDGE_LOOP ( 'NONE', ( #617, #259, #1283, #595 ) ) ;
#113 = DIRECTION ( 'NONE',  ( -0.000000000000000000, 1.000000000000000000, -0.000000000000000000 ) ) ;
#114 = DIRECTION ( 'NONE',  ( 0.000000000000000000, 1.000000000000000000, -0.000000000000000000 ) ) ;
#115 = DIRECTION ( 'NONE',  ( 0.000000000000000000, 0.000000000000000000, -1.000000000000000000 ) ) ;
#116 = AXIS2_PLACEMENT_3D ( 'NONE', #814, #1047, #1221 ) ;
#117 = PERSON_AND_ORGANIZATION ( #1187, #124 ) ;
#118 = ORIENTED_EDGE ( 'NONE', *, *, #689, .T. ) ;
#119 = EDGE_CURVE ( 'NONE', #357, #713, #1203, .T. ) ;
#120 = CARTESIAN_POINT ( 'NONE',  ( 19.99999999999938183, -28.28427124746190913, -236.8749999999999147 ) ) ;
#121 = FACE_BOUND ( 'NONE', #779, .T. ) ;
#122 = CARTESIAN_POINT ( 'NONE',  ( 310.0000000000006253, 0.000000000000000000, -160.0000000000000853 ) ) ;
#123 = AXIS2_PLACEMENT_3D ( 'NONE', #1249, #126, #326 ) ;
#124 = ORGANIZATION ( 'UNSPECIFIED', 'UNSPECIFIED', '' ) ;
#125 = EDGE_CURVE ( 'NONE', #909, #255, #27, .T. ) ;
#126 = DIRECTION ( 'NONE',  ( -0.000000000000000000, 1.000000000000000000, -0.000000000000000000 ) ) ;
#127 = AXIS2_PLACEMENT_3D ( 'NONE', #156, #971, #374 ) ;
#128 = CARTESIAN_POINT ( 'NONE',  ( 89.99999999999938893, -28.28427124746190913, -160.0000000000000853 ) ) ;
#129 = EDGE_LOOP ( 'NONE', ( #1207, #187 ) ) ;
#130 = AXIS2_PLACEMENT_3D ( 'NONE', #198, #834, #103 ) ;
#131 = LINE ( 'NONE', #654, #1338 ) ;
#132 = FACE_BOUND ( 'NONE', #129, .T. ) ;
#133 = ORIENTED_EDGE ( 'NONE', *, *, #557, .T. ) ;
#134 = DIRECTION ( 'NONE',  ( 0.000000000000000000, 0.000000000000000000, -1.000000000000000000 ) ) ;
#135 = DIRECTION ( 'NONE',  ( -0.000000000000000000, 1.000000000000000000, -0.000000000000000000 ) ) ;
#136 = VECTOR ( 'NONE', #1259, 1000.000000000000000 ) ;
#137 = ORIENTED_EDGE ( 'NONE', *, *, #741, .F. ) ;
#138 = CARTESIAN_POINT ( 'NONE',  ( 19.99999999999990763, 3.000000000000000000, -383.1249999999999432 ) ) ;
#139 = FACE_OUTER_BOUND ( 'NONE', #746, .T. ) ;
#140 = ORIENTED_EDGE ( 'NONE', *, *, #119, .T. ) ;
#141 = CARTESIAN_POINT ( 'NONE',  ( 380.0000000000001137, -8.838834764831844382, -16.87500000000001776 ) ) ;
#142 = DIRECTION ( 'NONE',  ( 0.000000000000000000, 0.000000000000000000, 1.000000000000000000 ) ) ;
#143 = EDGE_CURVE ( 'NONE', #670, #989, #533, .T. ) ;
#144 = AXIS2_PLACEMENT_3D ( 'NONE', #1175, #350, #766 ) ;
#145 = ORIENTED_EDGE ( 'NONE', *, *, #277, .F. ) ;
#146 = VERTEX_POINT ( 'NONE', #306 ) ;
#147 = VERTEX_POINT ( 'NONE', #232 ) ;
#148 = DIRECTION ( 'NONE',  ( 0.000000000000000000, 0.000000000000000000, 1.000000000000000000 ) ) ;
#149 = DIRECTION ( 'NONE',  ( 0.000000000000000000, 0.000000000000000000, -1.000000000000000000 ) ) ;
#150 = VECTOR ( 'NONE', #164, 1000.000000000000000 ) ;
#151 = AXIS2_PLACEMENT_3D ( 'NONE', #1002, #915, #1321 ) ;
#152 = EDGE_CURVE ( 'NONE', #862, #1339, #659, .T. ) ;
#153 = ORIENTED_EDGE ( 'NONE', *, *, #771, .F. ) ;
#154 = ORIENTED_EDGE ( 'NONE', *, *, #1066, .T. ) ;
#155 = ORIENTED_EDGE ( 'NONE', *, *, #771, .T. ) ;
#156 = CARTESIAN_POINT ( 'NONE',  ( 159.9999999999999147, 0.000000000000000000, -379.9999999999999432 ) ) ;
#157 = CARTESIAN_POINT ( 'NONE',  ( 159.9999999999999147, -28.28427124746190913, -20.00000000000007461 ) ) ;
#158 = PLANE ( 'NONE',  #151 ) ;
#159 = EDGE_CURVE ( 'NONE', #1293, #532, #1058, .T. ) ;
#160 = ORIENTED_EDGE ( 'NONE', *, *, #653, .T. ) ;
#161 = EDGE_CURVE ( 'NONE', #373, #970, #1312, .T. ) ;
#162 = VECTOR ( 'NONE', #846, 1000.000000000000000 ) ;
#163 = EDGE_LOOP ( 'NONE', ( #966, #1181, #1267, #347 ) ) ;
#164 = DIRECTION ( 'NONE',  ( 0.000000000000000000, 0.000000000000000000, -1.000000000000000000 ) ) ;
#165 = CARTESIAN_POINT ( 'NONE',  ( 19.99999999999938183, 0.000000000000000000, -243.1249999999999432 ) ) ;
#166 = CARTESIAN_POINT ( 'NONE',  ( 0.000000000000000000, 0.000000000000000000, -400.0000000000000000 ) ) ;
#167 = AXIS2_PLACEMENT_3D ( 'NONE', #1032, #305, #1111 ) ;
#168 = EDGE_LOOP ( 'NONE', ( #1174, #1231, #285, #230 ) ) ;
#169 = SECURITY_CLASSIFICATION ( '', '', #752 ) ;
#170 = EDGE_CURVE ( 'NONE', #1031, #1296, #492, .T. ) ;
#171 = EDGE_LOOP ( 'NONE', ( #461, #422, #975, #1318 ) ) ;
#172 = DIRECTION ( 'NONE',  ( 1.000000000000000000, 0.000000000000000000, 0.000000000000000000 ) ) ;
#173 = FACE_BOUND ( 'NONE', #1077, .T. ) ;
#174 = CARTESIAN_POINT ( 'NONE',  ( 400.0000000000000000, 3.000000000000000000, 0.000000000000000000 ) ) ;
#175 = CIRCLE ( 'NONE', #1024, 10.00000000000000888 ) ;
#176 = ORIENTED_EDGE ( 'NONE', *, *, #575, .T. ) ;
#177 = ORIENTED_EDGE ( 'NONE', *, *, #514, .F. ) ;
#178 = EDGE_CURVE ( 'NONE', #1089, #366, #1336, .T. ) ;
#179 = CYLINDRICAL_SURFACE ( 'NONE', #525, 3.124999999999999112 ) ;
#180 = FACE_OUTER_BOUND ( 'NONE', #1272, .T. ) ;
#181 = AXIS2_PLACEMENT_3D ( 'NONE', #857, #760, #39 ) ;
#182 = DIRECTION ( 'NONE',  ( -0.000000000000000000, 1.000000000000000000, -0.000000000000000000 ) ) ;
#183 = APPLICATION_CONTEXT ( 'configuration controlled 3d designs of mechanical parts and assemblies' ) ;
#184 = AXIS2_PLACEMENT_3D ( 'NONE', #619, #922, #939 ) ;
#185 = ORIENTED_EDGE ( 'NONE', *, *, #540, .F. ) ;
#186 = DIRECTION ( 'NONE',  ( 0.000000000000000000, 0.000000000000000000, 1.000000000000000000 ) ) ;
#187 = ORIENTED_EDGE ( 'NONE', *, *, #1087, .F. ) ;
#188 = DIRECTION ( 'NONE',  ( -0.000000000000000000, 1.000000000000000000, -0.000000000000000000 ) ) ;
#189 = DIRECTION ( 'NONE',  ( -1.000000000000000000, 0.000000000000000000, 0.000000000000000000 ) ) ;
#190 = EDGE_CURVE ( 'NONE', #146, #251, #722, .T. ) ;
#191 = ORIENTED_EDGE ( 'NONE', *, *, #836, .F. ) ;
#192 = VECTOR ( 'NONE', #1083, 1000.000000000000000 ) ;
#193 = AXIS2_PLACEMENT_3D ( 'NONE', #560, #1099, #786 ) ;
#194 = ORIENTED_EDGE ( 'NONE', *, *, #125, .F. ) ;
#195 = DIRECTION ( 'NONE',  ( -0.000000000000000000, 1.000000000000000000, -0.000000000000000000 ) ) ;
#196 = VERTEX_POINT ( 'NONE', #333 ) ;
#197 = LINE ( 'NONE', #603, #951 ) ;
#198 = CARTESIAN_POINT ( 'NONE',  ( 380.0000000000001137, 0.000000000000000000, -20.00000000000001776 ) ) ;
#199 = ORIENTED_EDGE ( 'NONE', *, *, #1291, .T. ) ;
#200 = EDGE_CURVE ( 'NONE', #372, #1059, #1035, .T. ) ;
#201 = AXIS2_PLACEMENT_3D ( 'NONE', #1034, #307, #518 ) ;
#202 = VERTEX_POINT ( 'NONE', #225 ) ;
#203 = PLANE ( 'NONE',  #886 ) ;
#204 = DIRECTION ( 'NONE',  ( -0.000000000000000000, 1.000000000000000000, -0.000000000000000000 ) ) ;
#205 = DIRECTION ( 'NONE',  ( 0.000000000000000000, 0.000000000000000000, 1.000000000000000000 ) ) ;
#206 = APPROVAL_STATUS ( 'not_yet_approved' ) ;
#207 = EDGE_CURVE ( 'NONE', #713, #668, #6, .T. ) ;
#208 = CIRCLE ( 'NONE', #71, 9.999999999999980460 ) ;
#209 = ORIENTED_EDGE ( 'NONE', *, *, #726, .T. ) ;
#210 = CYLINDRICAL_SURFACE ( 'NONE', #15, 10.00000000000000888 ) ;
#211 = DIRECTION ( 'NONE',  ( -0.000000000000000000, -0.000000000000000000, 1.000000000000000000 ) ) ;
#212 = FACE_OUTER_BOUND ( 'NONE', #365, .T. ) ;
#213 = ADVANCED_FACE ( 'NONE', ( #517 ), #927, .F. ) ;
#214 = CIRCLE ( 'NONE', #453, 3.124999999999988898 ) ;
#215 = ORIENTED_EDGE ( 'NONE', *, *, #472, .T. ) ;
#216 = CYLINDRICAL_SURFACE ( 'NONE', #123, 3.124999999999988898 ) ;
#217 = DIRECTION ( 'NONE',  ( 0.000000000000000000, 0.000000000000000000, -1.000000000000000000 ) ) ;
#218 = CARTESIAN_POINT ( 'NONE',  ( 144.0000000000000568, 3.000000000000000000, -203.1250000000000000 ) ) ;
#219 = CALENDAR_DATE ( 2024, 25, 9 ) ;
#220 = EDGE_LOOP ( 'NONE', ( #1286, #1188, #118, #1003 ) ) ;
#221 = CIRCLE ( 'NONE', #1004, 3.124999999999999112 ) ;
#222 = CIRCLE ( 'NONE', #1027, 3.125000000000016875 ) ;
#223 = CARTESIAN_POINT ( 'NONE',  ( 89.99999999999938893, 0.000000000000000000, -170.0000000000000853 ) ) ;
#224 = APPROVAL ( #626, 'UNSPECIFIED' ) ;
#225 = CARTESIAN_POINT ( 'NONE',  ( 310.0000000000006253, 3.000000000000000000, -170.0000000000000568 ) ) ;
#226 = CARTESIAN_POINT ( 'NONE',  ( 144.0000000000000568, -8.838834764831844382, -196.8750000000000284 ) ) ;
#227 = EDGE_CURVE ( 'NONE', #916, #668, #316, .T. ) ;
#228 = CIRCLE ( 'NONE', #1107, 3.124999999999988898 ) ;
#229 = APPLICATION_PROTOCOL_DEFINITION ( 'international standard', 'config_control_design', 1994, #956 ) ;
#230 = ORIENTED_EDGE ( 'NONE', *, *, #3, .T. ) ;
#231 = CARTESIAN_POINT ( 'NONE',  ( 380.0000000000001137, -8.838834764831844382, -383.1250000000000000 ) ) ;
#232 = CARTESIAN_POINT ( 'NONE',  ( 0.000000000000000000, 3.000000000000000000, 0.000000000000000000 ) ) ;
#233 = DIRECTION ( 'NONE',  ( 0.000000000000000000, 0.000000000000000000, -1.000000000000000000 ) ) ;
#234 = UNCERTAINTY_MEASURE_WITH_UNIT (LENGTH_MEASURE( 1.000000000000000082E-05 ), #261, 'distance_accuracy_value', 'NONE');
#235 = ADVANCED_FACE ( 'NONE', ( #743, #1152, #1053, #441, #121, #239, #957, #31, #451, #977, #132, #650, #445, #662, #1075, #139 ), #20, .F. ) ;
#236 = APPROVAL_STATUS ( 'not_yet_approved' ) ;
#237 = ORIENTED_EDGE ( 'NONE', *, *, #227, .F. ) ;
#238 = CARTESIAN_POINT ( 'NONE',  ( 159.9999999999994031, 3.000000000000000000, -239.9999999999999432 ) ) ;
#239 = FACE_BOUND ( 'NONE', #72, .T. ) ;
#240 = CARTESIAN_POINT ( 'NONE',  ( 19.99999999999990763, -8.838834764831844382, -20.00000000000007461 ) ) ;
#241 = AXIS2_PLACEMENT_3D ( 'NONE', #358, #866, #30 ) ;
#242 = FACE_OUTER_BOUND ( 'NONE', #402, .T. ) ;
#243 = CIRCLE ( 'NONE', #1049, 10.00000000000000888 ) ;
#244 = DIRECTION ( 'NONE',  ( -0.000000000000000000, 1.000000000000000000, -0.000000000000000000 ) ) ;
#245 = EDGE_LOOP ( 'NONE', ( #330, #1243, #1120, #744 ) ) ;
#246 = LINE ( 'NONE', #454, #894 ) ;
#247 = EDGE_CURVE ( 'NONE', #1269, #568, #228, .T. ) ;
#248 = ORIENTED_EDGE ( 'NONE', *, *, #1014, .F. ) ;
#249 = FACE_OUTER_BOUND ( 'NONE', #797, .T. ) ;
#250 = CARTESIAN_POINT ( 'NONE',  ( 89.99999999999938893, 0.000000000000000000, -249.9999999999999432 ) ) ;
#251 = VERTEX_POINT ( 'NONE', #563 ) ;
#252 = LINE ( 'NONE', #987, #1304 ) ;
#253 = CARTESIAN_POINT ( 'NONE',  ( 159.9999999999994031, 0.000000000000000000, -239.9999999999999432 ) ) ;
#254 = AXIS2_PLACEMENT_3D ( 'NONE', #1240, #410, #1157 ) ;
#255 = VERTEX_POINT ( 'NONE', #543 ) ;
#256 = ORIENTED_EDGE ( 'NONE', *, *, #1134, .F. ) ;
#257 = CARTESIAN_POINT ( 'NONE',  ( 144.0000000000000568, 3.000000000000000000, -200.0000000000000000 ) ) ;
#258 = EDGE_CURVE ( 'NONE', #196, #991, #556, .T. ) ;
#259 = ORIENTED_EDGE ( 'NONE', *, *, #598, .F. ) ;
#260 = LINE ( 'NONE', #791, #1237 ) ;
#261 =( LENGTH_UNIT ( ) NAMED_UNIT ( * ) SI_UNIT ( .MILLI., .METRE. ) );
#262 = AXIS2_PLACEMENT_3D ( 'NONE', #1315, #188, #389 ) ;
#263 = VECTOR ( 'NONE', #62, 1000.000000000000000 ) ;
#264 = EDGE_LOOP ( 'NONE', ( #32, #304, #430, #1080 ) ) ;
#265 = ORIENTED_EDGE ( 'NONE', *, *, #631, .T. ) ;
#266 = ORIENTED_EDGE ( 'NONE', *, *, #309, .T. ) ;
#267 = DIRECTION ( 'NONE',  ( -0.000000000000000000, 1.000000000000000000, -0.000000000000000000 ) ) ;
#268 = APPROVAL ( #236, 'UNSPECIFIED' ) ;
#269 = DIRECTION ( 'NONE',  ( -0.000000000000000000, 1.000000000000000000, -0.000000000000000000 ) ) ;
#270 = AXIS2_PLACEMENT_3D ( 'NONE', #174, #189, #477 ) ;
#271 = VECTOR ( 'NONE', #182, 1000.000000000000000 ) ;
#272 = EDGE_CURVE ( 'NONE', #1331, #690, #959, .T. ) ;
#273 = ORIENTED_EDGE ( 'NONE', *, *, #836, .T. ) ;
#274 = ORIENTED_EDGE ( 'NONE', *, *, #1134, .T. ) ;
#275 = CARTESIAN_POINT ( 'NONE',  ( 256.0000000000000000, -8.838834764831844382, -203.1250000000000000 ) ) ;
#276 = CARTESIAN_POINT ( 'NONE',  ( 19.99999999999938183, -28.28427124746190913, -160.0000000000000853 ) ) ;
#277 = EDGE_CURVE ( 'NONE', #353, #506, #311, .T. ) ;
#278 = ORIENTED_EDGE ( 'NONE', *, *, #795, .T. ) ;
#279 = ORIENTED_EDGE ( 'NONE', *, *, #1310, .F. ) ;
#280 = CARTESIAN_POINT ( 'NONE',  ( 19.99999999999990763, -8.838834764831844382, -379.9999999999999432 ) ) ;
#281 = CARTESIAN_POINT ( 'NONE',  ( 380.0000000000001137, 3.000000000000000000, -383.1250000000000000 ) ) ;
#282 = FACE_OUTER_BOUND ( 'NONE', #1005, .T. ) ;
#283 = AXIS2_PLACEMENT_3D ( 'NONE', #1281, #1071, #362 ) ;
#284 = ORIENTED_EDGE ( 'NONE', *, *, #69, .F. ) ;
#285 = ORIENTED_EDGE ( 'NONE', *, *, #456, .T. ) ;
#286 = DIRECTION ( 'NONE',  ( -0.000000000000000000, 1.000000000000000000, -0.000000000000000000 ) ) ;
#287 = FACE_BOUND ( 'NONE', #1325, .T. ) ;
#288 = LINE ( 'NONE', #1112, #271 ) ;
#289 = ORIENTED_EDGE ( 'NONE', *, *, #125, .T. ) ;
#290 = ADVANCED_FACE ( 'NONE', ( #352 ), #1176, .F. ) ;
#291 = DIRECTION ( 'NONE',  ( -0.000000000000000000, 1.000000000000000000, -0.000000000000000000 ) ) ;
#292 = DIRECTION ( 'NONE',  ( 0.000000000000000000, -1.000000000000000000, 0.000000000000000000 ) ) ;
#293 = FACE_OUTER_BOUND ( 'NONE', #735, .T. ) ;
#294 = ORIENTED_EDGE ( 'NONE', *, *, #348, .F. ) ;
#295 = EDGE_LOOP ( 'NONE', ( #65, #1229 ) ) ;
#296 = CYLINDRICAL_SURFACE ( 'NONE', #702, 3.124999999999999112 ) ;
#297 = EDGE_LOOP ( 'NONE', ( #80, #1327 ) ) ;
#298 = FACE_BOUND ( 'NONE', #473, .T. ) ;
#299 = ADVANCED_FACE ( 'NONE', ( #1169 ), #1163, .F. ) ;
#300 = LINE ( 'NONE', #418, #1154 ) ;
#301 = DIRECTION ( 'NONE',  ( 0.000000000000000000, 0.000000000000000000, -1.000000000000000000 ) ) ;
#302 = CIRCLE ( 'NONE', #1252, 3.124999999999988898 ) ;
#303 = LOCAL_TIME ( 11, 5, 56.00000000000000000, #1262 ) ;
#304 = ORIENTED_EDGE ( 'NONE', *, *, #549, .T. ) ;
#305 = DIRECTION ( 'NONE',  ( 0.000000000000000000, 1.000000000000000000, 0.000000000000000000 ) ) ;
#306 = CARTESIAN_POINT ( 'NONE',  ( 159.9999999999994031, 0.000000000000000000, -243.1249999999999147 ) ) ;
#307 = DIRECTION ( 'NONE',  ( -0.000000000000000000, 1.000000000000000000, -0.000000000000000000 ) ) ;
#308 = PRODUCT_RELATED_PRODUCT_CATEGORY ( 'detail', '', ( #1298 ) ) ;
#309 = EDGE_CURVE ( 'NONE', #319, #984, #243, .T. ) ;
#310 = DATE_TIME_ROLE ( 'classification_date' ) ;
#311 = CIRCLE ( 'NONE', #64, 9.999999999999980460 ) ;
#312 = ORIENTED_EDGE ( 'NONE', *, *, #708, .T. ) ;
#313 = CARTESIAN_POINT ( 'NONE',  ( 400.0000000000000000, 3.000000000000000000, 0.000000000000000000 ) ) ;
#314 = CARTESIAN_POINT ( 'NONE',  ( 159.9999999999999147, 0.000000000000000000, -20.00000000000007461 ) ) ;
#315 = DIRECTION ( 'NONE',  ( -0.000000000000000000, 1.000000000000000000, -0.000000000000000000 ) ) ;
#316 = CIRCLE ( 'NONE', #1009, 3.124999999999999112 ) ;
#317 = EDGE_CURVE ( 'NONE', #1299, #640, #1065, .T. ) ;
#318 = CIRCLE ( 'NONE', #1180, 3.124999999999988898 ) ;
#319 = VERTEX_POINT ( 'NONE', #250 ) ;
#320 = DIRECTION ( 'NONE',  ( 0.000000000000000000, 1.000000000000000000, 0.000000000000000000 ) ) ;
#321 = CARTESIAN_POINT ( 'NONE',  ( 19.99999999999938183, 3.000000000000000000, -239.9999999999999432 ) ) ;
#322 = DIRECTION ( 'NONE',  ( 0.000000000000000000, 0.000000000000000000, -1.000000000000000000 ) ) ;
#323 = CIRCLE ( 'NONE', #1247, 3.124999999999988898 ) ;
#324 = VERTEX_POINT ( 'NONE', #1285 ) ;
#325 = AXIS2_PLACEMENT_3D ( 'NONE', #1039, #1044, #736 ) ;
#326 = DIRECTION ( 'NONE',  ( 0.000000000000000000, 0.000000000000000000, 1.000000000000000000 ) ) ;
#327 = LINE ( 'NONE', #107, #363 ) ;
#328 = ORIENTED_EDGE ( 'NONE', *, *, #1332, .F. ) ;
#329 = CALENDAR_DATE ( 2024, 25, 9 ) ;
#330 = ORIENTED_EDGE ( 'NONE', *, *, #272, .F. ) ;
#331 = AXIS2_PLACEMENT_3D ( 'NONE', #2, #205, #412 ) ;
#332 = DIRECTION ( 'NONE',  ( 0.000000000000000000, 1.000000000000000000, -0.000000000000000000 ) ) ;
#333 = CARTESIAN_POINT ( 'NONE',  ( 400.0000000000000000, 0.000000000000000000, 0.000000000000000000 ) ) ;
#334 = ADVANCED_FACE ( 'NONE', ( #1054 ), #601, .F. ) ;
#335 = CARTESIAN_POINT ( 'NONE',  ( 0.000000000000000000, 3.000000000000000000, -400.0000000000000000 ) ) ;
#336 = PERSON_AND_ORGANIZATION ( #1187, #124 ) ;
#337 = CARTESIAN_POINT ( 'NONE',  ( 380.0000000000001137, 0.000000000000000000, -380.0000000000000000 ) ) ;
#338 = DIRECTION ( 'NONE',  ( 0.000000000000000000, 0.000000000000000000, 1.000000000000000000 ) ) ;
#339 = ORIENTED_EDGE ( 'NONE', *, *, #356, .F. ) ;
#340 = ADVANCED_FACE ( 'NONE', ( #1110 ), #901, .F. ) ;
#341 = EDGE_LOOP ( 'NONE', ( #622, #711 ) ) ;
#342 = CARTESIAN_POINT ( 'NONE',  ( 159.9999999999994031, 3.000000000000000000, -160.0000000000000853 ) ) ;
#343 = CARTESIAN_POINT ( 'NONE',  ( 19.99999999999990763, 0.000000000000000000, -379.9999999999999432 ) ) ;
#344 = ORIENTED_EDGE ( 'NONE', *, *, #708, .F. ) ;
#345 = AXIS2_PLACEMENT_3D ( 'NONE', #81, #832, #502 ) ;
#346 = CARTESIAN_POINT ( 'NONE',  ( 19.99999999999990763, 0.000000000000000000, -20.00000000000007461 ) ) ;
#347 = ORIENTED_EDGE ( 'NONE', *, *, #377, .T. ) ;
#348 = EDGE_CURVE ( 'NONE', #147, #1043, #911, .T. ) ;
#349 = ORIENTED_EDGE ( 'NONE', *, *, #159, .T. ) ;
#350 = DIRECTION ( 'NONE',  ( -0.000000000000000000, 1.000000000000000000, -0.000000000000000000 ) ) ;
#351 = AXIS2_PLACEMENT_3D ( 'NONE', #346, #762, #680 ) ;
#352 = FACE_OUTER_BOUND ( 'NONE', #1051, .T. ) ;
#353 = VERTEX_POINT ( 'NONE', #1326 ) ;
#354 = CARTESIAN_POINT ( 'NONE',  ( 144.0000000000000568, 0.000000000000000000, -196.8750000000000284 ) ) ;
#355 = FACE_OUTER_BOUND ( 'NONE', #405, .T. ) ;
#356 = EDGE_CURVE ( 'NONE', #568, #1269, #376, .T. ) ;
#357 = VERTEX_POINT ( 'NONE', #401 ) ;
#358 = CARTESIAN_POINT ( 'NONE',  ( 19.99999999999938183, -28.28427124746190913, -239.9999999999999432 ) ) ;
#359 = CARTESIAN_POINT ( 'NONE',  ( 159.9999999999994031, 0.000000000000000000, -160.0000000000000853 ) ) ;
#360 = VERTEX_POINT ( 'NONE', #1114 ) ;
#361 = DIRECTION ( 'NONE',  ( -0.000000000000000000, 1.000000000000000000, -0.000000000000000000 ) ) ;
#362 = DIRECTION ( 'NONE',  ( 0.000000000000000000, 0.000000000000000000, -1.000000000000000000 ) ) ;
#363 = VECTOR ( 'NONE', #424, 1000.000000000000000 ) ;
#364 = ORIENTED_EDGE ( 'NONE', *, *, #1268, .F. ) ;
#365 = EDGE_LOOP ( 'NONE', ( #408, #904, #884, #468 ) ) ;
#366 = VERTEX_POINT ( 'NONE', #1205 ) ;
#367 = ADVANCED_FACE ( 'NONE', ( #1011 ), #179, .F. ) ;
#368 = DIRECTION ( 'NONE',  ( -0.000000000000000000, 1.000000000000000000, -0.000000000000000000 ) ) ;
#369 = CARTESIAN_POINT ( 'NONE',  ( 159.9999999999994031, 0.000000000000000000, -163.1250000000000853 ) ) ;
#370 = AXIS2_PLACEMENT_3D ( 'NONE', #635, #748, #641 ) ;
#371 = VECTOR ( 'NONE', #896, 1000.000000000000000 ) ;
#372 = VERTEX_POINT ( 'NONE', #394 ) ;
#373 = VERTEX_POINT ( 'NONE', #482 ) ;
#374 = DIRECTION ( 'NONE',  ( 0.000000000000000000, 0.000000000000000000, -1.000000000000000000 ) ) ;
#375 = FACE_OUTER_BOUND ( 'NONE', #564, .T. ) ;
#376 = CIRCLE ( 'NONE', #1345, 3.124999999999988898 ) ;
#377 = EDGE_CURVE ( 'NONE', #443, #532, #1214, .T. ) ;
#378 = CARTESIAN_POINT ( 'NONE',  ( 0.000000000000000000, 0.000000000000000000, 0.000000000000000000 ) ) ;
#379 = AXIS2_PLACEMENT_3D ( 'NONE', #1041, #929, #322 ) ;
#380 = EDGE_LOOP ( 'NONE', ( #284, #47, #628, #1073 ) ) ;
#381 = VERTEX_POINT ( 'NONE', #73 ) ;
#382 = FACE_OUTER_BOUND ( 'NONE', #1313, .T. ) ;
#383 = CARTESIAN_POINT ( 'NONE',  ( 256.0000000000000000, -8.838834764831844382, -200.0000000000000000 ) ) ;
#384 = AXIS2_PLACEMENT_3D ( 'NONE', #314, #1131, #737 ) ;
#385 = ORIENTED_EDGE ( 'NONE', *, *, #491, .T. ) ;
#386 = AXIS2_PLACEMENT_3D ( 'NONE', #940, #1064, #301 ) ;
#387 = VERTEX_POINT ( 'NONE', #905 ) ;
#388 = CARTESIAN_POINT ( 'NONE',  ( 310.0000000000006253, -28.28427124746190913, -160.0000000000000853 ) ) ;
#389 = DIRECTION ( 'NONE',  ( 0.000000000000000000, 0.000000000000000000, 1.000000000000000000 ) ) ;
#390 = DIRECTION ( 'NONE',  ( -0.000000000000000000, 1.000000000000000000, -0.000000000000000000 ) ) ;
#391 = AXIS2_PLACEMENT_3D ( 'NONE', #976, #860, #1168 ) ;
#392 = ADVANCED_FACE ( 'NONE', ( #804 ), #494, .F. ) ;
#393 = VERTEX_POINT ( 'NONE', #1224 ) ;
#394 = CARTESIAN_POINT ( 'NONE',  ( 89.99999999999938893, 0.000000000000000000, -150.0000000000000853 ) ) ;
#395 = LINE ( 'NONE', #906, #98 ) ;
#396 = DIRECTION ( 'NONE',  ( 0.000000000000000000, 0.000000000000000000, -1.000000000000000000 ) ) ;
#397 = VECTOR ( 'NONE', #267, 1000.000000000000000 ) ;
#398 = CIRCLE ( 'NONE', #130, 3.124999999999999112 ) ;
#399 = ADVANCED_FACE ( 'NONE', ( #895 ), #296, .F. ) ;
#400 = EDGE_LOOP ( 'NONE', ( #51, #995, #1025, #87 ) ) ;
#401 = CARTESIAN_POINT ( 'NONE',  ( 159.9999999999999147, 0.000000000000000000, -16.87500000000007461 ) ) ;
#402 = EDGE_LOOP ( 'NONE', ( #465, #763, #154, #1102 ) ) ;
#403 = DIRECTION ( 'NONE',  ( 0.000000000000000000, 0.000000000000000000, 1.000000000000000000 ) ) ;
#404 = CARTESIAN_POINT ( 'NONE',  ( 159.9999999999994031, -28.28427124746190913, -239.9999999999999432 ) ) ;
#405 = EDGE_LOOP ( 'NONE', ( #1090, #802, #876, #40 ) ) ;
#406 = ORIENTED_EDGE ( 'NONE', *, *, #734, .T. ) ;
#407 = CC_DESIGN_PERSON_AND_ORGANIZATION_ASSIGNMENT ( #97, #531, ( #169 ) ) ;
#408 = ORIENTED_EDGE ( 'NONE', *, *, #507, .F. ) ;
#409 = FACE_OUTER_BOUND ( 'NONE', #245, .T. ) ;
#410 = DIRECTION ( 'NONE',  ( 0.000000000000000000, 1.000000000000000000, 0.000000000000000000 ) ) ;
#411 = ADVANCED_FACE ( 'NONE', ( #382 ), #798, .F. ) ;
#412 = DIRECTION ( 'NONE',  ( 1.000000000000000000, 0.000000000000000000, -0.000000000000000000 ) ) ;
#413 = AXIS2_PLACEMENT_3D ( 'NONE', #440, #1264, #23 ) ;
#414 = LOCAL_TIME ( 11, 5, 56.00000000000000000, #538 ) ;
#415 = EDGE_LOOP ( 'NONE', ( #153, #720 ) ) ;
#416 = CARTESIAN_POINT ( 'NONE',  ( 400.0000000000000000, 3.000000000000000000, -400.0000000000000000 ) ) ;
#417 = DIRECTION ( 'NONE',  ( -0.000000000000000000, 1.000000000000000000, -0.000000000000000000 ) ) ;
#418 = CARTESIAN_POINT ( 'NONE',  ( 89.99999999999938893, -28.28427124746190913, -170.0000000000000853 ) ) ;
#419 = EDGE_CURVE ( 'NONE', #202, #1123, #105, .T. ) ;
#420 = APPROVAL_ROLE ( '' ) ;
#421 = VECTOR ( 'NONE', #361, 1000.000000000000000 ) ;
#422 = ORIENTED_EDGE ( 'NONE', *, *, #119, .F. ) ;
#423 = LINE ( 'NONE', #231, #36 ) ;
#424 = DIRECTION ( 'NONE',  ( -0.000000000000000000, 1.000000000000000000, -0.000000000000000000 ) ) ;
#425 = CARTESIAN_POINT ( 'NONE',  ( 380.0000000000001137, 3.000000000000000000, -380.0000000000000000 ) ) ;
#426 = EDGE_CURVE ( 'NONE', #787, #1293, #221, .T. ) ;
#427 = VECTOR ( 'NONE', #204, 1000.000000000000000 ) ;
#428 = CARTESIAN_POINT ( 'NONE',  ( 89.99999999999938893, 3.000000000000000000, -160.0000000000000853 ) ) ;
#429 = DIRECTION ( 'NONE',  ( 0.000000000000000000, 0.000000000000000000, 1.000000000000000000 ) ) ;
#430 = ORIENTED_EDGE ( 'NONE', *, *, #698, .T. ) ;
#431 = ORIENTED_EDGE ( 'NONE', *, *, #472, .F. ) ;
#432 = EDGE_CURVE ( 'NONE', #670, #381, #260, .T. ) ;
#433 = AXIS2_PLACEMENT_3D ( 'NONE', #878, #135, #42 ) ;
#434 = FACE_OUTER_BOUND ( 'NONE', #1097, .T. ) ;
#435 = DIRECTION ( 'NONE',  ( -0.000000000000000000, 1.000000000000000000, -0.000000000000000000 ) ) ;
#436 = ORIENTED_EDGE ( 'NONE', *, *, #575, .F. ) ;
#437 = AXIS2_PLACEMENT_3D ( 'NONE', #908, #594, #396 ) ;
#438 = CIRCLE ( 'NONE', #961, 9.999999999999980460 ) ;
#439 = EDGE_CURVE ( 'NONE', #324, #501, #764, .T. ) ;
#440 = CARTESIAN_POINT ( 'NONE',  ( 380.0000000000001137, -8.838834764831844382, -380.0000000000000000 ) ) ;
#441 = FACE_BOUND ( 'NONE', #582, .T. ) ;
#442 = VERTEX_POINT ( 'NONE', #1171 ) ;
#443 = VERTEX_POINT ( 'NONE', #1287 ) ;
#444 = CARTESIAN_POINT ( 'NONE',  ( 19.99999999999938183, 3.000000000000000000, -243.1249999999999432 ) ) ;
#445 = FACE_BOUND ( 'NONE', #452, .T. ) ;
#446 = ORIENTED_EDGE ( 'NONE', *, *, #1022, .T. ) ;
#447 = EDGE_CURVE ( 'NONE', #1155, #499, #1128, .T. ) ;
#448 = ORIENTED_EDGE ( 'NONE', *, *, #691, .T. ) ;
#449 = ORIENTED_EDGE ( 'NONE', *, *, #1167, .F. ) ;
#450 = DIRECTION ( 'NONE',  ( 0.000000000000000000, 1.000000000000000000, 0.000000000000000000 ) ) ;
#451 = FACE_BOUND ( 'NONE', #1202, .T. ) ;
#452 = EDGE_LOOP ( 'NONE', ( #539, #1015 ) ) ;
#453 = AXIS2_PLACEMENT_3D ( 'NONE', #1136, #320, #932 ) ;
#454 = CARTESIAN_POINT ( 'NONE',  ( 380.0000000000001137, -8.838834764831844382, -376.8750000000000000 ) ) ;
#455 = CARTESIAN_POINT ( 'NONE',  ( 380.0000000000001137, -8.838834764831844382, -23.12500000000001776 ) ) ;
#456 = EDGE_CURVE ( 'NONE', #1129, #393, #559, .T. ) ;
#457 = VERTEX_POINT ( 'NONE', #1301 ) ;
#458 = LINE ( 'NONE', #555, #192 ) ;
#459 = AXIS2_PLACEMENT_3D ( 'NONE', #754, #244, #875 ) ;
#460 = DIRECTION ( 'NONE',  ( 0.000000000000000000, 0.000000000000000000, -1.000000000000000000 ) ) ;
#461 = ORIENTED_EDGE ( 'NONE', *, *, #207, .F. ) ;
#462 = CARTESIAN_POINT ( 'NONE',  ( 159.9999999999994031, -28.28427124746190913, -156.8750000000000853 ) ) ;
#463 = DIRECTION ( 'NONE',  ( -0.000000000000000000, 1.000000000000000000, -0.000000000000000000 ) ) ;
#464 = CC_DESIGN_PERSON_AND_ORGANIZATION_ASSIGNMENT ( #117, #9, ( #1298 ) ) ;
#465 = ORIENTED_EDGE ( 'NONE', *, *, #549, .F. ) ;
#466 = EDGE_CURVE ( 'NONE', #589, #818, #252, .T. ) ;
#467 = ORIENTED_EDGE ( 'NONE', *, *, #1142, .F. ) ;
#468 = ORIENTED_EDGE ( 'NONE', *, *, #1117, .T. ) ;
#469 = CARTESIAN_POINT ( 'NONE',  ( 19.99999999999990763, 3.000000000000000000, -376.8749999999999432 ) ) ;
#470 =( NAMED_UNIT ( * ) PLANE_ANGLE_UNIT ( ) SI_UNIT ( $, .RADIAN. ) );
#471 = ORIENTED_EDGE ( 'NONE', *, *, #1300, .F. ) ;
#472 = EDGE_CURVE ( 'NONE', #823, #652, #724, .T. ) ;
#473 = EDGE_LOOP ( 'NONE', ( #899, #985 ) ) ;
#474 = CARTESIAN_POINT ( 'NONE',  ( 19.99999999999938183, 3.000000000000000000, -160.0000000000000853 ) ) ;
#475 = DIRECTION ( 'NONE',  ( 0.000000000000000000, 0.000000000000000000, -1.000000000000000000 ) ) ;
#476 = CIRCLE ( 'NONE', #391, 3.124999999999999112 ) ;
#477 = DIRECTION ( 'NONE',  ( 0.000000000000000000, 0.000000000000000000, 1.000000000000000000 ) ) ;
#478 = AXIS2_PLACEMENT_3D ( 'NONE', #687, #1193, #149 ) ;
#479 = ORIENTED_EDGE ( 'NONE', *, *, #426, .T. ) ;
#480 = ORIENTED_EDGE ( 'NONE', *, *, #1095, .T. ) ;
#481 = CC_DESIGN_PERSON_AND_ORGANIZATION_ASSIGNMENT ( #1056, #104, ( #1265 ) ) ;
#482 = CARTESIAN_POINT ( 'NONE',  ( 19.99999999999938183, 3.000000000000000000, -236.8749999999999147 ) ) ;
#483 = DIRECTION ( 'NONE',  ( 0.000000000000000000, 0.000000000000000000, -1.000000000000000000 ) ) ;
#484 = AXIS2_PLACEMENT_3D ( 'NONE', #712, #291, #186 ) ;
#485 = CARTESIAN_POINT ( 'NONE',  ( 89.99999999999938893, 0.000000000000000000, -239.9999999999999432 ) ) ;
#486 = ORIENTED_EDGE ( 'NONE', *, *, #272, .T. ) ;
#487 = VERTEX_POINT ( 'NONE', #686 ) ;
#488 = CARTESIAN_POINT ( 'NONE',  ( 159.9999999999999147, -28.28427124746190913, -20.00000000000007461 ) ) ;
#489 = LINE ( 'NONE', #416, #627 ) ;
#490 = DIRECTION ( 'NONE',  ( -0.000000000000000000, 1.000000000000000000, -0.000000000000000000 ) ) ;
#491 = EDGE_CURVE ( 'NONE', #501, #324, #569, .T. ) ;
#492 = CIRCLE ( 'NONE', #733, 3.125000000000016875 ) ;
#493 = ORIENTED_EDGE ( 'NONE', *, *, #607, .T. ) ;
#494 = CYLINDRICAL_SURFACE ( 'NONE', #484, 3.124999999999999112 ) ;
#495 = CARTESIAN_POINT ( 'NONE',  ( 380.0000000000001137, 0.000000000000000000, -380.0000000000000000 ) ) ;
#496 = CYLINDRICAL_SURFACE ( 'NONE', #634, 3.124999999999988898 ) ;
#497 = EDGE_CURVE ( 'NONE', #537, #1339, #246, .T. ) ;
#498 = AXIS2_PLACEMENT_3D ( 'NONE', #913, #510, #825 ) ;
#499 = VERTEX_POINT ( 'NONE', #777 ) ;
#500 = DIRECTION ( 'NONE',  ( 0.000000000000000000, 0.000000000000000000, 1.000000000000000000 ) ) ;
#501 = VERTEX_POINT ( 'NONE', #1198 ) ;
#502 = DIRECTION ( 'NONE',  ( 0.000000000000000000, 0.000000000000000000, 1.000000000000000000 ) ) ;
#503 = DIRECTION ( 'NONE',  ( 0.000000000000000000, 0.000000000000000000, -1.000000000000000000 ) ) ;
#504 = AXIS2_PLACEMENT_3D ( 'NONE', #583, #41, #863 ) ;
#505 = VECTOR ( 'NONE', #1241, 1000.000000000000000 ) ;
#506 = VERTEX_POINT ( 'NONE', #1280 ) ;
#507 = EDGE_CURVE ( 'NONE', #989, #931, #1098, .T. ) ;
#508 = ORIENTED_EDGE ( 'NONE', *, *, #1055, .T. ) ;
#509 = ORIENTED_EDGE ( 'NONE', *, *, #161, .F. ) ;
#510 = DIRECTION ( 'NONE',  ( -0.000000000000000000, 1.000000000000000000, -0.000000000000000000 ) ) ;
#511 = CARTESIAN_POINT ( 'NONE',  ( 19.99999999999990763, -8.838834764831844382, -23.12500000000007105 ) ) ;
#512 = LINE ( 'NONE', #1337, #22 ) ;
#513 = PERSON_AND_ORGANIZATION ( #1187, #124 ) ;
#514 = EDGE_CURVE ( 'NONE', #1043, #554, #664, .T. ) ;
#515 = ORIENTED_EDGE ( 'NONE', *, *, #466, .T. ) ;
#516 = DIRECTION ( 'NONE',  ( 0.000000000000000000, -0.000000000000000000, -1.000000000000000000 ) ) ;
#517 = FACE_OUTER_BOUND ( 'NONE', #29, .T. ) ;
#518 = DIRECTION ( 'NONE',  ( 0.000000000000000000, 0.000000000000000000, 1.000000000000000000 ) ) ;
#519 = VECTOR ( 'NONE', #947, 1000.000000000000000 ) ;
#520 = VERTEX_POINT ( 'NONE', #469 ) ;
#521 = CARTESIAN_POINT ( 'NONE',  ( 256.0000000000000000, 0.000000000000000000, -203.1250000000000000 ) ) ;
#522 = CARTESIAN_POINT ( 'NONE',  ( 159.9999999999999147, -28.28427124746190913, -379.9999999999999432 ) ) ;
#523 = FACE_OUTER_BOUND ( 'NONE', #893, .T. ) ;
#524 = PERSON_AND_ORGANIZATION_ROLE ( 'creator' ) ;
#525 = AXIS2_PLACEMENT_3D ( 'NONE', #817, #596, #700 ) ;
#526 = CARTESIAN_POINT ( 'NONE',  ( 89.99999999999938893, -28.28427124746190913, -239.9999999999999432 ) ) ;
#527 = CARTESIAN_POINT ( 'NONE',  ( 256.0000000000000000, 0.000000000000000000, -200.0000000000000000 ) ) ;
#528 = VERTEX_POINT ( 'NONE', #354 ) ;
#529 = DIRECTION ( 'NONE',  ( -0.000000000000000000, 1.000000000000000000, -0.000000000000000000 ) ) ;
#530 = EDGE_CURVE ( 'NONE', #528, #589, #1088, .T. ) ;
#531 = PERSON_AND_ORGANIZATION_ROLE ( 'classification_officer' ) ;
#532 = VERTEX_POINT ( 'NONE', #1000 ) ;
#533 = CIRCLE ( 'NONE', #1289, 3.124999999999988898 ) ;
#534 = DIRECTION ( 'NONE',  ( -0.000000000000000000, 1.000000000000000000, -0.000000000000000000 ) ) ;
#535 = CARTESIAN_POINT ( 'NONE',  ( 159.9999999999994031, 3.000000000000000000, -239.9999999999999432 ) ) ;
#536 = AXIS2_PLACEMENT_3D ( 'NONE', #1164, #964, #115 ) ;
#537 = VERTEX_POINT ( 'NONE', #883 ) ;
#538 = COORDINATED_UNIVERSAL_TIME_OFFSET ( 8, 0, .AHEAD. ) ;
#539 = ORIENTED_EDGE ( 'NONE', *, *, #1117, .F. ) ;
#540 = EDGE_CURVE ( 'NONE', #506, #202, #992, .T. ) ;
#541 = CIRCLE ( 'NONE', #1209, 3.124999999999988898 ) ;
#542 = DIRECTION ( 'NONE',  ( 0.000000000000000000, 1.000000000000000000, -0.000000000000000000 ) ) ;
#543 = CARTESIAN_POINT ( 'NONE',  ( 19.99999999999938183, 0.000000000000000000, -163.1250000000001137 ) ) ;
#544 = DIRECTION ( 'NONE',  ( 0.000000000000000000, 0.000000000000000000, -1.000000000000000000 ) ) ;
#545 = ORIENTED_EDGE ( 'NONE', *, *, #1037, .T. ) ;
#546 = CC_DESIGN_DATE_AND_TIME_ASSIGNMENT ( #727, #310, ( #169 ) ) ;
#547 = AXIS2_PLACEMENT_3D ( 'NONE', #280, #693, #591 ) ;
#548 = AXIS2_PLACEMENT_3D ( 'NONE', #625, #611, #923 ) ;
#549 = EDGE_CURVE ( 'NONE', #1296, #970, #769, .T. ) ;
#550 = DIRECTION ( 'NONE',  ( 0.000000000000000000, 0.000000000000000000, -1.000000000000000000 ) ) ;
#551 = DIRECTION ( 'NONE',  ( -0.000000000000000000, 1.000000000000000000, -0.000000000000000000 ) ) ;
#552 = VERTEX_POINT ( 'NONE', #1273 ) ;
#553 = AXIS2_PLACEMENT_3D ( 'NONE', #522, #749, #933 ) ;
#554 = VERTEX_POINT ( 'NONE', #1192 ) ;
#555 = CARTESIAN_POINT ( 'NONE',  ( 159.9999999999994031, -28.28427124746190913, -163.1250000000000853 ) ) ;
#556 = LINE ( 'NONE', #1278, #872 ) ;
#557 = EDGE_CURVE ( 'NONE', #1293, #787, #84, .T. ) ;
#558 = EDGE_LOOP ( 'NONE', ( #1197, #1119 ) ) ;
#559 = LINE ( 'NONE', #141, #397 ) ;
#560 = CARTESIAN_POINT ( 'NONE',  ( 159.9999999999999147, 3.000000000000000000, -20.00000000000007461 ) ) ;
#561 = ORIENTED_EDGE ( 'NONE', *, *, #110, .F. ) ;
#562 = DIRECTION ( 'NONE',  ( -0.000000000000000000, -1.000000000000000000, -0.000000000000000000 ) ) ;
#563 = CARTESIAN_POINT ( 'NONE',  ( 159.9999999999994031, 3.000000000000000000, -243.1249999999999147 ) ) ;
#564 = EDGE_LOOP ( 'NONE', ( #328, #515, #480, #783 ) ) ;
#565 = CIRCLE ( 'NONE', #167, 3.124999999999988898 ) ;
#566 = CARTESIAN_POINT ( 'NONE',  ( 19.99999999999938183, -28.28427124746190913, -243.1249999999999432 ) ) ;
#567 = DIRECTION ( 'NONE',  ( -0.000000000000000000, 1.000000000000000000, -0.000000000000000000 ) ) ;
#568 = VERTEX_POINT ( 'NONE', #1092 ) ;
#569 = CIRCLE ( 'NONE', #745, 3.125000000000016875 ) ;
#570 = EDGE_LOOP ( 'NONE', ( #1038, #1143 ) ) ;
#571 = CIRCLE ( 'NONE', #44, 3.125000000000016875 ) ;
#572 = EDGE_LOOP ( 'NONE', ( #697, #199 ) ) ;
#573 = DIRECTION ( 'NONE',  ( -0.000000000000000000, 1.000000000000000000, -0.000000000000000000 ) ) ;
#574 = CARTESIAN_POINT ( 'NONE',  ( 19.99999999999990763, 0.000000000000000000, -23.12500000000007105 ) ) ;
#575 = EDGE_CURVE ( 'NONE', #568, #457, #979, .T. ) ;
#576 = ORIENTED_EDGE ( 'NONE', *, *, #247, .T. ) ;
#577 = ORIENTED_EDGE ( 'NONE', *, *, #439, .F. ) ;
#578 = CARTESIAN_POINT ( 'NONE',  ( 89.99999999999938893, 3.000000000000000000, -160.0000000000000853 ) ) ;
#579 = CARTESIAN_POINT ( 'NONE',  ( 380.0000000000001137, 0.000000000000000000, -383.1250000000000000 ) ) ;
#580 = CARTESIAN_POINT ( 'NONE',  ( 310.0000000000006253, 3.000000000000000000, -160.0000000000000853 ) ) ;
#581 = ORIENTED_EDGE ( 'NONE', *, *, #45, .F. ) ;
#582 = EDGE_LOOP ( 'NONE', ( #237, #364 ) ) ;
#583 = CARTESIAN_POINT ( 'NONE',  ( 144.0000000000000568, 0.000000000000000000, -200.0000000000000000 ) ) ;
#584 = DIRECTION ( 'NONE',  ( 0.000000000000000000, 1.000000000000000000, 0.000000000000000000 ) ) ;
#585 = CIRCLE ( 'NONE', #806, 3.124999999999988898 ) ;
#586 = CARTESIAN_POINT ( 'NONE',  ( 256.0000000000000000, 0.000000000000000000, -196.8750000000000284 ) ) ;
#587 = PRODUCT_DEFINITION_FORMATION_WITH_SPECIFIED_SOURCE ( 'ANY', '', #1298, .NOT_KNOWN. ) ;
#588 = ORIENTED_EDGE ( 'NONE', *, *, #928, .F. ) ;
#589 = VERTEX_POINT ( 'NONE', #53 ) ;
#590 = ADVANCED_FACE ( 'NONE', ( #1100 ), #1309, .F. ) ;
#591 = DIRECTION ( 'NONE',  ( 0.000000000000000000, 0.000000000000000000, 1.000000000000000000 ) ) ;
#592 = DIRECTION ( 'NONE',  ( -0.000000000000000000, -1.000000000000000000, -0.000000000000000000 ) ) ;
#593 = VECTOR ( 'NONE', #1294, 1000.000000000000000 ) ;
#594 = DIRECTION ( 'NONE',  ( -0.000000000000000000, 1.000000000000000000, -0.000000000000000000 ) ) ;
#595 = ORIENTED_EDGE ( 'NONE', *, *, #1248, .T. ) ;
#596 = DIRECTION ( 'NONE',  ( -0.000000000000000000, 1.000000000000000000, -0.000000000000000000 ) ) ;
#597 = FACE_OUTER_BOUND ( 'NONE', #925, .T. ) ;
#598 = EDGE_CURVE ( 'NONE', #984, #319, #175, .T. ) ;
#599 = DIRECTION ( 'NONE',  ( 0.000000000000000000, 1.000000000000000000, -0.000000000000000000 ) ) ;
#600 = ORIENTED_EDGE ( 'NONE', *, *, #557, .F. ) ;
#601 = CYLINDRICAL_SURFACE ( 'NONE', #809, 3.124999999999988898 ) ;
#602 = EDGE_LOOP ( 'NONE', ( #479, #133 ) ) ;
#603 = CARTESIAN_POINT ( 'NONE',  ( 19.99999999999990763, -8.838834764831844382, -16.87500000000007461 ) ) ;
#604 = DIRECTION ( 'NONE',  ( -0.000000000000000000, 1.000000000000000000, -0.000000000000000000 ) ) ;
#605 = EDGE_LOOP ( 'NONE', ( #431, #609, #831, #1115 ) ) ;
#606 = LOCAL_TIME ( 11, 5, 56.00000000000000000, #924 ) ;
#607 = EDGE_CURVE ( 'NONE', #552, #1129, #935, .T. ) ;
#608 = ORIENTED_EDGE ( 'NONE', *, *, #447, .F. ) ;
#609 = ORIENTED_EDGE ( 'NONE', *, *, #638, .T. ) ;
#610 = FACE_OUTER_BOUND ( 'NONE', #168, .T. ) ;
#611 = DIRECTION ( 'NONE',  ( -0.000000000000000000, 1.000000000000000000, -0.000000000000000000 ) ) ;
#612 = VECTOR ( 'NONE', #1008, 1000.000000000000000 ) ;
#613 = AXIS2_PLACEMENT_3D ( 'NONE', #682, #1118, #688 ) ;
#614 = ORIENTED_EDGE ( 'NONE', *, *, #17, .F. ) ;
#615 = ADVANCED_FACE ( 'NONE', ( #892 ), #898, .F. ) ;
#616 = DESIGN_CONTEXT ( 'detailed design', #956, 'design' ) ;
#617 = ORIENTED_EDGE ( 'NONE', *, *, #726, .F. ) ;
#618 = FACE_BOUND ( 'NONE', #881, .T. ) ;
#619 = CARTESIAN_POINT ( 'NONE',  ( 89.99999999999938893, 0.000000000000000000, -160.0000000000000853 ) ) ;
#620 = DIRECTION ( 'NONE',  ( 0.000000000000000000, 0.000000000000000000, -1.000000000000000000 ) ) ;
#621 = APPROVAL_ROLE ( '' ) ;
#622 = ORIENTED_EDGE ( 'NONE', *, *, #170, .T. ) ;
#623 = FACE_OUTER_BOUND ( 'NONE', #824, .T. ) ;
#624 = DIRECTION ( 'NONE',  ( -0.000000000000000000, 1.000000000000000000, -0.000000000000000000 ) ) ;
#625 = CARTESIAN_POINT ( 'NONE',  ( 159.9999999999999147, -28.28427124746190913, -379.9999999999999432 ) ) ;
#626 = APPROVAL_STATUS ( 'not_yet_approved' ) ;
#627 = VECTOR ( 'NONE', #592, 1000.000000000000000 ) ;
#628 = ORIENTED_EDGE ( 'NONE', *, *, #419, .T. ) ;
#629 = CARTESIAN_POINT ( 'NONE',  ( 159.9999999999999147, 3.000000000000000000, -379.9999999999999432 ) ) ;
#630 = DIRECTION ( 'NONE',  ( 0.000000000000000000, 0.000000000000000000, -1.000000000000000000 ) ) ;
#631 = EDGE_CURVE ( 'NONE', #991, #1089, #800, .T. ) ;
#632 = CARTESIAN_POINT ( 'NONE',  ( 159.9999999999994031, -28.28427124746190913, -239.9999999999999432 ) ) ;
#633 = APPLICATION_PROTOCOL_DEFINITION ( 'international standard', 'config_control_design', 1994, #183 ) ;
#634 = AXIS2_PLACEMENT_3D ( 'NONE', #404, #807, #820 ) ;
#635 = CARTESIAN_POINT ( 'NONE',  ( 19.99999999999990763, 0.000000000000000000, -379.9999999999999432 ) ) ;
#636 = FACE_OUTER_BOUND ( 'NONE', #88, .T. ) ;
#637 = CARTESIAN_POINT ( 'NONE',  ( 19.99999999999990763, -8.838834764831844382, -383.1249999999999432 ) ) ;
#638 = EDGE_CURVE ( 'NONE', #823, #360, #1206, .T. ) ;
#639 = SHAPE_DEFINITION_REPRESENTATION ( #1201, #946 ) ;
#640 = VERTEX_POINT ( 'NONE', #70 ) ;
#641 = DIRECTION ( 'NONE',  ( 0.000000000000000000, 0.000000000000000000, -1.000000000000000000 ) ) ;
#642 = DIRECTION ( 'NONE',  ( 0.000000000000000000, 0.000000000000000000, 1.000000000000000000 ) ) ;
#643 = EDGE_LOOP ( 'NONE', ( #449, #48 ) ) ;
#644 = EDGE_CURVE ( 'NONE', #1296, #1031, #571, .T. ) ;
#645 = DATE_AND_TIME ( #329, #414 ) ;
#646 = ADVANCED_FACE ( 'NONE', ( #282 ), #496, .F. ) ;
#647 = VECTOR ( 'NONE', #721, 1000.000000000000000 ) ;
#648 = VECTOR ( 'NONE', #1086, 1000.000000000000000 ) ;
#649 = DIRECTION ( 'NONE',  ( 0.000000000000000000, 0.000000000000000000, 1.000000000000000000 ) ) ;
#650 = FACE_BOUND ( 'NONE', #570, .T. ) ;
#651 = DIRECTION ( 'NONE',  ( -0.000000000000000000, 1.000000000000000000, -0.000000000000000000 ) ) ;
#652 = VERTEX_POINT ( 'NONE', #1227 ) ;
#653 = EDGE_CURVE ( 'NONE', #147, #366, #903, .T. ) ;
#654 = CARTESIAN_POINT ( 'NONE',  ( 400.0000000000000000, 3.000000000000000000, 0.000000000000000000 ) ) ;
#655 = DIRECTION ( 'NONE',  ( 0.000000000000000000, 0.000000000000000000, -1.000000000000000000 ) ) ;
#656 = ORIENTED_EDGE ( 'NONE', *, *, #178, .F. ) ;
#657 = CARTESIAN_POINT ( 'NONE',  ( 310.0000000000006253, -28.28427124746190913, -170.0000000000000568 ) ) ;
#658 = DIRECTION ( 'NONE',  ( 0.000000000000000000, 1.000000000000000000, -0.000000000000000000 ) ) ;
#659 = CIRCLE ( 'NONE', #254, 3.124999999999988898 ) ;
#660 = ORIENTED_EDGE ( 'NONE', *, *, #497, .F. ) ;
#661 = CARTESIAN_POINT ( 'NONE',  ( 159.9999999999999147, 3.000000000000000000, -379.9999999999999432 ) ) ;
#662 = FACE_BOUND ( 'NONE', #643, .T. ) ;
#663 = ORIENTED_EDGE ( 'NONE', *, *, #200, .F. ) ;
#664 = LINE ( 'NONE', #49, #150 ) ;
#665 = DIRECTION ( 'NONE',  ( -0.000000000000000000, 1.000000000000000000, -0.000000000000000000 ) ) ;
#666 = EDGE_LOOP ( 'NONE', ( #755, #576 ) ) ;
#667 = AXIS2_PLACEMENT_3D ( 'NONE', #428, #856, #649 ) ;
#668 = VERTEX_POINT ( 'NONE', #1105 ) ;
#669 = DIRECTION ( 'NONE',  ( 0.000000000000000000, 0.000000000000000000, 1.000000000000000000 ) ) ;
#670 = VERTEX_POINT ( 'NONE', #586 ) ;
#671 = APPROVAL_PERSON_ORGANIZATION ( #1133, #1200, #621 ) ;
#672 = DIRECTION ( 'NONE',  ( 0.000000000000000000, 1.000000000000000000, 0.000000000000000000 ) ) ;
#673 = LINE ( 'NONE', #1093, #648 ) ;
#674 = ADVANCED_FACE ( 'NONE', ( #1316 ), #158, .F. ) ;
#675 = ORIENTED_EDGE ( 'NONE', *, *, #741, .T. ) ;
#676 = AXIS2_PLACEMENT_3D ( 'NONE', #67, #1308, #1218 ) ;
#677 = ORIENTED_EDGE ( 'NONE', *, *, #1223, .F. ) ;
#678 = AXIS2_PLACEMENT_3D ( 'NONE', #109, #731, #620 ) ;
#679 = ORIENTED_EDGE ( 'NONE', *, *, #871, .F. ) ;
#680 = DIRECTION ( 'NONE',  ( 0.000000000000000000, 0.000000000000000000, -1.000000000000000000 ) ) ;
#681 = LINE ( 'NONE', #993, #371 ) ;
#682 = CARTESIAN_POINT ( 'NONE',  ( 380.0000000000001137, 3.000000000000000000, -20.00000000000001776 ) ) ;
#683 = ADVANCED_FACE ( 'NONE', ( #293 ), #1303, .F. ) ;
#684 = ORIENTED_EDGE ( 'NONE', *, *, #889, .F. ) ;
#685 = EDGE_LOOP ( 'NONE', ( #1096, #577 ) ) ;
#686 = CARTESIAN_POINT ( 'NONE',  ( 159.9999999999994031, 0.000000000000000000, -236.8749999999999432 ) ) ;
#687 = CARTESIAN_POINT ( 'NONE',  ( 89.99999999999938893, 3.000000000000000000, -239.9999999999999432 ) ) ;
#688 = DIRECTION ( 'NONE',  ( 0.000000000000000000, 0.000000000000000000, -1.000000000000000000 ) ) ;
#689 = EDGE_CURVE ( 'NONE', #442, #393, #812, .T. ) ;
#690 = VERTEX_POINT ( 'NONE', #63 ) ;
#691 = EDGE_CURVE ( 'NONE', #487, #1108, #288, .T. ) ;
#692 = ORIENTED_EDGE ( 'NONE', *, *, #1055, .F. ) ;
#693 = DIRECTION ( 'NONE',  ( -0.000000000000000000, 1.000000000000000000, -0.000000000000000000 ) ) ;
#694 = CARTESIAN_POINT ( 'NONE',  ( 19.99999999999938183, 0.000000000000000000, -156.8750000000000568 ) ) ;
#695 = AXIS2_PLACEMENT_3D ( 'NONE', #661, #658, #475 ) ;
#696 = DIRECTION ( 'NONE',  ( -0.000000000000000000, -1.000000000000000000, -0.000000000000000000 ) ) ;
#697 = ORIENTED_EDGE ( 'NONE', *, *, #200, .T. ) ;
#698 = EDGE_CURVE ( 'NONE', #970, #373, #222, .T. ) ;
#699 = ORIENTED_EDGE ( 'NONE', *, *, #190, .T. ) ;
#700 = DIRECTION ( 'NONE',  ( 0.000000000000000000, 0.000000000000000000, 1.000000000000000000 ) ) ;
#701 = FACE_BOUND ( 'NONE', #59, .T. ) ;
#702 = AXIS2_PLACEMENT_3D ( 'NONE', #488, #195, #1314 ) ;
#703 = DIRECTION ( 'NONE',  ( 0.000000000000000000, 0.000000000000000000, 1.000000000000000000 ) ) ;
#704 = CC_DESIGN_APPROVAL ( #1200, ( #169 ) ) ;
#705 = ORIENTED_EDGE ( 'NONE', *, *, #792, .T. ) ;
#706 = DIRECTION ( 'NONE',  ( -0.000000000000000000, 1.000000000000000000, -0.000000000000000000 ) ) ;
#707 = DIRECTION ( 'NONE',  ( -0.000000000000000000, 1.000000000000000000, -0.000000000000000000 ) ) ;
#708 = EDGE_CURVE ( 'NONE', #1123, #202, #438, .T. ) ;
#709 = CARTESIAN_POINT ( 'NONE',  ( 0.000000000000000000, 3.000000000000000000, 0.000000000000000000 ) ) ;
#710 = EDGE_LOOP ( 'NONE', ( #677, #1010 ) ) ;
#711 = ORIENTED_EDGE ( 'NONE', *, *, #644, .T. ) ;
#712 = CARTESIAN_POINT ( 'NONE',  ( 380.0000000000001137, -8.838834764831844382, -20.00000000000001776 ) ) ;
#713 = VERTEX_POINT ( 'NONE', #994 ) ;
#714 = CARTESIAN_POINT ( 'NONE',  ( 380.0000000000001137, -8.838834764831844382, -20.00000000000001776 ) ) ;
#715 = LINE ( 'NONE', #8, #914 ) ;
#716 = EDGE_CURVE ( 'NONE', #366, #196, #55, .T. ) ;
#717 = CIRCLE ( 'NONE', #667, 10.00000000000000888 ) ;
#718 = CYLINDRICAL_SURFACE ( 'NONE', #116, 9.999999999999980460 ) ;
#719 =( GEOMETRIC_REPRESENTATION_CONTEXT ( 3 ) GLOBAL_UNCERTAINTY_ASSIGNED_CONTEXT ( ( #234 ) ) GLOBAL_UNIT_ASSIGNED_CONTEXT ( ( #261, #470, #799 ) ) REPRESENTATION_CONTEXT ( 'NONE', 'WORKASPACE' ) );
#720 = ORIENTED_EDGE ( 'NONE', *, *, #152, .F. ) ;
#721 = DIRECTION ( 'NONE',  ( -0.000000000000000000, 1.000000000000000000, -0.000000000000000000 ) ) ;
#722 = LINE ( 'NONE', #852, #136 ) ;
#723 = DIRECTION ( 'NONE',  ( 0.000000000000000000, 0.000000000000000000, 1.000000000000000000 ) ) ;
#724 = CIRCLE ( 'NONE', #127, 3.124999999999988898 ) ;
#725 = LOCAL_TIME ( 11, 5, 56.00000000000000000, #1036 ) ;
#726 = EDGE_CURVE ( 'NONE', #319, #1299, #715, .T. ) ;
#727 = DATE_AND_TIME ( #942, #606 ) ;
#728 = EDGE_LOOP ( 'NONE', ( #679, #446, #1333, #660 ) ) ;
#729 = CARTESIAN_POINT ( 'NONE',  ( 0.000000000000000000, 3.000000000000000000, -400.0000000000000000 ) ) ;
#730 = CARTESIAN_POINT ( 'NONE',  ( 159.9999999999999147, 3.000000000000000000, -20.00000000000007461 ) ) ;
#731 = DIRECTION ( 'NONE',  ( -0.000000000000000000, 1.000000000000000000, -0.000000000000000000 ) ) ;
#732 = CALENDAR_DATE ( 2024, 25, 9 ) ;
#733 = AXIS2_PLACEMENT_3D ( 'NONE', #826, #13, #630 ) ;
#734 = EDGE_CURVE ( 'NONE', #1129, #552, #398, .T. ) ;
#735 = EDGE_LOOP ( 'NONE', ( #1101, #1113, #1263, #1330 ) ) ;
#736 = DIRECTION ( 'NONE',  ( 0.000000000000000000, 0.000000000000000000, 1.000000000000000000 ) ) ;
#737 = DIRECTION ( 'NONE',  ( 0.000000000000000000, 0.000000000000000000, -1.000000000000000000 ) ) ;
#738 = FACE_OUTER_BOUND ( 'NONE', #605, .T. ) ;
#739 = ORIENTED_EDGE ( 'NONE', *, *, #879, .T. ) ;
#740 = AXIS2_PLACEMENT_3D ( 'NONE', #257, #450, #1067 ) ;
#741 = EDGE_CURVE ( 'NONE', #1059, #1155, #300, .T. ) ;
#742 = DIRECTION ( 'NONE',  ( -0.000000000000000000, -1.000000000000000000, -0.000000000000000000 ) ) ;
#743 = FACE_BOUND ( 'NONE', #710, .T. ) ;
#744 = ORIENTED_EDGE ( 'NONE', *, *, #782, .F. ) ;
#745 = AXIS2_PLACEMENT_3D ( 'NONE', #474, #33, #61 ) ;
#746 = EDGE_LOOP ( 'NONE', ( #868, #1153, #848, #1106 ) ) ;
#747 = VECTOR ( 'NONE', #696, 1000.000000000000000 ) ;
#748 = DIRECTION ( 'NONE',  ( -0.000000000000000000, 1.000000000000000000, -0.000000000000000000 ) ) ;
#749 = DIRECTION ( 'NONE',  ( -0.000000000000000000, 1.000000000000000000, -0.000000000000000000 ) ) ;
#750 = CARTESIAN_POINT ( 'NONE',  ( 159.9999999999994031, 0.000000000000000000, -239.9999999999999432 ) ) ;
#751 = ADVANCED_FACE ( 'NONE', ( #96 ), #1344, .F. ) ;
#752 = SECURITY_CLASSIFICATION_LEVEL ( 'unclassified' ) ;
#753 = PLANE ( 'NONE',  #907 ) ;
#754 = CARTESIAN_POINT ( 'NONE',  ( 19.99999999999938183, -28.28427124746190913, -239.9999999999999432 ) ) ;
#755 = ORIENTED_EDGE ( 'NONE', *, *, #356, .T. ) ;
#756 = ADVANCED_FACE ( 'NONE', ( #738 ), #1126, .F. ) ;
#757 = CIRCLE ( 'NONE', #1060, 3.124999999999988898 ) ;
#758 = CC_DESIGN_APPROVAL ( #268, ( #587 ) ) ;
#759 = DIRECTION ( 'NONE',  ( 0.000000000000000000, 0.000000000000000000, 1.000000000000000000 ) ) ;
#760 = DIRECTION ( 'NONE',  ( 0.000000000000000000, -1.000000000000000000, 0.000000000000000000 ) ) ;
#761 = ORIENTED_EDGE ( 'NONE', *, *, #638, .F. ) ;
#762 = DIRECTION ( 'NONE',  ( -0.000000000000000000, 1.000000000000000000, -0.000000000000000000 ) ) ;
#763 = ORIENTED_EDGE ( 'NONE', *, *, #170, .F. ) ;
#764 = CIRCLE ( 'NONE', #982, 3.125000000000016875 ) ;
#765 = ORIENTED_EDGE ( 'NONE', *, *, #143, .T. ) ;
#766 = DIRECTION ( 'NONE',  ( 0.000000000000000000, 0.000000000000000000, 1.000000000000000000 ) ) ;
#767 = CARTESIAN_POINT ( 'NONE',  ( 89.99999999999938893, 0.000000000000000000, -239.9999999999999432 ) ) ;
#768 = EDGE_LOOP ( 'NONE', ( #561, #194, #545, #385 ) ) ;
#769 = LINE ( 'NONE', #566, #1258 ) ;
#770 = DIRECTION ( 'NONE',  ( 0.000000000000000000, 0.000000000000000000, -1.000000000000000000 ) ) ;
#771 = EDGE_CURVE ( 'NONE', #1339, #862, #1195, .T. ) ;
#772 = AXIS2_PLACEMENT_3D ( 'NONE', #321, #1145, #217 ) ;
#773 = ORIENTED_EDGE ( 'NONE', *, *, #1291, .F. ) ;
#774 = CARTESIAN_POINT ( 'NONE',  ( 310.0000000000006253, 3.000000000000000000, -150.0000000000001137 ) ) ;
#775 = DIRECTION ( 'NONE',  ( -0.000000000000000000, 1.000000000000000000, -0.000000000000000000 ) ) ;
#776 = ORIENTED_EDGE ( 'NONE', *, *, #716, .T. ) ;
#777 = CARTESIAN_POINT ( 'NONE',  ( 89.99999999999938893, 3.000000000000000000, -150.0000000000000853 ) ) ;
#778 = CARTESIAN_POINT ( 'NONE',  ( 144.0000000000000568, 0.000000000000000000, -200.0000000000000000 ) ) ;
#779 = EDGE_LOOP ( 'NONE', ( #344, #108 ) ) ;
#780 = VECTOR ( 'NONE', #1144, 1000.000000000000000 ) ;
#781 = EDGE_LOOP ( 'NONE', ( #1255, #684, #177, #93 ) ) ;
#782 = EDGE_CURVE ( 'NONE', #690, #520, #1028, .T. ) ;
#783 = ORIENTED_EDGE ( 'NONE', *, *, #25, .F. ) ;
#784 = CIRCLE ( 'NONE', #77, 3.124999999999988898 ) ;
#785 = DIRECTION ( 'NONE',  ( -0.000000000000000000, 1.000000000000000000, -0.000000000000000000 ) ) ;
#786 = DIRECTION ( 'NONE',  ( 0.000000000000000000, 0.000000000000000000, 1.000000000000000000 ) ) ;
#787 = VERTEX_POINT ( 'NONE', #941 ) ;
#788 = AXIS2_PLACEMENT_3D ( 'NONE', #383, #1013, #703 ) ;
#789 = EDGE_LOOP ( 'NONE', ( #191, #57 ) ) ;
#790 = CIRCLE ( 'NONE', #379, 3.124999999999988898 ) ;
#791 = CARTESIAN_POINT ( 'NONE',  ( 256.0000000000000000, -8.838834764831844382, -196.8750000000000284 ) ) ;
#792 = EDGE_CURVE ( 'NONE', #353, #1123, #512, .T. ) ;
#793 = LINE ( 'NONE', #1179, #1342 ) ;
#794 = DIRECTION ( 'NONE',  ( 1.000000000000000000, 0.000000000000000000, 0.000000000000000000 ) ) ;
#795 = EDGE_CURVE ( 'NONE', #372, #499, #1146, .T. ) ;
#796 = EDGE_LOOP ( 'NONE', ( #1127, #215 ) ) ;
#797 = EDGE_LOOP ( 'NONE', ( #986, #952, #1238, #859 ) ) ;
#798 = CYLINDRICAL_SURFACE ( 'NONE', #547, 3.124999999999988898 ) ;
#799 =( NAMED_UNIT ( * ) SI_UNIT ( $, .STERADIAN. ) SOLID_ANGLE_UNIT ( ) );
#800 = LINE ( 'NONE', #166, #612 ) ;
#801 = EDGE_CURVE ( 'NONE', #255, #909, #1261, .T. ) ;
#802 = ORIENTED_EDGE ( 'NONE', *, *, #207, .T. ) ;
#803 = ORIENTED_EDGE ( 'NONE', *, *, #653, .F. ) ;
#804 = FACE_OUTER_BOUND ( 'NONE', #220, .T. ) ;
#805 = FACE_BOUND ( 'NONE', #808, .T. ) ;
#806 = AXIS2_PLACEMENT_3D ( 'NONE', #629, #542, #955 ) ;
#807 = DIRECTION ( 'NONE',  ( -0.000000000000000000, 1.000000000000000000, -0.000000000000000000 ) ) ;
#808 = EDGE_LOOP ( 'NONE', ( #1276, #266 ) ) ;
#809 = AXIS2_PLACEMENT_3D ( 'NONE', #1122, #79, #500 ) ;
#810 = DIRECTION ( 'NONE',  ( 0.000000000000000000, 0.000000000000000000, 1.000000000000000000 ) ) ;
#811 = DIRECTION ( 'NONE',  ( -0.000000000000000000, 1.000000000000000000, -0.000000000000000000 ) ) ;
#812 = CIRCLE ( 'NONE', #613, 3.124999999999999112 ) ;
#813 = DIRECTION ( 'NONE',  ( 0.000000000000000000, 1.000000000000000000, -0.000000000000000000 ) ) ;
#814 = CARTESIAN_POINT ( 'NONE',  ( 310.0000000000006253, -28.28427124746190913, -160.0000000000000853 ) ) ;
#815 = ORIENTED_EDGE ( 'NONE', *, *, #631, .F. ) ;
#816 = ADVANCED_FACE ( 'NONE', ( #212 ), #1132, .F. ) ;
#817 = CARTESIAN_POINT ( 'NONE',  ( 19.99999999999990763, -8.838834764831844382, -20.00000000000007461 ) ) ;
#818 = VERTEX_POINT ( 'NONE', #218 ) ;
#819 = FACE_BOUND ( 'NONE', #602, .T. ) ;
#820 = DIRECTION ( 'NONE',  ( 0.000000000000000000, 0.000000000000000000, 1.000000000000000000 ) ) ;
#821 = LINE ( 'NONE', #637, #28 ) ;
#822 = CIRCLE ( 'NONE', #536, 3.124999999999999112 ) ;
#823 = VERTEX_POINT ( 'NONE', #1048 ) ;
#824 = EDGE_LOOP ( 'NONE', ( #880, #803, #279, #508 ) ) ;
#825 = DIRECTION ( 'NONE',  ( 0.000000000000000000, 0.000000000000000000, 1.000000000000000000 ) ) ;
#826 = CARTESIAN_POINT ( 'NONE',  ( 19.99999999999938183, 0.000000000000000000, -239.9999999999999432 ) ) ;
#827 = DIRECTION ( 'NONE',  ( -0.000000000000000000, 1.000000000000000000, -0.000000000000000000 ) ) ;
#828 = AXIS2_PLACEMENT_3D ( 'NONE', #342, #38, #759 ) ;
#829 = CIRCLE ( 'NONE', #1061, 3.124999999999988898 ) ;
#830 = COORDINATED_UNIVERSAL_TIME_OFFSET ( 8, 0, .AHEAD. ) ;
#831 = ORIENTED_EDGE ( 'NONE', *, *, #1076, .T. ) ;
#832 = DIRECTION ( 'NONE',  ( -0.000000000000000000, 1.000000000000000000, -0.000000000000000000 ) ) ;
#833 = CYLINDRICAL_SURFACE ( 'NONE', #553, 3.124999999999988898 ) ;
#834 = DIRECTION ( 'NONE',  ( -0.000000000000000000, 1.000000000000000000, -0.000000000000000000 ) ) ;
#835 = AXIS2_PLACEMENT_3D ( 'NONE', #128, #1266, #338 ) ;
#836 = EDGE_CURVE ( 'NONE', #520, #1177, #790, .T. ) ;
#837 = DATE_AND_TIME ( #732, #725 ) ;
#838 = ORIENTED_EDGE ( 'NONE', *, *, #698, .F. ) ;
#839 = CARTESIAN_POINT ( 'NONE',  ( 19.99999999999938183, 0.000000000000000000, -236.8749999999999147 ) ) ;
#840 = DIRECTION ( 'NONE',  ( 0.000000000000000000, 0.000000000000000000, -1.000000000000000000 ) ) ;
#841 = CARTESIAN_POINT ( 'NONE',  ( 19.99999999999990763, -8.838834764831844382, -376.8749999999999432 ) ) ;
#842 = MECHANICAL_CONTEXT ( 'NONE', #183, 'mechanical' ) ;
#843 = ADVANCED_FACE ( 'NONE', ( #523 ), #934, .F. ) ;
#844 = LINE ( 'NONE', #729, #76 ) ;
#845 = DIRECTION ( 'NONE',  ( 0.000000000000000000, 0.000000000000000000, -1.000000000000000000 ) ) ;
#846 = DIRECTION ( 'NONE',  ( -0.000000000000000000, 1.000000000000000000, -0.000000000000000000 ) ) ;
#847 = AXIS2_PLACEMENT_3D ( 'NONE', #632, #529, #403 ) ;
#848 = ORIENTED_EDGE ( 'NONE', *, *, #514, .T. ) ;
#849 = CIRCLE ( 'NONE', #193, 3.124999999999999112 ) ;
#850 = EDGE_CURVE ( 'NONE', #357, #916, #1340, .T. ) ;
#851 = DIRECTION ( 'NONE',  ( 0.000000000000000000, 0.000000000000000000, -1.000000000000000000 ) ) ;
#852 = CARTESIAN_POINT ( 'NONE',  ( 159.9999999999994031, -28.28427124746190913, -243.1249999999999147 ) ) ;
#853 = DIRECTION ( 'NONE',  ( 0.000000000000000000, 0.000000000000000000, 1.000000000000000000 ) ) ;
#854 = VECTOR ( 'NONE', #877, 1000.000000000000000 ) ;
#855 = DATE_TIME_ROLE ( 'creation_date' ) ;
#856 = DIRECTION ( 'NONE',  ( 0.000000000000000000, 1.000000000000000000, 0.000000000000000000 ) ) ;
#857 = CARTESIAN_POINT ( 'NONE',  ( 0.000000000000000000, 3.000000000000000000, 0.000000000000000000 ) ) ;
#858 = ADVANCED_FACE ( 'NONE', ( #1116, #1226, #1018, #1012, #173, #1104, #805, #1007, #921, #287, #819, #618, #701, #68, #298, #597 ), #203, .T. ) ;
#859 = ORIENTED_EDGE ( 'NONE', *, *, #1167, .T. ) ;
#860 = DIRECTION ( 'NONE',  ( -0.000000000000000000, 1.000000000000000000, -0.000000000000000000 ) ) ;
#861 = DIRECTION ( 'NONE',  ( -0.000000000000000000, 1.000000000000000000, -0.000000000000000000 ) ) ;
#862 = VERTEX_POINT ( 'NONE', #281 ) ;
#863 = DIRECTION ( 'NONE',  ( 0.000000000000000000, 0.000000000000000000, -1.000000000000000000 ) ) ;
#864 = CIRCLE ( 'NONE', #283, 3.124999999999988898 ) ;
#865 = ORIENTED_EDGE ( 'NONE', *, *, #1248, .F. ) ;
#866 = DIRECTION ( 'NONE',  ( -0.000000000000000000, 1.000000000000000000, -0.000000000000000000 ) ) ;
#867 = DIRECTION ( 'NONE',  ( 0.000000000000000000, 0.000000000000000000, -1.000000000000000000 ) ) ;
#868 = ORIENTED_EDGE ( 'NONE', *, *, #1310, .T. ) ;
#869 = DIRECTION ( 'NONE',  ( 0.000000000000000000, 0.000000000000000000, 1.000000000000000000 ) ) ;
#870 = CARTESIAN_POINT ( 'NONE',  ( 19.99999999999990763, 0.000000000000000000, -383.1249999999999432 ) ) ;
#871 = EDGE_CURVE ( 'NONE', #1311, #537, #1253, .T. ) ;
#872 = VECTOR ( 'NONE', #460, 1000.000000000000000 ) ;
#873 = ORIENTED_EDGE ( 'NONE', *, *, #92, .F. ) ;
#874 = CARTESIAN_POINT ( 'NONE',  ( 89.99999999999938893, 3.000000000000000000, -170.0000000000000853 ) ) ;
#875 = DIRECTION ( 'NONE',  ( 0.000000000000000000, 0.000000000000000000, 1.000000000000000000 ) ) ;
#876 = ORIENTED_EDGE ( 'NONE', *, *, #1268, .T. ) ;
#877 = DIRECTION ( 'NONE',  ( -0.000000000000000000, 1.000000000000000000, -0.000000000000000000 ) ) ;
#878 = CARTESIAN_POINT ( 'NONE',  ( 89.99999999999938893, 0.000000000000000000, -160.0000000000000853 ) ) ;
#879 = EDGE_CURVE ( 'NONE', #652, #387, #395, .T. ) ;
#880 = ORIENTED_EDGE ( 'NONE', *, *, #178, .T. ) ;
#881 = EDGE_LOOP ( 'NONE', ( #406, #493 ) ) ;
#882 = ORIENTED_EDGE ( 'NONE', *, *, #1109, .T. ) ;
#883 = CARTESIAN_POINT ( 'NONE',  ( 380.0000000000001137, 0.000000000000000000, -376.8750000000000000 ) ) ;
#884 = ORIENTED_EDGE ( 'NONE', *, *, #432, .T. ) ;
#885 = ADVANCED_FACE ( 'NONE', ( #610 ), #1320, .F. ) ;
#886 = AXIS2_PLACEMENT_3D ( 'NONE', #74, #292, #516 ) ;
#887 = ORIENTED_EDGE ( 'NONE', *, *, #981, .T. ) ;
#888 = APPROVAL_PERSON_ORGANIZATION ( #1042, #268, #1236 ) ;
#889 = EDGE_CURVE ( 'NONE', #554, #991, #489, .T. ) ;
#890 = DIRECTION ( 'NONE',  ( 0.000000000000000000, 1.000000000000000000, 0.000000000000000000 ) ) ;
#891 = CARTESIAN_POINT ( 'NONE',  ( 256.0000000000000000, 3.000000000000000000, -200.0000000000000000 ) ) ;
#892 = FACE_OUTER_BOUND ( 'NONE', #400, .T. ) ;
#893 = EDGE_LOOP ( 'NONE', ( #1307, #471, #448, #1135 ) ) ;
#894 = VECTOR ( 'NONE', #785, 1000.000000000000000 ) ;
#895 = FACE_OUTER_BOUND ( 'NONE', #171, .T. ) ;
#896 = DIRECTION ( 'NONE',  ( -0.000000000000000000, -0.000000000000000000, 1.000000000000000000 ) ) ;
#897 = ADVANCED_FACE ( 'NONE', ( #1026 ), #1232, .F. ) ;
#898 = CYLINDRICAL_SURFACE ( 'NONE', #788, 3.124999999999988898 ) ;
#899 = ORIENTED_EDGE ( 'NONE', *, *, #1014, .T. ) ;
#900 = ORIENTED_EDGE ( 'NONE', *, *, #1341, .F. ) ;
#901 = CYLINDRICAL_SURFACE ( 'NONE', #910, 9.999999999999980460 ) ;
#902 = CARTESIAN_POINT ( 'NONE',  ( 159.9999999999999147, 3.000000000000000000, -16.87500000000007461 ) ) ;
#903 = LINE ( 'NONE', #709, #747 ) ;
#904 = ORIENTED_EDGE ( 'NONE', *, *, #143, .F. ) ;
#905 = CARTESIAN_POINT ( 'NONE',  ( 159.9999999999999147, 3.000000000000000000, -376.8749999999999432 ) ) ;
#906 = CARTESIAN_POINT ( 'NONE',  ( 159.9999999999999147, -28.28427124746190913, -376.8749999999999432 ) ) ;
#907 = AXIS2_PLACEMENT_3D ( 'NONE', #1257, #106, #550 ) ;
#908 = CARTESIAN_POINT ( 'NONE',  ( 380.0000000000001137, 0.000000000000000000, -20.00000000000001776 ) ) ;
#909 = VERTEX_POINT ( 'NONE', #694 ) ;
#910 = AXIS2_PLACEMENT_3D ( 'NONE', #388, #706, #810 ) ;
#911 = LINE ( 'NONE', #1103, #1151 ) ;
#912 = ORIENTED_EDGE ( 'NONE', *, *, #795, .F. ) ;
#913 = CARTESIAN_POINT ( 'NONE',  ( 19.99999999999990763, -8.838834764831844382, -379.9999999999999432 ) ) ;
#914 = VECTOR ( 'NONE', #90, 1000.000000000000000 ) ;
#915 = DIRECTION ( 'NONE',  ( 0.000000000000000000, 0.000000000000000000, -1.000000000000000000 ) ) ;
#916 = VERTEX_POINT ( 'NONE', #902 ) ;
#917 = CC_DESIGN_SECURITY_CLASSIFICATION ( #169, ( #587 ) ) ;
#918 = EDGE_CURVE ( 'NONE', #1084, #457, #565, .T. ) ;
#919 = ORIENTED_EDGE ( 'NONE', *, *, #309, .F. ) ;
#920 = ORIENTED_EDGE ( 'NONE', *, *, #317, .T. ) ;
#921 = FACE_BOUND ( 'NONE', #572, .T. ) ;
#922 = DIRECTION ( 'NONE',  ( -0.000000000000000000, 1.000000000000000000, -0.000000000000000000 ) ) ;
#923 = DIRECTION ( 'NONE',  ( 0.000000000000000000, 0.000000000000000000, 1.000000000000000000 ) ) ;
#924 = COORDINATED_UNIVERSAL_TIME_OFFSET ( 8, 0, .AHEAD. ) ;
#925 = EDGE_LOOP ( 'NONE', ( #656, #815, #1190, #66 ) ) ;
#926 = FACE_OUTER_BOUND ( 'NONE', #728, .T. ) ;
#927 = CYLINDRICAL_SURFACE ( 'NONE', #1242, 10.00000000000000888 ) ;
#928 = EDGE_CURVE ( 'NONE', #787, #443, #197, .T. ) ;
#929 = DIRECTION ( 'NONE',  ( 0.000000000000000000, 1.000000000000000000, -0.000000000000000000 ) ) ;
#930 = AXIS2_PLACEMENT_3D ( 'NONE', #35, #980, #142 ) ;
#931 = VERTEX_POINT ( 'NONE', #1219 ) ;
#932 = DIRECTION ( 'NONE',  ( 0.000000000000000000, 0.000000000000000000, 1.000000000000000000 ) ) ;
#933 = DIRECTION ( 'NONE',  ( 0.000000000000000000, 0.000000000000000000, 1.000000000000000000 ) ) ;
#934 = CYLINDRICAL_SURFACE ( 'NONE', #847, 3.124999999999988898 ) ;
#935 = CIRCLE ( 'NONE', #437, 3.124999999999999112 ) ;
#936 = ADVANCED_FACE ( 'NONE', ( #180 ), #1212, .F. ) ;
#937 = PERSON_AND_ORGANIZATION_ROLE ( 'design_supplier' ) ;
#938 = CARTESIAN_POINT ( 'NONE',  ( 400.0000000000000000, 0.000000000000000000, -400.0000000000000000 ) ) ;
#939 = DIRECTION ( 'NONE',  ( 0.000000000000000000, 0.000000000000000000, -1.000000000000000000 ) ) ;
#940 = CARTESIAN_POINT ( 'NONE',  ( 159.9999999999999147, 0.000000000000000000, -379.9999999999999432 ) ) ;
#941 = CARTESIAN_POINT ( 'NONE',  ( 19.99999999999990763, 0.000000000000000000, -16.87500000000007461 ) ) ;
#942 = CALENDAR_DATE ( 2024, 25, 9 ) ;
#943 = VECTOR ( 'NONE', #624, 1000.000000000000000 ) ;
#944 = EDGE_LOOP ( 'NONE', ( #600, #349, #1191, #588 ) ) ;
#945 = ADVANCED_FACE ( 'NONE', ( #409 ), #89, .F. ) ;
#946 = ADVANCED_BREP_SHAPE_REPRESENTATION ( 'Base (Aluminium)', ( #1334, #1166 ), #719 ) ;
#947 = DIRECTION ( 'NONE',  ( -0.000000000000000000, 1.000000000000000000, -0.000000000000000000 ) ) ;
#948 = DIRECTION ( 'NONE',  ( 0.000000000000000000, 0.000000000000000000, -1.000000000000000000 ) ) ;
#949 = FACE_OUTER_BOUND ( 'NONE', #944, .T. ) ;
#950 = DATE_AND_TIME ( #219, #1019 ) ;
#951 = VECTOR ( 'NONE', #1130, 1000.000000000000000 ) ;
#952 = ORIENTED_EDGE ( 'NONE', *, *, #530, .F. ) ;
#953 = AXIS2_PLACEMENT_3D ( 'NONE', #157, #269, #988 ) ;
#954 = ADVANCED_FACE ( 'NONE', ( #926 ), #962, .F. ) ;
#955 = DIRECTION ( 'NONE',  ( 0.000000000000000000, 0.000000000000000000, -1.000000000000000000 ) ) ;
#956 = APPLICATION_CONTEXT ( 'configuration controlled 3d designs of mechanical parts and assemblies' ) ;
#957 = FACE_BOUND ( 'NONE', #1228, .T. ) ;
#958 = CARTESIAN_POINT ( 'NONE',  ( 144.0000000000000568, 3.000000000000000000, -196.8750000000000284 ) ) ;
#959 = CIRCLE ( 'NONE', #43, 3.124999999999988898 ) ;
#960 = ORIENTED_EDGE ( 'NONE', *, *, #973, .F. ) ;
#961 = AXIS2_PLACEMENT_3D ( 'NONE', #580, #813, #1220 ) ;
#962 = CYLINDRICAL_SURFACE ( 'NONE', #413, 3.124999999999988898 ) ;
#963 = DIRECTION ( 'NONE',  ( -0.000000000000000000, 1.000000000000000000, -0.000000000000000000 ) ) ;
#964 = DIRECTION ( 'NONE',  ( 0.000000000000000000, 1.000000000000000000, -0.000000000000000000 ) ) ;
#965 = AXIS2_PLACEMENT_3D ( 'NONE', #1245, #101, #642 ) ;
#966 = ORIENTED_EDGE ( 'NONE', *, *, #159, .F. ) ;
#967 = CYLINDRICAL_SURFACE ( 'NONE', #241, 3.125000000000016875 ) ;
#968 = DIRECTION ( 'NONE',  ( 0.000000000000000000, 1.000000000000000000, -0.000000000000000000 ) ) ;
#969 = CIRCLE ( 'NONE', #386, 3.124999999999988898 ) ;
#970 = VERTEX_POINT ( 'NONE', #444 ) ;
#971 = DIRECTION ( 'NONE',  ( -0.000000000000000000, 1.000000000000000000, -0.000000000000000000 ) ) ;
#972 = CARTESIAN_POINT ( 'NONE',  ( 89.99999999999938893, 3.000000000000000000, -249.9999999999999432 ) ) ;
#973 = EDGE_CURVE ( 'NONE', #1108, #251, #302, .T. ) ;
#974 = CIRCLE ( 'NONE', #740, 3.124999999999988898 ) ;
#975 = ORIENTED_EDGE ( 'NONE', *, *, #850, .T. ) ;
#976 = CARTESIAN_POINT ( 'NONE',  ( 159.9999999999999147, 0.000000000000000000, -20.00000000000007461 ) ) ;
#977 = FACE_BOUND ( 'NONE', #789, .T. ) ;
#978 = ORIENTED_EDGE ( 'NONE', *, *, #1223, .T. ) ;
#979 = LINE ( 'NONE', #462, #854 ) ;
#980 = DIRECTION ( 'NONE',  ( -0.000000000000000000, 1.000000000000000000, -0.000000000000000000 ) ) ;
#981 = EDGE_CURVE ( 'NONE', #690, #1331, #1186, .T. ) ;
#982 = AXIS2_PLACEMENT_3D ( 'NONE', #1178, #890, #148 ) ;
#983 = VECTOR ( 'NONE', #794, 1000.000000000000000 ) ;
#984 = VERTEX_POINT ( 'NONE', #1156 ) ;
#985 = ORIENTED_EDGE ( 'NONE', *, *, #871, .T. ) ;
#986 = ORIENTED_EDGE ( 'NONE', *, *, #466, .F. ) ;
#987 = CARTESIAN_POINT ( 'NONE',  ( 144.0000000000000568, -8.838834764831844382, -203.1250000000000000 ) ) ;
#988 = DIRECTION ( 'NONE',  ( 0.000000000000000000, 0.000000000000000000, 1.000000000000000000 ) ) ;
#989 = VERTEX_POINT ( 'NONE', #521 ) ;
#990 = ADVANCED_FACE ( 'NONE', ( #434 ), #210, .F. ) ;
#991 = VERTEX_POINT ( 'NONE', #938 ) ;
#992 = LINE ( 'NONE', #657, #593 ) ;
#993 = CARTESIAN_POINT ( 'NONE',  ( 0.000000000000000000, 3.000000000000000000, 0.000000000000000000 ) ) ;
#994 = CARTESIAN_POINT ( 'NONE',  ( 159.9999999999999147, 0.000000000000000000, -23.12500000000007105 ) ) ;
#995 = ORIENTED_EDGE ( 'NONE', *, *, #507, .T. ) ;
#996 = ADVANCED_FACE ( 'NONE', ( #12 ), #216, .F. ) ;
#997 = AXIS2_PLACEMENT_3D ( 'NONE', #495, #707, #1328 ) ;
#998 = ORIENTED_EDGE ( 'NONE', *, *, #317, .F. ) ;
#999 = APPROVAL_PERSON_ORGANIZATION ( #1254, #224, #420 ) ;
#1000 = CARTESIAN_POINT ( 'NONE',  ( 19.99999999999990763, 3.000000000000000000, -23.12500000000007105 ) ) ;
#1001 = CYLINDRICAL_SURFACE ( 'NONE', #953, 3.124999999999999112 ) ;
#1002 = CARTESIAN_POINT ( 'NONE',  ( 0.000000000000000000, 3.000000000000000000, 0.000000000000000000 ) ) ;
#1003 = ORIENTED_EDGE ( 'NONE', *, *, #456, .F. ) ;
#1004 = AXIS2_PLACEMENT_3D ( 'NONE', #1070, #1078, #134 ) ;
#1005 = EDGE_LOOP ( 'NONE', ( #1170, #699, #1149, #99 ) ) ;
#1006 = CARTESIAN_POINT ( 'NONE',  ( 310.0000000000006253, 3.000000000000000000, -160.0000000000000853 ) ) ;
#1007 = FACE_BOUND ( 'NONE', #558, .T. ) ;
#1008 = DIRECTION ( 'NONE',  ( -1.000000000000000000, -0.000000000000000000, -0.000000000000000000 ) ) ;
#1009 = AXIS2_PLACEMENT_3D ( 'NONE', #730, #1250, #1040 ) ;
#1010 = ORIENTED_EDGE ( 'NONE', *, *, #1076, .F. ) ;
#1011 = FACE_OUTER_BOUND ( 'NONE', #163, .T. ) ;
#1012 = FACE_BOUND ( 'NONE', #1222, .T. ) ;
#1013 = DIRECTION ( 'NONE',  ( -0.000000000000000000, 1.000000000000000000, -0.000000000000000000 ) ) ;
#1014 = EDGE_CURVE ( 'NONE', #537, #1311, #1295, .T. ) ;
#1015 = ORIENTED_EDGE ( 'NONE', *, *, #1317, .F. ) ;
#1016 = DIRECTION ( 'NONE',  ( 0.000000000000000000, 0.000000000000000000, -1.000000000000000000 ) ) ;
#1017 = ORIENTED_EDGE ( 'NONE', *, *, #277, .T. ) ;
#1018 = FACE_BOUND ( 'NONE', #666, .T. ) ;
#1019 = LOCAL_TIME ( 11, 5, 56.00000000000000000, #830 ) ;
#1020 = DIRECTION ( 'NONE',  ( 0.000000000000000000, 0.000000000000000000, -1.000000000000000000 ) ) ;
#1021 = DIRECTION ( 'NONE',  ( -0.000000000000000000, 1.000000000000000000, -0.000000000000000000 ) ) ;
#1022 = EDGE_CURVE ( 'NONE', #1311, #862, #423, .T. ) ;
#1023 = ORIENTED_EDGE ( 'NONE', *, *, #918, .T. ) ;
#1024 = AXIS2_PLACEMENT_3D ( 'NONE', #485, #604, #1020 ) ;
#1025 = ORIENTED_EDGE ( 'NONE', *, *, #1317, .T. ) ;
#1026 = FACE_OUTER_BOUND ( 'NONE', #768, .T. ) ;
#1027 = AXIS2_PLACEMENT_3D ( 'NONE', #1094, #599, #75 ) ;
#1028 = LINE ( 'NONE', #841, #505 ) ;
#1029 = CC_DESIGN_PERSON_AND_ORGANIZATION_ASSIGNMENT ( #336, #937, ( #587 ) ) ;
#1030 = ADVANCED_FACE ( 'NONE', ( #623 ), #753, .F. ) ;
#1031 = VERTEX_POINT ( 'NONE', #839 ) ;
#1032 = CARTESIAN_POINT ( 'NONE',  ( 159.9999999999994031, 3.000000000000000000, -160.0000000000000853 ) ) ;
#1033 = CARTESIAN_POINT ( 'NONE',  ( 159.9999999999999147, -28.28427124746190913, -23.12500000000007105 ) ) ;
#1034 = CARTESIAN_POINT ( 'NONE',  ( 256.0000000000000000, -8.838834764831844382, -200.0000000000000000 ) ) ;
#1035 = CIRCLE ( 'NONE', #184, 10.00000000000000888 ) ;
#1036 = COORDINATED_UNIVERSAL_TIME_OFFSET ( 8, 0, .AHEAD. ) ;
#1037 = EDGE_CURVE ( 'NONE', #909, #501, #1052, .T. ) ;
#1038 = ORIENTED_EDGE ( 'NONE', *, *, #3, .F. ) ;
#1039 = CARTESIAN_POINT ( 'NONE',  ( 19.99999999999990763, 3.000000000000000000, -20.00000000000007461 ) ) ;
#1040 = DIRECTION ( 'NONE',  ( 0.000000000000000000, 0.000000000000000000, 1.000000000000000000 ) ) ;
#1041 = CARTESIAN_POINT ( 'NONE',  ( 19.99999999999990763, 3.000000000000000000, -379.9999999999999432 ) ) ;
#1042 = PERSON_AND_ORGANIZATION ( #1187, #124 ) ;
#1043 = VERTEX_POINT ( 'NONE', #313 ) ;
#1044 = DIRECTION ( 'NONE',  ( 0.000000000000000000, 1.000000000000000000, 0.000000000000000000 ) ) ;
#1045 = AXIS2_PLACEMENT_3D ( 'NONE', #1006, #1211, #1185 ) ;
#1046 = FACE_OUTER_BOUND ( 'NONE', #112, .T. ) ;
#1047 = DIRECTION ( 'NONE',  ( -0.000000000000000000, 1.000000000000000000, -0.000000000000000000 ) ) ;
#1048 = CARTESIAN_POINT ( 'NONE',  ( 159.9999999999999147, 0.000000000000000000, -383.1249999999999432 ) ) ;
#1049 = AXIS2_PLACEMENT_3D ( 'NONE', #767, #551, #655 ) ;
#1050 = CARTESIAN_POINT ( 'NONE',  ( 0.000000000000000000, 0.000000000000000000, 0.000000000000000000 ) ) ;
#1051 = EDGE_LOOP ( 'NONE', ( #773, #675, #37, #912 ) ) ;
#1052 = LINE ( 'NONE', #1162, #519 ) ;
#1053 = FACE_BOUND ( 'NONE', #295, .T. ) ;
#1054 = FACE_OUTER_BOUND ( 'NONE', #10, .T. ) ;
#1055 = EDGE_CURVE ( 'NONE', #52, #1089, #844, .T. ) ;
#1056 = PERSON_AND_ORGANIZATION ( #1187, #124 ) ;
#1057 = LINE ( 'NONE', #120, #780 ) ;
#1058 = LINE ( 'NONE', #511, #427 ) ;
#1059 = VERTEX_POINT ( 'NONE', #223 ) ;
#1060 = AXIS2_PLACEMENT_3D ( 'NONE', #1270, #1182, #1074 ) ;
#1061 = AXIS2_PLACEMENT_3D ( 'NONE', #891, #584, #54 ) ;
#1062 = CARTESIAN_POINT ( 'NONE',  ( 256.0000000000000000, 3.000000000000000000, -200.0000000000000000 ) ) ;
#1063 = CARTESIAN_POINT ( 'NONE',  ( 310.0000000000006253, 0.000000000000000000, -160.0000000000000853 ) ) ;
#1064 = DIRECTION ( 'NONE',  ( -0.000000000000000000, 1.000000000000000000, -0.000000000000000000 ) ) ;
#1065 = CIRCLE ( 'NONE', #19, 10.00000000000000888 ) ;
#1066 = EDGE_CURVE ( 'NONE', #1031, #373, #1057, .T. ) ;
#1067 = DIRECTION ( 'NONE',  ( 0.000000000000000000, 0.000000000000000000, 1.000000000000000000 ) ) ;
#1068 = CARTESIAN_POINT ( 'NONE',  ( 89.99999999999938893, 3.000000000000000000, -239.9999999999999432 ) ) ;
#1069 = ORIENTED_EDGE ( 'NONE', *, *, #889, .T. ) ;
#1070 = CARTESIAN_POINT ( 'NONE',  ( 19.99999999999990763, 0.000000000000000000, -20.00000000000007461 ) ) ;
#1071 = DIRECTION ( 'NONE',  ( 0.000000000000000000, 1.000000000000000000, -0.000000000000000000 ) ) ;
#1072 = VECTOR ( 'NONE', #211, 1000.000000000000000 ) ;
#1073 = ORIENTED_EDGE ( 'NONE', *, *, #792, .F. ) ;
#1074 = DIRECTION ( 'NONE',  ( 0.000000000000000000, 0.000000000000000000, -1.000000000000000000 ) ) ;
#1075 = FACE_BOUND ( 'NONE', #415, .T. ) ;
#1076 = EDGE_CURVE ( 'NONE', #360, #387, #585, .T. ) ;
#1077 = EDGE_LOOP ( 'NONE', ( #1017, #1204 ) ) ;
#1078 = DIRECTION ( 'NONE',  ( -0.000000000000000000, 1.000000000000000000, -0.000000000000000000 ) ) ;
#1079 = CYLINDRICAL_SURFACE ( 'NONE', #930, 3.124999999999988898 ) ;
#1080 = ORIENTED_EDGE ( 'NONE', *, *, #1066, .F. ) ;
#1081 = CIRCLE ( 'NONE', #478, 10.00000000000000888 ) ;
#1082 = EDGE_LOOP ( 'NONE', ( #185, #145, #705, #312 ) ) ;
#1083 = DIRECTION ( 'NONE',  ( -0.000000000000000000, 1.000000000000000000, -0.000000000000000000 ) ) ;
#1084 = VERTEX_POINT ( 'NONE', #1244 ) ;
#1085 = DIRECTION ( 'NONE',  ( -0.000000000000000000, 1.000000000000000000, -0.000000000000000000 ) ) ;
#1086 = DIRECTION ( 'NONE',  ( -1.000000000000000000, -0.000000000000000000, -0.000000000000000000 ) ) ;
#1087 = EDGE_CURVE ( 'NONE', #532, #443, #1121, .T. ) ;
#1088 = CIRCLE ( 'NONE', #504, 3.124999999999988898 ) ;
#1089 = VERTEX_POINT ( 'NONE', #1347 ) ;
#1090 = ORIENTED_EDGE ( 'NONE', *, *, #1173, .F. ) ;
#1091 = ORIENTED_EDGE ( 'NONE', *, *, #1109, .F. ) ;
#1092 = CARTESIAN_POINT ( 'NONE',  ( 159.9999999999994031, 0.000000000000000000, -156.8750000000000853 ) ) ;
#1093 = CARTESIAN_POINT ( 'NONE',  ( 0.000000000000000000, 3.000000000000000000, -400.0000000000000000 ) ) ;
#1094 = CARTESIAN_POINT ( 'NONE',  ( 19.99999999999938183, 3.000000000000000000, -239.9999999999999432 ) ) ;
#1095 = EDGE_CURVE ( 'NONE', #818, #78, #214, .T. ) ;
#1096 = ORIENTED_EDGE ( 'NONE', *, *, #491, .F. ) ;
#1097 = EDGE_LOOP ( 'NONE', ( #919, #209, #920, #900 ) ) ;
#1098 = LINE ( 'NONE', #275, #421 ) ;
#1099 = DIRECTION ( 'NONE',  ( 0.000000000000000000, 1.000000000000000000, 0.000000000000000000 ) ) ;
#1100 = FACE_OUTER_BOUND ( 'NONE', #781, .T. ) ;
#1101 = ORIENTED_EDGE ( 'NONE', *, *, #801, .F. ) ;
#1102 = ORIENTED_EDGE ( 'NONE', *, *, #161, .T. ) ;
#1103 = CARTESIAN_POINT ( 'NONE',  ( 0.000000000000000000, 3.000000000000000000, 0.000000000000000000 ) ) ;
#1104 = FACE_BOUND ( 'NONE', #341, .T. ) ;
#1105 = CARTESIAN_POINT ( 'NONE',  ( 159.9999999999999147, 3.000000000000000000, -23.12500000000007105 ) ) ;
#1106 = ORIENTED_EDGE ( 'NONE', *, *, #1274, .T. ) ;
#1107 = AXIS2_PLACEMENT_3D ( 'NONE', #359, #861, #1271 ) ;
#1108 = VERTEX_POINT ( 'NONE', #5 ) ;
#1109 = EDGE_CURVE ( 'NONE', #499, #1155, #717, .T. ) ;
#1110 = FACE_OUTER_BOUND ( 'NONE', #380, .T. ) ;
#1111 = DIRECTION ( 'NONE',  ( 0.000000000000000000, 0.000000000000000000, 1.000000000000000000 ) ) ;
#1112 = CARTESIAN_POINT ( 'NONE',  ( 159.9999999999994031, -28.28427124746190913, -236.8749999999999432 ) ) ;
#1113 = ORIENTED_EDGE ( 'NONE', *, *, #110, .T. ) ;
#1114 = CARTESIAN_POINT ( 'NONE',  ( 159.9999999999999147, 3.000000000000000000, -383.1249999999999432 ) ) ;
#1115 = ORIENTED_EDGE ( 'NONE', *, *, #879, .F. ) ;
#1116 = FACE_BOUND ( 'NONE', #796, .T. ) ;
#1117 = EDGE_CURVE ( 'NONE', #381, #931, #541, .T. ) ;
#1118 = DIRECTION ( 'NONE',  ( 0.000000000000000000, 1.000000000000000000, -0.000000000000000000 ) ) ;
#1119 = ORIENTED_EDGE ( 'NONE', *, *, #60, .T. ) ;
#1120 = ORIENTED_EDGE ( 'NONE', *, *, #1235, .T. ) ;
#1121 = CIRCLE ( 'NONE', #325, 3.124999999999999112 ) ;
#1122 = CARTESIAN_POINT ( 'NONE',  ( 159.9999999999994031, -28.28427124746190913, -160.0000000000000853 ) ) ;
#1123 = VERTEX_POINT ( 'NONE', #774 ) ;
#1124 = DIRECTION ( 'NONE',  ( -0.000000000000000000, 1.000000000000000000, -0.000000000000000000 ) ) ;
#1125 = AXIS2_PLACEMENT_3D ( 'NONE', #778, #567, #483 ) ;
#1126 = CYLINDRICAL_SURFACE ( 'NONE', #548, 3.124999999999988898 ) ;
#1127 = ORIENTED_EDGE ( 'NONE', *, *, #45, .T. ) ;
#1128 = CIRCLE ( 'NONE', #1172, 10.00000000000000888 ) ;
#1129 = VERTEX_POINT ( 'NONE', #1284 ) ;
#1130 = DIRECTION ( 'NONE',  ( -0.000000000000000000, 1.000000000000000000, -0.000000000000000000 ) ) ;
#1131 = DIRECTION ( 'NONE',  ( -0.000000000000000000, 1.000000000000000000, -0.000000000000000000 ) ) ;
#1132 = CYLINDRICAL_SURFACE ( 'NONE', #201, 3.124999999999988898 ) ;
#1133 = PERSON_AND_ORGANIZATION ( #1187, #124 ) ;
#1134 = EDGE_CURVE ( 'NONE', #1269, #1084, #458, .T. ) ;
#1135 = ORIENTED_EDGE ( 'NONE', *, *, #973, .T. ) ;
#1136 = CARTESIAN_POINT ( 'NONE',  ( 144.0000000000000568, 3.000000000000000000, -200.0000000000000000 ) ) ;
#1137 = CARTESIAN_POINT ( 'NONE',  ( 0.000000000000000000, 0.000000000000000000, 0.000000000000000000 ) ) ;
#1138 = DIRECTION ( 'NONE',  ( 0.000000000000000000, 1.000000000000000000, 0.000000000000000000 ) ) ;
#1139 = AXIS2_PLACEMENT_3D ( 'NONE', #1233, #1, #948 ) ;
#1140 = APPROVAL_DATE_TIME ( #837, #1200 ) ;
#1141 = AXIS2_PLACEMENT_3D ( 'NONE', #240, #651, #853 ) ;
#1142 = EDGE_CURVE ( 'NONE', #1043, #196, #131, .T. ) ;
#1143 = ORIENTED_EDGE ( 'NONE', *, *, #689, .F. ) ;
#1144 = DIRECTION ( 'NONE',  ( -0.000000000000000000, 1.000000000000000000, -0.000000000000000000 ) ) ;
#1145 = DIRECTION ( 'NONE',  ( 0.000000000000000000, 1.000000000000000000, -0.000000000000000000 ) ) ;
#1146 = LINE ( 'NONE', #1246, #86 ) ;
#1147 = AXIS2_PLACEMENT_3D ( 'NONE', #337, #113, #1150 ) ;
#1148 = DATE_AND_TIME ( #4, #303 ) ;
#1149 = ORIENTED_EDGE ( 'NONE', *, *, #92, .T. ) ;
#1150 = DIRECTION ( 'NONE',  ( 0.000000000000000000, 0.000000000000000000, -1.000000000000000000 ) ) ;
#1151 = VECTOR ( 'NONE', #172, 1000.000000000000000 ) ;
#1152 = FACE_BOUND ( 'NONE', #685, .T. ) ;
#1153 = ORIENTED_EDGE ( 'NONE', *, *, #348, .T. ) ;
#1154 = VECTOR ( 'NONE', #827, 1000.000000000000000 ) ;
#1155 = VERTEX_POINT ( 'NONE', #874 ) ;
#1156 = CARTESIAN_POINT ( 'NONE',  ( 89.99999999999938893, 0.000000000000000000, -229.9999999999999147 ) ) ;
#1157 = DIRECTION ( 'NONE',  ( 0.000000000000000000, 0.000000000000000000, 1.000000000000000000 ) ) ;
#1158 = DIRECTION ( 'NONE',  ( -0.000000000000000000, 1.000000000000000000, -0.000000000000000000 ) ) ;
#1159 = EDGE_CURVE ( 'NONE', #989, #670, #757, .T. ) ;
#1160 = APPROVAL_DATE_TIME ( #645, #224 ) ;
#1161 = CLOSED_SHELL ( 'NONE', ( #756, #683, #936, #1282, #340, #299, #990, #646, #290, #945, #11, #392, #615, #1256, #954, #1030, #674, #590, #751, #235, #858, #996, #1216, #816, #885, #367, #411, #213, #843, #85, #1208, #50, #399, #334, #897, #102 ) ) ;
#1162 = CARTESIAN_POINT ( 'NONE',  ( 19.99999999999938183, -28.28427124746190913, -156.8750000000000568 ) ) ;
#1163 = CYLINDRICAL_SURFACE ( 'NONE', #459, 3.125000000000016875 ) ;
#1164 = CARTESIAN_POINT ( 'NONE',  ( 380.0000000000001137, 3.000000000000000000, -20.00000000000001776 ) ) ;
#1165 = ORIENTED_EDGE ( 'NONE', *, *, #1022, .F. ) ;
#1166 = AXIS2_PLACEMENT_3D ( 'NONE', #1050, #16, #111 ) ;
#1167 = EDGE_CURVE ( 'NONE', #78, #818, #974, .T. ) ;
#1168 = DIRECTION ( 'NONE',  ( 0.000000000000000000, 0.000000000000000000, -1.000000000000000000 ) ) ;
#1169 = FACE_OUTER_BOUND ( 'NONE', #264, .T. ) ;
#1170 = ORIENTED_EDGE ( 'NONE', *, *, #60, .F. ) ;
#1171 = CARTESIAN_POINT ( 'NONE',  ( 380.0000000000001137, 3.000000000000000000, -23.12500000000001776 ) ) ;
#1172 = AXIS2_PLACEMENT_3D ( 'NONE', #578, #672, #869 ) ;
#1173 = EDGE_CURVE ( 'NONE', #713, #357, #476, .T. ) ;
#1174 = ORIENTED_EDGE ( 'NONE', *, *, #1324, .F. ) ;
#1175 = CARTESIAN_POINT ( 'NONE',  ( 144.0000000000000568, -8.838834764831844382, -200.0000000000000000 ) ) ;
#1176 = CYLINDRICAL_SURFACE ( 'NONE', #835, 10.00000000000000888 ) ;
#1177 = VERTEX_POINT ( 'NONE', #138 ) ;
#1178 = CARTESIAN_POINT ( 'NONE',  ( 19.99999999999938183, 3.000000000000000000, -160.0000000000000853 ) ) ;
#1179 = CARTESIAN_POINT ( 'NONE',  ( 89.99999999999938893, -28.28427124746190913, -229.9999999999999147 ) ) ;
#1180 = AXIS2_PLACEMENT_3D ( 'NONE', #535, #114, #845 ) ;
#1181 = ORIENTED_EDGE ( 'NONE', *, *, #426, .F. ) ;
#1182 = DIRECTION ( 'NONE',  ( -0.000000000000000000, 1.000000000000000000, -0.000000000000000000 ) ) ;
#1183 = DIRECTION ( 'NONE',  ( 0.000000000000000000, 0.000000000000000000, -1.000000000000000000 ) ) ;
#1184 = ORIENTED_EDGE ( 'NONE', *, *, #1274, .F. ) ;
#1185 = DIRECTION ( 'NONE',  ( 0.000000000000000000, 0.000000000000000000, -1.000000000000000000 ) ) ;
#1186 = CIRCLE ( 'NONE', #370, 3.124999999999988898 ) ;
#1187 = PERSON ( 'UNSPECIFIED', 'UNSPECIFIED', 'UNSPECIFIED', ('UNSPECIFIED'), ('UNSPECIFIED'), ('UNSPECIFIED') ) ;
#1188 = ORIENTED_EDGE ( 'NONE', *, *, #1324, .T. ) ;
#1189 = CC_DESIGN_APPROVAL ( #224, ( #1265 ) ) ;
#1190 = ORIENTED_EDGE ( 'NONE', *, *, #258, .F. ) ;
#1191 = ORIENTED_EDGE ( 'NONE', *, *, #1087, .T. ) ;
#1192 = CARTESIAN_POINT ( 'NONE',  ( 400.0000000000000000, 3.000000000000000000, -400.0000000000000000 ) ) ;
#1193 = DIRECTION ( 'NONE',  ( 0.000000000000000000, 1.000000000000000000, -0.000000000000000000 ) ) ;
#1194 = EDGE_CURVE ( 'NONE', #457, #1084, #1230, .T. ) ;
#1195 = CIRCLE ( 'NONE', #1305, 3.124999999999988898 ) ;
#1196 = ORIENTED_EDGE ( 'NONE', *, *, #247, .F. ) ;
#1197 = ORIENTED_EDGE ( 'NONE', *, *, #1300, .T. ) ;
#1198 = CARTESIAN_POINT ( 'NONE',  ( 19.99999999999938183, 3.000000000000000000, -156.8750000000000568 ) ) ;
#1199 = CARTESIAN_POINT ( 'NONE',  ( 159.9999999999999147, -28.28427124746190913, -383.1249999999999432 ) ) ;
#1200 = APPROVAL ( #206, 'UNSPECIFIED' ) ;
#1201 = PRODUCT_DEFINITION_SHAPE ( 'NONE', 'NONE',  #1265 ) ;
#1202 = EDGE_LOOP ( 'NONE', ( #1091, #608 ) ) ;
#1203 = CIRCLE ( 'NONE', #384, 3.124999999999999112 ) ;
#1204 = ORIENTED_EDGE ( 'NONE', *, *, #69, .T. ) ;
#1205 = CARTESIAN_POINT ( 'NONE',  ( 0.000000000000000000, 0.000000000000000000, 0.000000000000000000 ) ) ;
#1206 = LINE ( 'NONE', #1199, #1215 ) ;
#1207 = ORIENTED_EDGE ( 'NONE', *, *, #377, .F. ) ;
#1208 = ADVANCED_FACE ( 'NONE', ( #242 ), #967, .F. ) ;
#1209 = AXIS2_PLACEMENT_3D ( 'NONE', #1062, #100, #669 ) ;
#1210 = ORIENTED_EDGE ( 'NONE', *, *, #782, .T. ) ;
#1211 = DIRECTION ( 'NONE',  ( 0.000000000000000000, 1.000000000000000000, -0.000000000000000000 ) ) ;
#1212 = CYLINDRICAL_SURFACE ( 'NONE', #262, 3.124999999999988898 ) ;
#1213 = DIRECTION ( 'NONE',  ( -0.000000000000000000, 1.000000000000000000, -0.000000000000000000 ) ) ;
#1214 = CIRCLE ( 'NONE', #676, 3.124999999999999112 ) ;
#1215 = VECTOR ( 'NONE', #490, 1000.000000000000000 ) ;
#1216 = ADVANCED_FACE ( 'NONE', ( #249 ), #1277, .F. ) ;
#1217 = ORIENTED_EDGE ( 'NONE', *, *, #1173, .T. ) ;
#1218 = DIRECTION ( 'NONE',  ( 0.000000000000000000, 0.000000000000000000, 1.000000000000000000 ) ) ;
#1219 = CARTESIAN_POINT ( 'NONE',  ( 256.0000000000000000, 3.000000000000000000, -203.1250000000000000 ) ) ;
#1220 = DIRECTION ( 'NONE',  ( 0.000000000000000000, 0.000000000000000000, -1.000000000000000000 ) ) ;
#1221 = DIRECTION ( 'NONE',  ( 0.000000000000000000, 0.000000000000000000, 1.000000000000000000 ) ) ;
#1222 = EDGE_LOOP ( 'NONE', ( #140, #1217 ) ) ;
#1223 = EDGE_CURVE ( 'NONE', #387, #360, #1275, .T. ) ;
#1224 = CARTESIAN_POINT ( 'NONE',  ( 380.0000000000001137, 3.000000000000000000, -16.87500000000001776 ) ) ;
#1225 = EDGE_LOOP ( 'NONE', ( #776, #467, #294, #160 ) ) ;
#1226 = FACE_BOUND ( 'NONE', #46, .T. ) ;
#1227 = CARTESIAN_POINT ( 'NONE',  ( 159.9999999999999147, 0.000000000000000000, -376.8749999999999432 ) ) ;
#1228 = EDGE_LOOP ( 'NONE', ( #865, #998 ) ) ;
#1229 = ORIENTED_EDGE ( 'NONE', *, *, #918, .F. ) ;
#1230 = CIRCLE ( 'NONE', #828, 3.124999999999988898 ) ;
#1231 = ORIENTED_EDGE ( 'NONE', *, *, #734, .F. ) ;
#1232 = CYLINDRICAL_SURFACE ( 'NONE', #345, 3.125000000000016875 ) ;
#1233 = CARTESIAN_POINT ( 'NONE',  ( 19.99999999999938183, 0.000000000000000000, -160.0000000000000853 ) ) ;
#1234 = DIRECTION ( 'NONE',  ( -0.000000000000000000, 1.000000000000000000, -0.000000000000000000 ) ) ;
#1235 = EDGE_CURVE ( 'NONE', #1177, #520, #864, .T. ) ;
#1236 = APPROVAL_ROLE ( '' ) ;
#1237 = VECTOR ( 'NONE', #1085, 1000.000000000000000 ) ;
#1238 = ORIENTED_EDGE ( 'NONE', *, *, #25, .T. ) ;
#1239 = DIRECTION ( 'NONE',  ( -0.000000000000000000, 1.000000000000000000, -0.000000000000000000 ) ) ;
#1240 = CARTESIAN_POINT ( 'NONE',  ( 380.0000000000001137, 3.000000000000000000, -380.0000000000000000 ) ) ;
#1241 = DIRECTION ( 'NONE',  ( -0.000000000000000000, 1.000000000000000000, -0.000000000000000000 ) ) ;
#1242 = AXIS2_PLACEMENT_3D ( 'NONE', #1343, #417, #429 ) ;
#1243 = ORIENTED_EDGE ( 'NONE', *, *, #17, .T. ) ;
#1244 = CARTESIAN_POINT ( 'NONE',  ( 159.9999999999994031, 3.000000000000000000, -163.1250000000000853 ) ) ;
#1245 = CARTESIAN_POINT ( 'NONE',  ( 89.99999999999938893, -28.28427124746190913, -239.9999999999999432 ) ) ;
#1246 = CARTESIAN_POINT ( 'NONE',  ( 89.99999999999938893, -28.28427124746190913, -150.0000000000000853 ) ) ;
#1247 = AXIS2_PLACEMENT_3D ( 'NONE', #750, #1158, #233 ) ;
#1248 = EDGE_CURVE ( 'NONE', #640, #1299, #1081, .T. ) ;
#1249 = CARTESIAN_POINT ( 'NONE',  ( 380.0000000000001137, -8.838834764831844382, -380.0000000000000000 ) ) ;
#1250 = DIRECTION ( 'NONE',  ( 0.000000000000000000, 1.000000000000000000, 0.000000000000000000 ) ) ;
#1251 = LINE ( 'NONE', #226, #162 ) ;
#1252 = AXIS2_PLACEMENT_3D ( 'NONE', #238, #332, #851 ) ;
#1253 = CIRCLE ( 'NONE', #997, 3.124999999999988898 ) ;
#1254 = PERSON_AND_ORGANIZATION ( #1187, #124 ) ;
#1255 = ORIENTED_EDGE ( 'NONE', *, *, #258, .T. ) ;
#1256 = ADVANCED_FACE ( 'NONE', ( #375 ), #1079, .F. ) ;
#1257 = CARTESIAN_POINT ( 'NONE',  ( 0.000000000000000000, 3.000000000000000000, 0.000000000000000000 ) ) ;
#1258 = VECTOR ( 'NONE', #368, 1000.000000000000000 ) ;
#1259 = DIRECTION ( 'NONE',  ( -0.000000000000000000, 1.000000000000000000, -0.000000000000000000 ) ) ;
#1260 = FACE_OUTER_BOUND ( 'NONE', #1082, .T. ) ;
#1261 = CIRCLE ( 'NONE', #678, 3.125000000000016875 ) ;
#1262 = COORDINATED_UNIVERSAL_TIME_OFFSET ( 8, 0, .AHEAD. ) ;
#1263 = ORIENTED_EDGE ( 'NONE', *, *, #439, .T. ) ;
#1264 = DIRECTION ( 'NONE',  ( -0.000000000000000000, 1.000000000000000000, -0.000000000000000000 ) ) ;
#1265 = PRODUCT_DEFINITION ( 'UNKNOWN', '', #587, #616 ) ;
#1266 = DIRECTION ( 'NONE',  ( -0.000000000000000000, 1.000000000000000000, -0.000000000000000000 ) ) ;
#1267 = ORIENTED_EDGE ( 'NONE', *, *, #928, .T. ) ;
#1268 = EDGE_CURVE ( 'NONE', #668, #916, #849, .T. ) ;
#1269 = VERTEX_POINT ( 'NONE', #369 ) ;
#1270 = CARTESIAN_POINT ( 'NONE',  ( 256.0000000000000000, 0.000000000000000000, -200.0000000000000000 ) ) ;
#1271 = DIRECTION ( 'NONE',  ( 0.000000000000000000, 0.000000000000000000, -1.000000000000000000 ) ) ;
#1272 = EDGE_LOOP ( 'NONE', ( #1196, #274, #1023, #436 ) ) ;
#1273 = CARTESIAN_POINT ( 'NONE',  ( 380.0000000000001137, 0.000000000000000000, -23.12500000000001776 ) ) ;
#1274 = EDGE_CURVE ( 'NONE', #554, #52, #673, .T. ) ;
#1275 = CIRCLE ( 'NONE', #695, 3.124999999999988898 ) ;
#1276 = ORIENTED_EDGE ( 'NONE', *, *, #598, .T. ) ;
#1277 = CYLINDRICAL_SURFACE ( 'NONE', #144, 3.124999999999988898 ) ;
#1278 = CARTESIAN_POINT ( 'NONE',  ( 400.0000000000000000, 0.000000000000000000, 0.000000000000000000 ) ) ;
#1279 = ORIENTED_EDGE ( 'NONE', *, *, #1194, .T. ) ;
#1280 = CARTESIAN_POINT ( 'NONE',  ( 310.0000000000006253, 0.000000000000000000, -170.0000000000000568 ) ) ;
#1281 = CARTESIAN_POINT ( 'NONE',  ( 19.99999999999990763, 3.000000000000000000, -379.9999999999999432 ) ) ;
#1282 = ADVANCED_FACE ( 'NONE', ( #355 ), #1001, .F. ) ;
#1283 = ORIENTED_EDGE ( 'NONE', *, *, #1341, .T. ) ;
#1284 = CARTESIAN_POINT ( 'NONE',  ( 380.0000000000001137, 0.000000000000000000, -16.87500000000001776 ) ) ;
#1285 = CARTESIAN_POINT ( 'NONE',  ( 19.99999999999938183, 3.000000000000000000, -163.1250000000001137 ) ) ;
#1286 = ORIENTED_EDGE ( 'NONE', *, *, #607, .F. ) ;
#1287 = CARTESIAN_POINT ( 'NONE',  ( 19.99999999999990763, 3.000000000000000000, -16.87500000000007461 ) ) ;
#1288 = LINE ( 'NONE', #455, #263 ) ;
#1289 = AXIS2_PLACEMENT_3D ( 'NONE', #527, #435, #840 ) ;
#1290 = EDGE_LOOP ( 'NONE', ( #265, #692, #1184, #1069 ) ) ;
#1291 = EDGE_CURVE ( 'NONE', #1059, #372, #58, .T. ) ;
#1292 = ORIENTED_EDGE ( 'NONE', *, *, #801, .T. ) ;
#1293 = VERTEX_POINT ( 'NONE', #574 ) ;
#1294 = DIRECTION ( 'NONE',  ( -0.000000000000000000, 1.000000000000000000, -0.000000000000000000 ) ) ;
#1295 = CIRCLE ( 'NONE', #1147, 3.124999999999988898 ) ;
#1296 = VERTEX_POINT ( 'NONE', #165 ) ;
#1297 = CIRCLE ( 'NONE', #1125, 3.124999999999988898 ) ;
#1298 = PRODUCT ( 'Base (Aluminium)', 'Base (Aluminium)', '', ( #842 ) ) ;
#1299 = VERTEX_POINT ( 'NONE', #972 ) ;
#1300 = EDGE_CURVE ( 'NONE', #487, #146, #784, .T. ) ;
#1301 = CARTESIAN_POINT ( 'NONE',  ( 159.9999999999994031, 3.000000000000000000, -156.8750000000000853 ) ) ;
#1302 = CARTESIAN_POINT ( 'NONE',  ( 380.0000000000001137, 3.000000000000000000, -376.8750000000000000 ) ) ;
#1303 = CYLINDRICAL_SURFACE ( 'NONE', #1323, 3.125000000000016875 ) ;
#1304 = VECTOR ( 'NONE', #573, 1000.000000000000000 ) ;
#1305 = AXIS2_PLACEMENT_3D ( 'NONE', #425, #1138, #723 ) ;
#1306 = ORIENTED_EDGE ( 'NONE', *, *, #1159, .T. ) ;
#1307 = ORIENTED_EDGE ( 'NONE', *, *, #190, .F. ) ;
#1308 = DIRECTION ( 'NONE',  ( 0.000000000000000000, 1.000000000000000000, 0.000000000000000000 ) ) ;
#1309 = PLANE ( 'NONE',  #270 ) ;
#1310 = EDGE_CURVE ( 'NONE', #52, #147, #681, .T. ) ;
#1311 = VERTEX_POINT ( 'NONE', #579 ) ;
#1312 = CIRCLE ( 'NONE', #772, 3.125000000000016875 ) ;
#1313 = EDGE_LOOP ( 'NONE', ( #614, #1346, #1210, #273 ) ) ;
#1314 = DIRECTION ( 'NONE',  ( 0.000000000000000000, 0.000000000000000000, 1.000000000000000000 ) ) ;
#1315 = CARTESIAN_POINT ( 'NONE',  ( 159.9999999999994031, -28.28427124746190913, -160.0000000000000853 ) ) ;
#1316 = FACE_OUTER_BOUND ( 'NONE', #1225, .T. ) ;
#1317 = EDGE_CURVE ( 'NONE', #931, #381, #829, .T. ) ;
#1318 = ORIENTED_EDGE ( 'NONE', *, *, #227, .T. ) ;
#1319 = CARTESIAN_POINT ( 'NONE',  ( 159.9999999999994031, 0.000000000000000000, -160.0000000000000853 ) ) ;
#1320 = CYLINDRICAL_SURFACE ( 'NONE', #56, 3.124999999999999112 ) ;
#1321 = DIRECTION ( 'NONE',  ( -1.000000000000000000, 0.000000000000000000, -0.000000000000000000 ) ) ;
#1322 = CC_DESIGN_PERSON_AND_ORGANIZATION_ASSIGNMENT ( #513, #524, ( #587 ) ) ;
#1323 = AXIS2_PLACEMENT_3D ( 'NONE', #276, #390, #1329 ) ;
#1324 = EDGE_CURVE ( 'NONE', #552, #442, #1288, .T. ) ;
#1325 = EDGE_LOOP ( 'NONE', ( #887, #486 ) ) ;
#1326 = CARTESIAN_POINT ( 'NONE',  ( 310.0000000000006253, 0.000000000000000000, -150.0000000000001137 ) ) ;
#1327 = ORIENTED_EDGE ( 'NONE', *, *, #1332, .T. ) ;
#1328 = DIRECTION ( 'NONE',  ( 0.000000000000000000, 0.000000000000000000, -1.000000000000000000 ) ) ;
#1329 = DIRECTION ( 'NONE',  ( 0.000000000000000000, 0.000000000000000000, 1.000000000000000000 ) ) ;
#1330 = ORIENTED_EDGE ( 'NONE', *, *, #1037, .F. ) ;
#1331 = VERTEX_POINT ( 'NONE', #870 ) ;
#1332 = EDGE_CURVE ( 'NONE', #589, #528, #1297, .T. ) ;
#1333 = ORIENTED_EDGE ( 'NONE', *, *, #152, .T. ) ;
#1334 = MANIFOLD_SOLID_BREP ( 'Cut-Extrude2', #1161 ) ;
#1335 = CARTESIAN_POINT ( 'NONE',  ( 159.9999999999999147, -28.28427124746190913, -16.87500000000007461 ) ) ;
#1336 = LINE ( 'NONE', #1137, #1072 ) ;
#1337 = CARTESIAN_POINT ( 'NONE',  ( 310.0000000000006253, -28.28427124746190913, -150.0000000000001137 ) ) ;
#1338 = VECTOR ( 'NONE', #562, 1000.000000000000000 ) ;
#1339 = VERTEX_POINT ( 'NONE', #1302 ) ;
#1340 = LINE ( 'NONE', #1335, #647 ) ;
#1341 = EDGE_CURVE ( 'NONE', #984, #640, #793, .T. ) ;
#1342 = VECTOR ( 'NONE', #463, 1000.000000000000000 ) ;
#1343 = CARTESIAN_POINT ( 'NONE',  ( 89.99999999999938893, -28.28427124746190913, -160.0000000000000853 ) ) ;
#1344 = PLANE ( 'NONE',  #331 ) ;
#1345 = AXIS2_PLACEMENT_3D ( 'NONE', #1319, #286, #1016 ) ;
#1346 = ORIENTED_EDGE ( 'NONE', *, *, #981, .F. ) ;
#1347 = CARTESIAN_POINT ( 'NONE',  ( 0.000000000000000000, 0.000000000000000000, -400.0000000000000000 ) ) ;
ENDSEC;
END-ISO-10303-21;
