ISO-10303-21;
HEADER;
FILE_DESCRIPTION(('STEP AP214'),'1');
FILE_NAME('chair hydraulic cylinder.stp','2023-04-06T03:05:32',(' '),(' '),'Spatial InterOp 3D',' ',' ');
FILE_SCHEMA(('AUTOMOTIVE_DESIGN { 1 0 10303 214 1 1 1 1 }'));
ENDSEC;
DATA;
#1=MECHANICAL_DESIGN_GEOMETRIC_PRESENTATION_REPRESENTATION(' ',(#26,#27,#28,#29,#30,#31,#32,#33,#34,#35,#36,#37,#38,#39,#40,#41,#42,#43,#44,#45,#46,#47,#48,#49,#50,#51,#52,#53),#22);
#2=PRODUCT_DEFINITION_CONTEXT('',#54,'design');
#3=APPLICATION_PROTOCOL_DEFINITION('INTERNATIONAL STANDARD','automotive_design',1994,#54);
#4=PRODUCT_CATEGORY_RELATIONSHIP('NONE','NONE',#55,#56);
#5=SHAPE_DEFINITION_REPRESENTATION(#57,#58);
#6=PRODUCT_DEFINITION_CONTEXT('',#59,'design');
#7=APPLICATION_PROTOCOL_DEFINITION('INTERNATIONAL STANDARD','automotive_design',1994,#59);
#8=PRODUCT_CATEGORY_RELATIONSHIP('NONE','NONE',#60,#61);
#9=SHAPE_DEFINITION_REPRESENTATION(#62,#63);
#10=PRODUCT_DEFINITION_CONTEXT('',#64,'design');
#11=APPLICATION_PROTOCOL_DEFINITION('INTERNATIONAL STANDARD','automotive_design',1994,#64);
#12=PRODUCT_CATEGORY_RELATIONSHIP('NONE','NONE',#65,#66);
#13=SHAPE_DEFINITION_REPRESENTATION(#67,#68);
#14=PRODUCT_DEFINITION_CONTEXT('',#69,'design');
#15=APPLICATION_PROTOCOL_DEFINITION('INTERNATIONAL STANDARD','automotive_design',1994,#69);
#16=PRODUCT_CATEGORY_RELATIONSHIP('NONE','NONE',#70,#71);
#17=SHAPE_DEFINITION_REPRESENTATION(#72,#73);
#18=PRODUCT_DEFINITION_CONTEXT('',#74,'design');
#19=APPLICATION_PROTOCOL_DEFINITION('INTERNATIONAL STANDARD','automotive_design',1994,#74);
#20=PRODUCT_CATEGORY_RELATIONSHIP('NONE','NONE',#75,#76);
#21=SHAPE_DEFINITION_REPRESENTATION(#77,#78);
#22= (GEOMETRIC_REPRESENTATION_CONTEXT(3)GLOBAL_UNCERTAINTY_ASSIGNED_CONTEXT((#81))GLOBAL_UNIT_ASSIGNED_CONTEXT((#83,#84,#85))REPRESENTATION_CONTEXT('NONE','WORKSPACE'));
#26=STYLED_ITEM('',(#87),#88);
#27=STYLED_ITEM('',(#89),#90);
#28=STYLED_ITEM('',(#91),#92);
#29=STYLED_ITEM('',(#93),#94);
#30=STYLED_ITEM('',(#95),#96);
#31=STYLED_ITEM('',(#97),#98);
#32=STYLED_ITEM('',(#99),#100);
#33=STYLED_ITEM('',(#101),#102);
#34=STYLED_ITEM('',(#103),#104);
#35=STYLED_ITEM('',(#105),#106);
#36=STYLED_ITEM('',(#107),#108);
#37=STYLED_ITEM('',(#109),#110);
#38=STYLED_ITEM('',(#111),#112);
#39=STYLED_ITEM('',(#113),#114);
#40=STYLED_ITEM('',(#115),#116);
#41=STYLED_ITEM('',(#117),#118);
#42=STYLED_ITEM('',(#119),#120);
#43=STYLED_ITEM('',(#121),#122);
#44=STYLED_ITEM('',(#123),#124);
#45=STYLED_ITEM('',(#125),#126);
#46=STYLED_ITEM('',(#127),#128);
#47=STYLED_ITEM('',(#129),#130);
#48=STYLED_ITEM('',(#131),#132);
#49=STYLED_ITEM('',(#133),#134);
#50=STYLED_ITEM('',(#135),#136);
#51=STYLED_ITEM('',(#137),#138);
#52=STYLED_ITEM('',(#139),#140);
#53=STYLED_ITEM('',(#141),#142);
#54=APPLICATION_CONTEXT(' ');
#55=PRODUCT_CATEGORY('part','NONE');
#56=PRODUCT_RELATED_PRODUCT_CATEGORY('detail',' ',(#143));
#57=PRODUCT_DEFINITION_SHAPE('NONE','NONE',#144);
#58=ADVANCED_BREP_SHAPE_REPRESENTATION('1680585598',(#145,#146),#22);
#59=APPLICATION_CONTEXT(' ');
#60=PRODUCT_CATEGORY('part','NONE');
#61=PRODUCT_RELATED_PRODUCT_CATEGORY('detail',' ',(#147));
#62=PRODUCT_DEFINITION_SHAPE('NONE','NONE',#148);
#63=ADVANCED_BREP_SHAPE_REPRESENTATION('1680585604',(#149,#150),#22);
#64=APPLICATION_CONTEXT(' ');
#65=PRODUCT_CATEGORY('part','NONE');
#66=PRODUCT_RELATED_PRODUCT_CATEGORY('detail',' ',(#151));
#67=PRODUCT_DEFINITION_SHAPE('NONE','NONE',#152);
#68=ADVANCED_BREP_SHAPE_REPRESENTATION('1680585610',(#153,#154),#22);
#69=APPLICATION_CONTEXT(' ');
#70=PRODUCT_CATEGORY('part','NONE');
#71=PRODUCT_RELATED_PRODUCT_CATEGORY('detail',' ',(#155));
#72=PRODUCT_DEFINITION_SHAPE('NONE','NONE',#156);
#73=ADVANCED_BREP_SHAPE_REPRESENTATION('1680597359',(#157,#158),#22);
#74=APPLICATION_CONTEXT(' ');
#75=PRODUCT_CATEGORY('part','NONE');
#76=PRODUCT_RELATED_PRODUCT_CATEGORY('detail',' ',(#159));
#77=PRODUCT_DEFINITION_SHAPE('NONE','NONE',#160);
#78=ADVANCED_BREP_SHAPE_REPRESENTATION('1680597583',(#161,#162),#22);
#81=UNCERTAINTY_MEASURE_WITH_UNIT(LENGTH_MEASURE(1.0E-06),#83,'','');
#83= (CONVERSION_BASED_UNIT('METRE',#165)LENGTH_UNIT()NAMED_UNIT(#168));
#84= (NAMED_UNIT(#170)PLANE_ANGLE_UNIT()SI_UNIT($,.RADIAN.));
#85= (NAMED_UNIT(#170)SOLID_ANGLE_UNIT()SI_UNIT($,.STERADIAN.));
#87=PRESENTATION_STYLE_ASSIGNMENT((#176));
#88=ADVANCED_FACE('',(#177,#178),#179,.T.);
#89=PRESENTATION_STYLE_ASSIGNMENT((#180));
#90=ADVANCED_FACE('',(#181,#182),#183,.T.);
#91=PRESENTATION_STYLE_ASSIGNMENT((#184));
#92=ADVANCED_FACE('',(#185,#186),#187,.F.);
#93=PRESENTATION_STYLE_ASSIGNMENT((#188));
#94=ADVANCED_FACE('',(#189,#190),#191,.T.);
#95=PRESENTATION_STYLE_ASSIGNMENT((#192));
#96=ADVANCED_FACE('',(#193,#194),#195,.F.);
#97=PRESENTATION_STYLE_ASSIGNMENT((#196));
#98=ADVANCED_FACE('',(#197,#198),#199,.T.);
#99=PRESENTATION_STYLE_ASSIGNMENT((#200));
#100=ADVANCED_FACE('',(#201,#202),#203,.T.);
#101=PRESENTATION_STYLE_ASSIGNMENT((#204));
#102=ADVANCED_FACE('',(#205),#206,.T.);
#103=PRESENTATION_STYLE_ASSIGNMENT((#207));
#104=ADVANCED_FACE('',(#208),#209,.T.);
#105=PRESENTATION_STYLE_ASSIGNMENT((#210));
#106=ADVANCED_FACE('',(#211,#212),#213,.T.);
#107=PRESENTATION_STYLE_ASSIGNMENT((#214));
#108=ADVANCED_FACE('',(#215,#216),#217,.T.);
#109=PRESENTATION_STYLE_ASSIGNMENT((#218));
#110=ADVANCED_FACE('',(#219,#220),#221,.F.);
#111=PRESENTATION_STYLE_ASSIGNMENT((#222));
#112=ADVANCED_FACE('',(#223,#224),#225,.F.);
#113=PRESENTATION_STYLE_ASSIGNMENT((#226));
#114=ADVANCED_FACE('',(#227,#228),#229,.T.);
#115=PRESENTATION_STYLE_ASSIGNMENT((#230));
#116=ADVANCED_FACE('',(#231,#232),#233,.F.);
#117=PRESENTATION_STYLE_ASSIGNMENT((#234));
#118=ADVANCED_FACE('',(#235,#236),#237,.T.);
#119=PRESENTATION_STYLE_ASSIGNMENT((#238));
#120=ADVANCED_FACE('',(#239,#240),#241,.F.);
#121=PRESENTATION_STYLE_ASSIGNMENT((#242));
#122=ADVANCED_FACE('',(#243,#244),#245,.T.);
#123=PRESENTATION_STYLE_ASSIGNMENT((#246));
#124=ADVANCED_FACE('',(#247,#248),#249,.F.);
#125=PRESENTATION_STYLE_ASSIGNMENT((#250));
#126=ADVANCED_FACE('',(#251,#252),#253,.T.);
#127=PRESENTATION_STYLE_ASSIGNMENT((#254));
#128=ADVANCED_FACE('',(#255,#256),#257,.F.);
#129=PRESENTATION_STYLE_ASSIGNMENT((#258));
#130=ADVANCED_FACE('',(#259,#260),#261,.T.);
#131=PRESENTATION_STYLE_ASSIGNMENT((#262));
#132=ADVANCED_FACE('',(#263,#264),#265,.T.);
#133=PRESENTATION_STYLE_ASSIGNMENT((#266));
#134=ADVANCED_FACE('',(#267,#268),#269,.T.);
#135=PRESENTATION_STYLE_ASSIGNMENT((#270));
#136=ADVANCED_FACE('',(#271),#272,.T.);
#137=PRESENTATION_STYLE_ASSIGNMENT((#273));
#138=ADVANCED_FACE('',(#274),#275,.T.);
#139=PRESENTATION_STYLE_ASSIGNMENT((#276));
#140=ADVANCED_FACE('',(#277,#278),#279,.T.);
#141=PRESENTATION_STYLE_ASSIGNMENT((#280));
#142=ADVANCED_FACE('',(#281,#282),#283,.T.);
#143=PRODUCT('1680585598','1680585598','PART-1680585598-DESC',(#284));
#144=PRODUCT_DEFINITION('','NONE',#285,#2);
#145=MANIFOLD_SOLID_BREP('1680585598',#286);
#146=AXIS2_PLACEMENT_3D('',#287,#288,#289);
#147=PRODUCT('1680585604','1680585604','PART-1680585604-DESC',(#290));
#148=PRODUCT_DEFINITION('','NONE',#291,#6);
#149=MANIFOLD_SOLID_BREP('1680585604',#292);
#150=AXIS2_PLACEMENT_3D('',#293,#294,#295);
#151=PRODUCT('1680585610','1680585610','PART-1680585610-DESC',(#296));
#152=PRODUCT_DEFINITION('','NONE',#297,#10);
#153=MANIFOLD_SOLID_BREP('1680585610',#298);
#154=AXIS2_PLACEMENT_3D('',#299,#300,#301);
#155=PRODUCT('1680597359','1680597359','PART-1680597359-DESC',(#302));
#156=PRODUCT_DEFINITION('','NONE',#303,#14);
#157=MANIFOLD_SOLID_BREP('1680597359',#304);
#158=AXIS2_PLACEMENT_3D('',#305,#306,#307);
#159=PRODUCT('1680597583','1680597583','PART-1680597583-DESC',(#308));
#160=PRODUCT_DEFINITION('','NONE',#309,#18);
#161=MANIFOLD_SOLID_BREP('1680597583',#310);
#162=AXIS2_PLACEMENT_3D('',#311,#312,#313);
#165=LENGTH_MEASURE_WITH_UNIT(LENGTH_MEASURE(1.0),#314);
#168=DIMENSIONAL_EXPONENTS(1.0,0.0,0.0,0.0,0.0,0.0,0.0);
#170=DIMENSIONAL_EXPONENTS(0.0,0.0,0.0,0.0,0.0,0.0,0.0);
#176=SURFACE_STYLE_USAGE(.BOTH.,#315);
#177=FACE_BOUND('',#316,.T.);
#178=FACE_OUTER_BOUND('',#317,.T.);
#179=PLANE('',#318);
#180=SURFACE_STYLE_USAGE(.BOTH.,#319);
#181=FACE_OUTER_BOUND('',#320,.T.);
#182=FACE_OUTER_BOUND('',#321,.T.);
#183=CYLINDRICAL_SURFACE('',#322,0.0254);
#184=SURFACE_STYLE_USAGE(.BOTH.,#323);
#185=FACE_OUTER_BOUND('',#324,.T.);
#186=FACE_OUTER_BOUND('',#325,.T.);
#187=CYLINDRICAL_SURFACE('',#326,0.01397);
#188=SURFACE_STYLE_USAGE(.BOTH.,#327);
#189=FACE_OUTER_BOUND('',#328,.T.);
#190=FACE_OUTER_BOUND('',#329,.T.);
#191=TOROIDAL_SURFACE('',#330,0.0164,0.009);
#192=SURFACE_STYLE_USAGE(.BOTH.,#331);
#193=FACE_OUTER_BOUND('',#332,.T.);
#194=FACE_OUTER_BOUND('',#333,.T.);
#195=TOROIDAL_SURFACE('',#334,0.031,0.012);
#196=SURFACE_STYLE_USAGE(.BOTH.,#335);
#197=FACE_OUTER_BOUND('',#336,.T.);
#198=FACE_OUTER_BOUND('',#337,.T.);
#199=TOROIDAL_SURFACE('',#338,0.011,0.008);
#200=SURFACE_STYLE_USAGE(.BOTH.,#339);
#201=FACE_OUTER_BOUND('',#340,.T.);
#202=FACE_OUTER_BOUND('',#341,.T.);
#203=CYLINDRICAL_SURFACE('',#342,0.019);
#204=SURFACE_STYLE_USAGE(.BOTH.,#343);
#205=FACE_OUTER_BOUND('',#344,.T.);
#206=PLANE('',#345);
#207=SURFACE_STYLE_USAGE(.BOTH.,#346);
#208=FACE_OUTER_BOUND('',#347,.T.);
#209=PLANE('',#348);
#210=SURFACE_STYLE_USAGE(.BOTH.,#349);
#211=FACE_OUTER_BOUND('',#350,.T.);
#212=FACE_OUTER_BOUND('',#351,.T.);
#213=CYLINDRICAL_SURFACE('',#352,0.0254);
#214=SURFACE_STYLE_USAGE(.BOTH.,#353);
#215=FACE_BOUND('',#354,.T.);
#216=FACE_OUTER_BOUND('',#355,.T.);
#217=PLANE('',#356);
#218=SURFACE_STYLE_USAGE(.BOTH.,#357);
#219=FACE_BOUND('',#358,.T.);
#220=FACE_OUTER_BOUND('',#359,.T.);
#221=PLANE('',#360);
#222=SURFACE_STYLE_USAGE(.BOTH.,#361);
#223=FACE_OUTER_BOUND('',#362,.T.);
#224=FACE_OUTER_BOUND('',#363,.T.);
#225=CYLINDRICAL_SURFACE('',#364,0.016);
#226=SURFACE_STYLE_USAGE(.BOTH.,#365);
#227=FACE_OUTER_BOUND('',#366,.T.);
#228=FACE_BOUND('',#367,.T.);
#229=PLANE('',#368);
#230=SURFACE_STYLE_USAGE(.BOTH.,#369);
#231=FACE_BOUND('',#370,.T.);
#232=FACE_OUTER_BOUND('',#371,.T.);
#233=PLANE('',#372);
#234=SURFACE_STYLE_USAGE(.BOTH.,#373);
#235=FACE_OUTER_BOUND('',#374,.T.);
#236=FACE_OUTER_BOUND('',#375,.T.);
#237=CYLINDRICAL_SURFACE('',#376,0.013);
#238=SURFACE_STYLE_USAGE(.BOTH.,#377);
#239=FACE_OUTER_BOUND('',#378,.T.);
#240=FACE_OUTER_BOUND('',#379,.T.);
#241=CYLINDRICAL_SURFACE('',#380,0.005);
#242=SURFACE_STYLE_USAGE(.BOTH.,#381);
#243=FACE_OUTER_BOUND('',#382,.T.);
#244=FACE_OUTER_BOUND('',#383,.T.);
#245=TOROIDAL_SURFACE('',#384,0.01,0.003);
#246=SURFACE_STYLE_USAGE(.BOTH.,#385);
#247=FACE_OUTER_BOUND('',#386,.T.);
#248=FACE_OUTER_BOUND('',#387,.T.);
#249=CYLINDRICAL_SURFACE('',#388,0.013);
#250=SURFACE_STYLE_USAGE(.BOTH.,#389);
#251=FACE_OUTER_BOUND('',#390,.T.);
#252=FACE_OUTER_BOUND('',#391,.T.);
#253=CYLINDRICAL_SURFACE('',#392,0.016);
#254=SURFACE_STYLE_USAGE(.BOTH.,#393);
#255=FACE_BOUND('',#394,.T.);
#256=FACE_OUTER_BOUND('',#395,.T.);
#257=PLANE('',#396);
#258=SURFACE_STYLE_USAGE(.BOTH.,#397);
#259=FACE_BOUND('',#398,.T.);
#260=FACE_OUTER_BOUND('',#399,.T.);
#261=PLANE('',#400);
#262=SURFACE_STYLE_USAGE(.BOTH.,#401);
#263=FACE_BOUND('',#402,.T.);
#264=FACE_OUTER_BOUND('',#403,.T.);
#265=PLANE('',#404);
#266=SURFACE_STYLE_USAGE(.BOTH.,#405);
#267=FACE_OUTER_BOUND('',#406,.T.);
#268=FACE_OUTER_BOUND('',#407,.T.);
#269=CYLINDRICAL_SURFACE('',#408,0.009);
#270=SURFACE_STYLE_USAGE(.BOTH.,#409);
#271=FACE_OUTER_BOUND('',#410,.T.);
#272=PLANE('',#411);
#273=SURFACE_STYLE_USAGE(.BOTH.,#412);
#274=FACE_OUTER_BOUND('',#413,.T.);
#275=PLANE('',#414);
#276=SURFACE_STYLE_USAGE(.BOTH.,#415);
#277=FACE_OUTER_BOUND('',#416,.T.);
#278=FACE_OUTER_BOUND('',#417,.T.);
#279=CYLINDRICAL_SURFACE('',#418,0.005);
#280=SURFACE_STYLE_USAGE(.BOTH.,#419);
#281=FACE_OUTER_BOUND('',#420,.T.);
#282=FACE_OUTER_BOUND('',#421,.T.);
#283=TOROIDAL_SURFACE('',#422,0.004,0.001);
#284=PRODUCT_CONTEXT('',#54,'mechanical');
#285=PRODUCT_DEFINITION_FORMATION_WITH_SPECIFIED_SOURCE(' ','NONE',#143,.NOT_KNOWN.);
#286=CLOSED_SHELL('',(#88,#90,#92,#94,#96,#98,#100,#102,#104));
#287=CARTESIAN_POINT('',(0.0,0.0,0.0));
#288=DIRECTION('',(0.0,0.0,1.0));
#289=DIRECTION('',(1.0,0.0,0.0));
#290=PRODUCT_CONTEXT('',#59,'mechanical');
#291=PRODUCT_DEFINITION_FORMATION_WITH_SPECIFIED_SOURCE(' ','NONE',#147,.NOT_KNOWN.);
#292=CLOSED_SHELL('',(#106,#108,#110,#112));
#293=CARTESIAN_POINT('',(0.0,0.0,0.0));
#294=DIRECTION('',(0.0,0.0,1.0));
#295=DIRECTION('',(1.0,0.0,0.0));
#296=PRODUCT_CONTEXT('',#64,'mechanical');
#297=PRODUCT_DEFINITION_FORMATION_WITH_SPECIFIED_SOURCE(' ','NONE',#151,.NOT_KNOWN.);
#298=CLOSED_SHELL('',(#114,#116,#118,#120,#122));
#299=CARTESIAN_POINT('',(0.0,0.0,0.0));
#300=DIRECTION('',(0.0,0.0,1.0));
#301=DIRECTION('',(1.0,0.0,0.0));
#302=PRODUCT_CONTEXT('',#69,'mechanical');
#303=PRODUCT_DEFINITION_FORMATION_WITH_SPECIFIED_SOURCE(' ','NONE',#155,.NOT_KNOWN.);
#304=CLOSED_SHELL('',(#124,#126,#128,#130));
#305=CARTESIAN_POINT('',(0.0,0.0,0.0));
#306=DIRECTION('',(0.0,0.0,1.0));
#307=DIRECTION('',(1.0,0.0,0.0));
#308=PRODUCT_CONTEXT('',#74,'mechanical');
#309=PRODUCT_DEFINITION_FORMATION_WITH_SPECIFIED_SOURCE(' ','NONE',#159,.NOT_KNOWN.);
#310=CLOSED_SHELL('',(#132,#134,#136,#138,#140,#142));
#311=CARTESIAN_POINT('',(0.0,0.0,0.0));
#312=DIRECTION('',(0.0,0.0,1.0));
#313=DIRECTION('',(1.0,0.0,0.0));
#314= (NAMED_UNIT(#168)LENGTH_UNIT()SI_UNIT($,.METRE.));
#315=SURFACE_SIDE_STYLE('',(#424));
#316=EDGE_LOOP('',(#425));
#317=EDGE_LOOP('',(#426));
#318=AXIS2_PLACEMENT_3D('',#427,#428,#429);
#319=SURFACE_SIDE_STYLE('',(#430));
#320=EDGE_LOOP('',(#431));
#321=EDGE_LOOP('',(#432));
#322=AXIS2_PLACEMENT_3D('',#433,#434,#435);
#323=SURFACE_SIDE_STYLE('',(#436));
#324=EDGE_LOOP('',(#437));
#325=EDGE_LOOP('',(#438));
#326=AXIS2_PLACEMENT_3D('',#439,#440,#441);
#327=SURFACE_SIDE_STYLE('',(#442));
#328=EDGE_LOOP('',(#443));
#329=EDGE_LOOP('',(#444));
#330=AXIS2_PLACEMENT_3D('',#445,#446,#447);
#331=SURFACE_SIDE_STYLE('',(#448));
#332=EDGE_LOOP('',(#449));
#333=EDGE_LOOP('',(#450));
#334=AXIS2_PLACEMENT_3D('',#451,#452,#453);
#335=SURFACE_SIDE_STYLE('',(#454));
#336=EDGE_LOOP('',(#455));
#337=EDGE_LOOP('',(#456));
#338=AXIS2_PLACEMENT_3D('',#457,#458,#459);
#339=SURFACE_SIDE_STYLE('',(#460));
#340=EDGE_LOOP('',(#461));
#341=EDGE_LOOP('',(#462));
#342=AXIS2_PLACEMENT_3D('',#463,#464,#465);
#343=SURFACE_SIDE_STYLE('',(#466));
#344=EDGE_LOOP('',(#467));
#345=AXIS2_PLACEMENT_3D('',#468,#469,#470);
#346=SURFACE_SIDE_STYLE('',(#471));
#347=EDGE_LOOP('',(#472));
#348=AXIS2_PLACEMENT_3D('',#473,#474,#475);
#349=SURFACE_SIDE_STYLE('',(#476));
#350=EDGE_LOOP('',(#477));
#351=EDGE_LOOP('',(#478));
#352=AXIS2_PLACEMENT_3D('',#479,#480,#481);
#353=SURFACE_SIDE_STYLE('',(#482));
#354=EDGE_LOOP('',(#483));
#355=EDGE_LOOP('',(#484));
#356=AXIS2_PLACEMENT_3D('',#485,#486,#487);
#357=SURFACE_SIDE_STYLE('',(#488));
#358=EDGE_LOOP('',(#489));
#359=EDGE_LOOP('',(#490));
#360=AXIS2_PLACEMENT_3D('',#491,#492,#493);
#361=SURFACE_SIDE_STYLE('',(#494));
#362=EDGE_LOOP('',(#495));
#363=EDGE_LOOP('',(#496));
#364=AXIS2_PLACEMENT_3D('',#497,#498,#499);
#365=SURFACE_SIDE_STYLE('',(#500));
#366=EDGE_LOOP('',(#501));
#367=EDGE_LOOP('',(#502));
#368=AXIS2_PLACEMENT_3D('',#503,#504,#505);
#369=SURFACE_SIDE_STYLE('',(#506));
#370=EDGE_LOOP('',(#507));
#371=EDGE_LOOP('',(#508));
#372=AXIS2_PLACEMENT_3D('',#509,#510,#511);
#373=SURFACE_SIDE_STYLE('',(#512));
#374=EDGE_LOOP('',(#513));
#375=EDGE_LOOP('',(#514));
#376=AXIS2_PLACEMENT_3D('',#515,#516,#517);
#377=SURFACE_SIDE_STYLE('',(#518));
#378=EDGE_LOOP('',(#519));
#379=EDGE_LOOP('',(#520));
#380=AXIS2_PLACEMENT_3D('',#521,#522,#523);
#381=SURFACE_SIDE_STYLE('',(#524));
#382=EDGE_LOOP('',(#525));
#383=EDGE_LOOP('',(#526));
#384=AXIS2_PLACEMENT_3D('',#527,#528,#529);
#385=SURFACE_SIDE_STYLE('',(#530));
#386=EDGE_LOOP('',(#531));
#387=EDGE_LOOP('',(#532));
#388=AXIS2_PLACEMENT_3D('',#533,#534,#535);
#389=SURFACE_SIDE_STYLE('',(#536));
#390=EDGE_LOOP('',(#537));
#391=EDGE_LOOP('',(#538));
#392=AXIS2_PLACEMENT_3D('',#539,#540,#541);
#393=SURFACE_SIDE_STYLE('',(#542));
#394=EDGE_LOOP('',(#543));
#395=EDGE_LOOP('',(#544));
#396=AXIS2_PLACEMENT_3D('',#545,#546,#547);
#397=SURFACE_SIDE_STYLE('',(#548));
#398=EDGE_LOOP('',(#549));
#399=EDGE_LOOP('',(#550));
#400=AXIS2_PLACEMENT_3D('',#551,#552,#553);
#401=SURFACE_SIDE_STYLE('',(#554));
#402=EDGE_LOOP('',(#555));
#403=EDGE_LOOP('',(#556));
#404=AXIS2_PLACEMENT_3D('',#557,#558,#559);
#405=SURFACE_SIDE_STYLE('',(#560));
#406=EDGE_LOOP('',(#561));
#407=EDGE_LOOP('',(#562));
#408=AXIS2_PLACEMENT_3D('',#563,#564,#565);
#409=SURFACE_SIDE_STYLE('',(#566));
#410=EDGE_LOOP('',(#567));
#411=AXIS2_PLACEMENT_3D('',#568,#569,#570);
#412=SURFACE_SIDE_STYLE('',(#571));
#413=EDGE_LOOP('',(#572));
#414=AXIS2_PLACEMENT_3D('',#573,#574,#575);
#415=SURFACE_SIDE_STYLE('',(#576));
#416=EDGE_LOOP('',(#577));
#417=EDGE_LOOP('',(#578));
#418=AXIS2_PLACEMENT_3D('',#579,#580,#581);
#419=SURFACE_SIDE_STYLE('',(#582));
#420=EDGE_LOOP('',(#583));
#421=EDGE_LOOP('',(#584));
#422=AXIS2_PLACEMENT_3D('',#585,#586,#587);
#424=SURFACE_STYLE_FILL_AREA(#588);
#425=ORIENTED_EDGE('',*,*,#589,.F.);
#426=ORIENTED_EDGE('',*,*,#590,.F.);
#427=CARTESIAN_POINT('',(0.0,0.0,0.24638));
#428=DIRECTION('',(0.0,0.0,1.0));
#429=DIRECTION('',(1.0,0.0,0.0));
#430=SURFACE_STYLE_FILL_AREA(#591);
#431=ORIENTED_EDGE('',*,*,#592,.T.);
#432=ORIENTED_EDGE('',*,*,#590,.T.);
#433=CARTESIAN_POINT('',(0.0,0.0,0.0));
#434=DIRECTION('',(0.0,0.0,1.0));
#435=DIRECTION('',(1.0,0.0,0.0));
#436=SURFACE_STYLE_FILL_AREA(#593);
#437=ORIENTED_EDGE('',*,*,#589,.T.);
#438=ORIENTED_EDGE('',*,*,#594,.F.);
#439=CARTESIAN_POINT('',(0.0,0.0,0.0));
#440=DIRECTION('',(0.0,0.0,1.0));
#441=DIRECTION('',(1.0,0.0,0.0));
#442=SURFACE_STYLE_FILL_AREA(#595);
#443=ORIENTED_EDGE('',*,*,#596,.T.);
#444=ORIENTED_EDGE('',*,*,#592,.F.);
#445=CARTESIAN_POINT('',(0.0,0.0,0.0390962636914152));
#446=DIRECTION('',(-0.0,0.0,-1.0));
#447=DIRECTION('',(-1.0,0.0,0.0));
#448=SURFACE_STYLE_FILL_AREA(#597);
#449=ORIENTED_EDGE('',*,*,#596,.F.);
#450=ORIENTED_EDGE('',*,*,#598,.F.);
#451=CARTESIAN_POINT('',(0.0,0.0,0.0240018938801246));
#452=DIRECTION('',(-0.0,0.0,-1.0));
#453=DIRECTION('',(-1.0,0.0,0.0));
#454=SURFACE_STYLE_FILL_AREA(#599);
#455=ORIENTED_EDGE('',*,*,#600,.F.);
#456=ORIENTED_EDGE('',*,*,#601,.F.);
#457=CARTESIAN_POINT('',(0.0,0.0,0.008));
#458=DIRECTION('',(-0.0,0.0,-1.0));
#459=DIRECTION('',(-1.0,0.0,0.0));
#460=SURFACE_STYLE_FILL_AREA(#602);
#461=ORIENTED_EDGE('',*,*,#601,.T.);
#462=ORIENTED_EDGE('',*,*,#598,.T.);
#463=CARTESIAN_POINT('',(0.0,0.0,0.0));
#464=DIRECTION('',(0.0,0.0,1.0));
#465=DIRECTION('',(1.0,0.0,0.0));
#466=SURFACE_STYLE_FILL_AREA(#603);
#467=ORIENTED_EDGE('',*,*,#600,.T.);
#468=CARTESIAN_POINT('',(0.0,0.0,0.0));
#469=DIRECTION('',(-0.0,0.0,-1.0));
#470=DIRECTION('',(-1.0,0.0,0.0));
#471=SURFACE_STYLE_FILL_AREA(#604);
#472=ORIENTED_EDGE('',*,*,#594,.T.);
#473=CARTESIAN_POINT('',(0.0,0.0,0.03048));
#474=DIRECTION('',(0.0,0.0,1.0));
#475=DIRECTION('',(1.0,0.0,0.0));
#476=SURFACE_STYLE_FILL_AREA(#605);
#477=ORIENTED_EDGE('',*,*,#606,.F.);
#478=ORIENTED_EDGE('',*,*,#607,.T.);
#479=CARTESIAN_POINT('',(0.0,0.0,0.0));
#480=DIRECTION('',(0.0,0.0,1.0));
#481=DIRECTION('',(1.0,0.0,0.0));
#482=SURFACE_STYLE_FILL_AREA(#608);
#483=ORIENTED_EDGE('',*,*,#609,.F.);
#484=ORIENTED_EDGE('',*,*,#607,.F.);
#485=CARTESIAN_POINT('',(0.0,0.0,0.25138));
#486=DIRECTION('',(0.0,0.0,1.0));
#487=DIRECTION('',(1.0,0.0,0.0));
#488=SURFACE_STYLE_FILL_AREA(#610);
#489=ORIENTED_EDGE('',*,*,#611,.T.);
#490=ORIENTED_EDGE('',*,*,#606,.T.);
#491=CARTESIAN_POINT('',(0.0,0.0,0.24638));
#492=DIRECTION('',(0.0,0.0,1.0));
#493=DIRECTION('',(1.0,0.0,0.0));
#494=SURFACE_STYLE_FILL_AREA(#612);
#495=ORIENTED_EDGE('',*,*,#609,.T.);
#496=ORIENTED_EDGE('',*,*,#611,.F.);
#497=CARTESIAN_POINT('',(0.0,0.0,0.246379));
#498=DIRECTION('',(0.0,0.0,1.0));
#499=DIRECTION('',(1.0,0.0,-0.0));
#500=SURFACE_STYLE_FILL_AREA(#613);
#501=ORIENTED_EDGE('',*,*,#614,.T.);
#502=ORIENTED_EDGE('',*,*,#615,.F.);
#503=CARTESIAN_POINT('',(0.0,0.0,0.30696));
#504=DIRECTION('',(0.0,0.0,1.0));
#505=DIRECTION('',(1.0,0.0,0.0));
#506=SURFACE_STYLE_FILL_AREA(#616);
#507=ORIENTED_EDGE('',*,*,#617,.T.);
#508=ORIENTED_EDGE('',*,*,#618,.T.);
#509=CARTESIAN_POINT('',(0.0,0.0,0.09898));
#510=DIRECTION('',(0.0,0.0,1.0));
#511=DIRECTION('',(1.0,0.0,0.0));
#512=SURFACE_STYLE_FILL_AREA(#619);
#513=ORIENTED_EDGE('',*,*,#620,.T.);
#514=ORIENTED_EDGE('',*,*,#618,.F.);
#515=CARTESIAN_POINT('',(0.0,0.0,0.0));
#516=DIRECTION('',(0.0,0.0,1.0));
#517=DIRECTION('',(1.0,0.0,0.0));
#518=SURFACE_STYLE_FILL_AREA(#621);
#519=ORIENTED_EDGE('',*,*,#615,.T.);
#520=ORIENTED_EDGE('',*,*,#617,.F.);
#521=CARTESIAN_POINT('',(0.0,0.0,0.31496));
#522=DIRECTION('',(0.0,0.0,-1.0));
#523=DIRECTION('',(-1.0,0.0,0.0));
#524=SURFACE_STYLE_FILL_AREA(#622);
#525=ORIENTED_EDGE('',*,*,#614,.F.);
#526=ORIENTED_EDGE('',*,*,#620,.F.);
#527=CARTESIAN_POINT('',(0.0,0.0,0.30396));
#528=DIRECTION('',(0.0,0.0,1.0));
#529=DIRECTION('',(1.0,0.0,-0.0));
#530=SURFACE_STYLE_FILL_AREA(#623);
#531=ORIENTED_EDGE('',*,*,#624,.T.);
#532=ORIENTED_EDGE('',*,*,#625,.F.);
#533=CARTESIAN_POINT('',(0.0,0.0,0.0));
#534=DIRECTION('',(0.0,0.0,1.0));
#535=DIRECTION('',(1.0,0.0,0.0));
#536=SURFACE_STYLE_FILL_AREA(#626);
#537=ORIENTED_EDGE('',*,*,#627,.F.);
#538=ORIENTED_EDGE('',*,*,#628,.T.);
#539=CARTESIAN_POINT('',(0.0,0.0,0.246379));
#540=DIRECTION('',(0.0,0.0,1.0));
#541=DIRECTION('',(1.0,0.0,-0.0));
#542=SURFACE_STYLE_FILL_AREA(#629);
#543=ORIENTED_EDGE('',*,*,#625,.T.);
#544=ORIENTED_EDGE('',*,*,#628,.F.);
#545=CARTESIAN_POINT('',(0.0,0.0,0.24638));
#546=DIRECTION('',(0.0,0.0,1.0));
#547=DIRECTION('',(1.0,0.0,0.0));
#548=SURFACE_STYLE_FILL_AREA(#630);
#549=ORIENTED_EDGE('',*,*,#624,.F.);
#550=ORIENTED_EDGE('',*,*,#627,.T.);
#551=CARTESIAN_POINT('',(0.0,0.0,0.25138));
#552=DIRECTION('',(0.0,0.0,1.0));
#553=DIRECTION('',(1.0,0.0,0.0));
#554=SURFACE_STYLE_FILL_AREA(#631);
#555=ORIENTED_EDGE('',*,*,#632,.F.);
#556=ORIENTED_EDGE('',*,*,#633,.F.);
#557=CARTESIAN_POINT('',(0.0,0.0,0.09898));
#558=DIRECTION('',(0.0,-0.0,1.0));
#559=DIRECTION('',(1.0,0.0,0.0));
#560=SURFACE_STYLE_FILL_AREA(#634);
#561=ORIENTED_EDGE('',*,*,#635,.T.);
#562=ORIENTED_EDGE('',*,*,#633,.T.);
#563=CARTESIAN_POINT('',(0.0,0.0,0.09898));
#564=DIRECTION('',(0.0,0.0,-1.0));
#565=DIRECTION('',(-1.0,0.0,0.0));
#566=SURFACE_STYLE_FILL_AREA(#636);
#567=ORIENTED_EDGE('',*,*,#635,.F.);
#568=CARTESIAN_POINT('',(0.0,0.0,0.09598));
#569=DIRECTION('',(0.0,0.0,-1.0));
#570=DIRECTION('',(-1.0,0.0,0.0));
#571=SURFACE_STYLE_FILL_AREA(#637);
#572=ORIENTED_EDGE('',*,*,#638,.T.);
#573=CARTESIAN_POINT('',(0.0,0.0,0.31496));
#574=DIRECTION('',(0.0,-0.0,1.0));
#575=DIRECTION('',(1.0,0.0,0.0));
#576=SURFACE_STYLE_FILL_AREA(#639);
#577=ORIENTED_EDGE('',*,*,#640,.T.);
#578=ORIENTED_EDGE('',*,*,#632,.T.);
#579=CARTESIAN_POINT('',(0.0,0.0,0.31496));
#580=DIRECTION('',(0.0,0.0,-1.0));
#581=DIRECTION('',(-1.0,0.0,0.0));
#582=SURFACE_STYLE_FILL_AREA(#641);
#583=ORIENTED_EDGE('',*,*,#638,.F.);
#584=ORIENTED_EDGE('',*,*,#640,.F.);
#585=CARTESIAN_POINT('',(0.0,0.0,0.31396));
#586=DIRECTION('',(0.0,-0.0,1.0));
#587=DIRECTION('',(1.0,0.0,0.0));
#588=FILL_AREA_STYLE('',(#642));
#589=EDGE_CURVE('',#643,#643,#644,.T.);
#590=EDGE_CURVE('',#645,#645,#646,.F.);
#591=FILL_AREA_STYLE('',(#647));
#592=EDGE_CURVE('',#648,#648,#649,.F.);
#593=FILL_AREA_STYLE('',(#650));
#594=EDGE_CURVE('',#651,#651,#652,.T.);
#595=FILL_AREA_STYLE('',(#653));
#596=EDGE_CURVE('',#654,#654,#655,.T.);
#597=FILL_AREA_STYLE('',(#656));
#598=EDGE_CURVE('',#657,#657,#658,.T.);
#599=FILL_AREA_STYLE('',(#659));
#600=EDGE_CURVE('',#660,#660,#661,.T.);
#601=EDGE_CURVE('',#662,#662,#663,.F.);
#602=FILL_AREA_STYLE('',(#664));
#603=FILL_AREA_STYLE('',(#665));
#604=FILL_AREA_STYLE('',(#666));
#605=FILL_AREA_STYLE('',(#667));
#606=EDGE_CURVE('',#668,#668,#669,.F.);
#607=EDGE_CURVE('',#670,#670,#671,.F.);
#608=FILL_AREA_STYLE('',(#672));
#609=EDGE_CURVE('',#673,#673,#674,.T.);
#610=FILL_AREA_STYLE('',(#675));
#611=EDGE_CURVE('',#676,#676,#677,.T.);
#612=FILL_AREA_STYLE('',(#678));
#613=FILL_AREA_STYLE('',(#679));
#614=EDGE_CURVE('',#680,#680,#681,.T.);
#615=EDGE_CURVE('',#682,#682,#683,.T.);
#616=FILL_AREA_STYLE('',(#684));
#617=EDGE_CURVE('',#685,#685,#686,.F.);
#618=EDGE_CURVE('',#687,#687,#688,.F.);
#619=FILL_AREA_STYLE('',(#689));
#620=EDGE_CURVE('',#690,#690,#691,.F.);
#621=FILL_AREA_STYLE('',(#692));
#622=FILL_AREA_STYLE('',(#693));
#623=FILL_AREA_STYLE('',(#694));
#624=EDGE_CURVE('',#695,#695,#696,.T.);
#625=EDGE_CURVE('',#697,#697,#698,.T.);
#626=FILL_AREA_STYLE('',(#699));
#627=EDGE_CURVE('',#700,#700,#701,.T.);
#628=EDGE_CURVE('',#702,#702,#703,.T.);
#629=FILL_AREA_STYLE('',(#704));
#630=FILL_AREA_STYLE('',(#705));
#631=FILL_AREA_STYLE('',(#706));
#632=EDGE_CURVE('',#707,#707,#708,.F.);
#633=EDGE_CURVE('',#709,#709,#710,.T.);
#634=FILL_AREA_STYLE('',(#711));
#635=EDGE_CURVE('',#712,#712,#713,.T.);
#636=FILL_AREA_STYLE('',(#714));
#637=FILL_AREA_STYLE('',(#715));
#638=EDGE_CURVE('',#716,#716,#717,.T.);
#639=FILL_AREA_STYLE('',(#718));
#640=EDGE_CURVE('',#719,#719,#720,.F.);
#641=FILL_AREA_STYLE('',(#721));
#642=FILL_AREA_STYLE_COLOUR('',#722);
#643=VERTEX_POINT('',#723);
#644=CIRCLE('',#724,0.01397);
#645=VERTEX_POINT('',#725);
#646=CIRCLE('',#726,0.0254);
#647=FILL_AREA_STYLE_COLOUR('',#727);
#648=VERTEX_POINT('',#728);
#649=CIRCLE('',#729,0.0254);
#650=FILL_AREA_STYLE_COLOUR('',#730);
#651=VERTEX_POINT('',#731);
#652=CIRCLE('',#732,0.01397);
#653=FILL_AREA_STYLE_COLOUR('',#733);
#654=VERTEX_POINT('',#734);
#655=CIRCLE('',#735,0.0226571428571429);
#656=FILL_AREA_STYLE_COLOUR('',#736);
#657=VERTEX_POINT('',#737);
#658=CIRCLE('',#738,0.019);
#659=FILL_AREA_STYLE_COLOUR('',#739);
#660=VERTEX_POINT('',#740);
#661=CIRCLE('',#741,0.011);
#662=VERTEX_POINT('',#742);
#663=CIRCLE('',#743,0.019);
#664=FILL_AREA_STYLE_COLOUR('',#744);
#665=FILL_AREA_STYLE_COLOUR('',#745);
#666=FILL_AREA_STYLE_COLOUR('',#746);
#667=FILL_AREA_STYLE_COLOUR('',#747);
#668=VERTEX_POINT('',#748);
#669=CIRCLE('',#749,0.0254);
#670=VERTEX_POINT('',#750);
#671=CIRCLE('',#751,0.0254);
#672=FILL_AREA_STYLE_COLOUR('',#752);
#673=VERTEX_POINT('',#753);
#674=CIRCLE('',#754,0.016);
#675=FILL_AREA_STYLE_COLOUR('',#755);
#676=VERTEX_POINT('',#756);
#677=CIRCLE('',#757,0.016);
#678=FILL_AREA_STYLE_COLOUR('',#758);
#679=FILL_AREA_STYLE_COLOUR('',#759);
#680=VERTEX_POINT('',#760);
#681=CIRCLE('',#761,0.01);
#682=VERTEX_POINT('',#762);
#683=CIRCLE('',#763,0.005);
#684=FILL_AREA_STYLE_COLOUR('',#764);
#685=VERTEX_POINT('',#765);
#686=CIRCLE('',#766,0.005);
#687=VERTEX_POINT('',#767);
#688=CIRCLE('',#768,0.013);
#689=FILL_AREA_STYLE_COLOUR('',#769);
#690=VERTEX_POINT('',#770);
#691=CIRCLE('',#771,0.013);
#692=FILL_AREA_STYLE_COLOUR('',#772);
#693=FILL_AREA_STYLE_COLOUR('',#773);
#694=FILL_AREA_STYLE_COLOUR('',#774);
#695=VERTEX_POINT('',#775);
#696=CIRCLE('',#776,0.013);
#697=VERTEX_POINT('',#777);
#698=CIRCLE('',#778,0.013);
#699=FILL_AREA_STYLE_COLOUR('',#779);
#700=VERTEX_POINT('',#780);
#701=CIRCLE('',#781,0.016);
#702=VERTEX_POINT('',#782);
#703=CIRCLE('',#783,0.016);
#704=FILL_AREA_STYLE_COLOUR('',#784);
#705=FILL_AREA_STYLE_COLOUR('',#785);
#706=FILL_AREA_STYLE_COLOUR('',#786);
#707=VERTEX_POINT('',#787);
#708=CIRCLE('',#788,0.005);
#709=VERTEX_POINT('',#789);
#710=CIRCLE('',#790,0.009);
#711=FILL_AREA_STYLE_COLOUR('',#791);
#712=VERTEX_POINT('',#792);
#713=CIRCLE('',#793,0.009);
#714=FILL_AREA_STYLE_COLOUR('',#794);
#715=FILL_AREA_STYLE_COLOUR('',#795);
#716=VERTEX_POINT('',#796);
#717=CIRCLE('',#797,0.004);
#718=FILL_AREA_STYLE_COLOUR('',#798);
#719=VERTEX_POINT('',#799);
#720=CIRCLE('',#800,0.005);
#721=FILL_AREA_STYLE_COLOUR('',#801);
#722=COLOUR_RGB('',0.509803950786591,0.509803950786591,0.509803950786591);
#723=CARTESIAN_POINT('',(0.01397,0.0,0.24638));
#724=AXIS2_PLACEMENT_3D('',#802,#803,#804);
#725=CARTESIAN_POINT('',(0.0254,-6.22120573966855E-18,0.24638));
#726=AXIS2_PLACEMENT_3D('',#805,#806,#807);
#727=COLOUR_RGB('',0.509803950786591,0.509803950786591,0.509803950786591);
#728=CARTESIAN_POINT('',(-0.0254,-6.22120573966855E-18,0.0390962636914152));
#729=AXIS2_PLACEMENT_3D('',#808,#809,#810);
#730=COLOUR_RGB('',0.509803950786591,0.509803950786591,0.509803950786591);
#731=CARTESIAN_POINT('',(0.01397,0.0,0.03048));
#732=AXIS2_PLACEMENT_3D('',#811,#812,#813);
#733=COLOUR_RGB('',0.509803950786591,0.509803950786591,0.509803950786591);
#734=CARTESIAN_POINT('',(0.0226571428571429,0.0,0.032627248058005));
#735=AXIS2_PLACEMENT_3D('',#814,#815,#816);
#736=COLOUR_RGB('',0.509803950786591,0.509803950786591,0.509803950786591);
#737=CARTESIAN_POINT('',(-0.019,0.0,0.0240018938801246));
#738=AXIS2_PLACEMENT_3D('',#817,#818,#819);
#739=COLOUR_RGB('',0.509803950786591,0.509803950786591,0.509803950786591);
#740=CARTESIAN_POINT('',(-0.011,0.0,0.0));
#741=AXIS2_PLACEMENT_3D('',#820,#821,#822);
#742=CARTESIAN_POINT('',(-0.019,-4.65365783675994E-18,0.008));
#743=AXIS2_PLACEMENT_3D('',#823,#824,#825);
#744=COLOUR_RGB('',0.509803950786591,0.509803950786591,0.509803950786591);
#745=COLOUR_RGB('',0.509803950786591,0.509803950786591,0.509803950786591);
#746=COLOUR_RGB('',0.509803950786591,0.509803950786591,0.509803950786591);
#747=COLOUR_RGB('',0.0,0.501960813999176,0.752941191196442);
#748=CARTESIAN_POINT('',(0.0254,-6.22120573966855E-18,0.24638));
#749=AXIS2_PLACEMENT_3D('',#826,#827,#828);
#750=CARTESIAN_POINT('',(0.0254,-6.22120573966855E-18,0.25138));
#751=AXIS2_PLACEMENT_3D('',#829,#830,#831);
#752=COLOUR_RGB('',0.0,0.501960813999176,0.752941191196442);
#753=CARTESIAN_POINT('',(0.016,0.0,0.25138));
#754=AXIS2_PLACEMENT_3D('',#832,#833,#834);
#755=COLOUR_RGB('',0.0,0.501960813999176,0.752941191196442);
#756=CARTESIAN_POINT('',(0.016,0.0,0.24638));
#757=AXIS2_PLACEMENT_3D('',#835,#836,#837);
#758=COLOUR_RGB('',0.0,0.501960813999176,0.752941191196442);
#759=COLOUR_RGB('',0.556862771511078,0.556862771511078,0.666666686534882);
#760=CARTESIAN_POINT('',(0.01,0.0,0.30696));
#761=AXIS2_PLACEMENT_3D('',#838,#839,#840);
#762=CARTESIAN_POINT('',(0.005,0.0,0.30696));
#763=AXIS2_PLACEMENT_3D('',#841,#842,#843);
#764=COLOUR_RGB('',0.556862771511078,0.556862771511078,0.666666686534882);
#765=CARTESIAN_POINT('',(-0.005,-1.22464679914735E-18,0.09898));
#766=AXIS2_PLACEMENT_3D('',#844,#845,#846);
#767=CARTESIAN_POINT('',(0.013,-3.18408167778312E-18,0.09898));
#768=AXIS2_PLACEMENT_3D('',#847,#848,#849);
#769=COLOUR_RGB('',0.556862771511078,0.556862771511078,0.666666686534882);
#770=CARTESIAN_POINT('',(0.013,-3.18408167778312E-18,0.30396));
#771=AXIS2_PLACEMENT_3D('',#850,#851,#852);
#772=COLOUR_RGB('',0.556862771511078,0.556862771511078,0.666666686534882);
#773=COLOUR_RGB('',0.556862771511078,0.556862771511078,0.666666686534882);
#774=COLOUR_RGB('',0.501960813999176,0.0,0.0);
#775=CARTESIAN_POINT('',(0.013,0.0,0.25138));
#776=AXIS2_PLACEMENT_3D('',#853,#854,#855);
#777=CARTESIAN_POINT('',(0.013,0.0,0.24638));
#778=AXIS2_PLACEMENT_3D('',#856,#857,#858);
#779=COLOUR_RGB('',0.501960813999176,0.0,0.0);
#780=CARTESIAN_POINT('',(0.016,0.0,0.25138));
#781=AXIS2_PLACEMENT_3D('',#859,#860,#861);
#782=CARTESIAN_POINT('',(0.016,0.0,0.24638));
#783=AXIS2_PLACEMENT_3D('',#862,#863,#864);
#784=COLOUR_RGB('',0.501960813999176,0.0,0.0);
#785=COLOUR_RGB('',0.501960813999176,0.0,0.0);
#786=COLOUR_RGB('',1.0,0.0,0.501960813999176);
#787=CARTESIAN_POINT('',(-0.005,-1.22464679914735E-18,0.09898));
#788=AXIS2_PLACEMENT_3D('',#865,#866,#867);
#789=CARTESIAN_POINT('',(-0.009,0.0,0.09898));
#790=AXIS2_PLACEMENT_3D('',#868,#869,#870);
#791=COLOUR_RGB('',1.0,0.0,0.501960813999176);
#792=CARTESIAN_POINT('',(-0.009,0.0,0.09598));
#793=AXIS2_PLACEMENT_3D('',#871,#872,#873);
#794=COLOUR_RGB('',1.0,0.0,0.501960813999176);
#795=COLOUR_RGB('',1.0,0.0,0.501960813999176);
#796=CARTESIAN_POINT('',(0.004,0.0,0.31496));
#797=AXIS2_PLACEMENT_3D('',#874,#875,#876);
#798=COLOUR_RGB('',1.0,0.0,0.501960813999176);
#799=CARTESIAN_POINT('',(0.005,-1.22464679914735E-18,0.31396));
#800=AXIS2_PLACEMENT_3D('',#877,#878,#879);
#801=COLOUR_RGB('',1.0,0.0,0.501960813999176);
#802=CARTESIAN_POINT('',(0.0,0.0,0.24638));
#803=DIRECTION('',(0.0,0.0,1.0));
#804=DIRECTION('',(1.0,0.0,-0.0));
#805=CARTESIAN_POINT('',(0.0,0.0,0.24638));
#806=DIRECTION('',(0.0,0.0,1.0));
#807=DIRECTION('',(1.0,0.0,-0.0));
#808=CARTESIAN_POINT('',(0.0,0.0,0.0390962636914152));
#809=DIRECTION('',(-0.0,0.0,-1.0));
#810=DIRECTION('',(-1.0,0.0,0.0));
#811=CARTESIAN_POINT('',(0.0,0.0,0.03048));
#812=DIRECTION('',(0.0,0.0,1.0));
#813=DIRECTION('',(1.0,0.0,-0.0));
#814=CARTESIAN_POINT('',(0.0,0.0,0.032627248058005));
#815=DIRECTION('',(0.0,0.0,1.0));
#816=DIRECTION('',(1.0,0.0,-0.0));
#817=CARTESIAN_POINT('',(0.0,0.0,0.0240018938801246));
#818=DIRECTION('',(-0.0,0.0,-1.0));
#819=DIRECTION('',(-1.0,0.0,0.0));
#820=CARTESIAN_POINT('',(0.0,0.0,0.0));
#821=DIRECTION('',(-0.0,0.0,-1.0));
#822=DIRECTION('',(-1.0,0.0,0.0));
#823=CARTESIAN_POINT('',(0.0,0.0,0.008));
#824=DIRECTION('',(-0.0,0.0,-1.0));
#825=DIRECTION('',(-1.0,0.0,0.0));
#826=CARTESIAN_POINT('',(0.0,0.0,0.24638));
#827=DIRECTION('',(0.0,0.0,1.0));
#828=DIRECTION('',(1.0,0.0,-0.0));
#829=CARTESIAN_POINT('',(0.0,0.0,0.25138));
#830=DIRECTION('',(0.0,0.0,1.0));
#831=DIRECTION('',(1.0,0.0,-0.0));
#832=CARTESIAN_POINT('',(0.0,0.0,0.25138));
#833=DIRECTION('',(0.0,0.0,1.0));
#834=DIRECTION('',(1.0,0.0,-0.0));
#835=CARTESIAN_POINT('',(0.0,0.0,0.24638));
#836=DIRECTION('',(0.0,0.0,1.0));
#837=DIRECTION('',(1.0,0.0,-0.0));
#838=CARTESIAN_POINT('',(0.0,0.0,0.30696));
#839=DIRECTION('',(0.0,0.0,1.0));
#840=DIRECTION('',(1.0,0.0,-0.0));
#841=CARTESIAN_POINT('',(0.0,0.0,0.30696));
#842=DIRECTION('',(0.0,0.0,1.0));
#843=DIRECTION('',(1.0,0.0,-0.0));
#844=CARTESIAN_POINT('',(0.0,0.0,0.09898));
#845=DIRECTION('',(0.0,0.0,-1.0));
#846=DIRECTION('',(-1.0,0.0,0.0));
#847=CARTESIAN_POINT('',(0.0,0.0,0.09898));
#848=DIRECTION('',(0.0,0.0,1.0));
#849=DIRECTION('',(1.0,0.0,-0.0));
#850=CARTESIAN_POINT('',(0.0,0.0,0.30396));
#851=DIRECTION('',(0.0,0.0,1.0));
#852=DIRECTION('',(1.0,0.0,-0.0));
#853=CARTESIAN_POINT('',(0.0,0.0,0.25138));
#854=DIRECTION('',(0.0,0.0,1.0));
#855=DIRECTION('',(1.0,0.0,-0.0));
#856=CARTESIAN_POINT('',(0.0,0.0,0.24638));
#857=DIRECTION('',(0.0,0.0,1.0));
#858=DIRECTION('',(1.0,0.0,-0.0));
#859=CARTESIAN_POINT('',(0.0,0.0,0.25138));
#860=DIRECTION('',(0.0,0.0,1.0));
#861=DIRECTION('',(1.0,0.0,-0.0));
#862=CARTESIAN_POINT('',(0.0,0.0,0.24638));
#863=DIRECTION('',(0.0,0.0,1.0));
#864=DIRECTION('',(1.0,0.0,-0.0));
#865=CARTESIAN_POINT('',(0.0,0.0,0.09898));
#866=DIRECTION('',(0.0,0.0,-1.0));
#867=DIRECTION('',(-1.0,0.0,0.0));
#868=CARTESIAN_POINT('',(0.0,0.0,0.09898));
#869=DIRECTION('',(0.0,0.0,-1.0));
#870=DIRECTION('',(-1.0,0.0,0.0));
#871=CARTESIAN_POINT('',(0.0,0.0,0.09598));
#872=DIRECTION('',(0.0,-0.0,1.0));
#873=DIRECTION('',(-1.0,0.0,0.0));
#874=CARTESIAN_POINT('',(0.0,0.0,0.31496));
#875=DIRECTION('',(0.0,-0.0,1.0));
#876=DIRECTION('',(1.0,0.0,0.0));
#877=CARTESIAN_POINT('',(0.0,0.0,0.31396));
#878=DIRECTION('',(0.0,-0.0,1.0));
#879=DIRECTION('',(1.0,0.0,0.0));
#880=PRESENTATION_LAYER_ASSIGNMENT('LAYER0','',(#145,#149,#153,#157,#161));
ENDSEC;
END-ISO-10303-21;
